%TF.GenerationSoftware,KiCad,Pcbnew,8.0.1*%
%TF.CreationDate,2024-06-14T16:00:13-04:00*%
%TF.ProjectId,odc-1.2,6f64632d-312e-4322-9e6b-696361645f70,1.2.1*%
%TF.SameCoordinates,Original*%
%TF.FileFunction,Copper,L1,Top*%
%TF.FilePolarity,Positive*%
%FSLAX46Y46*%
G04 Gerber Fmt 4.6, Leading zero omitted, Abs format (unit mm)*
G04 Created by KiCad (PCBNEW 8.0.1) date 2024-06-14 16:00:13*
%MOMM*%
%LPD*%
G01*
G04 APERTURE LIST*
G04 Aperture macros list*
%AMRoundRect*
0 Rectangle with rounded corners*
0 $1 Rounding radius*
0 $2 $3 $4 $5 $6 $7 $8 $9 X,Y pos of 4 corners*
0 Add a 4 corners polygon primitive as box body*
4,1,4,$2,$3,$4,$5,$6,$7,$8,$9,$2,$3,0*
0 Add four circle primitives for the rounded corners*
1,1,$1+$1,$2,$3*
1,1,$1+$1,$4,$5*
1,1,$1+$1,$6,$7*
1,1,$1+$1,$8,$9*
0 Add four rect primitives between the rounded corners*
20,1,$1+$1,$2,$3,$4,$5,0*
20,1,$1+$1,$4,$5,$6,$7,0*
20,1,$1+$1,$6,$7,$8,$9,0*
20,1,$1+$1,$8,$9,$2,$3,0*%
G04 Aperture macros list end*
%TA.AperFunction,ComponentPad*%
%ADD10C,1.600000*%
%TD*%
%TA.AperFunction,ComponentPad*%
%ADD11C,1.440000*%
%TD*%
%TA.AperFunction,ComponentPad*%
%ADD12C,3.000000*%
%TD*%
%TA.AperFunction,ComponentPad*%
%ADD13RoundRect,0.250000X0.725000X-0.600000X0.725000X0.600000X-0.725000X0.600000X-0.725000X-0.600000X0*%
%TD*%
%TA.AperFunction,ComponentPad*%
%ADD14O,1.950000X1.700000*%
%TD*%
%TA.AperFunction,SMDPad,CuDef*%
%ADD15C,1.000000*%
%TD*%
%TA.AperFunction,ComponentPad*%
%ADD16O,1.600000X1.600000*%
%TD*%
%TA.AperFunction,ComponentPad*%
%ADD17R,2.200000X2.200000*%
%TD*%
%TA.AperFunction,ComponentPad*%
%ADD18O,2.200000X2.200000*%
%TD*%
%TA.AperFunction,ComponentPad*%
%ADD19C,5.600000*%
%TD*%
%TA.AperFunction,ComponentPad*%
%ADD20RoundRect,0.250000X-0.600000X-0.725000X0.600000X-0.725000X0.600000X0.725000X-0.600000X0.725000X0*%
%TD*%
%TA.AperFunction,ComponentPad*%
%ADD21O,1.700000X1.950000*%
%TD*%
%TA.AperFunction,ComponentPad*%
%ADD22R,1.398000X1.398000*%
%TD*%
%TA.AperFunction,ComponentPad*%
%ADD23C,1.398000*%
%TD*%
%TA.AperFunction,ConnectorPad*%
%ADD24C,0.787400*%
%TD*%
%TA.AperFunction,ComponentPad*%
%ADD25R,1.524000X1.524000*%
%TD*%
%TA.AperFunction,ComponentPad*%
%ADD26C,1.524000*%
%TD*%
%TA.AperFunction,ComponentPad*%
%ADD27R,1.270000X1.270000*%
%TD*%
%TA.AperFunction,ComponentPad*%
%ADD28C,1.270000*%
%TD*%
%TA.AperFunction,ComponentPad*%
%ADD29R,1.600000X1.600000*%
%TD*%
%TA.AperFunction,ComponentPad*%
%ADD30C,1.676400*%
%TD*%
%TA.AperFunction,ComponentPad*%
%ADD31C,1.778000*%
%TD*%
%TA.AperFunction,ComponentPad*%
%ADD32RoundRect,0.250000X-0.600000X-0.750000X0.600000X-0.750000X0.600000X0.750000X-0.600000X0.750000X0*%
%TD*%
%TA.AperFunction,ComponentPad*%
%ADD33O,1.700000X2.000000*%
%TD*%
%TA.AperFunction,ViaPad*%
%ADD34C,0.800000*%
%TD*%
%TA.AperFunction,Conductor*%
%ADD35C,0.300000*%
%TD*%
%TA.AperFunction,Conductor*%
%ADD36C,0.150000*%
%TD*%
%TA.AperFunction,Conductor*%
%ADD37C,0.200000*%
%TD*%
%TA.AperFunction,Conductor*%
%ADD38C,0.500000*%
%TD*%
G04 APERTURE END LIST*
D10*
%TO.P,C4,1*%
%TO.N,-12V*%
X114008000Y-77630000D03*
%TO.P,C4,2*%
%TO.N,GND*%
X114008000Y-80130000D03*
%TD*%
%TO.P,C3,1*%
%TO.N,GND*%
X127724000Y-70828000D03*
%TO.P,C3,2*%
%TO.N,+12V*%
X127724000Y-68328000D03*
%TD*%
D11*
%TO.P,RV2,1,1*%
%TO.N,Net-(R16-Pad2)*%
X132804000Y-72606000D03*
%TO.P,RV2,2,2*%
%TO.N,Net-(R1-Pad2)*%
X132804000Y-70066000D03*
%TO.P,RV2,3,3*%
X132804000Y-67526000D03*
%TD*%
D12*
%TO.P,TP11,1,1*%
%TO.N,VIN*%
X69950000Y-64300000D03*
%TD*%
D13*
%TO.P,J6,1,Pin_1*%
%TO.N,ADC_EXP1*%
X61000000Y-87900000D03*
D14*
%TO.P,J6,2,Pin_2*%
%TO.N,ADC_EXP2*%
X61000000Y-85400000D03*
%TO.P,J6,3,Pin_3*%
%TO.N,GND*%
X61000000Y-82900000D03*
%TO.P,J6,4,Pin_4*%
%TO.N,+3V3*%
X61000000Y-80400000D03*
%TD*%
D15*
%TO.P,TP9,1,1*%
%TO.N,+12V*%
X115350000Y-51700000D03*
%TD*%
D10*
%TO.P,C8,1*%
%TO.N,Net-(SW1-A)*%
X110452000Y-66296000D03*
%TO.P,C8,2*%
%TO.N,Net-(U2A--)*%
X110452000Y-68796000D03*
%TD*%
%TO.P,R2,1*%
%TO.N,Net-(J3-In)*%
X141694000Y-75146000D03*
D16*
%TO.P,R2,2*%
%TO.N,Net-(U2A-+)*%
X141694000Y-72606000D03*
%TD*%
D10*
%TO.P,R10,1*%
%TO.N,Net-(D1-A)*%
X66045000Y-93250000D03*
D16*
%TO.P,R10,2*%
%TO.N,Net-(J4-In)*%
X63505000Y-93250000D03*
%TD*%
D12*
%TO.P,TP7,1,1*%
%TO.N,GND*%
X121825000Y-53400000D03*
%TD*%
D10*
%TO.P,C1,1*%
%TO.N,+3V3*%
X56750000Y-63000000D03*
%TO.P,C1,2*%
%TO.N,GND*%
X54250000Y-63000000D03*
%TD*%
%TO.P,R13,1*%
%TO.N,GND*%
X105500000Y-52794000D03*
D16*
%TO.P,R13,2*%
%TO.N,-12V*%
X105500000Y-55334000D03*
%TD*%
D17*
%TO.P,D2,1,K*%
%TO.N,Net-(D1-A)*%
X68000000Y-80750000D03*
D18*
%TO.P,D2,2,A*%
%TO.N,GND*%
X68000000Y-83290000D03*
%TD*%
D10*
%TO.P,R3,1*%
%TO.N,Net-(SW1-A)*%
X113903000Y-66200000D03*
D16*
%TO.P,R3,2*%
%TO.N,Net-(U2A--)*%
X113903000Y-68740000D03*
%TD*%
D19*
%TO.P,H2,1,1*%
%TO.N,GND*%
X146000000Y-54000000D03*
%TD*%
D10*
%TO.P,R11,1*%
%TO.N,Net-(D1-A)*%
X71500000Y-75500000D03*
D16*
%TO.P,R11,2*%
%TO.N,+3V3*%
X71500000Y-72960000D03*
%TD*%
D20*
%TO.P,SW1,1,A*%
%TO.N,Net-(SW1-A)*%
X122133000Y-90513000D03*
D21*
%TO.P,SW1,2,B*%
%TO.N,Net-(J2-In)*%
X124633000Y-90513000D03*
%TO.P,SW1,3,C*%
%TO.N,Net-(J3-In)*%
X127133000Y-90513000D03*
%TD*%
D12*
%TO.P,TP6,1,1*%
%TO.N,GND*%
X146012000Y-82512000D03*
%TD*%
D22*
%TO.P,J1,1,In*%
%TO.N,Net-(J1-In)*%
X88124082Y-96520000D03*
D23*
%TO.P,J1,2,Ext*%
%TO.N,GND*%
X90664082Y-96520000D03*
%TD*%
D24*
%TO.P,J7,1,VCC*%
%TO.N,+3V3*%
X100805000Y-86581000D03*
%TO.P,J7,2,SWDIO*%
%TO.N,Net-(J5-SWDIO)*%
X100805000Y-87851000D03*
%TO.P,J7,3,~{RESET}*%
%TO.N,Net-(J5-RESET)*%
X99535000Y-86581000D03*
%TO.P,J7,4,SWCLK*%
%TO.N,Net-(J5-SWCLK)*%
X99535000Y-87851000D03*
%TO.P,J7,5,GND*%
%TO.N,GND*%
X98265000Y-86581000D03*
%TO.P,J7,6,SWO*%
%TO.N,unconnected-(J7-SWO-Pad6)*%
X98265000Y-87851000D03*
%TD*%
D22*
%TO.P,J4,1,In*%
%TO.N,Net-(J4-In)*%
X64000000Y-96520000D03*
D23*
%TO.P,J4,2,Ext*%
%TO.N,GND*%
X66540000Y-96520000D03*
%TD*%
D19*
%TO.P,H1,1,1*%
%TO.N,GND*%
X146000000Y-92000000D03*
%TD*%
D25*
%TO.P,U1,1,OUT1*%
%TO.N,VIN*%
X54750000Y-74120000D03*
D26*
%TO.P,U1,2,-IN1*%
X57290000Y-74120000D03*
%TO.P,U1,3,+IN1*%
%TO.N,Net-(D1-A)*%
X59830000Y-74120000D03*
%TO.P,U1,4,-VS*%
%TO.N,GND*%
X62370000Y-74120000D03*
%TO.P,U1,5,+IN2*%
%TO.N,unconnected-(U1-+IN2-Pad5)*%
X62370000Y-66500000D03*
%TO.P,U1,6,-IN2*%
%TO.N,unconnected-(U1--IN2-Pad6)*%
X59830000Y-66500000D03*
%TO.P,U1,7,OUT2*%
%TO.N,unconnected-(U1-OUT2-Pad7)*%
X57290000Y-66500000D03*
%TO.P,U1,8,+VS*%
%TO.N,+3V3*%
X54750000Y-66500000D03*
%TD*%
D10*
%TO.P,R15,1*%
%TO.N,Net-(R15-Pad1)*%
X122136000Y-84798000D03*
D16*
%TO.P,R15,2*%
%TO.N,Net-(U2B-+)*%
X124676000Y-84798000D03*
%TD*%
D19*
%TO.P,H4,1,1*%
%TO.N,GND*%
X54000000Y-92000000D03*
%TD*%
D10*
%TO.P,R8,1*%
%TO.N,TTL*%
X88000000Y-90500000D03*
D16*
%TO.P,R8,2*%
%TO.N,Net-(J1-In)*%
X88000000Y-93040000D03*
%TD*%
D27*
%TO.P,U3,1,+VIN(VCC)*%
%TO.N,+5V*%
X95350000Y-58600000D03*
D28*
%TO.P,U3,2,-VIN(GND)*%
%TO.N,GND*%
X97890000Y-58600000D03*
%TO.P,U3,5,-VOUT*%
%TO.N,-12V*%
X105510000Y-58600000D03*
%TO.P,U3,6,COMMON*%
%TO.N,GND*%
X108050000Y-58600000D03*
%TO.P,U3,7,+VOUT*%
%TO.N,+12V*%
X110590000Y-58600000D03*
%TD*%
D29*
%TO.P,C7,1*%
%TO.N,GND*%
X109309000Y-80099000D03*
D10*
%TO.P,C7,2*%
%TO.N,-12V*%
X109309000Y-77599000D03*
%TD*%
D22*
%TO.P,J2,1,In*%
%TO.N,Net-(J2-In)*%
X112248164Y-96520000D03*
D23*
%TO.P,J2,2,Ext*%
%TO.N,GND*%
X114788164Y-96520000D03*
%TD*%
D10*
%TO.P,R1,1*%
%TO.N,Net-(U2A-+)*%
X137884000Y-75146000D03*
D16*
%TO.P,R1,2*%
%TO.N,Net-(R1-Pad2)*%
X137884000Y-72606000D03*
%TD*%
D29*
%TO.P,C5,1*%
%TO.N,+5V*%
X95415200Y-53810000D03*
D10*
%TO.P,C5,2*%
%TO.N,GND*%
X97915200Y-53810000D03*
%TD*%
D17*
%TO.P,D1,1,K*%
%TO.N,+3V3*%
X68000000Y-73250000D03*
D18*
%TO.P,D1,2,A*%
%TO.N,Net-(D1-A)*%
X68000000Y-75790000D03*
%TD*%
D10*
%TO.P,R5,1*%
%TO.N,Net-(U2B--)*%
X127873000Y-75090000D03*
D16*
%TO.P,R5,2*%
%TO.N,VDAC*%
X127873000Y-77630000D03*
%TD*%
D19*
%TO.P,H3,1,1*%
%TO.N,GND*%
X54000000Y-54000000D03*
%TD*%
D10*
%TO.P,R12,1*%
%TO.N,GND*%
X71500000Y-83000000D03*
D16*
%TO.P,R12,2*%
%TO.N,Net-(D1-A)*%
X71500000Y-80460000D03*
%TD*%
D29*
%TO.P,C6,1*%
%TO.N,+12V*%
X127724000Y-64413112D03*
D10*
%TO.P,C6,2*%
%TO.N,GND*%
X127724000Y-61913112D03*
%TD*%
D12*
%TO.P,TP1,1,1*%
%TO.N,Net-(R1-Pad2)*%
X140932000Y-62446000D03*
%TD*%
D10*
%TO.P,R16,1*%
%TO.N,Net-(U2B--)*%
X131788000Y-77178000D03*
D16*
%TO.P,R16,2*%
%TO.N,Net-(R16-Pad2)*%
X134328000Y-77178000D03*
%TD*%
D22*
%TO.P,J3,1,In*%
%TO.N,Net-(J3-In)*%
X136372246Y-96520000D03*
D23*
%TO.P,J3,2,Ext*%
%TO.N,GND*%
X138912246Y-96520000D03*
%TD*%
D12*
%TO.P,TP4,1,1*%
%TO.N,VDAC*%
X133900000Y-83475000D03*
%TD*%
D10*
%TO.P,R9,1*%
%TO.N,TTL*%
X84571000Y-90500000D03*
D16*
%TO.P,R9,2*%
%TO.N,GND*%
X84571000Y-93040000D03*
%TD*%
D15*
%TO.P,TP10,1,1*%
%TO.N,-12V*%
X102200000Y-51700000D03*
%TD*%
D30*
%TO.P,J5,1,RESET*%
%TO.N,Net-(J5-RESET)*%
X75260000Y-51660000D03*
%TO.P,J5,2,3V3*%
%TO.N,+3V3*%
X75260000Y-54200000D03*
%TO.P,J5,3,AREF*%
%TO.N,unconnected-(J5-AREF-Pad3)*%
X75260000Y-56740000D03*
%TO.P,J5,4,Vhi*%
%TO.N,unconnected-(J5-Vhi-Pad4)*%
X75260000Y-59280000D03*
%TO.P,J5,5,A0*%
%TO.N,VDAC*%
X75260000Y-61820000D03*
%TO.P,J5,6,A1*%
%TO.N,unconnected-(J5-A1-Pad6)*%
X75260000Y-64360000D03*
%TO.P,J5,7,A2*%
%TO.N,unconnected-(J5-A2-Pad7)*%
X75260000Y-66900000D03*
%TO.P,J5,8,A3*%
%TO.N,VIN*%
X75260000Y-69440000D03*
%TO.P,J5,9,A4*%
%TO.N,ADC_EXP1*%
X75260000Y-71980000D03*
%TO.P,J5,10,A5*%
%TO.N,ADC_EXP2*%
X75260000Y-74520000D03*
%TO.P,J5,11,SCK*%
%TO.N,unconnected-(J5-SCK-Pad11)*%
X75260000Y-77060000D03*
%TO.P,J5,12,MOSI*%
%TO.N,unconnected-(J5-MOSI-Pad12)*%
X75260000Y-79600000D03*
%TO.P,J5,13,MISO*%
%TO.N,unconnected-(J5-MISO-Pad13)*%
X75260000Y-82140000D03*
%TO.P,J5,14,D2*%
%TO.N,unconnected-(J5-D2-Pad14)*%
X75260000Y-84680000D03*
%TO.P,J5,15,RX*%
%TO.N,unconnected-(J5-RX-Pad15)*%
X90500000Y-84680000D03*
%TO.P,J5,16,TX*%
%TO.N,unconnected-(J5-TX-Pad16)*%
X90500000Y-82140000D03*
%TO.P,J5,17,SDA*%
%TO.N,unconnected-(J5-SDA-Pad17)*%
X90500000Y-79600000D03*
%TO.P,J5,18,SCL*%
%TO.N,unconnected-(J5-SCL-Pad18)*%
X90500000Y-77060000D03*
%TO.P,J5,19,D5*%
%TO.N,unconnected-(J5-D5-Pad19)*%
X90500000Y-74520000D03*
%TO.P,J5,20,D7*%
%TO.N,unconnected-(J5-D7-Pad20)*%
X90500000Y-71980000D03*
%TO.P,J5,21,D9*%
%TO.N,TTL*%
X90500000Y-69440000D03*
%TO.P,J5,22,D10*%
%TO.N,unconnected-(J5-D10-Pad22)*%
X90500000Y-66900000D03*
%TO.P,J5,23,D11*%
%TO.N,unconnected-(J5-D11-Pad23)*%
X90500000Y-64360000D03*
%TO.P,J5,24,D12*%
%TO.N,unconnected-(J5-D12-Pad24)*%
X90500000Y-61820000D03*
%TO.P,J5,25,D13*%
%TO.N,unconnected-(J5-D13-Pad25)*%
X90500000Y-59280000D03*
%TO.P,J5,26,VBUS*%
%TO.N,+5V*%
X90500000Y-56740000D03*
%TO.P,J5,27,GND*%
%TO.N,GND*%
X90500000Y-54200000D03*
%TO.P,J5,28,VBAT*%
%TO.N,unconnected-(J5-VBAT-Pad28)*%
X90500001Y-51659999D03*
D31*
%TO.P,J5,29,EN*%
%TO.N,unconnected-(J5-EN-Pad29)*%
X77800000Y-84680000D03*
%TO.P,J5,30,SWDIO*%
%TO.N,Net-(J5-SWDIO)*%
X80340000Y-84680000D03*
%TO.P,J5,31,SWCLK*%
%TO.N,Net-(J5-SWCLK)*%
X82880000Y-84680000D03*
%TO.P,J5,32,D3*%
%TO.N,unconnected-(J5-D3-Pad32)*%
X85420000Y-84680000D03*
%TO.P,J5,33,D4*%
%TO.N,unconnected-(J5-D4-Pad33)*%
X87960000Y-84680000D03*
%TD*%
D10*
%TO.P,R14,1*%
%TO.N,GND*%
X110580000Y-52794000D03*
D16*
%TO.P,R14,2*%
%TO.N,+12V*%
X110580000Y-55334000D03*
%TD*%
D32*
%TO.P,SW2,1,1*%
%TO.N,Net-(J5-RESET)*%
X61750000Y-54150000D03*
D33*
%TO.P,SW2,2,2*%
%TO.N,GND*%
X64250000Y-54150000D03*
%TD*%
D10*
%TO.P,R7,1*%
%TO.N,Net-(J3-In)*%
X136360000Y-92480000D03*
D16*
%TO.P,R7,2*%
%TO.N,GND*%
X136360000Y-89940000D03*
%TD*%
D11*
%TO.P,RV1,1,1*%
%TO.N,Net-(R15-Pad1)*%
X114935000Y-85600000D03*
%TO.P,RV1,2,2*%
%TO.N,+3V3*%
X112395000Y-85600000D03*
%TO.P,RV1,3,3*%
%TO.N,GND*%
X109855000Y-85600000D03*
%TD*%
D10*
%TO.P,R4,1*%
%TO.N,Net-(U2A--)*%
X113903000Y-71915000D03*
D16*
%TO.P,R4,2*%
%TO.N,GND*%
X113903000Y-74455000D03*
%TD*%
D29*
%TO.P,U2,1*%
%TO.N,Net-(SW1-A)*%
X117088000Y-70020000D03*
D16*
%TO.P,U2,2,-*%
%TO.N,Net-(U2A--)*%
X117088000Y-72560000D03*
%TO.P,U2,3,+*%
%TO.N,Net-(U2A-+)*%
X117088000Y-75100000D03*
%TO.P,U2,4,V-*%
%TO.N,-12V*%
X117088000Y-77640000D03*
%TO.P,U2,5,+*%
%TO.N,Net-(U2B-+)*%
X124708000Y-77640000D03*
%TO.P,U2,6,-*%
%TO.N,Net-(U2B--)*%
X124708000Y-75100000D03*
%TO.P,U2,7*%
%TO.N,Net-(R1-Pad2)*%
X124708000Y-72560000D03*
%TO.P,U2,8,V+*%
%TO.N,+12V*%
X124708000Y-70020000D03*
%TD*%
D10*
%TO.P,R6,1*%
%TO.N,Net-(U2B-+)*%
X124901000Y-81496000D03*
D16*
%TO.P,R6,2*%
%TO.N,GND*%
X127441000Y-81496000D03*
%TD*%
D29*
%TO.P,C2,1*%
%TO.N,+3V3*%
X61750000Y-63000000D03*
D10*
%TO.P,C2,2*%
%TO.N,GND*%
X61750000Y-60500000D03*
%TD*%
D34*
%TO.N,Net-(SW1-A)*%
X119596000Y-73114000D03*
X119596000Y-80988000D03*
%TO.N,Net-(J5-RESET)*%
X93225000Y-65650000D03*
%TO.N,+3V3*%
X73325000Y-90650000D03*
%TO.N,VDAC*%
X99675000Y-63075000D03*
X122000000Y-67500000D03*
%TO.N,Net-(J5-SWCLK)*%
X89850000Y-86775000D03*
%TO.N,Net-(J5-SWDIO)*%
X89162176Y-87500881D03*
%TD*%
D35*
%TO.N,Net-(D1-A)*%
X68000000Y-80750000D02*
X71210000Y-80750000D01*
X61250000Y-75750000D02*
X59830000Y-74330000D01*
X68000000Y-80750000D02*
X68000000Y-75790000D01*
X65990001Y-82759999D02*
X68000000Y-80750000D01*
X67960000Y-75750000D02*
X61250000Y-75750000D01*
X71500000Y-75500000D02*
X68290000Y-75500000D01*
X65990001Y-92450001D02*
X65990001Y-82759999D01*
%TO.N,Net-(J1-In)*%
X88124082Y-96520000D02*
X88124082Y-93164082D01*
%TO.N,Net-(J2-In)*%
X124633000Y-91367000D02*
X124633000Y-90513000D01*
X112248164Y-96520000D02*
X112248164Y-95751836D01*
X122000000Y-94000000D02*
X124633000Y-91367000D01*
X112248164Y-95751836D02*
X114000000Y-94000000D01*
X114000000Y-94000000D02*
X122000000Y-94000000D01*
%TO.N,Net-(J3-In)*%
X136372246Y-96520000D02*
X136372246Y-92681246D01*
X129100000Y-92480000D02*
X127133000Y-90513000D01*
X141694000Y-87681000D02*
X136895000Y-92480000D01*
X141694000Y-75146000D02*
X141694000Y-87681000D01*
X136360000Y-92480000D02*
X129100000Y-92480000D01*
%TO.N,Net-(J4-In)*%
X63505000Y-93250000D02*
X63505000Y-96025000D01*
%TO.N,Net-(U2A-+)*%
X140909000Y-72606000D02*
X138369000Y-75146000D01*
X141694000Y-72606000D02*
X140909000Y-72606000D01*
%TO.N,Net-(R1-Pad2)*%
X132804000Y-70066000D02*
X130310000Y-72560000D01*
X140500000Y-69990000D02*
X140500000Y-62878000D01*
X130310000Y-72560000D02*
X124708000Y-72560000D01*
X132804000Y-67526000D02*
X132804000Y-70066000D01*
X137884000Y-72606000D02*
X140500000Y-69990000D01*
X137884000Y-72606000D02*
X135344000Y-70066000D01*
X135344000Y-70066000D02*
X132804000Y-70066000D01*
%TO.N,Net-(SW1-A)*%
X113903000Y-66200000D02*
X110548000Y-66200000D01*
X117088000Y-69385000D02*
X113903000Y-66200000D01*
X119596000Y-80988000D02*
X119596000Y-73114000D01*
%TO.N,Net-(U2A--)*%
X113903000Y-71915000D02*
X116443000Y-71915000D01*
X113903000Y-68740000D02*
X113903000Y-71915000D01*
X113903000Y-68740000D02*
X110508000Y-68740000D01*
X116443000Y-71915000D02*
X117088000Y-72560000D01*
%TO.N,Net-(U2B--)*%
X124708000Y-75100000D02*
X127863000Y-75100000D01*
X127873000Y-75090000D02*
X129700000Y-75090000D01*
X129700000Y-75090000D02*
X131788000Y-77178000D01*
%TO.N,Net-(U2B-+)*%
X124901000Y-81496000D02*
X124901000Y-77833000D01*
X124676000Y-84798000D02*
X124676000Y-81721000D01*
%TO.N,VIN*%
X57290000Y-74830000D02*
X57290000Y-74120000D01*
X55370000Y-75500000D02*
X56620000Y-75500000D01*
X54750000Y-74120000D02*
X54750000Y-74880000D01*
X56620000Y-75500000D02*
X57290000Y-74830000D01*
X54750000Y-74880000D02*
X55370000Y-75500000D01*
%TO.N,Net-(J5-RESET)*%
X75260000Y-51660000D02*
X63390000Y-51660000D01*
D36*
X93200000Y-65650000D02*
X93175000Y-65625000D01*
D37*
X100475000Y-85641000D02*
X100475000Y-72925000D01*
D35*
X61750000Y-53300000D02*
X61750000Y-54150000D01*
D37*
X99535000Y-86581000D02*
X100475000Y-85641000D01*
X100475000Y-72925000D02*
X93225000Y-65675000D01*
D36*
X93225000Y-65650000D02*
X93200000Y-65650000D01*
D35*
X63390000Y-51660000D02*
X61750000Y-53300000D01*
D37*
X93225000Y-65675000D02*
X93225000Y-65650000D01*
D38*
%TO.N,+3V3*%
X71500000Y-72960000D02*
X73325000Y-74785000D01*
X61750000Y-63000000D02*
X64350000Y-63000000D01*
D37*
X104500000Y-87475000D02*
X110850000Y-87475000D01*
D38*
X64350000Y-63000000D02*
X73150000Y-54200000D01*
X68000000Y-73250000D02*
X65500000Y-70750000D01*
D37*
X100805000Y-86581000D02*
X101086000Y-86300000D01*
D38*
X65500000Y-70750000D02*
X65500000Y-67000000D01*
X61750000Y-63000000D02*
X56750000Y-63000000D01*
X65500000Y-67000000D02*
X61750000Y-63250000D01*
X54750000Y-65000000D02*
X54750000Y-66500000D01*
D37*
X112395000Y-85930000D02*
X112395000Y-85600000D01*
D38*
X71500000Y-72960000D02*
X68290000Y-72960000D01*
D37*
X103325000Y-86300000D02*
X104500000Y-87475000D01*
D38*
X73325000Y-74785000D02*
X73325000Y-90650000D01*
X73150000Y-54200000D02*
X75260000Y-54200000D01*
D37*
X101086000Y-86300000D02*
X103325000Y-86300000D01*
X110850000Y-87475000D02*
X112395000Y-85930000D01*
D38*
X56750000Y-63000000D02*
X54750000Y-65000000D01*
%TO.N,+5V*%
X95400000Y-53850000D02*
X95400000Y-58550000D01*
X95350000Y-58600000D02*
X92400000Y-58600000D01*
X92400000Y-58600000D02*
X90540000Y-56740000D01*
D35*
%TO.N,VDAC*%
X122000000Y-67500000D02*
X122000000Y-74502000D01*
X77045000Y-63075000D02*
X75790000Y-61820000D01*
X126150000Y-76400000D02*
X127380000Y-77630000D01*
X123898000Y-76400000D02*
X126150000Y-76400000D01*
X122000000Y-74502000D02*
X123898000Y-76400000D01*
X99675000Y-63075000D02*
X77045000Y-63075000D01*
X127873000Y-77630000D02*
X133009000Y-82766000D01*
%TO.N,TTL*%
X86700000Y-85425000D02*
X86700000Y-73300000D01*
X84500000Y-90500000D02*
X84500000Y-87625000D01*
X84500000Y-87625000D02*
X86700000Y-85425000D01*
X88000000Y-90500000D02*
X84571000Y-90500000D01*
X86700000Y-73300000D02*
X90500000Y-69500000D01*
D38*
%TO.N,-12V*%
X105500000Y-55334000D02*
X105500000Y-58590000D01*
D37*
X105500000Y-55334000D02*
X103684000Y-55334000D01*
X102200000Y-53850000D02*
X102200000Y-51700000D01*
X103684000Y-55334000D02*
X102200000Y-53850000D01*
D38*
X105504000Y-58606000D02*
X105504000Y-73881000D01*
X109419600Y-77709600D02*
X117157600Y-77709600D01*
X109253000Y-77630000D02*
X114008000Y-77630000D01*
X117088000Y-77640000D02*
X114018000Y-77640000D01*
X105504000Y-73881000D02*
X109253000Y-77630000D01*
D37*
%TO.N,+12V*%
X113791000Y-55334000D02*
X115350000Y-53775000D01*
D38*
X127724000Y-64478000D02*
X127724000Y-68328000D01*
X110590000Y-58600000D02*
X121846000Y-58600000D01*
X127724000Y-68328000D02*
X127036000Y-68328000D01*
X125344000Y-70020000D02*
X124708000Y-70020000D01*
D37*
X110580000Y-55334000D02*
X113791000Y-55334000D01*
D38*
X121846000Y-58600000D02*
X127724000Y-64478000D01*
X127036000Y-68328000D02*
X125344000Y-70020000D01*
X110580000Y-55334000D02*
X110580000Y-58590000D01*
D37*
X115350000Y-53775000D02*
X115350000Y-51700000D01*
D38*
X127724000Y-64413112D02*
X127724000Y-68328000D01*
D35*
%TO.N,Net-(R16-Pad2)*%
X134328000Y-74130000D02*
X132804000Y-72606000D01*
X134328000Y-77178000D02*
X134328000Y-74130000D01*
%TO.N,Net-(R15-Pad1)*%
X114935000Y-85600000D02*
X115737000Y-84798000D01*
X115737000Y-84798000D02*
X122136000Y-84798000D01*
D37*
%TO.N,Net-(J5-SWCLK)*%
X94500000Y-91425000D02*
X89850000Y-86775000D01*
X100475000Y-90475000D02*
X99525000Y-91425000D01*
X99525000Y-91425000D02*
X94500000Y-91425000D01*
X100475000Y-88791000D02*
X100475000Y-90475000D01*
X99535000Y-87851000D02*
X100475000Y-88791000D01*
%TO.N,Net-(J5-SWDIO)*%
X93850000Y-92175000D02*
X102550000Y-92175000D01*
X101104000Y-88150000D02*
X100805000Y-87851000D01*
X102550000Y-92175000D02*
X103750000Y-90975000D01*
X103125000Y-88150000D02*
X101104000Y-88150000D01*
X103750000Y-88775000D02*
X103125000Y-88150000D01*
X89162176Y-87500881D02*
X89175881Y-87500881D01*
X89175881Y-87500881D02*
X93850000Y-92175000D01*
X103750000Y-90975000D02*
X103750000Y-88775000D01*
%TD*%
M02*
