M48
; DRILL file {KiCad 8.0.1} date 2024-04-27T15:38:12-0400
; FORMAT={-:-/ absolute / inch / decimal}
; #@! TF.CreationDate,2024-04-27T15:38:12-04:00
; #@! TF.GenerationSoftware,Kicad,Pcbnew,8.0.1
; #@! TF.FileFunction,Plated,1,2,PTH
FMAT,2
INCH
; #@! TA.AperFunction,Plated,PTH,ViaDrill
T1C0.0157
; #@! TA.AperFunction,Plated,PTH,ComponentDrill
T2C0.0300
; #@! TA.AperFunction,Plated,PTH,ComponentDrill
T3C0.0315
; #@! TA.AperFunction,Plated,PTH,ComponentDrill
T4C0.0320
; #@! TA.AperFunction,Plated,PTH,ComponentDrill
T5C0.0350
; #@! TA.AperFunction,Plated,PTH,ComponentDrill
T6C0.0374
; #@! TA.AperFunction,Plated,PTH,ComponentDrill
T7C0.0394
; #@! TA.AperFunction,Plated,PTH,ComponentDrill
T8C0.0433
; #@! TA.AperFunction,Plated,PTH,ComponentDrill
T9C0.0630
; #@! TA.AperFunction,Plated,PTH,ComponentDrill
T10C0.1260
%
G90
G05
T1
X2.8868Y-3.5689
X3.5103Y-3.4449
X3.5374Y-3.4163
X3.6703Y-2.5846
X3.9242Y-2.4833
X4.7085Y-2.8785
X4.7085Y-3.1885
X4.8031Y-2.6575
T2
X3.7539Y-2.3071
X3.8539Y-2.3071
X4.1539Y-2.3071
X4.2539Y-2.3071
X4.3539Y-2.3071
T3
X2.1358Y-2.4803
X2.2343Y-2.4803
X2.4311Y-2.3819
X2.4311Y-2.4803
X2.5002Y-3.6713
X2.6002Y-3.6713
X2.815Y-2.8724
X2.815Y-2.9724
X2.815Y-3.1677
X2.815Y-3.2677
X3.3296Y-3.563
X3.3296Y-3.663
X3.4646Y-3.563
X3.4646Y-3.663
X3.7565Y-2.1185
X3.8549Y-2.1185
X4.1535Y-2.0785
X4.1535Y-2.1785
X4.3035Y-3.0551
X4.3035Y-3.1535
X4.325Y-3.3701
X4.3485Y-2.6101
X4.3485Y-2.7085
X4.3535Y-2.0785
X4.3535Y-2.1785
X4.425Y-3.3701
X4.4844Y-2.6063
X4.4844Y-2.7063
X4.4844Y-2.8313
X4.4844Y-2.9313
X4.4885Y-3.0563
X4.4885Y-3.1547
X4.525Y-3.3701
X4.6098Y-2.7567
X4.6098Y-2.8567
X4.6098Y-2.9567
X4.6098Y-3.0567
X4.8085Y-3.3385
X4.9085Y-3.3385
X4.9098Y-2.7567
X4.9098Y-2.8567
X4.9098Y-2.9567
X4.9098Y-3.0567
X4.9174Y-3.2085
X5.0174Y-3.2085
X5.0285Y-2.4375
X5.0285Y-2.5359
X5.0285Y-2.6901
X5.0285Y-2.7885
X5.0344Y-2.9563
X5.0344Y-3.0563
X5.1885Y-3.0385
X5.2285Y-2.6585
X5.2285Y-2.7585
X5.2285Y-2.8585
X5.2885Y-3.0385
X5.3685Y-3.5409
X5.3685Y-3.6409
X5.4285Y-2.8585
X5.4285Y-2.9585
X5.5785Y-2.8585
X5.5785Y-2.9585
T4
X2.1555Y-2.6181
X2.1555Y-2.9181
X2.2555Y-2.6181
X2.2555Y-2.9181
X2.3555Y-2.6181
X2.3555Y-2.9181
X2.4555Y-2.6181
X2.4555Y-2.9181
T5
X2.5197Y-3.8
X2.6197Y-3.8
X3.4695Y-3.8
X3.5695Y-3.8
X4.4192Y-3.8
X4.5192Y-3.8
X5.369Y-3.8
X5.469Y-3.8
T6
X2.4016Y-3.1654
X2.4016Y-3.2638
X2.4016Y-3.3622
X2.4016Y-3.4606
X4.8084Y-3.5635
X4.9068Y-3.5635
X5.0052Y-3.5635
T7
X2.4311Y-2.1319
X2.5295Y-2.1319
X2.963Y-2.0339
X2.963Y-2.1339
X2.963Y-2.2339
X2.963Y-2.3339
X2.963Y-2.4339
X2.963Y-2.5339
X2.963Y-2.6339
X2.963Y-2.7339
X2.963Y-2.8339
X2.963Y-2.9339
X2.963Y-3.0339
X2.963Y-3.1339
X2.963Y-3.2339
X2.963Y-3.3339
X3.063Y-3.3339
X3.163Y-3.3339
X3.263Y-3.3339
X3.363Y-3.3339
X3.463Y-3.3339
X3.563Y-2.1339
X3.563Y-2.2339
X3.563Y-2.3339
X3.563Y-2.4339
X3.563Y-2.5339
X3.563Y-2.6339
X3.563Y-2.7339
X3.563Y-2.8339
X3.563Y-2.9339
X3.563Y-3.0339
X3.563Y-3.1339
X3.563Y-3.2339
X3.563Y-3.3339
X3.563Y-2.0339
T8
X2.6772Y-2.8839
X2.6772Y-2.9839
X2.6772Y-3.1791
X2.6772Y-3.2791
T9
X2.7539Y-2.5315
X4.7963Y-2.1024
X5.2717Y-3.2864
X5.5485Y-2.4585
X5.7485Y-3.2485
T10
X2.126Y-2.126
X2.126Y-3.622
X5.748Y-2.126
X5.748Y-3.622
M30
