M48
; DRILL file {KiCad (5.1.6)-1} date 09/10/20 13:52:37
; FORMAT={-:-/ absolute / inch / decimal}
; #@! TF.CreationDate,2020-09-10T13:52:37+05:30
; #@! TF.GenerationSoftware,Kicad,Pcbnew,(5.1.6)-1
; #@! TF.FileFunction,Plated,1,2,PTH
FMAT,2
INCH
T1C0.0100
T2C0.0315
T3C0.0350
T4C0.0354
T5C0.0394
T6C0.0433
T7C0.0791
%
G90
G05
T1
X3.65Y-3.25
X3.75Y-3.25
X6.25Y-4.15
X6.5Y-3.8
X7.45Y-2.55
X7.5Y-5.89
X7.6Y-2.55
X7.7Y-2.4
X7.8Y-2.25
T2
X5.1Y-4.35
X5.4Y-4.35
X4.25Y-5.25
X4.55Y-5.25
X3.0Y-2.5
X3.3Y-2.5
X7.15Y-5.2
X7.15Y-5.5
X4.25Y-5.4
X4.55Y-5.4
X6.15Y-4.55
X6.15Y-4.85
X6.25Y-4.55
X6.25Y-4.85
X6.35Y-4.55
X6.35Y-4.85
X6.45Y-4.55
X6.45Y-4.85
X3.25Y-5.25
X3.55Y-5.25
X3.25Y-4.45
X3.55Y-4.45
X6.8Y-4.6516
X6.8Y-4.75
X4.25Y-5.75
X4.55Y-5.75
X5.85Y-5.2
X5.95Y-5.1
X5.95Y-5.3
X3.25Y-4.75
X3.55Y-4.75
X3.25Y-5.75
X3.55Y-5.75
X6.35Y-5.45
X6.35Y-5.5484
X5.1Y-5.3
X5.1Y-5.4
X5.1Y-5.5
X5.1Y-5.6
X5.4Y-5.3
X5.4Y-5.4
X5.4Y-5.5
X5.4Y-5.6
X3.25Y-4.6
X3.55Y-4.6
X5.95Y-5.45
X5.95Y-5.5484
X3.75Y-5.5
X4.05Y-5.5
X7.15Y-4.6516
X7.15Y-4.75
X5.75Y-4.55
X5.75Y-4.85
X5.6Y-4.55
X5.6Y-4.85
X5.1Y-4.55
X5.1Y-4.65
X5.1Y-4.75
X5.1Y-4.85
X5.4Y-4.55
X5.4Y-4.65
X5.4Y-4.75
X5.4Y-4.85
X3.25Y-5.4
X3.55Y-5.4
X4.25Y-2.2
X4.55Y-2.2
X3.0Y-2.7
X3.3Y-2.7
X6.15Y-4.4
X6.3469Y-4.4
T3
X2.6Y-2.5
X2.7Y-2.4
X2.7Y-2.5
X2.7Y-2.6
X2.6Y-4.5
X2.7Y-4.4
X2.7Y-4.5
X2.7Y-4.6
X2.6Y-5.5
X2.7Y-5.4
X2.7Y-5.5
X2.7Y-5.6
X2.6Y-3.5
X2.7Y-3.4
X2.7Y-3.5
X2.7Y-3.6
T4
X6.7Y-5.5
X6.8Y-5.5
X4.0Y-2.2
X4.1Y-2.2
X3.2Y-2.2
X3.3Y-2.2
T5
X7.0Y-2.1
X7.1Y-2.1
X7.2Y-2.1
X7.3Y-2.1
X7.4Y-2.1
X7.5Y-2.1
X7.6Y-2.1
X7.7Y-2.1
X7.8Y-2.1
X7.9Y-2.1
X3.55Y-2.2
X3.55Y-2.3
X3.65Y-2.2
X3.65Y-2.3
X3.75Y-2.2
X3.75Y-2.3
X7.6Y-3.35
X7.6Y-3.4524
T6
X7.6441Y-5.2
X7.6441Y-5.3772
X7.9Y-5.2
X7.9Y-5.3772
X5.6Y-3.1
X5.6Y-3.7
X5.7Y-3.1
X5.7Y-3.7
X5.8Y-3.1
X5.8Y-3.7
X5.9Y-3.1
X5.9Y-3.7
X6.0Y-3.1
X6.0Y-3.7
X6.1Y-3.1
X6.1Y-3.2
X6.1Y-3.3
X6.1Y-3.4
X6.1Y-3.5
X6.1Y-3.6
X6.1Y-3.7
X6.2Y-3.1
X6.2Y-3.7
X6.3Y-3.1
X6.3Y-3.7
X6.4Y-3.1
X6.4Y-3.7
X6.5Y-3.1
X6.5Y-3.7
X6.6Y-3.1
X6.6Y-3.7
X6.7Y-3.1
X6.7Y-3.7
X6.8Y-3.1
X6.8Y-3.7
X6.9Y-3.1
X6.9Y-3.7
X7.0Y-3.1
X7.0Y-3.7
X7.1Y-3.1
X7.1Y-3.7
X7.2Y-3.1
X7.2Y-3.7
X7.25Y-3.2181
X7.3Y-3.1
X7.3Y-3.7
X7.35Y-3.2181
X7.4Y-3.1
X7.4Y-3.6
X7.4Y-3.7
X7.45Y-3.2181
X7.5Y-3.1
X7.5Y-3.6
X7.5Y-3.7
X7.55Y-3.2181
X7.6Y-3.1
X7.6Y-3.6
X7.6Y-3.7
X7.65Y-3.2181
X7.7Y-3.1
X7.7Y-3.7
X7.8Y-3.1
X7.8Y-3.6
X7.8Y-3.7
X7.9Y-3.1
X7.9Y-3.7
X3.15Y-5.6
X3.55Y-5.6
X4.25Y-5.6
X4.65Y-5.6
T7
X2.35Y-2.7
X2.3539Y-2.3
X2.35Y-4.7
X2.3539Y-4.3
X2.35Y-5.7
X2.3539Y-5.3
X2.35Y-3.7
X2.3539Y-3.3
T5
G00X7.4Y-4.7394
M15
G01X7.4Y-4.6606
M16
G05
G00X7.5575Y-4.515
M15
G01X7.4787Y-4.515
M16
G05
G00X7.6756Y-4.7
M15
G01X7.5969Y-4.7
M16
G05
T0
M30
