%TF.GenerationSoftware,KiCad,Pcbnew,(5.1.6)-1*%
%TF.CreationDate,2020-09-10T16:08:27+05:30*%
%TF.ProjectId,teenDynClamp_V02,7465656e-4479-46e4-936c-616d705f5630,v02.1*%
%TF.SameCoordinates,Original*%
%TF.FileFunction,Soldermask,Bot*%
%TF.FilePolarity,Negative*%
%FSLAX46Y46*%
G04 Gerber Fmt 4.6, Leading zero omitted, Abs format (unit mm)*
G04 Created by KiCad (PCBNEW (5.1.6)-1) date 2020-09-10 16:08:27*
%MOMM*%
%LPD*%
G01*
G04 APERTURE LIST*
%ADD10C,0.100000*%
G04 APERTURE END LIST*
D10*
G36*
X115818169Y-145231895D02*
G01*
X115973005Y-145296031D01*
X116112354Y-145389140D01*
X116230860Y-145507646D01*
X116323969Y-145646995D01*
X116388105Y-145801831D01*
X116420800Y-145966203D01*
X116420800Y-146133797D01*
X116388105Y-146298169D01*
X116323969Y-146453005D01*
X116230860Y-146592354D01*
X116112354Y-146710860D01*
X115973005Y-146803969D01*
X115818169Y-146868105D01*
X115653797Y-146900800D01*
X115486203Y-146900800D01*
X115321831Y-146868105D01*
X115166995Y-146803969D01*
X115027646Y-146710860D01*
X114909140Y-146592354D01*
X114816031Y-146453005D01*
X114751895Y-146298169D01*
X114719200Y-146133797D01*
X114719200Y-145966203D01*
X114751895Y-145801831D01*
X114816031Y-145646995D01*
X114909140Y-145507646D01*
X115027646Y-145389140D01*
X115166995Y-145296031D01*
X115321831Y-145231895D01*
X115486203Y-145199200D01*
X115653797Y-145199200D01*
X115818169Y-145231895D01*
G37*
G36*
X82798169Y-145231895D02*
G01*
X82953005Y-145296031D01*
X83092354Y-145389140D01*
X83210860Y-145507646D01*
X83303969Y-145646995D01*
X83368105Y-145801831D01*
X83400800Y-145966203D01*
X83400800Y-146133797D01*
X83368105Y-146298169D01*
X83303969Y-146453005D01*
X83210860Y-146592354D01*
X83092354Y-146710860D01*
X82953005Y-146803969D01*
X82798169Y-146868105D01*
X82633797Y-146900800D01*
X82466203Y-146900800D01*
X82301831Y-146868105D01*
X82146995Y-146803969D01*
X82007646Y-146710860D01*
X81889140Y-146592354D01*
X81796031Y-146453005D01*
X81731895Y-146298169D01*
X81699200Y-146133797D01*
X81699200Y-145966203D01*
X81731895Y-145801831D01*
X81796031Y-145646995D01*
X81889140Y-145507646D01*
X82007646Y-145389140D01*
X82146995Y-145296031D01*
X82301831Y-145231895D01*
X82466203Y-145199200D01*
X82633797Y-145199200D01*
X82798169Y-145231895D01*
G37*
G36*
X90418169Y-145231895D02*
G01*
X90573005Y-145296031D01*
X90712354Y-145389140D01*
X90830860Y-145507646D01*
X90923969Y-145646995D01*
X90988105Y-145801831D01*
X91020800Y-145966203D01*
X91020800Y-146133797D01*
X90988105Y-146298169D01*
X90923969Y-146453005D01*
X90830860Y-146592354D01*
X90712354Y-146710860D01*
X90573005Y-146803969D01*
X90418169Y-146868105D01*
X90253797Y-146900800D01*
X90086203Y-146900800D01*
X89921831Y-146868105D01*
X89766995Y-146803969D01*
X89627646Y-146710860D01*
X89509140Y-146592354D01*
X89416031Y-146453005D01*
X89351895Y-146298169D01*
X89319200Y-146133797D01*
X89319200Y-145966203D01*
X89351895Y-145801831D01*
X89416031Y-145646995D01*
X89509140Y-145507646D01*
X89627646Y-145389140D01*
X89766995Y-145296031D01*
X89921831Y-145231895D01*
X90086203Y-145199200D01*
X90253797Y-145199200D01*
X90418169Y-145231895D01*
G37*
G36*
X108198169Y-145231895D02*
G01*
X108353005Y-145296031D01*
X108492354Y-145389140D01*
X108610860Y-145507646D01*
X108703969Y-145646995D01*
X108768105Y-145801831D01*
X108800800Y-145966203D01*
X108800800Y-146133797D01*
X108768105Y-146298169D01*
X108703969Y-146453005D01*
X108610860Y-146592354D01*
X108492354Y-146710860D01*
X108353005Y-146803969D01*
X108198169Y-146868105D01*
X108033797Y-146900800D01*
X107866203Y-146900800D01*
X107701831Y-146868105D01*
X107546995Y-146803969D01*
X107407646Y-146710860D01*
X107289140Y-146592354D01*
X107196031Y-146453005D01*
X107131895Y-146298169D01*
X107099200Y-146133797D01*
X107099200Y-145966203D01*
X107131895Y-145801831D01*
X107196031Y-145646995D01*
X107289140Y-145507646D01*
X107407646Y-145389140D01*
X107546995Y-145296031D01*
X107701831Y-145231895D01*
X107866203Y-145199200D01*
X108033797Y-145199200D01*
X108198169Y-145231895D01*
G37*
G36*
X61793015Y-143005255D02*
G01*
X61793018Y-143005256D01*
X62132471Y-143108228D01*
X62445312Y-143275445D01*
X62719519Y-143500481D01*
X62944555Y-143774688D01*
X63111772Y-144087529D01*
X63202969Y-144388164D01*
X63214745Y-144426985D01*
X63249514Y-144780000D01*
X63214745Y-145133015D01*
X63214744Y-145133018D01*
X63111772Y-145472471D01*
X62944555Y-145785312D01*
X62719519Y-146059519D01*
X62445312Y-146284555D01*
X62132471Y-146451772D01*
X61831836Y-146542969D01*
X61793015Y-146554745D01*
X61528472Y-146580800D01*
X57851528Y-146580800D01*
X57586985Y-146554745D01*
X57548164Y-146542969D01*
X57247529Y-146451772D01*
X56934688Y-146284555D01*
X56660481Y-146059519D01*
X56435445Y-145785312D01*
X56268228Y-145472471D01*
X56165256Y-145133018D01*
X56165255Y-145133015D01*
X56130486Y-144780000D01*
X56165255Y-144426985D01*
X56177031Y-144388164D01*
X56268228Y-144087529D01*
X56435445Y-143774688D01*
X56660481Y-143500481D01*
X56934688Y-143275445D01*
X57247529Y-143108228D01*
X57586982Y-143005256D01*
X57586985Y-143005255D01*
X57851528Y-142979200D01*
X61528472Y-142979200D01*
X61793015Y-143005255D01*
G37*
G36*
X91320800Y-143390800D02*
G01*
X89019200Y-143390800D01*
X89019200Y-141089200D01*
X91320800Y-141089200D01*
X91320800Y-143390800D01*
G37*
G36*
X108285676Y-141133425D02*
G01*
X108495109Y-141220174D01*
X108683594Y-141346116D01*
X108843884Y-141506406D01*
X108969826Y-141694891D01*
X109056575Y-141904324D01*
X109100800Y-142126656D01*
X109100800Y-142353344D01*
X109056575Y-142575676D01*
X108969826Y-142785109D01*
X108843884Y-142973594D01*
X108683594Y-143133884D01*
X108495109Y-143259826D01*
X108285676Y-143346575D01*
X108063344Y-143390800D01*
X107836656Y-143390800D01*
X107614324Y-143346575D01*
X107404891Y-143259826D01*
X107216406Y-143133884D01*
X107056116Y-142973594D01*
X106930174Y-142785109D01*
X106843425Y-142575676D01*
X106799200Y-142353344D01*
X106799200Y-142126656D01*
X106843425Y-141904324D01*
X106930174Y-141694891D01*
X107056116Y-141506406D01*
X107216406Y-141346116D01*
X107404891Y-141220174D01*
X107614324Y-141133425D01*
X107836656Y-141089200D01*
X108063344Y-141089200D01*
X108285676Y-141133425D01*
G37*
G36*
X119260800Y-143390800D02*
G01*
X116959200Y-143390800D01*
X116959200Y-141089200D01*
X119260800Y-141089200D01*
X119260800Y-143390800D01*
G37*
G36*
X80345676Y-141133425D02*
G01*
X80555109Y-141220174D01*
X80743594Y-141346116D01*
X80903884Y-141506406D01*
X81029826Y-141694891D01*
X81116575Y-141904324D01*
X81160800Y-142126656D01*
X81160800Y-142353344D01*
X81116575Y-142575676D01*
X81029826Y-142785109D01*
X80903884Y-142973594D01*
X80743594Y-143133884D01*
X80555109Y-143259826D01*
X80345676Y-143346575D01*
X80123344Y-143390800D01*
X79896656Y-143390800D01*
X79674324Y-143346575D01*
X79464891Y-143259826D01*
X79276406Y-143133884D01*
X79116116Y-142973594D01*
X78990174Y-142785109D01*
X78903425Y-142575676D01*
X78859200Y-142353344D01*
X78859200Y-142126656D01*
X78903425Y-141904324D01*
X78990174Y-141694891D01*
X79116116Y-141506406D01*
X79276406Y-141346116D01*
X79464891Y-141220174D01*
X79674324Y-141133425D01*
X79896656Y-141089200D01*
X80123344Y-141089200D01*
X80345676Y-141133425D01*
G37*
G36*
X129788169Y-141421895D02*
G01*
X129943005Y-141486031D01*
X130082354Y-141579140D01*
X130200860Y-141697646D01*
X130293969Y-141836995D01*
X130358105Y-141991831D01*
X130390800Y-142156203D01*
X130390800Y-142323797D01*
X130358105Y-142488169D01*
X130293969Y-142643005D01*
X130200860Y-142782354D01*
X130082354Y-142900860D01*
X129943005Y-142993969D01*
X129788169Y-143058105D01*
X129623797Y-143090800D01*
X129456203Y-143090800D01*
X129291831Y-143058105D01*
X129136995Y-142993969D01*
X128997646Y-142900860D01*
X128879140Y-142782354D01*
X128786031Y-142643005D01*
X128721895Y-142488169D01*
X128689200Y-142323797D01*
X128689200Y-142156203D01*
X128721895Y-141991831D01*
X128786031Y-141836995D01*
X128879140Y-141697646D01*
X128997646Y-141579140D01*
X129136995Y-141486031D01*
X129291831Y-141421895D01*
X129456203Y-141389200D01*
X129623797Y-141389200D01*
X129788169Y-141421895D01*
G37*
G36*
X137408169Y-141421895D02*
G01*
X137563005Y-141486031D01*
X137702354Y-141579140D01*
X137820860Y-141697646D01*
X137913969Y-141836995D01*
X137978105Y-141991831D01*
X138010800Y-142156203D01*
X138010800Y-142323797D01*
X137978105Y-142488169D01*
X137913969Y-142643005D01*
X137820860Y-142782354D01*
X137702354Y-142900860D01*
X137563005Y-142993969D01*
X137408169Y-143058105D01*
X137243797Y-143090800D01*
X137076203Y-143090800D01*
X136911831Y-143058105D01*
X136756995Y-142993969D01*
X136617646Y-142900860D01*
X136499140Y-142782354D01*
X136406031Y-142643005D01*
X136341895Y-142488169D01*
X136309200Y-142323797D01*
X136309200Y-142156203D01*
X136341895Y-141991831D01*
X136406031Y-141836995D01*
X136499140Y-141697646D01*
X136617646Y-141579140D01*
X136756995Y-141486031D01*
X136911831Y-141421895D01*
X137076203Y-141389200D01*
X137243797Y-141389200D01*
X137408169Y-141421895D01*
G37*
G36*
X68828169Y-141421895D02*
G01*
X68983005Y-141486031D01*
X69122354Y-141579140D01*
X69240860Y-141697646D01*
X69333969Y-141836995D01*
X69398105Y-141991831D01*
X69430800Y-142156203D01*
X69430800Y-142323797D01*
X69398105Y-142488169D01*
X69333969Y-142643005D01*
X69240860Y-142782354D01*
X69122354Y-142900860D01*
X68983005Y-142993969D01*
X68828169Y-143058105D01*
X68663797Y-143090800D01*
X68496203Y-143090800D01*
X68331831Y-143058105D01*
X68176995Y-142993969D01*
X68037646Y-142900860D01*
X67919140Y-142782354D01*
X67826031Y-142643005D01*
X67761895Y-142488169D01*
X67729200Y-142323797D01*
X67729200Y-142156203D01*
X67761895Y-141991831D01*
X67826031Y-141836995D01*
X67919140Y-141697646D01*
X68037646Y-141579140D01*
X68176995Y-141486031D01*
X68331831Y-141421895D01*
X68496203Y-141389200D01*
X68663797Y-141389200D01*
X68828169Y-141421895D01*
G37*
G36*
X151378169Y-140111895D02*
G01*
X151533005Y-140176031D01*
X151672354Y-140269140D01*
X151790860Y-140387646D01*
X151883969Y-140526995D01*
X151948105Y-140681831D01*
X151980800Y-140846203D01*
X151980800Y-141013797D01*
X151948105Y-141178169D01*
X151883969Y-141333005D01*
X151790860Y-141472354D01*
X151672354Y-141590860D01*
X151533005Y-141683969D01*
X151378169Y-141748105D01*
X151213797Y-141780800D01*
X151046203Y-141780800D01*
X150881831Y-141748105D01*
X150726995Y-141683969D01*
X150587646Y-141590860D01*
X150469140Y-141472354D01*
X150376031Y-141333005D01*
X150311895Y-141178169D01*
X150279200Y-141013797D01*
X150279200Y-140846203D01*
X150311895Y-140681831D01*
X150376031Y-140526995D01*
X150469140Y-140387646D01*
X150587646Y-140269140D01*
X150726995Y-140176031D01*
X150881831Y-140111895D01*
X151046203Y-140079200D01*
X151213797Y-140079200D01*
X151378169Y-140111895D01*
G37*
G36*
X161538169Y-140111895D02*
G01*
X161693005Y-140176031D01*
X161832354Y-140269140D01*
X161950860Y-140387646D01*
X162043969Y-140526995D01*
X162108105Y-140681831D01*
X162140800Y-140846203D01*
X162140800Y-141013797D01*
X162108105Y-141178169D01*
X162043969Y-141333005D01*
X161950860Y-141472354D01*
X161832354Y-141590860D01*
X161693005Y-141683969D01*
X161538169Y-141748105D01*
X161373797Y-141780800D01*
X161206203Y-141780800D01*
X161041831Y-141748105D01*
X160886995Y-141683969D01*
X160747646Y-141590860D01*
X160629140Y-141472354D01*
X160536031Y-141333005D01*
X160471895Y-141178169D01*
X160439200Y-141013797D01*
X160439200Y-140846203D01*
X160471895Y-140681831D01*
X160536031Y-140526995D01*
X160629140Y-140387646D01*
X160747646Y-140269140D01*
X160886995Y-140176031D01*
X161041831Y-140111895D01*
X161206203Y-140079200D01*
X161373797Y-140079200D01*
X161538169Y-140111895D01*
G37*
G36*
X172997338Y-138785738D02*
G01*
X173170373Y-138857412D01*
X173326100Y-138961465D01*
X173458535Y-139093900D01*
X173562588Y-139249627D01*
X173634262Y-139422662D01*
X173670800Y-139606354D01*
X173670800Y-139793646D01*
X173634262Y-139977338D01*
X173562588Y-140150373D01*
X173458535Y-140306100D01*
X173326100Y-140438535D01*
X173170373Y-140542588D01*
X172997338Y-140614262D01*
X172813646Y-140650800D01*
X172626354Y-140650800D01*
X172442662Y-140614262D01*
X172269627Y-140542588D01*
X172113900Y-140438535D01*
X171981465Y-140306100D01*
X171877412Y-140150373D01*
X171805738Y-139977338D01*
X171769200Y-139793646D01*
X171769200Y-139606354D01*
X171805738Y-139422662D01*
X171877412Y-139249627D01*
X171981465Y-139093900D01*
X172113900Y-138961465D01*
X172269627Y-138857412D01*
X172442662Y-138785738D01*
X172626354Y-138749200D01*
X172813646Y-138749200D01*
X172997338Y-138785738D01*
G37*
G36*
X171130800Y-140650800D02*
G01*
X169229200Y-140650800D01*
X169229200Y-138749200D01*
X171130800Y-138749200D01*
X171130800Y-140650800D01*
G37*
G36*
X95498169Y-138881895D02*
G01*
X95653005Y-138946031D01*
X95792354Y-139039140D01*
X95910860Y-139157646D01*
X96003969Y-139296995D01*
X96068105Y-139451831D01*
X96100800Y-139616203D01*
X96100800Y-139783797D01*
X96068105Y-139948169D01*
X96003969Y-140103005D01*
X95910860Y-140242354D01*
X95792354Y-140360860D01*
X95653005Y-140453969D01*
X95498169Y-140518105D01*
X95333797Y-140550800D01*
X95166203Y-140550800D01*
X95001831Y-140518105D01*
X94846995Y-140453969D01*
X94707646Y-140360860D01*
X94589140Y-140242354D01*
X94496031Y-140103005D01*
X94431895Y-139948169D01*
X94399200Y-139783797D01*
X94399200Y-139616203D01*
X94431895Y-139451831D01*
X94496031Y-139296995D01*
X94589140Y-139157646D01*
X94707646Y-139039140D01*
X94846995Y-138946031D01*
X95001831Y-138881895D01*
X95166203Y-138849200D01*
X95333797Y-138849200D01*
X95498169Y-138881895D01*
G37*
G36*
X181858169Y-138881895D02*
G01*
X182013005Y-138946031D01*
X182152354Y-139039140D01*
X182270860Y-139157646D01*
X182363969Y-139296995D01*
X182428105Y-139451831D01*
X182460800Y-139616203D01*
X182460800Y-139783797D01*
X182428105Y-139948169D01*
X182363969Y-140103005D01*
X182270860Y-140242354D01*
X182152354Y-140360860D01*
X182013005Y-140453969D01*
X181858169Y-140518105D01*
X181693797Y-140550800D01*
X181526203Y-140550800D01*
X181361831Y-140518105D01*
X181206995Y-140453969D01*
X181067646Y-140360860D01*
X180949140Y-140242354D01*
X180856031Y-140103005D01*
X180791895Y-139948169D01*
X180759200Y-139783797D01*
X180759200Y-139616203D01*
X180791895Y-139451831D01*
X180856031Y-139296995D01*
X180949140Y-139157646D01*
X181067646Y-139039140D01*
X181206995Y-138946031D01*
X181361831Y-138881895D01*
X181526203Y-138849200D01*
X181693797Y-138849200D01*
X181858169Y-138881895D01*
G37*
G36*
X129788169Y-138881895D02*
G01*
X129943005Y-138946031D01*
X130082354Y-139039140D01*
X130200860Y-139157646D01*
X130293969Y-139296995D01*
X130358105Y-139451831D01*
X130390800Y-139616203D01*
X130390800Y-139783797D01*
X130358105Y-139948169D01*
X130293969Y-140103005D01*
X130200860Y-140242354D01*
X130082354Y-140360860D01*
X129943005Y-140453969D01*
X129788169Y-140518105D01*
X129623797Y-140550800D01*
X129456203Y-140550800D01*
X129291831Y-140518105D01*
X129136995Y-140453969D01*
X128997646Y-140360860D01*
X128879140Y-140242354D01*
X128786031Y-140103005D01*
X128721895Y-139948169D01*
X128689200Y-139783797D01*
X128689200Y-139616203D01*
X128721895Y-139451831D01*
X128786031Y-139296995D01*
X128879140Y-139157646D01*
X128997646Y-139039140D01*
X129136995Y-138946031D01*
X129291831Y-138881895D01*
X129456203Y-138849200D01*
X129623797Y-138849200D01*
X129788169Y-138881895D01*
G37*
G36*
X137408169Y-138881895D02*
G01*
X137563005Y-138946031D01*
X137702354Y-139039140D01*
X137820860Y-139157646D01*
X137913969Y-139296995D01*
X137978105Y-139451831D01*
X138010800Y-139616203D01*
X138010800Y-139783797D01*
X137978105Y-139948169D01*
X137913969Y-140103005D01*
X137820860Y-140242354D01*
X137702354Y-140360860D01*
X137563005Y-140453969D01*
X137408169Y-140518105D01*
X137243797Y-140550800D01*
X137076203Y-140550800D01*
X136911831Y-140518105D01*
X136756995Y-140453969D01*
X136617646Y-140360860D01*
X136499140Y-140242354D01*
X136406031Y-140103005D01*
X136341895Y-139948169D01*
X136309200Y-139783797D01*
X136309200Y-139616203D01*
X136341895Y-139451831D01*
X136406031Y-139296995D01*
X136499140Y-139157646D01*
X136617646Y-139039140D01*
X136756995Y-138946031D01*
X136911831Y-138881895D01*
X137076203Y-138849200D01*
X137243797Y-138849200D01*
X137408169Y-138881895D01*
G37*
G36*
X103118169Y-138881895D02*
G01*
X103273005Y-138946031D01*
X103412354Y-139039140D01*
X103530860Y-139157646D01*
X103623969Y-139296995D01*
X103688105Y-139451831D01*
X103720800Y-139616203D01*
X103720800Y-139783797D01*
X103688105Y-139948169D01*
X103623969Y-140103005D01*
X103530860Y-140242354D01*
X103412354Y-140360860D01*
X103273005Y-140453969D01*
X103118169Y-140518105D01*
X102953797Y-140550800D01*
X102786203Y-140550800D01*
X102621831Y-140518105D01*
X102466995Y-140453969D01*
X102327646Y-140360860D01*
X102209140Y-140242354D01*
X102116031Y-140103005D01*
X102051895Y-139948169D01*
X102019200Y-139783797D01*
X102019200Y-139616203D01*
X102051895Y-139451831D01*
X102116031Y-139296995D01*
X102209140Y-139157646D01*
X102327646Y-139039140D01*
X102466995Y-138946031D01*
X102621831Y-138881895D01*
X102786203Y-138849200D01*
X102953797Y-138849200D01*
X103118169Y-138881895D01*
G37*
G36*
X69108785Y-138857126D02*
G01*
X69183780Y-138879876D01*
X69252891Y-138916816D01*
X69313469Y-138966531D01*
X69363184Y-139027109D01*
X69400124Y-139096220D01*
X69422874Y-139171215D01*
X69430800Y-139251691D01*
X69430800Y-140148309D01*
X69422874Y-140228785D01*
X69400124Y-140303780D01*
X69363184Y-140372891D01*
X69313469Y-140433469D01*
X69252891Y-140483184D01*
X69183780Y-140520124D01*
X69108785Y-140542874D01*
X69028309Y-140550800D01*
X68131691Y-140550800D01*
X68051215Y-140542874D01*
X67976220Y-140520124D01*
X67907109Y-140483184D01*
X67846531Y-140433469D01*
X67796816Y-140372891D01*
X67759876Y-140303780D01*
X67737126Y-140228785D01*
X67729200Y-140148309D01*
X67729200Y-139251691D01*
X67737126Y-139171215D01*
X67759876Y-139096220D01*
X67796816Y-139027109D01*
X67846531Y-138966531D01*
X67907109Y-138916816D01*
X67976220Y-138879876D01*
X68051215Y-138857126D01*
X68131691Y-138849200D01*
X69028309Y-138849200D01*
X69108785Y-138857126D01*
G37*
G36*
X66288169Y-138881895D02*
G01*
X66443005Y-138946031D01*
X66582354Y-139039140D01*
X66700860Y-139157646D01*
X66793969Y-139296995D01*
X66858105Y-139451831D01*
X66890800Y-139616203D01*
X66890800Y-139783797D01*
X66858105Y-139948169D01*
X66793969Y-140103005D01*
X66700860Y-140242354D01*
X66582354Y-140360860D01*
X66443005Y-140453969D01*
X66288169Y-140518105D01*
X66123797Y-140550800D01*
X65956203Y-140550800D01*
X65791831Y-140518105D01*
X65636995Y-140453969D01*
X65497646Y-140360860D01*
X65379140Y-140242354D01*
X65286031Y-140103005D01*
X65221895Y-139948169D01*
X65189200Y-139783797D01*
X65189200Y-139616203D01*
X65221895Y-139451831D01*
X65286031Y-139296995D01*
X65379140Y-139157646D01*
X65497646Y-139039140D01*
X65636995Y-138946031D01*
X65791831Y-138881895D01*
X65956203Y-138849200D01*
X66123797Y-138849200D01*
X66288169Y-138881895D01*
G37*
G36*
X162140800Y-139280800D02*
G01*
X160439200Y-139280800D01*
X160439200Y-137579200D01*
X162140800Y-137579200D01*
X162140800Y-139280800D01*
G37*
G36*
X151980800Y-139280800D02*
G01*
X150279200Y-139280800D01*
X150279200Y-137579200D01*
X151980800Y-137579200D01*
X151980800Y-139280800D01*
G37*
G36*
X90418169Y-136341895D02*
G01*
X90573005Y-136406031D01*
X90712354Y-136499140D01*
X90830860Y-136617646D01*
X90923969Y-136756995D01*
X90988105Y-136911831D01*
X91020800Y-137076203D01*
X91020800Y-137243797D01*
X90988105Y-137408169D01*
X90923969Y-137563005D01*
X90830860Y-137702354D01*
X90712354Y-137820860D01*
X90573005Y-137913969D01*
X90418169Y-137978105D01*
X90253797Y-138010800D01*
X90086203Y-138010800D01*
X89921831Y-137978105D01*
X89766995Y-137913969D01*
X89627646Y-137820860D01*
X89509140Y-137702354D01*
X89416031Y-137563005D01*
X89351895Y-137408169D01*
X89319200Y-137243797D01*
X89319200Y-137076203D01*
X89351895Y-136911831D01*
X89416031Y-136756995D01*
X89509140Y-136617646D01*
X89627646Y-136499140D01*
X89766995Y-136406031D01*
X89921831Y-136341895D01*
X90086203Y-136309200D01*
X90253797Y-136309200D01*
X90418169Y-136341895D01*
G37*
G36*
X129788169Y-136341895D02*
G01*
X129943005Y-136406031D01*
X130082354Y-136499140D01*
X130200860Y-136617646D01*
X130293969Y-136756995D01*
X130358105Y-136911831D01*
X130390800Y-137076203D01*
X130390800Y-137243797D01*
X130358105Y-137408169D01*
X130293969Y-137563005D01*
X130200860Y-137702354D01*
X130082354Y-137820860D01*
X129943005Y-137913969D01*
X129788169Y-137978105D01*
X129623797Y-138010800D01*
X129456203Y-138010800D01*
X129291831Y-137978105D01*
X129136995Y-137913969D01*
X128997646Y-137820860D01*
X128879140Y-137702354D01*
X128786031Y-137563005D01*
X128721895Y-137408169D01*
X128689200Y-137243797D01*
X128689200Y-137076203D01*
X128721895Y-136911831D01*
X128786031Y-136756995D01*
X128879140Y-136617646D01*
X128997646Y-136499140D01*
X129136995Y-136406031D01*
X129291831Y-136341895D01*
X129456203Y-136309200D01*
X129623797Y-136309200D01*
X129788169Y-136341895D01*
G37*
G36*
X68828169Y-136341895D02*
G01*
X68983005Y-136406031D01*
X69122354Y-136499140D01*
X69240860Y-136617646D01*
X69333969Y-136756995D01*
X69398105Y-136911831D01*
X69430800Y-137076203D01*
X69430800Y-137243797D01*
X69398105Y-137408169D01*
X69333969Y-137563005D01*
X69240860Y-137702354D01*
X69122354Y-137820860D01*
X68983005Y-137913969D01*
X68828169Y-137978105D01*
X68663797Y-138010800D01*
X68496203Y-138010800D01*
X68331831Y-137978105D01*
X68176995Y-137913969D01*
X68037646Y-137820860D01*
X67919140Y-137702354D01*
X67826031Y-137563005D01*
X67761895Y-137408169D01*
X67729200Y-137243797D01*
X67729200Y-137076203D01*
X67761895Y-136911831D01*
X67826031Y-136756995D01*
X67919140Y-136617646D01*
X68037646Y-136499140D01*
X68176995Y-136406031D01*
X68331831Y-136341895D01*
X68496203Y-136309200D01*
X68663797Y-136309200D01*
X68828169Y-136341895D01*
G37*
G36*
X137408169Y-136341895D02*
G01*
X137563005Y-136406031D01*
X137702354Y-136499140D01*
X137820860Y-136617646D01*
X137913969Y-136756995D01*
X137978105Y-136911831D01*
X138010800Y-137076203D01*
X138010800Y-137243797D01*
X137978105Y-137408169D01*
X137913969Y-137563005D01*
X137820860Y-137702354D01*
X137702354Y-137820860D01*
X137563005Y-137913969D01*
X137408169Y-137978105D01*
X137243797Y-138010800D01*
X137076203Y-138010800D01*
X136911831Y-137978105D01*
X136756995Y-137913969D01*
X136617646Y-137820860D01*
X136499140Y-137702354D01*
X136406031Y-137563005D01*
X136341895Y-137408169D01*
X136309200Y-137243797D01*
X136309200Y-137076203D01*
X136341895Y-136911831D01*
X136406031Y-136756995D01*
X136499140Y-136617646D01*
X136617646Y-136499140D01*
X136756995Y-136406031D01*
X136911831Y-136341895D01*
X137076203Y-136309200D01*
X137243797Y-136309200D01*
X137408169Y-136341895D01*
G37*
G36*
X82798169Y-136341895D02*
G01*
X82953005Y-136406031D01*
X83092354Y-136499140D01*
X83210860Y-136617646D01*
X83303969Y-136756995D01*
X83368105Y-136911831D01*
X83400800Y-137076203D01*
X83400800Y-137243797D01*
X83368105Y-137408169D01*
X83303969Y-137563005D01*
X83210860Y-137702354D01*
X83092354Y-137820860D01*
X82953005Y-137913969D01*
X82798169Y-137978105D01*
X82633797Y-138010800D01*
X82466203Y-138010800D01*
X82301831Y-137978105D01*
X82146995Y-137913969D01*
X82007646Y-137820860D01*
X81889140Y-137702354D01*
X81796031Y-137563005D01*
X81731895Y-137408169D01*
X81699200Y-137243797D01*
X81699200Y-137076203D01*
X81731895Y-136911831D01*
X81796031Y-136756995D01*
X81889140Y-136617646D01*
X82007646Y-136499140D01*
X82146995Y-136406031D01*
X82301831Y-136341895D01*
X82466203Y-136309200D01*
X82633797Y-136309200D01*
X82798169Y-136341895D01*
G37*
G36*
X115818169Y-136341895D02*
G01*
X115973005Y-136406031D01*
X116112354Y-136499140D01*
X116230860Y-136617646D01*
X116323969Y-136756995D01*
X116388105Y-136911831D01*
X116420800Y-137076203D01*
X116420800Y-137243797D01*
X116388105Y-137408169D01*
X116323969Y-137563005D01*
X116230860Y-137702354D01*
X116112354Y-137820860D01*
X115973005Y-137913969D01*
X115818169Y-137978105D01*
X115653797Y-138010800D01*
X115486203Y-138010800D01*
X115321831Y-137978105D01*
X115166995Y-137913969D01*
X115027646Y-137820860D01*
X114909140Y-137702354D01*
X114816031Y-137563005D01*
X114751895Y-137408169D01*
X114719200Y-137243797D01*
X114719200Y-137076203D01*
X114751895Y-136911831D01*
X114816031Y-136756995D01*
X114909140Y-136617646D01*
X115027646Y-136499140D01*
X115166995Y-136406031D01*
X115321831Y-136341895D01*
X115486203Y-136309200D01*
X115653797Y-136309200D01*
X115818169Y-136341895D01*
G37*
G36*
X108198169Y-136341895D02*
G01*
X108353005Y-136406031D01*
X108492354Y-136499140D01*
X108610860Y-136617646D01*
X108703969Y-136756995D01*
X108768105Y-136911831D01*
X108800800Y-137076203D01*
X108800800Y-137243797D01*
X108768105Y-137408169D01*
X108703969Y-137563005D01*
X108610860Y-137702354D01*
X108492354Y-137820860D01*
X108353005Y-137913969D01*
X108198169Y-137978105D01*
X108033797Y-138010800D01*
X107866203Y-138010800D01*
X107701831Y-137978105D01*
X107546995Y-137913969D01*
X107407646Y-137820860D01*
X107289140Y-137702354D01*
X107196031Y-137563005D01*
X107131895Y-137408169D01*
X107099200Y-137243797D01*
X107099200Y-137076203D01*
X107131895Y-136911831D01*
X107196031Y-136756995D01*
X107289140Y-136617646D01*
X107407646Y-136499140D01*
X107546995Y-136406031D01*
X107701831Y-136341895D01*
X107866203Y-136309200D01*
X108033797Y-136309200D01*
X108198169Y-136341895D01*
G37*
G36*
X200966508Y-135569582D02*
G01*
X201157741Y-135648793D01*
X201329847Y-135763791D01*
X201476209Y-135910153D01*
X201591207Y-136082259D01*
X201670418Y-136273492D01*
X201710800Y-136476505D01*
X201710800Y-136683495D01*
X201670418Y-136886508D01*
X201591207Y-137077741D01*
X201476209Y-137249847D01*
X201329847Y-137396209D01*
X201157741Y-137511207D01*
X200966508Y-137590418D01*
X200763495Y-137630800D01*
X200556505Y-137630800D01*
X200353492Y-137590418D01*
X200162259Y-137511207D01*
X199990153Y-137396209D01*
X199843791Y-137249847D01*
X199728793Y-137077741D01*
X199649582Y-136886508D01*
X199609200Y-136683495D01*
X199609200Y-136476505D01*
X199649582Y-136273492D01*
X199728793Y-136082259D01*
X199843791Y-135910153D01*
X199990153Y-135763791D01*
X200162259Y-135648793D01*
X200353492Y-135569582D01*
X200556505Y-135529200D01*
X200763495Y-135529200D01*
X200966508Y-135569582D01*
G37*
G36*
X194466508Y-135569582D02*
G01*
X194657741Y-135648793D01*
X194829847Y-135763791D01*
X194976209Y-135910153D01*
X195091207Y-136082259D01*
X195170418Y-136273492D01*
X195210800Y-136476505D01*
X195210800Y-136683495D01*
X195170418Y-136886508D01*
X195091207Y-137077741D01*
X194976209Y-137249847D01*
X194829847Y-137396209D01*
X194657741Y-137511207D01*
X194466508Y-137590418D01*
X194263495Y-137630800D01*
X194056505Y-137630800D01*
X193853492Y-137590418D01*
X193662259Y-137511207D01*
X193490153Y-137396209D01*
X193343791Y-137249847D01*
X193228793Y-137077741D01*
X193149582Y-136886508D01*
X193109200Y-136683495D01*
X193109200Y-136476505D01*
X193149582Y-136273492D01*
X193228793Y-136082259D01*
X193343791Y-135910153D01*
X193490153Y-135763791D01*
X193662259Y-135648793D01*
X193853492Y-135569582D01*
X194056505Y-135529200D01*
X194263495Y-135529200D01*
X194466508Y-135569582D01*
G37*
G36*
X61893015Y-132845255D02*
G01*
X61893018Y-132845256D01*
X62232471Y-132948228D01*
X62545312Y-133115445D01*
X62819519Y-133340481D01*
X63044555Y-133614688D01*
X63211772Y-133927529D01*
X63284750Y-134168104D01*
X63314745Y-134266985D01*
X63349514Y-134620000D01*
X63314745Y-134973015D01*
X63314744Y-134973018D01*
X63211772Y-135312471D01*
X63044555Y-135625312D01*
X62819519Y-135899519D01*
X62545312Y-136124555D01*
X62232471Y-136291772D01*
X61931836Y-136382969D01*
X61893015Y-136394745D01*
X61628472Y-136420800D01*
X57951528Y-136420800D01*
X57686985Y-136394745D01*
X57648164Y-136382969D01*
X57347529Y-136291772D01*
X57034688Y-136124555D01*
X56760481Y-135899519D01*
X56535445Y-135625312D01*
X56368228Y-135312471D01*
X56265256Y-134973018D01*
X56265255Y-134973015D01*
X56230486Y-134620000D01*
X56265255Y-134266985D01*
X56295250Y-134168104D01*
X56368228Y-133927529D01*
X56535445Y-133614688D01*
X56760481Y-133340481D01*
X57034688Y-133115445D01*
X57347529Y-132948228D01*
X57686982Y-132845256D01*
X57686985Y-132845255D01*
X57951528Y-132819200D01*
X61628472Y-132819200D01*
X61893015Y-132845255D01*
G37*
G36*
X130390800Y-135470800D02*
G01*
X128689200Y-135470800D01*
X128689200Y-133769200D01*
X130390800Y-133769200D01*
X130390800Y-135470800D01*
G37*
G36*
X137408169Y-133801895D02*
G01*
X137563005Y-133866031D01*
X137702354Y-133959140D01*
X137820860Y-134077646D01*
X137913969Y-134216995D01*
X137978105Y-134371831D01*
X138010800Y-134536203D01*
X138010800Y-134703797D01*
X137978105Y-134868169D01*
X137913969Y-135023005D01*
X137820860Y-135162354D01*
X137702354Y-135280860D01*
X137563005Y-135373969D01*
X137408169Y-135438105D01*
X137243797Y-135470800D01*
X137076203Y-135470800D01*
X136911831Y-135438105D01*
X136756995Y-135373969D01*
X136617646Y-135280860D01*
X136499140Y-135162354D01*
X136406031Y-135023005D01*
X136341895Y-134868169D01*
X136309200Y-134703797D01*
X136309200Y-134536203D01*
X136341895Y-134371831D01*
X136406031Y-134216995D01*
X136499140Y-134077646D01*
X136617646Y-133959140D01*
X136756995Y-133866031D01*
X136911831Y-133801895D01*
X137076203Y-133769200D01*
X137243797Y-133769200D01*
X137408169Y-133801895D01*
G37*
G36*
X151930800Y-135420800D02*
G01*
X150329200Y-135420800D01*
X150329200Y-133819200D01*
X151930800Y-133819200D01*
X151930800Y-135420800D01*
G37*
G36*
X108198169Y-132531895D02*
G01*
X108353005Y-132596031D01*
X108492354Y-132689140D01*
X108610860Y-132807646D01*
X108703969Y-132946995D01*
X108768105Y-133101831D01*
X108800800Y-133266203D01*
X108800800Y-133433797D01*
X108768105Y-133598169D01*
X108703969Y-133753005D01*
X108610860Y-133892354D01*
X108492354Y-134010860D01*
X108353005Y-134103969D01*
X108198169Y-134168105D01*
X108033797Y-134200800D01*
X107866203Y-134200800D01*
X107701831Y-134168105D01*
X107546995Y-134103969D01*
X107407646Y-134010860D01*
X107289140Y-133892354D01*
X107196031Y-133753005D01*
X107131895Y-133598169D01*
X107099200Y-133433797D01*
X107099200Y-133266203D01*
X107131895Y-133101831D01*
X107196031Y-132946995D01*
X107289140Y-132807646D01*
X107407646Y-132689140D01*
X107546995Y-132596031D01*
X107701831Y-132531895D01*
X107866203Y-132499200D01*
X108033797Y-132499200D01*
X108198169Y-132531895D01*
G37*
G36*
X82798169Y-132531895D02*
G01*
X82953005Y-132596031D01*
X83092354Y-132689140D01*
X83210860Y-132807646D01*
X83303969Y-132946995D01*
X83368105Y-133101831D01*
X83400800Y-133266203D01*
X83400800Y-133433797D01*
X83368105Y-133598169D01*
X83303969Y-133753005D01*
X83210860Y-133892354D01*
X83092354Y-134010860D01*
X82953005Y-134103969D01*
X82798169Y-134168105D01*
X82633797Y-134200800D01*
X82466203Y-134200800D01*
X82301831Y-134168105D01*
X82146995Y-134103969D01*
X82007646Y-134010860D01*
X81889140Y-133892354D01*
X81796031Y-133753005D01*
X81731895Y-133598169D01*
X81699200Y-133433797D01*
X81699200Y-133266203D01*
X81731895Y-133101831D01*
X81796031Y-132946995D01*
X81889140Y-132807646D01*
X82007646Y-132689140D01*
X82146995Y-132596031D01*
X82301831Y-132531895D01*
X82466203Y-132499200D01*
X82633797Y-132499200D01*
X82798169Y-132531895D01*
G37*
G36*
X115818169Y-132531895D02*
G01*
X115973005Y-132596031D01*
X116112354Y-132689140D01*
X116230860Y-132807646D01*
X116323969Y-132946995D01*
X116388105Y-133101831D01*
X116420800Y-133266203D01*
X116420800Y-133433797D01*
X116388105Y-133598169D01*
X116323969Y-133753005D01*
X116230860Y-133892354D01*
X116112354Y-134010860D01*
X115973005Y-134103969D01*
X115818169Y-134168105D01*
X115653797Y-134200800D01*
X115486203Y-134200800D01*
X115321831Y-134168105D01*
X115166995Y-134103969D01*
X115027646Y-134010860D01*
X114909140Y-133892354D01*
X114816031Y-133753005D01*
X114751895Y-133598169D01*
X114719200Y-133433797D01*
X114719200Y-133266203D01*
X114751895Y-133101831D01*
X114816031Y-132946995D01*
X114909140Y-132807646D01*
X115027646Y-132689140D01*
X115166995Y-132596031D01*
X115321831Y-132531895D01*
X115486203Y-132499200D01*
X115653797Y-132499200D01*
X115818169Y-132531895D01*
G37*
G36*
X90418169Y-132531895D02*
G01*
X90573005Y-132596031D01*
X90712354Y-132689140D01*
X90830860Y-132807646D01*
X90923969Y-132946995D01*
X90988105Y-133101831D01*
X91020800Y-133266203D01*
X91020800Y-133433797D01*
X90988105Y-133598169D01*
X90923969Y-133753005D01*
X90830860Y-133892354D01*
X90712354Y-134010860D01*
X90573005Y-134103969D01*
X90418169Y-134168105D01*
X90253797Y-134200800D01*
X90086203Y-134200800D01*
X89921831Y-134168105D01*
X89766995Y-134103969D01*
X89627646Y-134010860D01*
X89509140Y-133892354D01*
X89416031Y-133753005D01*
X89351895Y-133598169D01*
X89319200Y-133433797D01*
X89319200Y-133266203D01*
X89351895Y-133101831D01*
X89416031Y-132946995D01*
X89509140Y-132807646D01*
X89627646Y-132689140D01*
X89766995Y-132596031D01*
X89921831Y-132531895D01*
X90086203Y-132499200D01*
X90253797Y-132499200D01*
X90418169Y-132531895D01*
G37*
G36*
X194466508Y-131069582D02*
G01*
X194657741Y-131148793D01*
X194829847Y-131263791D01*
X194976209Y-131410153D01*
X195091207Y-131582259D01*
X195170418Y-131773492D01*
X195210800Y-131976505D01*
X195210800Y-132183495D01*
X195170418Y-132386508D01*
X195091207Y-132577741D01*
X194976209Y-132749847D01*
X194829847Y-132896209D01*
X194657741Y-133011207D01*
X194466508Y-133090418D01*
X194263495Y-133130800D01*
X194056505Y-133130800D01*
X193853492Y-133090418D01*
X193662259Y-133011207D01*
X193490153Y-132896209D01*
X193343791Y-132749847D01*
X193228793Y-132577741D01*
X193149582Y-132386508D01*
X193109200Y-132183495D01*
X193109200Y-131976505D01*
X193149582Y-131773492D01*
X193228793Y-131582259D01*
X193343791Y-131410153D01*
X193490153Y-131263791D01*
X193662259Y-131148793D01*
X193853492Y-131069582D01*
X194056505Y-131029200D01*
X194263495Y-131029200D01*
X194466508Y-131069582D01*
G37*
G36*
X200966508Y-131069582D02*
G01*
X201157741Y-131148793D01*
X201329847Y-131263791D01*
X201476209Y-131410153D01*
X201591207Y-131582259D01*
X201670418Y-131773492D01*
X201710800Y-131976505D01*
X201710800Y-132183495D01*
X201670418Y-132386508D01*
X201591207Y-132577741D01*
X201476209Y-132749847D01*
X201329847Y-132896209D01*
X201157741Y-133011207D01*
X200966508Y-133090418D01*
X200763495Y-133130800D01*
X200556505Y-133130800D01*
X200353492Y-133090418D01*
X200162259Y-133011207D01*
X199990153Y-132896209D01*
X199843791Y-132749847D01*
X199728793Y-132577741D01*
X199649582Y-132386508D01*
X199609200Y-132183495D01*
X199609200Y-131976505D01*
X199649582Y-131773492D01*
X199728793Y-131582259D01*
X199843791Y-131410153D01*
X199990153Y-131263791D01*
X200162259Y-131148793D01*
X200353492Y-131069582D01*
X200556505Y-131029200D01*
X200763495Y-131029200D01*
X200966508Y-131069582D01*
G37*
G36*
X181858169Y-131261895D02*
G01*
X182013005Y-131326031D01*
X182152354Y-131419140D01*
X182270860Y-131537646D01*
X182363969Y-131676995D01*
X182428105Y-131831831D01*
X182460800Y-131996203D01*
X182460800Y-132163797D01*
X182428105Y-132328169D01*
X182363969Y-132483005D01*
X182270860Y-132622354D01*
X182152354Y-132740860D01*
X182013005Y-132833969D01*
X181858169Y-132898105D01*
X181693797Y-132930800D01*
X181526203Y-132930800D01*
X181361831Y-132898105D01*
X181206995Y-132833969D01*
X181067646Y-132740860D01*
X180949140Y-132622354D01*
X180856031Y-132483005D01*
X180791895Y-132328169D01*
X180759200Y-132163797D01*
X180759200Y-131996203D01*
X180791895Y-131831831D01*
X180856031Y-131676995D01*
X180949140Y-131537646D01*
X181067646Y-131419140D01*
X181206995Y-131326031D01*
X181361831Y-131261895D01*
X181526203Y-131229200D01*
X181693797Y-131229200D01*
X181858169Y-131261895D01*
G37*
G36*
X148823585Y-131309974D02*
G01*
X148969322Y-131370339D01*
X149100482Y-131457978D01*
X149212022Y-131569518D01*
X149299661Y-131700678D01*
X149360026Y-131846415D01*
X149390800Y-132001128D01*
X149390800Y-132158872D01*
X149360026Y-132313585D01*
X149299661Y-132459322D01*
X149212022Y-132590482D01*
X149100482Y-132702022D01*
X148969322Y-132789661D01*
X148823585Y-132850026D01*
X148668872Y-132880800D01*
X148511128Y-132880800D01*
X148356415Y-132850026D01*
X148210678Y-132789661D01*
X148079518Y-132702022D01*
X147967978Y-132590482D01*
X147880339Y-132459322D01*
X147819974Y-132313585D01*
X147789200Y-132158872D01*
X147789200Y-132001128D01*
X147819974Y-131846415D01*
X147880339Y-131700678D01*
X147967978Y-131569518D01*
X148079518Y-131457978D01*
X148210678Y-131370339D01*
X148356415Y-131309974D01*
X148511128Y-131279200D01*
X148668872Y-131279200D01*
X148823585Y-131309974D01*
G37*
G36*
X151363585Y-128769974D02*
G01*
X151509322Y-128830339D01*
X151640482Y-128917978D01*
X151752022Y-129029518D01*
X151839661Y-129160678D01*
X151900026Y-129306415D01*
X151930800Y-129461128D01*
X151930800Y-129618872D01*
X151900026Y-129773585D01*
X151839661Y-129919322D01*
X151752022Y-130050482D01*
X151640482Y-130162022D01*
X151509322Y-130249661D01*
X151363585Y-130310026D01*
X151208872Y-130340800D01*
X151051128Y-130340800D01*
X150896415Y-130310026D01*
X150750678Y-130249661D01*
X150619518Y-130162022D01*
X150507978Y-130050482D01*
X150420339Y-129919322D01*
X150359974Y-129773585D01*
X150329200Y-129618872D01*
X150329200Y-129461128D01*
X150359974Y-129306415D01*
X150420339Y-129160678D01*
X150507978Y-129029518D01*
X150619518Y-128917978D01*
X150750678Y-128830339D01*
X150896415Y-128769974D01*
X151051128Y-128739200D01*
X151208872Y-128739200D01*
X151363585Y-128769974D01*
G37*
G36*
X90418169Y-123641895D02*
G01*
X90573005Y-123706031D01*
X90712354Y-123799140D01*
X90830860Y-123917646D01*
X90923969Y-124056995D01*
X90988105Y-124211831D01*
X91020800Y-124376203D01*
X91020800Y-124543797D01*
X90988105Y-124708169D01*
X90923969Y-124863005D01*
X90830860Y-125002354D01*
X90712354Y-125120860D01*
X90573005Y-125213969D01*
X90418169Y-125278105D01*
X90253797Y-125310800D01*
X90086203Y-125310800D01*
X89921831Y-125278105D01*
X89766995Y-125213969D01*
X89627646Y-125120860D01*
X89509140Y-125002354D01*
X89416031Y-124863005D01*
X89351895Y-124708169D01*
X89319200Y-124543797D01*
X89319200Y-124376203D01*
X89351895Y-124211831D01*
X89416031Y-124056995D01*
X89509140Y-123917646D01*
X89627646Y-123799140D01*
X89766995Y-123706031D01*
X89921831Y-123641895D01*
X90086203Y-123609200D01*
X90253797Y-123609200D01*
X90418169Y-123641895D01*
G37*
G36*
X82798169Y-123641895D02*
G01*
X82953005Y-123706031D01*
X83092354Y-123799140D01*
X83210860Y-123917646D01*
X83303969Y-124056995D01*
X83368105Y-124211831D01*
X83400800Y-124376203D01*
X83400800Y-124543797D01*
X83368105Y-124708169D01*
X83303969Y-124863005D01*
X83210860Y-125002354D01*
X83092354Y-125120860D01*
X82953005Y-125213969D01*
X82798169Y-125278105D01*
X82633797Y-125310800D01*
X82466203Y-125310800D01*
X82301831Y-125278105D01*
X82146995Y-125213969D01*
X82007646Y-125120860D01*
X81889140Y-125002354D01*
X81796031Y-124863005D01*
X81731895Y-124708169D01*
X81699200Y-124543797D01*
X81699200Y-124376203D01*
X81731895Y-124211831D01*
X81796031Y-124056995D01*
X81889140Y-123917646D01*
X82007646Y-123799140D01*
X82146995Y-123706031D01*
X82301831Y-123641895D01*
X82466203Y-123609200D01*
X82633797Y-123609200D01*
X82798169Y-123641895D01*
G37*
G36*
X157060800Y-124040800D02*
G01*
X155359200Y-124040800D01*
X155359200Y-122339200D01*
X157060800Y-122339200D01*
X157060800Y-124040800D01*
G37*
G36*
X129788169Y-122371895D02*
G01*
X129943005Y-122436031D01*
X130082354Y-122529140D01*
X130200860Y-122647646D01*
X130293969Y-122786995D01*
X130358105Y-122941831D01*
X130390800Y-123106203D01*
X130390800Y-123273797D01*
X130358105Y-123438169D01*
X130293969Y-123593005D01*
X130200860Y-123732354D01*
X130082354Y-123850860D01*
X129943005Y-123943969D01*
X129788169Y-124008105D01*
X129623797Y-124040800D01*
X129456203Y-124040800D01*
X129291831Y-124008105D01*
X129136995Y-123943969D01*
X128997646Y-123850860D01*
X128879140Y-123732354D01*
X128786031Y-123593005D01*
X128721895Y-123438169D01*
X128689200Y-123273797D01*
X128689200Y-123106203D01*
X128721895Y-122941831D01*
X128786031Y-122786995D01*
X128879140Y-122647646D01*
X128997646Y-122529140D01*
X129136995Y-122436031D01*
X129291831Y-122371895D01*
X129456203Y-122339200D01*
X129623797Y-122339200D01*
X129788169Y-122371895D01*
G37*
G36*
X142488169Y-122371895D02*
G01*
X142643005Y-122436031D01*
X142782354Y-122529140D01*
X142900860Y-122647646D01*
X142993969Y-122786995D01*
X143058105Y-122941831D01*
X143090800Y-123106203D01*
X143090800Y-123273797D01*
X143058105Y-123438169D01*
X142993969Y-123593005D01*
X142900860Y-123732354D01*
X142782354Y-123850860D01*
X142643005Y-123943969D01*
X142488169Y-124008105D01*
X142323797Y-124040800D01*
X142156203Y-124040800D01*
X141991831Y-124008105D01*
X141836995Y-123943969D01*
X141697646Y-123850860D01*
X141579140Y-123732354D01*
X141486031Y-123593005D01*
X141421895Y-123438169D01*
X141389200Y-123273797D01*
X141389200Y-123106203D01*
X141421895Y-122941831D01*
X141486031Y-122786995D01*
X141579140Y-122647646D01*
X141697646Y-122529140D01*
X141836995Y-122436031D01*
X141991831Y-122371895D01*
X142156203Y-122339200D01*
X142323797Y-122339200D01*
X142488169Y-122371895D01*
G37*
G36*
X146298169Y-122371895D02*
G01*
X146453005Y-122436031D01*
X146592354Y-122529140D01*
X146710860Y-122647646D01*
X146803969Y-122786995D01*
X146868105Y-122941831D01*
X146900800Y-123106203D01*
X146900800Y-123273797D01*
X146868105Y-123438169D01*
X146803969Y-123593005D01*
X146710860Y-123732354D01*
X146592354Y-123850860D01*
X146453005Y-123943969D01*
X146298169Y-124008105D01*
X146133797Y-124040800D01*
X145966203Y-124040800D01*
X145801831Y-124008105D01*
X145646995Y-123943969D01*
X145507646Y-123850860D01*
X145389140Y-123732354D01*
X145296031Y-123593005D01*
X145231895Y-123438169D01*
X145199200Y-123273797D01*
X145199200Y-123106203D01*
X145231895Y-122941831D01*
X145296031Y-122786995D01*
X145389140Y-122647646D01*
X145507646Y-122529140D01*
X145646995Y-122436031D01*
X145801831Y-122371895D01*
X145966203Y-122339200D01*
X146133797Y-122339200D01*
X146298169Y-122371895D01*
G37*
G36*
X164078169Y-122371895D02*
G01*
X164233005Y-122436031D01*
X164372354Y-122529140D01*
X164490860Y-122647646D01*
X164583969Y-122786995D01*
X164648105Y-122941831D01*
X164680800Y-123106203D01*
X164680800Y-123273797D01*
X164648105Y-123438169D01*
X164583969Y-123593005D01*
X164490860Y-123732354D01*
X164372354Y-123850860D01*
X164233005Y-123943969D01*
X164078169Y-124008105D01*
X163913797Y-124040800D01*
X163746203Y-124040800D01*
X163581831Y-124008105D01*
X163426995Y-123943969D01*
X163287646Y-123850860D01*
X163169140Y-123732354D01*
X163076031Y-123593005D01*
X163011895Y-123438169D01*
X162979200Y-123273797D01*
X162979200Y-123106203D01*
X163011895Y-122941831D01*
X163076031Y-122786995D01*
X163169140Y-122647646D01*
X163287646Y-122529140D01*
X163426995Y-122436031D01*
X163581831Y-122371895D01*
X163746203Y-122339200D01*
X163913797Y-122339200D01*
X164078169Y-122371895D01*
G37*
G36*
X137408169Y-122371895D02*
G01*
X137563005Y-122436031D01*
X137702354Y-122529140D01*
X137820860Y-122647646D01*
X137913969Y-122786995D01*
X137978105Y-122941831D01*
X138010800Y-123106203D01*
X138010800Y-123273797D01*
X137978105Y-123438169D01*
X137913969Y-123593005D01*
X137820860Y-123732354D01*
X137702354Y-123850860D01*
X137563005Y-123943969D01*
X137408169Y-124008105D01*
X137243797Y-124040800D01*
X137076203Y-124040800D01*
X136911831Y-124008105D01*
X136756995Y-123943969D01*
X136617646Y-123850860D01*
X136499140Y-123732354D01*
X136406031Y-123593005D01*
X136341895Y-123438169D01*
X136309200Y-123273797D01*
X136309200Y-123106203D01*
X136341895Y-122941831D01*
X136406031Y-122786995D01*
X136499140Y-122647646D01*
X136617646Y-122529140D01*
X136756995Y-122436031D01*
X136911831Y-122371895D01*
X137076203Y-122339200D01*
X137243797Y-122339200D01*
X137408169Y-122371895D01*
G37*
G36*
X158998169Y-122371895D02*
G01*
X159153005Y-122436031D01*
X159292354Y-122529140D01*
X159410860Y-122647646D01*
X159503969Y-122786995D01*
X159568105Y-122941831D01*
X159600800Y-123106203D01*
X159600800Y-123273797D01*
X159568105Y-123438169D01*
X159503969Y-123593005D01*
X159410860Y-123732354D01*
X159292354Y-123850860D01*
X159153005Y-123943969D01*
X158998169Y-124008105D01*
X158833797Y-124040800D01*
X158666203Y-124040800D01*
X158501831Y-124008105D01*
X158346995Y-123943969D01*
X158207646Y-123850860D01*
X158089140Y-123732354D01*
X157996031Y-123593005D01*
X157931895Y-123438169D01*
X157899200Y-123273797D01*
X157899200Y-123106203D01*
X157931895Y-122941831D01*
X157996031Y-122786995D01*
X158089140Y-122647646D01*
X158207646Y-122529140D01*
X158346995Y-122436031D01*
X158501831Y-122371895D01*
X158666203Y-122339200D01*
X158833797Y-122339200D01*
X158998169Y-122371895D01*
G37*
G36*
X161538169Y-122371895D02*
G01*
X161693005Y-122436031D01*
X161832354Y-122529140D01*
X161950860Y-122647646D01*
X162043969Y-122786995D01*
X162108105Y-122941831D01*
X162140800Y-123106203D01*
X162140800Y-123273797D01*
X162108105Y-123438169D01*
X162043969Y-123593005D01*
X161950860Y-123732354D01*
X161832354Y-123850860D01*
X161693005Y-123943969D01*
X161538169Y-124008105D01*
X161373797Y-124040800D01*
X161206203Y-124040800D01*
X161041831Y-124008105D01*
X160886995Y-123943969D01*
X160747646Y-123850860D01*
X160629140Y-123732354D01*
X160536031Y-123593005D01*
X160471895Y-123438169D01*
X160439200Y-123273797D01*
X160439200Y-123106203D01*
X160471895Y-122941831D01*
X160536031Y-122786995D01*
X160629140Y-122647646D01*
X160747646Y-122529140D01*
X160886995Y-122436031D01*
X161041831Y-122371895D01*
X161206203Y-122339200D01*
X161373797Y-122339200D01*
X161538169Y-122371895D01*
G37*
G36*
X90418169Y-119831895D02*
G01*
X90573005Y-119896031D01*
X90712354Y-119989140D01*
X90830860Y-120107646D01*
X90923969Y-120246995D01*
X90988105Y-120401831D01*
X91020800Y-120566203D01*
X91020800Y-120733797D01*
X90988105Y-120898169D01*
X90923969Y-121053005D01*
X90830860Y-121192354D01*
X90712354Y-121310860D01*
X90573005Y-121403969D01*
X90418169Y-121468105D01*
X90253797Y-121500800D01*
X90086203Y-121500800D01*
X89921831Y-121468105D01*
X89766995Y-121403969D01*
X89627646Y-121310860D01*
X89509140Y-121192354D01*
X89416031Y-121053005D01*
X89351895Y-120898169D01*
X89319200Y-120733797D01*
X89319200Y-120566203D01*
X89351895Y-120401831D01*
X89416031Y-120246995D01*
X89509140Y-120107646D01*
X89627646Y-119989140D01*
X89766995Y-119896031D01*
X89921831Y-119831895D01*
X90086203Y-119799200D01*
X90253797Y-119799200D01*
X90418169Y-119831895D01*
G37*
G36*
X82798169Y-119831895D02*
G01*
X82953005Y-119896031D01*
X83092354Y-119989140D01*
X83210860Y-120107646D01*
X83303969Y-120246995D01*
X83368105Y-120401831D01*
X83400800Y-120566203D01*
X83400800Y-120733797D01*
X83368105Y-120898169D01*
X83303969Y-121053005D01*
X83210860Y-121192354D01*
X83092354Y-121310860D01*
X82953005Y-121403969D01*
X82798169Y-121468105D01*
X82633797Y-121500800D01*
X82466203Y-121500800D01*
X82301831Y-121468105D01*
X82146995Y-121403969D01*
X82007646Y-121310860D01*
X81889140Y-121192354D01*
X81796031Y-121053005D01*
X81731895Y-120898169D01*
X81699200Y-120733797D01*
X81699200Y-120566203D01*
X81731895Y-120401831D01*
X81796031Y-120246995D01*
X81889140Y-120107646D01*
X82007646Y-119989140D01*
X82146995Y-119896031D01*
X82301831Y-119831895D01*
X82466203Y-119799200D01*
X82633797Y-119799200D01*
X82798169Y-119831895D01*
G37*
G36*
X129788169Y-119831895D02*
G01*
X129943005Y-119896031D01*
X130082354Y-119989140D01*
X130200860Y-120107646D01*
X130293969Y-120246995D01*
X130358105Y-120401831D01*
X130390800Y-120566203D01*
X130390800Y-120733797D01*
X130358105Y-120898169D01*
X130293969Y-121053005D01*
X130200860Y-121192354D01*
X130082354Y-121310860D01*
X129943005Y-121403969D01*
X129788169Y-121468105D01*
X129623797Y-121500800D01*
X129456203Y-121500800D01*
X129291831Y-121468105D01*
X129136995Y-121403969D01*
X128997646Y-121310860D01*
X128879140Y-121192354D01*
X128786031Y-121053005D01*
X128721895Y-120898169D01*
X128689200Y-120733797D01*
X128689200Y-120566203D01*
X128721895Y-120401831D01*
X128786031Y-120246995D01*
X128879140Y-120107646D01*
X128997646Y-119989140D01*
X129136995Y-119896031D01*
X129291831Y-119831895D01*
X129456203Y-119799200D01*
X129623797Y-119799200D01*
X129788169Y-119831895D01*
G37*
G36*
X137408169Y-119831895D02*
G01*
X137563005Y-119896031D01*
X137702354Y-119989140D01*
X137820860Y-120107646D01*
X137913969Y-120246995D01*
X137978105Y-120401831D01*
X138010800Y-120566203D01*
X138010800Y-120733797D01*
X137978105Y-120898169D01*
X137913969Y-121053005D01*
X137820860Y-121192354D01*
X137702354Y-121310860D01*
X137563005Y-121403969D01*
X137408169Y-121468105D01*
X137243797Y-121500800D01*
X137076203Y-121500800D01*
X136911831Y-121468105D01*
X136756995Y-121403969D01*
X136617646Y-121310860D01*
X136499140Y-121192354D01*
X136406031Y-121053005D01*
X136341895Y-120898169D01*
X136309200Y-120733797D01*
X136309200Y-120566203D01*
X136341895Y-120401831D01*
X136406031Y-120246995D01*
X136499140Y-120107646D01*
X136617646Y-119989140D01*
X136756995Y-119896031D01*
X136911831Y-119831895D01*
X137076203Y-119799200D01*
X137243797Y-119799200D01*
X137408169Y-119831895D01*
G37*
G36*
X182460800Y-121500800D02*
G01*
X180759200Y-121500800D01*
X180759200Y-119799200D01*
X182460800Y-119799200D01*
X182460800Y-121500800D01*
G37*
G36*
X173570800Y-121500800D02*
G01*
X171869200Y-121500800D01*
X171869200Y-119799200D01*
X173570800Y-119799200D01*
X173570800Y-121500800D01*
G37*
G36*
X61793015Y-117605255D02*
G01*
X61800897Y-117607646D01*
X62132471Y-117708228D01*
X62445312Y-117875445D01*
X62719519Y-118100481D01*
X62944555Y-118374688D01*
X63111772Y-118687529D01*
X63196884Y-118968105D01*
X63214745Y-119026985D01*
X63249514Y-119380000D01*
X63214745Y-119733015D01*
X63214744Y-119733018D01*
X63111772Y-120072471D01*
X62944555Y-120385312D01*
X62719519Y-120659519D01*
X62445312Y-120884555D01*
X62132471Y-121051772D01*
X61927438Y-121113968D01*
X61793015Y-121154745D01*
X61528472Y-121180800D01*
X57851528Y-121180800D01*
X57586985Y-121154745D01*
X57452562Y-121113968D01*
X57247529Y-121051772D01*
X56934688Y-120884555D01*
X56660481Y-120659519D01*
X56435445Y-120385312D01*
X56268228Y-120072471D01*
X56165256Y-119733018D01*
X56165255Y-119733015D01*
X56130486Y-119380000D01*
X56165255Y-119026985D01*
X56183116Y-118968105D01*
X56268228Y-118687529D01*
X56435445Y-118374688D01*
X56660481Y-118100481D01*
X56934688Y-117875445D01*
X57247529Y-117708228D01*
X57579103Y-117607646D01*
X57586985Y-117605255D01*
X57851528Y-117579200D01*
X61528472Y-117579200D01*
X61793015Y-117605255D01*
G37*
G36*
X195056452Y-117596253D02*
G01*
X195220553Y-117646032D01*
X195371791Y-117726871D01*
X195504345Y-117835655D01*
X195613129Y-117968209D01*
X195693968Y-118119447D01*
X195743747Y-118283548D01*
X195760800Y-118456691D01*
X195760800Y-120303309D01*
X195743747Y-120476452D01*
X195693968Y-120640553D01*
X195613129Y-120791791D01*
X195504345Y-120924345D01*
X195371791Y-121033129D01*
X195220553Y-121113968D01*
X195056452Y-121163747D01*
X194883309Y-121180800D01*
X193036691Y-121180800D01*
X192863548Y-121163747D01*
X192699447Y-121113968D01*
X192548209Y-121033129D01*
X192415655Y-120924345D01*
X192306871Y-120791791D01*
X192226032Y-120640553D01*
X192176253Y-120476452D01*
X192159200Y-120303309D01*
X192159200Y-118456691D01*
X192176253Y-118283548D01*
X192226032Y-118119447D01*
X192306871Y-117968209D01*
X192415655Y-117835655D01*
X192548209Y-117726871D01*
X192699447Y-117646032D01*
X192863548Y-117596253D01*
X193036691Y-117579200D01*
X194883309Y-117579200D01*
X195056452Y-117596253D01*
G37*
G36*
X189760800Y-121180800D02*
G01*
X186159200Y-121180800D01*
X186159200Y-117579200D01*
X189760800Y-117579200D01*
X189760800Y-121180800D01*
G37*
G36*
X181858169Y-117331895D02*
G01*
X182013005Y-117396031D01*
X182152354Y-117489140D01*
X182270860Y-117607646D01*
X182363969Y-117746995D01*
X182428105Y-117901831D01*
X182460800Y-118066203D01*
X182460800Y-118233797D01*
X182428105Y-118398169D01*
X182363969Y-118553005D01*
X182270860Y-118692354D01*
X182152354Y-118810860D01*
X182013005Y-118903969D01*
X181858169Y-118968105D01*
X181693797Y-119000800D01*
X181526203Y-119000800D01*
X181361831Y-118968105D01*
X181206995Y-118903969D01*
X181067646Y-118810860D01*
X180949140Y-118692354D01*
X180856031Y-118553005D01*
X180791895Y-118398169D01*
X180759200Y-118233797D01*
X180759200Y-118066203D01*
X180791895Y-117901831D01*
X180856031Y-117746995D01*
X180949140Y-117607646D01*
X181067646Y-117489140D01*
X181206995Y-117396031D01*
X181361831Y-117331895D01*
X181526203Y-117299200D01*
X181693797Y-117299200D01*
X181858169Y-117331895D01*
G37*
G36*
X172968169Y-117331895D02*
G01*
X173123005Y-117396031D01*
X173262354Y-117489140D01*
X173380860Y-117607646D01*
X173473969Y-117746995D01*
X173538105Y-117901831D01*
X173570800Y-118066203D01*
X173570800Y-118233797D01*
X173538105Y-118398169D01*
X173473969Y-118553005D01*
X173380860Y-118692354D01*
X173262354Y-118810860D01*
X173123005Y-118903969D01*
X172968169Y-118968105D01*
X172803797Y-119000800D01*
X172636203Y-119000800D01*
X172471831Y-118968105D01*
X172316995Y-118903969D01*
X172177646Y-118810860D01*
X172059140Y-118692354D01*
X171966031Y-118553005D01*
X171901895Y-118398169D01*
X171869200Y-118233797D01*
X171869200Y-118066203D01*
X171901895Y-117901831D01*
X171966031Y-117746995D01*
X172059140Y-117607646D01*
X172177646Y-117489140D01*
X172316995Y-117396031D01*
X172471831Y-117331895D01*
X172636203Y-117299200D01*
X172803797Y-117299200D01*
X172968169Y-117331895D01*
G37*
G36*
X137408169Y-117291895D02*
G01*
X137563005Y-117356031D01*
X137702354Y-117449140D01*
X137820860Y-117567646D01*
X137913969Y-117706995D01*
X137978105Y-117861831D01*
X138010800Y-118026203D01*
X138010800Y-118193797D01*
X137978105Y-118358169D01*
X137913969Y-118513005D01*
X137820860Y-118652354D01*
X137702354Y-118770860D01*
X137563005Y-118863969D01*
X137408169Y-118928105D01*
X137243797Y-118960800D01*
X137076203Y-118960800D01*
X136911831Y-118928105D01*
X136756995Y-118863969D01*
X136617646Y-118770860D01*
X136499140Y-118652354D01*
X136406031Y-118513005D01*
X136341895Y-118358169D01*
X136309200Y-118193797D01*
X136309200Y-118026203D01*
X136341895Y-117861831D01*
X136406031Y-117706995D01*
X136499140Y-117567646D01*
X136617646Y-117449140D01*
X136756995Y-117356031D01*
X136911831Y-117291895D01*
X137076203Y-117259200D01*
X137243797Y-117259200D01*
X137408169Y-117291895D01*
G37*
G36*
X129788169Y-117291895D02*
G01*
X129943005Y-117356031D01*
X130082354Y-117449140D01*
X130200860Y-117567646D01*
X130293969Y-117706995D01*
X130358105Y-117861831D01*
X130390800Y-118026203D01*
X130390800Y-118193797D01*
X130358105Y-118358169D01*
X130293969Y-118513005D01*
X130200860Y-118652354D01*
X130082354Y-118770860D01*
X129943005Y-118863969D01*
X129788169Y-118928105D01*
X129623797Y-118960800D01*
X129456203Y-118960800D01*
X129291831Y-118928105D01*
X129136995Y-118863969D01*
X128997646Y-118770860D01*
X128879140Y-118652354D01*
X128786031Y-118513005D01*
X128721895Y-118358169D01*
X128689200Y-118193797D01*
X128689200Y-118026203D01*
X128721895Y-117861831D01*
X128786031Y-117706995D01*
X128879140Y-117567646D01*
X128997646Y-117449140D01*
X129136995Y-117356031D01*
X129291831Y-117291895D01*
X129456203Y-117259200D01*
X129623797Y-117259200D01*
X129788169Y-117291895D01*
G37*
G36*
X82798169Y-116021895D02*
G01*
X82953005Y-116086031D01*
X83092354Y-116179140D01*
X83210860Y-116297646D01*
X83303969Y-116436995D01*
X83368105Y-116591831D01*
X83400800Y-116756203D01*
X83400800Y-116923797D01*
X83368105Y-117088169D01*
X83303969Y-117243005D01*
X83210860Y-117382354D01*
X83092354Y-117500860D01*
X82953005Y-117593969D01*
X82798169Y-117658105D01*
X82633797Y-117690800D01*
X82466203Y-117690800D01*
X82301831Y-117658105D01*
X82146995Y-117593969D01*
X82007646Y-117500860D01*
X81889140Y-117382354D01*
X81796031Y-117243005D01*
X81731895Y-117088169D01*
X81699200Y-116923797D01*
X81699200Y-116756203D01*
X81731895Y-116591831D01*
X81796031Y-116436995D01*
X81889140Y-116297646D01*
X82007646Y-116179140D01*
X82146995Y-116086031D01*
X82301831Y-116021895D01*
X82466203Y-115989200D01*
X82633797Y-115989200D01*
X82798169Y-116021895D01*
G37*
G36*
X90418169Y-116021895D02*
G01*
X90573005Y-116086031D01*
X90712354Y-116179140D01*
X90830860Y-116297646D01*
X90923969Y-116436995D01*
X90988105Y-116591831D01*
X91020800Y-116756203D01*
X91020800Y-116923797D01*
X90988105Y-117088169D01*
X90923969Y-117243005D01*
X90830860Y-117382354D01*
X90712354Y-117500860D01*
X90573005Y-117593969D01*
X90418169Y-117658105D01*
X90253797Y-117690800D01*
X90086203Y-117690800D01*
X89921831Y-117658105D01*
X89766995Y-117593969D01*
X89627646Y-117500860D01*
X89509140Y-117382354D01*
X89416031Y-117243005D01*
X89351895Y-117088169D01*
X89319200Y-116923797D01*
X89319200Y-116756203D01*
X89351895Y-116591831D01*
X89416031Y-116436995D01*
X89509140Y-116297646D01*
X89627646Y-116179140D01*
X89766995Y-116086031D01*
X89921831Y-116021895D01*
X90086203Y-115989200D01*
X90253797Y-115989200D01*
X90418169Y-116021895D01*
G37*
G36*
X68828169Y-116021895D02*
G01*
X68983005Y-116086031D01*
X69122354Y-116179140D01*
X69240860Y-116297646D01*
X69333969Y-116436995D01*
X69398105Y-116591831D01*
X69430800Y-116756203D01*
X69430800Y-116923797D01*
X69398105Y-117088169D01*
X69333969Y-117243005D01*
X69240860Y-117382354D01*
X69122354Y-117500860D01*
X68983005Y-117593969D01*
X68828169Y-117658105D01*
X68663797Y-117690800D01*
X68496203Y-117690800D01*
X68331831Y-117658105D01*
X68176995Y-117593969D01*
X68037646Y-117500860D01*
X67919140Y-117382354D01*
X67826031Y-117243005D01*
X67761895Y-117088169D01*
X67729200Y-116923797D01*
X67729200Y-116756203D01*
X67761895Y-116591831D01*
X67826031Y-116436995D01*
X67919140Y-116297646D01*
X68037646Y-116179140D01*
X68176995Y-116086031D01*
X68331831Y-116021895D01*
X68496203Y-115989200D01*
X68663797Y-115989200D01*
X68828169Y-116021895D01*
G37*
G36*
X192056452Y-112896253D02*
G01*
X192220553Y-112946032D01*
X192371791Y-113026871D01*
X192504345Y-113135655D01*
X192613129Y-113268209D01*
X192693968Y-113419447D01*
X192743747Y-113583548D01*
X192760800Y-113756691D01*
X192760800Y-115603309D01*
X192743747Y-115776452D01*
X192693968Y-115940553D01*
X192613129Y-116091791D01*
X192504345Y-116224345D01*
X192371791Y-116333129D01*
X192220553Y-116413968D01*
X192056452Y-116463747D01*
X191883309Y-116480800D01*
X190036691Y-116480800D01*
X189863548Y-116463747D01*
X189699447Y-116413968D01*
X189548209Y-116333129D01*
X189415655Y-116224345D01*
X189306871Y-116091791D01*
X189226032Y-115940553D01*
X189176253Y-115776452D01*
X189159200Y-115603309D01*
X189159200Y-113756691D01*
X189176253Y-113583548D01*
X189226032Y-113419447D01*
X189306871Y-113268209D01*
X189415655Y-113135655D01*
X189548209Y-113026871D01*
X189699447Y-112946032D01*
X189863548Y-112896253D01*
X190036691Y-112879200D01*
X191883309Y-112879200D01*
X192056452Y-112896253D01*
G37*
G36*
X146298169Y-114751895D02*
G01*
X146453005Y-114816031D01*
X146592354Y-114909140D01*
X146710860Y-115027646D01*
X146803969Y-115166995D01*
X146868105Y-115321831D01*
X146900800Y-115486203D01*
X146900800Y-115653797D01*
X146868105Y-115818169D01*
X146803969Y-115973005D01*
X146710860Y-116112354D01*
X146592354Y-116230860D01*
X146453005Y-116323969D01*
X146298169Y-116388105D01*
X146133797Y-116420800D01*
X145966203Y-116420800D01*
X145801831Y-116388105D01*
X145646995Y-116323969D01*
X145507646Y-116230860D01*
X145389140Y-116112354D01*
X145296031Y-115973005D01*
X145231895Y-115818169D01*
X145199200Y-115653797D01*
X145199200Y-115486203D01*
X145231895Y-115321831D01*
X145296031Y-115166995D01*
X145389140Y-115027646D01*
X145507646Y-114909140D01*
X145646995Y-114816031D01*
X145801831Y-114751895D01*
X145966203Y-114719200D01*
X146133797Y-114719200D01*
X146298169Y-114751895D01*
G37*
G36*
X130390800Y-116420800D02*
G01*
X128689200Y-116420800D01*
X128689200Y-114719200D01*
X130390800Y-114719200D01*
X130390800Y-116420800D01*
G37*
G36*
X137408169Y-114751895D02*
G01*
X137563005Y-114816031D01*
X137702354Y-114909140D01*
X137820860Y-115027646D01*
X137913969Y-115166995D01*
X137978105Y-115321831D01*
X138010800Y-115486203D01*
X138010800Y-115653797D01*
X137978105Y-115818169D01*
X137913969Y-115973005D01*
X137820860Y-116112354D01*
X137702354Y-116230860D01*
X137563005Y-116323969D01*
X137408169Y-116388105D01*
X137243797Y-116420800D01*
X137076203Y-116420800D01*
X136911831Y-116388105D01*
X136756995Y-116323969D01*
X136617646Y-116230860D01*
X136499140Y-116112354D01*
X136406031Y-115973005D01*
X136341895Y-115818169D01*
X136309200Y-115653797D01*
X136309200Y-115486203D01*
X136341895Y-115321831D01*
X136406031Y-115166995D01*
X136499140Y-115027646D01*
X136617646Y-114909140D01*
X136756995Y-114816031D01*
X136911831Y-114751895D01*
X137076203Y-114719200D01*
X137243797Y-114719200D01*
X137408169Y-114751895D01*
G37*
G36*
X156458169Y-114751895D02*
G01*
X156613005Y-114816031D01*
X156752354Y-114909140D01*
X156870860Y-115027646D01*
X156963969Y-115166995D01*
X157028105Y-115321831D01*
X157060800Y-115486203D01*
X157060800Y-115653797D01*
X157028105Y-115818169D01*
X156963969Y-115973005D01*
X156870860Y-116112354D01*
X156752354Y-116230860D01*
X156613005Y-116323969D01*
X156458169Y-116388105D01*
X156293797Y-116420800D01*
X156126203Y-116420800D01*
X155961831Y-116388105D01*
X155806995Y-116323969D01*
X155667646Y-116230860D01*
X155549140Y-116112354D01*
X155456031Y-115973005D01*
X155391895Y-115818169D01*
X155359200Y-115653797D01*
X155359200Y-115486203D01*
X155391895Y-115321831D01*
X155456031Y-115166995D01*
X155549140Y-115027646D01*
X155667646Y-114909140D01*
X155806995Y-114816031D01*
X155961831Y-114751895D01*
X156126203Y-114719200D01*
X156293797Y-114719200D01*
X156458169Y-114751895D01*
G37*
G36*
X164078169Y-114751895D02*
G01*
X164233005Y-114816031D01*
X164372354Y-114909140D01*
X164490860Y-115027646D01*
X164583969Y-115166995D01*
X164648105Y-115321831D01*
X164680800Y-115486203D01*
X164680800Y-115653797D01*
X164648105Y-115818169D01*
X164583969Y-115973005D01*
X164490860Y-116112354D01*
X164372354Y-116230860D01*
X164233005Y-116323969D01*
X164078169Y-116388105D01*
X163913797Y-116420800D01*
X163746203Y-116420800D01*
X163581831Y-116388105D01*
X163426995Y-116323969D01*
X163287646Y-116230860D01*
X163169140Y-116112354D01*
X163076031Y-115973005D01*
X163011895Y-115818169D01*
X162979200Y-115653797D01*
X162979200Y-115486203D01*
X163011895Y-115321831D01*
X163076031Y-115166995D01*
X163169140Y-115027646D01*
X163287646Y-114909140D01*
X163426995Y-114816031D01*
X163581831Y-114751895D01*
X163746203Y-114719200D01*
X163913797Y-114719200D01*
X164078169Y-114751895D01*
G37*
G36*
X142488169Y-114751895D02*
G01*
X142643005Y-114816031D01*
X142782354Y-114909140D01*
X142900860Y-115027646D01*
X142993969Y-115166995D01*
X143058105Y-115321831D01*
X143090800Y-115486203D01*
X143090800Y-115653797D01*
X143058105Y-115818169D01*
X142993969Y-115973005D01*
X142900860Y-116112354D01*
X142782354Y-116230860D01*
X142643005Y-116323969D01*
X142488169Y-116388105D01*
X142323797Y-116420800D01*
X142156203Y-116420800D01*
X141991831Y-116388105D01*
X141836995Y-116323969D01*
X141697646Y-116230860D01*
X141579140Y-116112354D01*
X141486031Y-115973005D01*
X141421895Y-115818169D01*
X141389200Y-115653797D01*
X141389200Y-115486203D01*
X141421895Y-115321831D01*
X141486031Y-115166995D01*
X141579140Y-115027646D01*
X141697646Y-114909140D01*
X141836995Y-114816031D01*
X141991831Y-114751895D01*
X142156203Y-114719200D01*
X142323797Y-114719200D01*
X142488169Y-114751895D01*
G37*
G36*
X158998169Y-114751895D02*
G01*
X159153005Y-114816031D01*
X159292354Y-114909140D01*
X159410860Y-115027646D01*
X159503969Y-115166995D01*
X159568105Y-115321831D01*
X159600800Y-115486203D01*
X159600800Y-115653797D01*
X159568105Y-115818169D01*
X159503969Y-115973005D01*
X159410860Y-116112354D01*
X159292354Y-116230860D01*
X159153005Y-116323969D01*
X158998169Y-116388105D01*
X158833797Y-116420800D01*
X158666203Y-116420800D01*
X158501831Y-116388105D01*
X158346995Y-116323969D01*
X158207646Y-116230860D01*
X158089140Y-116112354D01*
X157996031Y-115973005D01*
X157931895Y-115818169D01*
X157899200Y-115653797D01*
X157899200Y-115486203D01*
X157931895Y-115321831D01*
X157996031Y-115166995D01*
X158089140Y-115027646D01*
X158207646Y-114909140D01*
X158346995Y-114816031D01*
X158501831Y-114751895D01*
X158666203Y-114719200D01*
X158833797Y-114719200D01*
X158998169Y-114751895D01*
G37*
G36*
X161538169Y-114751895D02*
G01*
X161693005Y-114816031D01*
X161832354Y-114909140D01*
X161950860Y-115027646D01*
X162043969Y-115166995D01*
X162108105Y-115321831D01*
X162140800Y-115486203D01*
X162140800Y-115653797D01*
X162108105Y-115818169D01*
X162043969Y-115973005D01*
X161950860Y-116112354D01*
X161832354Y-116230860D01*
X161693005Y-116323969D01*
X161538169Y-116388105D01*
X161373797Y-116420800D01*
X161206203Y-116420800D01*
X161041831Y-116388105D01*
X160886995Y-116323969D01*
X160747646Y-116230860D01*
X160629140Y-116112354D01*
X160536031Y-115973005D01*
X160471895Y-115818169D01*
X160439200Y-115653797D01*
X160439200Y-115486203D01*
X160471895Y-115321831D01*
X160536031Y-115166995D01*
X160629140Y-115027646D01*
X160747646Y-114909140D01*
X160886995Y-114816031D01*
X161041831Y-114751895D01*
X161206203Y-114719200D01*
X161373797Y-114719200D01*
X161538169Y-114751895D01*
G37*
G36*
X66288169Y-113481895D02*
G01*
X66443005Y-113546031D01*
X66582354Y-113639140D01*
X66700860Y-113757646D01*
X66793969Y-113896995D01*
X66858105Y-114051831D01*
X66890800Y-114216203D01*
X66890800Y-114383797D01*
X66858105Y-114548169D01*
X66793969Y-114703005D01*
X66700860Y-114842354D01*
X66582354Y-114960860D01*
X66443005Y-115053969D01*
X66288169Y-115118105D01*
X66123797Y-115150800D01*
X65956203Y-115150800D01*
X65791831Y-115118105D01*
X65636995Y-115053969D01*
X65497646Y-114960860D01*
X65379140Y-114842354D01*
X65286031Y-114703005D01*
X65221895Y-114548169D01*
X65189200Y-114383797D01*
X65189200Y-114216203D01*
X65221895Y-114051831D01*
X65286031Y-113896995D01*
X65379140Y-113757646D01*
X65497646Y-113639140D01*
X65636995Y-113546031D01*
X65791831Y-113481895D01*
X65956203Y-113449200D01*
X66123797Y-113449200D01*
X66288169Y-113481895D01*
G37*
G36*
X69108785Y-113457126D02*
G01*
X69183780Y-113479876D01*
X69252891Y-113516816D01*
X69313469Y-113566531D01*
X69363184Y-113627109D01*
X69400124Y-113696220D01*
X69422874Y-113771215D01*
X69430800Y-113851691D01*
X69430800Y-114748309D01*
X69422874Y-114828785D01*
X69400124Y-114903780D01*
X69363184Y-114972891D01*
X69313469Y-115033469D01*
X69252891Y-115083184D01*
X69183780Y-115120124D01*
X69108785Y-115142874D01*
X69028309Y-115150800D01*
X68131691Y-115150800D01*
X68051215Y-115142874D01*
X67976220Y-115120124D01*
X67907109Y-115083184D01*
X67846531Y-115033469D01*
X67796816Y-114972891D01*
X67759876Y-114903780D01*
X67737126Y-114828785D01*
X67729200Y-114748309D01*
X67729200Y-113851691D01*
X67737126Y-113771215D01*
X67759876Y-113696220D01*
X67796816Y-113627109D01*
X67846531Y-113566531D01*
X67907109Y-113516816D01*
X67976220Y-113479876D01*
X68051215Y-113457126D01*
X68131691Y-113449200D01*
X69028309Y-113449200D01*
X69108785Y-113457126D01*
G37*
G36*
X90418169Y-112211895D02*
G01*
X90573005Y-112276031D01*
X90712354Y-112369140D01*
X90830860Y-112487646D01*
X90923969Y-112626995D01*
X90988105Y-112781831D01*
X91020800Y-112946203D01*
X91020800Y-113113797D01*
X90988105Y-113278169D01*
X90923969Y-113433005D01*
X90830860Y-113572354D01*
X90712354Y-113690860D01*
X90573005Y-113783969D01*
X90418169Y-113848105D01*
X90253797Y-113880800D01*
X90086203Y-113880800D01*
X89921831Y-113848105D01*
X89766995Y-113783969D01*
X89627646Y-113690860D01*
X89509140Y-113572354D01*
X89416031Y-113433005D01*
X89351895Y-113278169D01*
X89319200Y-113113797D01*
X89319200Y-112946203D01*
X89351895Y-112781831D01*
X89416031Y-112626995D01*
X89509140Y-112487646D01*
X89627646Y-112369140D01*
X89766995Y-112276031D01*
X89921831Y-112211895D01*
X90086203Y-112179200D01*
X90253797Y-112179200D01*
X90418169Y-112211895D01*
G37*
G36*
X82798169Y-112211895D02*
G01*
X82953005Y-112276031D01*
X83092354Y-112369140D01*
X83210860Y-112487646D01*
X83303969Y-112626995D01*
X83368105Y-112781831D01*
X83400800Y-112946203D01*
X83400800Y-113113797D01*
X83368105Y-113278169D01*
X83303969Y-113433005D01*
X83210860Y-113572354D01*
X83092354Y-113690860D01*
X82953005Y-113783969D01*
X82798169Y-113848105D01*
X82633797Y-113880800D01*
X82466203Y-113880800D01*
X82301831Y-113848105D01*
X82146995Y-113783969D01*
X82007646Y-113690860D01*
X81889140Y-113572354D01*
X81796031Y-113433005D01*
X81731895Y-113278169D01*
X81699200Y-113113797D01*
X81699200Y-112946203D01*
X81731895Y-112781831D01*
X81796031Y-112626995D01*
X81889140Y-112487646D01*
X82007646Y-112369140D01*
X82146995Y-112276031D01*
X82301831Y-112211895D01*
X82466203Y-112179200D01*
X82633797Y-112179200D01*
X82798169Y-112211895D01*
G37*
G36*
X161458169Y-110941895D02*
G01*
X161613005Y-111006031D01*
X161752354Y-111099140D01*
X161870860Y-111217646D01*
X161963969Y-111356995D01*
X162028105Y-111511831D01*
X162060800Y-111676203D01*
X162060800Y-111843797D01*
X162028105Y-112008169D01*
X161963969Y-112163005D01*
X161870860Y-112302354D01*
X161752354Y-112420860D01*
X161613005Y-112513969D01*
X161458169Y-112578105D01*
X161293797Y-112610800D01*
X161126203Y-112610800D01*
X160961831Y-112578105D01*
X160806995Y-112513969D01*
X160667646Y-112420860D01*
X160549140Y-112302354D01*
X160456031Y-112163005D01*
X160391895Y-112008169D01*
X160359200Y-111843797D01*
X160359200Y-111676203D01*
X160391895Y-111511831D01*
X160456031Y-111356995D01*
X160549140Y-111217646D01*
X160667646Y-111099140D01*
X160806995Y-111006031D01*
X160961831Y-110941895D01*
X161126203Y-110909200D01*
X161293797Y-110909200D01*
X161458169Y-110941895D01*
G37*
G36*
X68828169Y-110941895D02*
G01*
X68983005Y-111006031D01*
X69122354Y-111099140D01*
X69240860Y-111217646D01*
X69333969Y-111356995D01*
X69398105Y-111511831D01*
X69430800Y-111676203D01*
X69430800Y-111843797D01*
X69398105Y-112008169D01*
X69333969Y-112163005D01*
X69240860Y-112302354D01*
X69122354Y-112420860D01*
X68983005Y-112513969D01*
X68828169Y-112578105D01*
X68663797Y-112610800D01*
X68496203Y-112610800D01*
X68331831Y-112578105D01*
X68176995Y-112513969D01*
X68037646Y-112420860D01*
X67919140Y-112302354D01*
X67826031Y-112163005D01*
X67761895Y-112008169D01*
X67729200Y-111843797D01*
X67729200Y-111676203D01*
X67761895Y-111511831D01*
X67826031Y-111356995D01*
X67919140Y-111217646D01*
X68037646Y-111099140D01*
X68176995Y-111006031D01*
X68331831Y-110941895D01*
X68496203Y-110909200D01*
X68663797Y-110909200D01*
X68828169Y-110941895D01*
G37*
G36*
X156458169Y-110941895D02*
G01*
X156613005Y-111006031D01*
X156752354Y-111099140D01*
X156870860Y-111217646D01*
X156963969Y-111356995D01*
X157028105Y-111511831D01*
X157060800Y-111676203D01*
X157060800Y-111843797D01*
X157028105Y-112008169D01*
X156963969Y-112163005D01*
X156870860Y-112302354D01*
X156752354Y-112420860D01*
X156613005Y-112513969D01*
X156458169Y-112578105D01*
X156293797Y-112610800D01*
X156126203Y-112610800D01*
X155961831Y-112578105D01*
X155806995Y-112513969D01*
X155667646Y-112420860D01*
X155549140Y-112302354D01*
X155456031Y-112163005D01*
X155391895Y-112008169D01*
X155359200Y-111843797D01*
X155359200Y-111676203D01*
X155391895Y-111511831D01*
X155456031Y-111356995D01*
X155549140Y-111217646D01*
X155667646Y-111099140D01*
X155806995Y-111006031D01*
X155961831Y-110941895D01*
X156126203Y-110909200D01*
X156293797Y-110909200D01*
X156458169Y-110941895D01*
G37*
G36*
X129788169Y-109671895D02*
G01*
X129943005Y-109736031D01*
X130082354Y-109829140D01*
X130200860Y-109947646D01*
X130293969Y-110086995D01*
X130358105Y-110241831D01*
X130390800Y-110406203D01*
X130390800Y-110573797D01*
X130358105Y-110738169D01*
X130293969Y-110893005D01*
X130200860Y-111032354D01*
X130082354Y-111150860D01*
X129943005Y-111243969D01*
X129788169Y-111308105D01*
X129623797Y-111340800D01*
X129456203Y-111340800D01*
X129291831Y-111308105D01*
X129136995Y-111243969D01*
X128997646Y-111150860D01*
X128879140Y-111032354D01*
X128786031Y-110893005D01*
X128721895Y-110738169D01*
X128689200Y-110573797D01*
X128689200Y-110406203D01*
X128721895Y-110241831D01*
X128786031Y-110086995D01*
X128879140Y-109947646D01*
X128997646Y-109829140D01*
X129136995Y-109736031D01*
X129291831Y-109671895D01*
X129456203Y-109639200D01*
X129623797Y-109639200D01*
X129788169Y-109671895D01*
G37*
G36*
X137408169Y-109671895D02*
G01*
X137563005Y-109736031D01*
X137702354Y-109829140D01*
X137820860Y-109947646D01*
X137913969Y-110086995D01*
X137978105Y-110241831D01*
X138010800Y-110406203D01*
X138010800Y-110573797D01*
X137978105Y-110738169D01*
X137913969Y-110893005D01*
X137820860Y-111032354D01*
X137702354Y-111150860D01*
X137563005Y-111243969D01*
X137408169Y-111308105D01*
X137243797Y-111340800D01*
X137076203Y-111340800D01*
X136911831Y-111308105D01*
X136756995Y-111243969D01*
X136617646Y-111150860D01*
X136499140Y-111032354D01*
X136406031Y-110893005D01*
X136341895Y-110738169D01*
X136309200Y-110573797D01*
X136309200Y-110406203D01*
X136341895Y-110241831D01*
X136406031Y-110086995D01*
X136499140Y-109947646D01*
X136617646Y-109829140D01*
X136756995Y-109736031D01*
X136911831Y-109671895D01*
X137076203Y-109639200D01*
X137243797Y-109639200D01*
X137408169Y-109671895D01*
G37*
G36*
X61893015Y-107445255D02*
G01*
X61893018Y-107445256D01*
X62232471Y-107548228D01*
X62545312Y-107715445D01*
X62819519Y-107940481D01*
X63044555Y-108214688D01*
X63211772Y-108527529D01*
X63302969Y-108828164D01*
X63314745Y-108866985D01*
X63349514Y-109220000D01*
X63314745Y-109573015D01*
X63314744Y-109573018D01*
X63211772Y-109912471D01*
X63044555Y-110225312D01*
X62819519Y-110499519D01*
X62545312Y-110724555D01*
X62232471Y-110891772D01*
X61931836Y-110982969D01*
X61893015Y-110994745D01*
X61628472Y-111020800D01*
X57951528Y-111020800D01*
X57686985Y-110994745D01*
X57648164Y-110982969D01*
X57347529Y-110891772D01*
X57034688Y-110724555D01*
X56760481Y-110499519D01*
X56535445Y-110225312D01*
X56368228Y-109912471D01*
X56265256Y-109573018D01*
X56265255Y-109573015D01*
X56230486Y-109220000D01*
X56265255Y-108866985D01*
X56277031Y-108828164D01*
X56368228Y-108527529D01*
X56535445Y-108214688D01*
X56760481Y-107940481D01*
X57034688Y-107715445D01*
X57347529Y-107548228D01*
X57686982Y-107445256D01*
X57686985Y-107445255D01*
X57951528Y-107419200D01*
X61628472Y-107419200D01*
X61893015Y-107445255D01*
G37*
G36*
X61793015Y-92205255D02*
G01*
X61793018Y-92205256D01*
X62132471Y-92308228D01*
X62445312Y-92475445D01*
X62719519Y-92700481D01*
X62944555Y-92974688D01*
X63111772Y-93287529D01*
X63199581Y-93576995D01*
X63214745Y-93626985D01*
X63249514Y-93980000D01*
X63214745Y-94333015D01*
X63214744Y-94333018D01*
X63111772Y-94672471D01*
X62944555Y-94985312D01*
X62719519Y-95259519D01*
X62445312Y-95484555D01*
X62132471Y-95651772D01*
X61831836Y-95742969D01*
X61793015Y-95754745D01*
X61528472Y-95780800D01*
X57851528Y-95780800D01*
X57586985Y-95754745D01*
X57548164Y-95742969D01*
X57247529Y-95651772D01*
X56934688Y-95484555D01*
X56660481Y-95259519D01*
X56435445Y-94985312D01*
X56268228Y-94672471D01*
X56165256Y-94333018D01*
X56165255Y-94333015D01*
X56130486Y-93980000D01*
X56165255Y-93626985D01*
X56180419Y-93576995D01*
X56268228Y-93287529D01*
X56435445Y-92974688D01*
X56660481Y-92700481D01*
X56934688Y-92475445D01*
X57247529Y-92308228D01*
X57586982Y-92205256D01*
X57586985Y-92205255D01*
X57851528Y-92179200D01*
X61528472Y-92179200D01*
X61793015Y-92205255D01*
G37*
G36*
X195828169Y-93161895D02*
G01*
X195983005Y-93226031D01*
X196122354Y-93319140D01*
X196240860Y-93437646D01*
X196333969Y-93576995D01*
X196398105Y-93731831D01*
X196430800Y-93896203D01*
X196430800Y-94063797D01*
X196398105Y-94228169D01*
X196333969Y-94383005D01*
X196240860Y-94522354D01*
X196122354Y-94640860D01*
X195983005Y-94733969D01*
X195828169Y-94798105D01*
X195663797Y-94830800D01*
X195496203Y-94830800D01*
X195331831Y-94798105D01*
X195176995Y-94733969D01*
X195037646Y-94640860D01*
X194919140Y-94522354D01*
X194826031Y-94383005D01*
X194761895Y-94228169D01*
X194729200Y-94063797D01*
X194729200Y-93896203D01*
X194761895Y-93731831D01*
X194826031Y-93576995D01*
X194919140Y-93437646D01*
X195037646Y-93319140D01*
X195176995Y-93226031D01*
X195331831Y-93161895D01*
X195496203Y-93129200D01*
X195663797Y-93129200D01*
X195828169Y-93161895D01*
G37*
G36*
X172968169Y-93161895D02*
G01*
X173123005Y-93226031D01*
X173262354Y-93319140D01*
X173380860Y-93437646D01*
X173473969Y-93576995D01*
X173538105Y-93731831D01*
X173570800Y-93896203D01*
X173570800Y-94063797D01*
X173538105Y-94228169D01*
X173473969Y-94383005D01*
X173380860Y-94522354D01*
X173262354Y-94640860D01*
X173123005Y-94733969D01*
X172968169Y-94798105D01*
X172803797Y-94830800D01*
X172636203Y-94830800D01*
X172471831Y-94798105D01*
X172316995Y-94733969D01*
X172177646Y-94640860D01*
X172059140Y-94522354D01*
X171966031Y-94383005D01*
X171901895Y-94228169D01*
X171869200Y-94063797D01*
X171869200Y-93896203D01*
X171901895Y-93731831D01*
X171966031Y-93576995D01*
X172059140Y-93437646D01*
X172177646Y-93319140D01*
X172316995Y-93226031D01*
X172471831Y-93161895D01*
X172636203Y-93129200D01*
X172803797Y-93129200D01*
X172968169Y-93161895D01*
G37*
G36*
X175508169Y-93161895D02*
G01*
X175663005Y-93226031D01*
X175802354Y-93319140D01*
X175920860Y-93437646D01*
X176013969Y-93576995D01*
X176078105Y-93731831D01*
X176110800Y-93896203D01*
X176110800Y-94063797D01*
X176078105Y-94228169D01*
X176013969Y-94383005D01*
X175920860Y-94522354D01*
X175802354Y-94640860D01*
X175663005Y-94733969D01*
X175508169Y-94798105D01*
X175343797Y-94830800D01*
X175176203Y-94830800D01*
X175011831Y-94798105D01*
X174856995Y-94733969D01*
X174717646Y-94640860D01*
X174599140Y-94522354D01*
X174506031Y-94383005D01*
X174441895Y-94228169D01*
X174409200Y-94063797D01*
X174409200Y-93896203D01*
X174441895Y-93731831D01*
X174506031Y-93576995D01*
X174599140Y-93437646D01*
X174717646Y-93319140D01*
X174856995Y-93226031D01*
X175011831Y-93161895D01*
X175176203Y-93129200D01*
X175343797Y-93129200D01*
X175508169Y-93161895D01*
G37*
G36*
X167888169Y-93161895D02*
G01*
X168043005Y-93226031D01*
X168182354Y-93319140D01*
X168300860Y-93437646D01*
X168393969Y-93576995D01*
X168458105Y-93731831D01*
X168490800Y-93896203D01*
X168490800Y-94063797D01*
X168458105Y-94228169D01*
X168393969Y-94383005D01*
X168300860Y-94522354D01*
X168182354Y-94640860D01*
X168043005Y-94733969D01*
X167888169Y-94798105D01*
X167723797Y-94830800D01*
X167556203Y-94830800D01*
X167391831Y-94798105D01*
X167236995Y-94733969D01*
X167097646Y-94640860D01*
X166979140Y-94522354D01*
X166886031Y-94383005D01*
X166821895Y-94228169D01*
X166789200Y-94063797D01*
X166789200Y-93896203D01*
X166821895Y-93731831D01*
X166886031Y-93576995D01*
X166979140Y-93437646D01*
X167097646Y-93319140D01*
X167236995Y-93226031D01*
X167391831Y-93161895D01*
X167556203Y-93129200D01*
X167723797Y-93129200D01*
X167888169Y-93161895D01*
G37*
G36*
X178048169Y-93161895D02*
G01*
X178203005Y-93226031D01*
X178342354Y-93319140D01*
X178460860Y-93437646D01*
X178553969Y-93576995D01*
X178618105Y-93731831D01*
X178650800Y-93896203D01*
X178650800Y-94063797D01*
X178618105Y-94228169D01*
X178553969Y-94383005D01*
X178460860Y-94522354D01*
X178342354Y-94640860D01*
X178203005Y-94733969D01*
X178048169Y-94798105D01*
X177883797Y-94830800D01*
X177716203Y-94830800D01*
X177551831Y-94798105D01*
X177396995Y-94733969D01*
X177257646Y-94640860D01*
X177139140Y-94522354D01*
X177046031Y-94383005D01*
X176981895Y-94228169D01*
X176949200Y-94063797D01*
X176949200Y-93896203D01*
X176981895Y-93731831D01*
X177046031Y-93576995D01*
X177139140Y-93437646D01*
X177257646Y-93319140D01*
X177396995Y-93226031D01*
X177551831Y-93161895D01*
X177716203Y-93129200D01*
X177883797Y-93129200D01*
X178048169Y-93161895D01*
G37*
G36*
X180588169Y-93161895D02*
G01*
X180743005Y-93226031D01*
X180882354Y-93319140D01*
X181000860Y-93437646D01*
X181093969Y-93576995D01*
X181158105Y-93731831D01*
X181190800Y-93896203D01*
X181190800Y-94063797D01*
X181158105Y-94228169D01*
X181093969Y-94383005D01*
X181000860Y-94522354D01*
X180882354Y-94640860D01*
X180743005Y-94733969D01*
X180588169Y-94798105D01*
X180423797Y-94830800D01*
X180256203Y-94830800D01*
X180091831Y-94798105D01*
X179936995Y-94733969D01*
X179797646Y-94640860D01*
X179679140Y-94522354D01*
X179586031Y-94383005D01*
X179521895Y-94228169D01*
X179489200Y-94063797D01*
X179489200Y-93896203D01*
X179521895Y-93731831D01*
X179586031Y-93576995D01*
X179679140Y-93437646D01*
X179797646Y-93319140D01*
X179936995Y-93226031D01*
X180091831Y-93161895D01*
X180256203Y-93129200D01*
X180423797Y-93129200D01*
X180588169Y-93161895D01*
G37*
G36*
X183128169Y-93161895D02*
G01*
X183283005Y-93226031D01*
X183422354Y-93319140D01*
X183540860Y-93437646D01*
X183633969Y-93576995D01*
X183698105Y-93731831D01*
X183730800Y-93896203D01*
X183730800Y-94063797D01*
X183698105Y-94228169D01*
X183633969Y-94383005D01*
X183540860Y-94522354D01*
X183422354Y-94640860D01*
X183283005Y-94733969D01*
X183128169Y-94798105D01*
X182963797Y-94830800D01*
X182796203Y-94830800D01*
X182631831Y-94798105D01*
X182476995Y-94733969D01*
X182337646Y-94640860D01*
X182219140Y-94522354D01*
X182126031Y-94383005D01*
X182061895Y-94228169D01*
X182029200Y-94063797D01*
X182029200Y-93896203D01*
X182061895Y-93731831D01*
X182126031Y-93576995D01*
X182219140Y-93437646D01*
X182337646Y-93319140D01*
X182476995Y-93226031D01*
X182631831Y-93161895D01*
X182796203Y-93129200D01*
X182963797Y-93129200D01*
X183128169Y-93161895D01*
G37*
G36*
X185668169Y-93161895D02*
G01*
X185823005Y-93226031D01*
X185962354Y-93319140D01*
X186080860Y-93437646D01*
X186173969Y-93576995D01*
X186238105Y-93731831D01*
X186270800Y-93896203D01*
X186270800Y-94063797D01*
X186238105Y-94228169D01*
X186173969Y-94383005D01*
X186080860Y-94522354D01*
X185962354Y-94640860D01*
X185823005Y-94733969D01*
X185668169Y-94798105D01*
X185503797Y-94830800D01*
X185336203Y-94830800D01*
X185171831Y-94798105D01*
X185016995Y-94733969D01*
X184877646Y-94640860D01*
X184759140Y-94522354D01*
X184666031Y-94383005D01*
X184601895Y-94228169D01*
X184569200Y-94063797D01*
X184569200Y-93896203D01*
X184601895Y-93731831D01*
X184666031Y-93576995D01*
X184759140Y-93437646D01*
X184877646Y-93319140D01*
X185016995Y-93226031D01*
X185171831Y-93161895D01*
X185336203Y-93129200D01*
X185503797Y-93129200D01*
X185668169Y-93161895D01*
G37*
G36*
X188208169Y-93161895D02*
G01*
X188363005Y-93226031D01*
X188502354Y-93319140D01*
X188620860Y-93437646D01*
X188713969Y-93576995D01*
X188778105Y-93731831D01*
X188810800Y-93896203D01*
X188810800Y-94063797D01*
X188778105Y-94228169D01*
X188713969Y-94383005D01*
X188620860Y-94522354D01*
X188502354Y-94640860D01*
X188363005Y-94733969D01*
X188208169Y-94798105D01*
X188043797Y-94830800D01*
X187876203Y-94830800D01*
X187711831Y-94798105D01*
X187556995Y-94733969D01*
X187417646Y-94640860D01*
X187299140Y-94522354D01*
X187206031Y-94383005D01*
X187141895Y-94228169D01*
X187109200Y-94063797D01*
X187109200Y-93896203D01*
X187141895Y-93731831D01*
X187206031Y-93576995D01*
X187299140Y-93437646D01*
X187417646Y-93319140D01*
X187556995Y-93226031D01*
X187711831Y-93161895D01*
X187876203Y-93129200D01*
X188043797Y-93129200D01*
X188208169Y-93161895D01*
G37*
G36*
X165348169Y-93161895D02*
G01*
X165503005Y-93226031D01*
X165642354Y-93319140D01*
X165760860Y-93437646D01*
X165853969Y-93576995D01*
X165918105Y-93731831D01*
X165950800Y-93896203D01*
X165950800Y-94063797D01*
X165918105Y-94228169D01*
X165853969Y-94383005D01*
X165760860Y-94522354D01*
X165642354Y-94640860D01*
X165503005Y-94733969D01*
X165348169Y-94798105D01*
X165183797Y-94830800D01*
X165016203Y-94830800D01*
X164851831Y-94798105D01*
X164696995Y-94733969D01*
X164557646Y-94640860D01*
X164439140Y-94522354D01*
X164346031Y-94383005D01*
X164281895Y-94228169D01*
X164249200Y-94063797D01*
X164249200Y-93896203D01*
X164281895Y-93731831D01*
X164346031Y-93576995D01*
X164439140Y-93437646D01*
X164557646Y-93319140D01*
X164696995Y-93226031D01*
X164851831Y-93161895D01*
X165016203Y-93129200D01*
X165183797Y-93129200D01*
X165348169Y-93161895D01*
G37*
G36*
X193288169Y-93161895D02*
G01*
X193443005Y-93226031D01*
X193582354Y-93319140D01*
X193700860Y-93437646D01*
X193793969Y-93576995D01*
X193858105Y-93731831D01*
X193890800Y-93896203D01*
X193890800Y-94063797D01*
X193858105Y-94228169D01*
X193793969Y-94383005D01*
X193700860Y-94522354D01*
X193582354Y-94640860D01*
X193443005Y-94733969D01*
X193288169Y-94798105D01*
X193123797Y-94830800D01*
X192956203Y-94830800D01*
X192791831Y-94798105D01*
X192636995Y-94733969D01*
X192497646Y-94640860D01*
X192379140Y-94522354D01*
X192286031Y-94383005D01*
X192221895Y-94228169D01*
X192189200Y-94063797D01*
X192189200Y-93896203D01*
X192221895Y-93731831D01*
X192286031Y-93576995D01*
X192379140Y-93437646D01*
X192497646Y-93319140D01*
X192636995Y-93226031D01*
X192791831Y-93161895D01*
X192956203Y-93129200D01*
X193123797Y-93129200D01*
X193288169Y-93161895D01*
G37*
G36*
X170428169Y-93161895D02*
G01*
X170583005Y-93226031D01*
X170722354Y-93319140D01*
X170840860Y-93437646D01*
X170933969Y-93576995D01*
X170998105Y-93731831D01*
X171030800Y-93896203D01*
X171030800Y-94063797D01*
X170998105Y-94228169D01*
X170933969Y-94383005D01*
X170840860Y-94522354D01*
X170722354Y-94640860D01*
X170583005Y-94733969D01*
X170428169Y-94798105D01*
X170263797Y-94830800D01*
X170096203Y-94830800D01*
X169931831Y-94798105D01*
X169776995Y-94733969D01*
X169637646Y-94640860D01*
X169519140Y-94522354D01*
X169426031Y-94383005D01*
X169361895Y-94228169D01*
X169329200Y-94063797D01*
X169329200Y-93896203D01*
X169361895Y-93731831D01*
X169426031Y-93576995D01*
X169519140Y-93437646D01*
X169637646Y-93319140D01*
X169776995Y-93226031D01*
X169931831Y-93161895D01*
X170096203Y-93129200D01*
X170263797Y-93129200D01*
X170428169Y-93161895D01*
G37*
G36*
X145028169Y-93161895D02*
G01*
X145183005Y-93226031D01*
X145322354Y-93319140D01*
X145440860Y-93437646D01*
X145533969Y-93576995D01*
X145598105Y-93731831D01*
X145630800Y-93896203D01*
X145630800Y-94063797D01*
X145598105Y-94228169D01*
X145533969Y-94383005D01*
X145440860Y-94522354D01*
X145322354Y-94640860D01*
X145183005Y-94733969D01*
X145028169Y-94798105D01*
X144863797Y-94830800D01*
X144696203Y-94830800D01*
X144531831Y-94798105D01*
X144376995Y-94733969D01*
X144237646Y-94640860D01*
X144119140Y-94522354D01*
X144026031Y-94383005D01*
X143961895Y-94228169D01*
X143929200Y-94063797D01*
X143929200Y-93896203D01*
X143961895Y-93731831D01*
X144026031Y-93576995D01*
X144119140Y-93437646D01*
X144237646Y-93319140D01*
X144376995Y-93226031D01*
X144531831Y-93161895D01*
X144696203Y-93129200D01*
X144863797Y-93129200D01*
X145028169Y-93161895D01*
G37*
G36*
X142488169Y-93161895D02*
G01*
X142643005Y-93226031D01*
X142782354Y-93319140D01*
X142900860Y-93437646D01*
X142993969Y-93576995D01*
X143058105Y-93731831D01*
X143090800Y-93896203D01*
X143090800Y-94063797D01*
X143058105Y-94228169D01*
X142993969Y-94383005D01*
X142900860Y-94522354D01*
X142782354Y-94640860D01*
X142643005Y-94733969D01*
X142488169Y-94798105D01*
X142323797Y-94830800D01*
X142156203Y-94830800D01*
X141991831Y-94798105D01*
X141836995Y-94733969D01*
X141697646Y-94640860D01*
X141579140Y-94522354D01*
X141486031Y-94383005D01*
X141421895Y-94228169D01*
X141389200Y-94063797D01*
X141389200Y-93896203D01*
X141421895Y-93731831D01*
X141486031Y-93576995D01*
X141579140Y-93437646D01*
X141697646Y-93319140D01*
X141836995Y-93226031D01*
X141991831Y-93161895D01*
X142156203Y-93129200D01*
X142323797Y-93129200D01*
X142488169Y-93161895D01*
G37*
G36*
X198368169Y-93161895D02*
G01*
X198523005Y-93226031D01*
X198662354Y-93319140D01*
X198780860Y-93437646D01*
X198873969Y-93576995D01*
X198938105Y-93731831D01*
X198970800Y-93896203D01*
X198970800Y-94063797D01*
X198938105Y-94228169D01*
X198873969Y-94383005D01*
X198780860Y-94522354D01*
X198662354Y-94640860D01*
X198523005Y-94733969D01*
X198368169Y-94798105D01*
X198203797Y-94830800D01*
X198036203Y-94830800D01*
X197871831Y-94798105D01*
X197716995Y-94733969D01*
X197577646Y-94640860D01*
X197459140Y-94522354D01*
X197366031Y-94383005D01*
X197301895Y-94228169D01*
X197269200Y-94063797D01*
X197269200Y-93896203D01*
X197301895Y-93731831D01*
X197366031Y-93576995D01*
X197459140Y-93437646D01*
X197577646Y-93319140D01*
X197716995Y-93226031D01*
X197871831Y-93161895D01*
X198036203Y-93129200D01*
X198203797Y-93129200D01*
X198368169Y-93161895D01*
G37*
G36*
X200908169Y-93161895D02*
G01*
X201063005Y-93226031D01*
X201202354Y-93319140D01*
X201320860Y-93437646D01*
X201413969Y-93576995D01*
X201478105Y-93731831D01*
X201510800Y-93896203D01*
X201510800Y-94063797D01*
X201478105Y-94228169D01*
X201413969Y-94383005D01*
X201320860Y-94522354D01*
X201202354Y-94640860D01*
X201063005Y-94733969D01*
X200908169Y-94798105D01*
X200743797Y-94830800D01*
X200576203Y-94830800D01*
X200411831Y-94798105D01*
X200256995Y-94733969D01*
X200117646Y-94640860D01*
X199999140Y-94522354D01*
X199906031Y-94383005D01*
X199841895Y-94228169D01*
X199809200Y-94063797D01*
X199809200Y-93896203D01*
X199841895Y-93731831D01*
X199906031Y-93576995D01*
X199999140Y-93437646D01*
X200117646Y-93319140D01*
X200256995Y-93226031D01*
X200411831Y-93161895D01*
X200576203Y-93129200D01*
X200743797Y-93129200D01*
X200908169Y-93161895D01*
G37*
G36*
X190748169Y-93161895D02*
G01*
X190903005Y-93226031D01*
X191042354Y-93319140D01*
X191160860Y-93437646D01*
X191253969Y-93576995D01*
X191318105Y-93731831D01*
X191350800Y-93896203D01*
X191350800Y-94063797D01*
X191318105Y-94228169D01*
X191253969Y-94383005D01*
X191160860Y-94522354D01*
X191042354Y-94640860D01*
X190903005Y-94733969D01*
X190748169Y-94798105D01*
X190583797Y-94830800D01*
X190416203Y-94830800D01*
X190251831Y-94798105D01*
X190096995Y-94733969D01*
X189957646Y-94640860D01*
X189839140Y-94522354D01*
X189746031Y-94383005D01*
X189681895Y-94228169D01*
X189649200Y-94063797D01*
X189649200Y-93896203D01*
X189681895Y-93731831D01*
X189746031Y-93576995D01*
X189839140Y-93437646D01*
X189957646Y-93319140D01*
X190096995Y-93226031D01*
X190251831Y-93161895D01*
X190416203Y-93129200D01*
X190583797Y-93129200D01*
X190748169Y-93161895D01*
G37*
G36*
X162808169Y-93161895D02*
G01*
X162963005Y-93226031D01*
X163102354Y-93319140D01*
X163220860Y-93437646D01*
X163313969Y-93576995D01*
X163378105Y-93731831D01*
X163410800Y-93896203D01*
X163410800Y-94063797D01*
X163378105Y-94228169D01*
X163313969Y-94383005D01*
X163220860Y-94522354D01*
X163102354Y-94640860D01*
X162963005Y-94733969D01*
X162808169Y-94798105D01*
X162643797Y-94830800D01*
X162476203Y-94830800D01*
X162311831Y-94798105D01*
X162156995Y-94733969D01*
X162017646Y-94640860D01*
X161899140Y-94522354D01*
X161806031Y-94383005D01*
X161741895Y-94228169D01*
X161709200Y-94063797D01*
X161709200Y-93896203D01*
X161741895Y-93731831D01*
X161806031Y-93576995D01*
X161899140Y-93437646D01*
X162017646Y-93319140D01*
X162156995Y-93226031D01*
X162311831Y-93161895D01*
X162476203Y-93129200D01*
X162643797Y-93129200D01*
X162808169Y-93161895D01*
G37*
G36*
X160268169Y-93161895D02*
G01*
X160423005Y-93226031D01*
X160562354Y-93319140D01*
X160680860Y-93437646D01*
X160773969Y-93576995D01*
X160838105Y-93731831D01*
X160870800Y-93896203D01*
X160870800Y-94063797D01*
X160838105Y-94228169D01*
X160773969Y-94383005D01*
X160680860Y-94522354D01*
X160562354Y-94640860D01*
X160423005Y-94733969D01*
X160268169Y-94798105D01*
X160103797Y-94830800D01*
X159936203Y-94830800D01*
X159771831Y-94798105D01*
X159616995Y-94733969D01*
X159477646Y-94640860D01*
X159359140Y-94522354D01*
X159266031Y-94383005D01*
X159201895Y-94228169D01*
X159169200Y-94063797D01*
X159169200Y-93896203D01*
X159201895Y-93731831D01*
X159266031Y-93576995D01*
X159359140Y-93437646D01*
X159477646Y-93319140D01*
X159616995Y-93226031D01*
X159771831Y-93161895D01*
X159936203Y-93129200D01*
X160103797Y-93129200D01*
X160268169Y-93161895D01*
G37*
G36*
X155188169Y-93161895D02*
G01*
X155343005Y-93226031D01*
X155482354Y-93319140D01*
X155600860Y-93437646D01*
X155693969Y-93576995D01*
X155758105Y-93731831D01*
X155790800Y-93896203D01*
X155790800Y-94063797D01*
X155758105Y-94228169D01*
X155693969Y-94383005D01*
X155600860Y-94522354D01*
X155482354Y-94640860D01*
X155343005Y-94733969D01*
X155188169Y-94798105D01*
X155023797Y-94830800D01*
X154856203Y-94830800D01*
X154691831Y-94798105D01*
X154536995Y-94733969D01*
X154397646Y-94640860D01*
X154279140Y-94522354D01*
X154186031Y-94383005D01*
X154121895Y-94228169D01*
X154089200Y-94063797D01*
X154089200Y-93896203D01*
X154121895Y-93731831D01*
X154186031Y-93576995D01*
X154279140Y-93437646D01*
X154397646Y-93319140D01*
X154536995Y-93226031D01*
X154691831Y-93161895D01*
X154856203Y-93129200D01*
X155023797Y-93129200D01*
X155188169Y-93161895D01*
G37*
G36*
X152648169Y-93161895D02*
G01*
X152803005Y-93226031D01*
X152942354Y-93319140D01*
X153060860Y-93437646D01*
X153153969Y-93576995D01*
X153218105Y-93731831D01*
X153250800Y-93896203D01*
X153250800Y-94063797D01*
X153218105Y-94228169D01*
X153153969Y-94383005D01*
X153060860Y-94522354D01*
X152942354Y-94640860D01*
X152803005Y-94733969D01*
X152648169Y-94798105D01*
X152483797Y-94830800D01*
X152316203Y-94830800D01*
X152151831Y-94798105D01*
X151996995Y-94733969D01*
X151857646Y-94640860D01*
X151739140Y-94522354D01*
X151646031Y-94383005D01*
X151581895Y-94228169D01*
X151549200Y-94063797D01*
X151549200Y-93896203D01*
X151581895Y-93731831D01*
X151646031Y-93576995D01*
X151739140Y-93437646D01*
X151857646Y-93319140D01*
X151996995Y-93226031D01*
X152151831Y-93161895D01*
X152316203Y-93129200D01*
X152483797Y-93129200D01*
X152648169Y-93161895D01*
G37*
G36*
X150108169Y-93161895D02*
G01*
X150263005Y-93226031D01*
X150402354Y-93319140D01*
X150520860Y-93437646D01*
X150613969Y-93576995D01*
X150678105Y-93731831D01*
X150710800Y-93896203D01*
X150710800Y-94063797D01*
X150678105Y-94228169D01*
X150613969Y-94383005D01*
X150520860Y-94522354D01*
X150402354Y-94640860D01*
X150263005Y-94733969D01*
X150108169Y-94798105D01*
X149943797Y-94830800D01*
X149776203Y-94830800D01*
X149611831Y-94798105D01*
X149456995Y-94733969D01*
X149317646Y-94640860D01*
X149199140Y-94522354D01*
X149106031Y-94383005D01*
X149041895Y-94228169D01*
X149009200Y-94063797D01*
X149009200Y-93896203D01*
X149041895Y-93731831D01*
X149106031Y-93576995D01*
X149199140Y-93437646D01*
X149317646Y-93319140D01*
X149456995Y-93226031D01*
X149611831Y-93161895D01*
X149776203Y-93129200D01*
X149943797Y-93129200D01*
X150108169Y-93161895D01*
G37*
G36*
X147568169Y-93161895D02*
G01*
X147723005Y-93226031D01*
X147862354Y-93319140D01*
X147980860Y-93437646D01*
X148073969Y-93576995D01*
X148138105Y-93731831D01*
X148170800Y-93896203D01*
X148170800Y-94063797D01*
X148138105Y-94228169D01*
X148073969Y-94383005D01*
X147980860Y-94522354D01*
X147862354Y-94640860D01*
X147723005Y-94733969D01*
X147568169Y-94798105D01*
X147403797Y-94830800D01*
X147236203Y-94830800D01*
X147071831Y-94798105D01*
X146916995Y-94733969D01*
X146777646Y-94640860D01*
X146659140Y-94522354D01*
X146566031Y-94383005D01*
X146501895Y-94228169D01*
X146469200Y-94063797D01*
X146469200Y-93896203D01*
X146501895Y-93731831D01*
X146566031Y-93576995D01*
X146659140Y-93437646D01*
X146777646Y-93319140D01*
X146916995Y-93226031D01*
X147071831Y-93161895D01*
X147236203Y-93129200D01*
X147403797Y-93129200D01*
X147568169Y-93161895D01*
G37*
G36*
X157728169Y-93161895D02*
G01*
X157883005Y-93226031D01*
X158022354Y-93319140D01*
X158140860Y-93437646D01*
X158233969Y-93576995D01*
X158298105Y-93731831D01*
X158330800Y-93896203D01*
X158330800Y-94063797D01*
X158298105Y-94228169D01*
X158233969Y-94383005D01*
X158140860Y-94522354D01*
X158022354Y-94640860D01*
X157883005Y-94733969D01*
X157728169Y-94798105D01*
X157563797Y-94830800D01*
X157396203Y-94830800D01*
X157231831Y-94798105D01*
X157076995Y-94733969D01*
X156937646Y-94640860D01*
X156819140Y-94522354D01*
X156726031Y-94383005D01*
X156661895Y-94228169D01*
X156629200Y-94063797D01*
X156629200Y-93896203D01*
X156661895Y-93731831D01*
X156726031Y-93576995D01*
X156819140Y-93437646D01*
X156937646Y-93319140D01*
X157076995Y-93226031D01*
X157231831Y-93161895D01*
X157396203Y-93129200D01*
X157563797Y-93129200D01*
X157728169Y-93161895D01*
G37*
G36*
X198368169Y-90621895D02*
G01*
X198523005Y-90686031D01*
X198662354Y-90779140D01*
X198780860Y-90897646D01*
X198873969Y-91036995D01*
X198938105Y-91191831D01*
X198970800Y-91356203D01*
X198970800Y-91523797D01*
X198938105Y-91688169D01*
X198873969Y-91843005D01*
X198780860Y-91982354D01*
X198662354Y-92100860D01*
X198523005Y-92193969D01*
X198368169Y-92258105D01*
X198203797Y-92290800D01*
X198036203Y-92290800D01*
X197871831Y-92258105D01*
X197716995Y-92193969D01*
X197577646Y-92100860D01*
X197459140Y-91982354D01*
X197366031Y-91843005D01*
X197301895Y-91688169D01*
X197269200Y-91523797D01*
X197269200Y-91356203D01*
X197301895Y-91191831D01*
X197366031Y-91036995D01*
X197459140Y-90897646D01*
X197577646Y-90779140D01*
X197716995Y-90686031D01*
X197871831Y-90621895D01*
X198036203Y-90589200D01*
X198203797Y-90589200D01*
X198368169Y-90621895D01*
G37*
G36*
X193288169Y-90621895D02*
G01*
X193443005Y-90686031D01*
X193582354Y-90779140D01*
X193700860Y-90897646D01*
X193793969Y-91036995D01*
X193858105Y-91191831D01*
X193890800Y-91356203D01*
X193890800Y-91523797D01*
X193858105Y-91688169D01*
X193793969Y-91843005D01*
X193700860Y-91982354D01*
X193582354Y-92100860D01*
X193443005Y-92193969D01*
X193288169Y-92258105D01*
X193123797Y-92290800D01*
X192956203Y-92290800D01*
X192791831Y-92258105D01*
X192636995Y-92193969D01*
X192497646Y-92100860D01*
X192379140Y-91982354D01*
X192286031Y-91843005D01*
X192221895Y-91688169D01*
X192189200Y-91523797D01*
X192189200Y-91356203D01*
X192221895Y-91191831D01*
X192286031Y-91036995D01*
X192379140Y-90897646D01*
X192497646Y-90779140D01*
X192636995Y-90686031D01*
X192791831Y-90621895D01*
X192956203Y-90589200D01*
X193123797Y-90589200D01*
X193288169Y-90621895D01*
G37*
G36*
X188208169Y-90621895D02*
G01*
X188363005Y-90686031D01*
X188502354Y-90779140D01*
X188620860Y-90897646D01*
X188713969Y-91036995D01*
X188778105Y-91191831D01*
X188810800Y-91356203D01*
X188810800Y-91523797D01*
X188778105Y-91688169D01*
X188713969Y-91843005D01*
X188620860Y-91982354D01*
X188502354Y-92100860D01*
X188363005Y-92193969D01*
X188208169Y-92258105D01*
X188043797Y-92290800D01*
X187876203Y-92290800D01*
X187711831Y-92258105D01*
X187556995Y-92193969D01*
X187417646Y-92100860D01*
X187299140Y-91982354D01*
X187206031Y-91843005D01*
X187141895Y-91688169D01*
X187109200Y-91523797D01*
X187109200Y-91356203D01*
X187141895Y-91191831D01*
X187206031Y-91036995D01*
X187299140Y-90897646D01*
X187417646Y-90779140D01*
X187556995Y-90686031D01*
X187711831Y-90621895D01*
X187876203Y-90589200D01*
X188043797Y-90589200D01*
X188208169Y-90621895D01*
G37*
G36*
X68828169Y-90621895D02*
G01*
X68983005Y-90686031D01*
X69122354Y-90779140D01*
X69240860Y-90897646D01*
X69333969Y-91036995D01*
X69398105Y-91191831D01*
X69430800Y-91356203D01*
X69430800Y-91523797D01*
X69398105Y-91688169D01*
X69333969Y-91843005D01*
X69240860Y-91982354D01*
X69122354Y-92100860D01*
X68983005Y-92193969D01*
X68828169Y-92258105D01*
X68663797Y-92290800D01*
X68496203Y-92290800D01*
X68331831Y-92258105D01*
X68176995Y-92193969D01*
X68037646Y-92100860D01*
X67919140Y-91982354D01*
X67826031Y-91843005D01*
X67761895Y-91688169D01*
X67729200Y-91523797D01*
X67729200Y-91356203D01*
X67761895Y-91191831D01*
X67826031Y-91036995D01*
X67919140Y-90897646D01*
X68037646Y-90779140D01*
X68176995Y-90686031D01*
X68331831Y-90621895D01*
X68496203Y-90589200D01*
X68663797Y-90589200D01*
X68828169Y-90621895D01*
G37*
G36*
X155188169Y-90621895D02*
G01*
X155343005Y-90686031D01*
X155482354Y-90779140D01*
X155600860Y-90897646D01*
X155693969Y-91036995D01*
X155758105Y-91191831D01*
X155790800Y-91356203D01*
X155790800Y-91523797D01*
X155758105Y-91688169D01*
X155693969Y-91843005D01*
X155600860Y-91982354D01*
X155482354Y-92100860D01*
X155343005Y-92193969D01*
X155188169Y-92258105D01*
X155023797Y-92290800D01*
X154856203Y-92290800D01*
X154691831Y-92258105D01*
X154536995Y-92193969D01*
X154397646Y-92100860D01*
X154279140Y-91982354D01*
X154186031Y-91843005D01*
X154121895Y-91688169D01*
X154089200Y-91523797D01*
X154089200Y-91356203D01*
X154121895Y-91191831D01*
X154186031Y-91036995D01*
X154279140Y-90897646D01*
X154397646Y-90779140D01*
X154536995Y-90686031D01*
X154691831Y-90621895D01*
X154856203Y-90589200D01*
X155023797Y-90589200D01*
X155188169Y-90621895D01*
G37*
G36*
X190748169Y-90621895D02*
G01*
X190903005Y-90686031D01*
X191042354Y-90779140D01*
X191160860Y-90897646D01*
X191253969Y-91036995D01*
X191318105Y-91191831D01*
X191350800Y-91356203D01*
X191350800Y-91523797D01*
X191318105Y-91688169D01*
X191253969Y-91843005D01*
X191160860Y-91982354D01*
X191042354Y-92100860D01*
X190903005Y-92193969D01*
X190748169Y-92258105D01*
X190583797Y-92290800D01*
X190416203Y-92290800D01*
X190251831Y-92258105D01*
X190096995Y-92193969D01*
X189957646Y-92100860D01*
X189839140Y-91982354D01*
X189746031Y-91843005D01*
X189681895Y-91688169D01*
X189649200Y-91523797D01*
X189649200Y-91356203D01*
X189681895Y-91191831D01*
X189746031Y-91036995D01*
X189839140Y-90897646D01*
X189957646Y-90779140D01*
X190096995Y-90686031D01*
X190251831Y-90621895D01*
X190416203Y-90589200D01*
X190583797Y-90589200D01*
X190748169Y-90621895D01*
G37*
G36*
X155188169Y-88081895D02*
G01*
X155343005Y-88146031D01*
X155482354Y-88239140D01*
X155600860Y-88357646D01*
X155693969Y-88496995D01*
X155758105Y-88651831D01*
X155790800Y-88816203D01*
X155790800Y-88983797D01*
X155758105Y-89148169D01*
X155693969Y-89303005D01*
X155600860Y-89442354D01*
X155482354Y-89560860D01*
X155343005Y-89653969D01*
X155188169Y-89718105D01*
X155023797Y-89750800D01*
X154856203Y-89750800D01*
X154691831Y-89718105D01*
X154536995Y-89653969D01*
X154397646Y-89560860D01*
X154279140Y-89442354D01*
X154186031Y-89303005D01*
X154121895Y-89148169D01*
X154089200Y-88983797D01*
X154089200Y-88816203D01*
X154121895Y-88651831D01*
X154186031Y-88496995D01*
X154279140Y-88357646D01*
X154397646Y-88239140D01*
X154536995Y-88146031D01*
X154691831Y-88081895D01*
X154856203Y-88049200D01*
X155023797Y-88049200D01*
X155188169Y-88081895D01*
G37*
G36*
X66288169Y-88081895D02*
G01*
X66443005Y-88146031D01*
X66582354Y-88239140D01*
X66700860Y-88357646D01*
X66793969Y-88496995D01*
X66858105Y-88651831D01*
X66890800Y-88816203D01*
X66890800Y-88983797D01*
X66858105Y-89148169D01*
X66793969Y-89303005D01*
X66700860Y-89442354D01*
X66582354Y-89560860D01*
X66443005Y-89653969D01*
X66288169Y-89718105D01*
X66123797Y-89750800D01*
X65956203Y-89750800D01*
X65791831Y-89718105D01*
X65636995Y-89653969D01*
X65497646Y-89560860D01*
X65379140Y-89442354D01*
X65286031Y-89303005D01*
X65221895Y-89148169D01*
X65189200Y-88983797D01*
X65189200Y-88816203D01*
X65221895Y-88651831D01*
X65286031Y-88496995D01*
X65379140Y-88357646D01*
X65497646Y-88239140D01*
X65636995Y-88146031D01*
X65791831Y-88081895D01*
X65956203Y-88049200D01*
X66123797Y-88049200D01*
X66288169Y-88081895D01*
G37*
G36*
X69108785Y-88057126D02*
G01*
X69183780Y-88079876D01*
X69252891Y-88116816D01*
X69313469Y-88166531D01*
X69363184Y-88227109D01*
X69400124Y-88296220D01*
X69422874Y-88371215D01*
X69430800Y-88451691D01*
X69430800Y-89348309D01*
X69422874Y-89428785D01*
X69400124Y-89503780D01*
X69363184Y-89572891D01*
X69313469Y-89633469D01*
X69252891Y-89683184D01*
X69183780Y-89720124D01*
X69108785Y-89742874D01*
X69028309Y-89750800D01*
X68131691Y-89750800D01*
X68051215Y-89742874D01*
X67976220Y-89720124D01*
X67907109Y-89683184D01*
X67846531Y-89633469D01*
X67796816Y-89572891D01*
X67759876Y-89503780D01*
X67737126Y-89428785D01*
X67729200Y-89348309D01*
X67729200Y-88451691D01*
X67737126Y-88371215D01*
X67759876Y-88296220D01*
X67796816Y-88227109D01*
X67846531Y-88166531D01*
X67907109Y-88116816D01*
X67976220Y-88079876D01*
X68051215Y-88057126D01*
X68131691Y-88049200D01*
X69028309Y-88049200D01*
X69108785Y-88057126D01*
G37*
G36*
X155188169Y-85541895D02*
G01*
X155343005Y-85606031D01*
X155482354Y-85699140D01*
X155600860Y-85817646D01*
X155693969Y-85956995D01*
X155758105Y-86111831D01*
X155790800Y-86276203D01*
X155790800Y-86443797D01*
X155758105Y-86608169D01*
X155693969Y-86763005D01*
X155600860Y-86902354D01*
X155482354Y-87020860D01*
X155343005Y-87113969D01*
X155188169Y-87178105D01*
X155023797Y-87210800D01*
X154856203Y-87210800D01*
X154691831Y-87178105D01*
X154536995Y-87113969D01*
X154397646Y-87020860D01*
X154279140Y-86902354D01*
X154186031Y-86763005D01*
X154121895Y-86608169D01*
X154089200Y-86443797D01*
X154089200Y-86276203D01*
X154121895Y-86111831D01*
X154186031Y-85956995D01*
X154279140Y-85817646D01*
X154397646Y-85699140D01*
X154536995Y-85606031D01*
X154691831Y-85541895D01*
X154856203Y-85509200D01*
X155023797Y-85509200D01*
X155188169Y-85541895D01*
G37*
G36*
X68828169Y-85541895D02*
G01*
X68983005Y-85606031D01*
X69122354Y-85699140D01*
X69240860Y-85817646D01*
X69333969Y-85956995D01*
X69398105Y-86111831D01*
X69430800Y-86276203D01*
X69430800Y-86443797D01*
X69398105Y-86608169D01*
X69333969Y-86763005D01*
X69240860Y-86902354D01*
X69122354Y-87020860D01*
X68983005Y-87113969D01*
X68828169Y-87178105D01*
X68663797Y-87210800D01*
X68496203Y-87210800D01*
X68331831Y-87178105D01*
X68176995Y-87113969D01*
X68037646Y-87020860D01*
X67919140Y-86902354D01*
X67826031Y-86763005D01*
X67761895Y-86608169D01*
X67729200Y-86443797D01*
X67729200Y-86276203D01*
X67761895Y-86111831D01*
X67826031Y-85956995D01*
X67919140Y-85817646D01*
X68037646Y-85699140D01*
X68176995Y-85606031D01*
X68331831Y-85541895D01*
X68496203Y-85509200D01*
X68663797Y-85509200D01*
X68828169Y-85541895D01*
G37*
G36*
X61893015Y-82045255D02*
G01*
X61893018Y-82045256D01*
X62232471Y-82148228D01*
X62545312Y-82315445D01*
X62819519Y-82540481D01*
X63044555Y-82814688D01*
X63211772Y-83127529D01*
X63299581Y-83416995D01*
X63314745Y-83466985D01*
X63349514Y-83820000D01*
X63314745Y-84173015D01*
X63314744Y-84173018D01*
X63211772Y-84512471D01*
X63044555Y-84825312D01*
X62819519Y-85099519D01*
X62545312Y-85324555D01*
X62232471Y-85491772D01*
X61931836Y-85582969D01*
X61893015Y-85594745D01*
X61628472Y-85620800D01*
X57951528Y-85620800D01*
X57686985Y-85594745D01*
X57648164Y-85582969D01*
X57347529Y-85491772D01*
X57034688Y-85324555D01*
X56760481Y-85099519D01*
X56535445Y-84825312D01*
X56368228Y-84512471D01*
X56265256Y-84173018D01*
X56265255Y-84173015D01*
X56230486Y-83820000D01*
X56265255Y-83466985D01*
X56280419Y-83416995D01*
X56368228Y-83127529D01*
X56535445Y-82814688D01*
X56760481Y-82540481D01*
X57034688Y-82315445D01*
X57347529Y-82148228D01*
X57686982Y-82045256D01*
X57686985Y-82045255D01*
X57951528Y-82019200D01*
X61628472Y-82019200D01*
X61893015Y-82045255D01*
G37*
G36*
X155188169Y-83001895D02*
G01*
X155343005Y-83066031D01*
X155482354Y-83159140D01*
X155600860Y-83277646D01*
X155693969Y-83416995D01*
X155758105Y-83571831D01*
X155790800Y-83736203D01*
X155790800Y-83903797D01*
X155758105Y-84068169D01*
X155693969Y-84223005D01*
X155600860Y-84362354D01*
X155482354Y-84480860D01*
X155343005Y-84573969D01*
X155188169Y-84638105D01*
X155023797Y-84670800D01*
X154856203Y-84670800D01*
X154691831Y-84638105D01*
X154536995Y-84573969D01*
X154397646Y-84480860D01*
X154279140Y-84362354D01*
X154186031Y-84223005D01*
X154121895Y-84068169D01*
X154089200Y-83903797D01*
X154089200Y-83736203D01*
X154121895Y-83571831D01*
X154186031Y-83416995D01*
X154279140Y-83277646D01*
X154397646Y-83159140D01*
X154536995Y-83066031D01*
X154691831Y-83001895D01*
X154856203Y-82969200D01*
X155023797Y-82969200D01*
X155188169Y-83001895D01*
G37*
G36*
X184398169Y-80921895D02*
G01*
X184553005Y-80986031D01*
X184692354Y-81079140D01*
X184810860Y-81197646D01*
X184903969Y-81336995D01*
X184968105Y-81491831D01*
X185000800Y-81656203D01*
X185000800Y-81823797D01*
X184968105Y-81988169D01*
X184903969Y-82143005D01*
X184810860Y-82282354D01*
X184692354Y-82400860D01*
X184553005Y-82493969D01*
X184398169Y-82558105D01*
X184233797Y-82590800D01*
X184066203Y-82590800D01*
X183901831Y-82558105D01*
X183746995Y-82493969D01*
X183607646Y-82400860D01*
X183489140Y-82282354D01*
X183396031Y-82143005D01*
X183331895Y-81988169D01*
X183299200Y-81823797D01*
X183299200Y-81656203D01*
X183331895Y-81491831D01*
X183396031Y-81336995D01*
X183489140Y-81197646D01*
X183607646Y-81079140D01*
X183746995Y-80986031D01*
X183901831Y-80921895D01*
X184066203Y-80889200D01*
X184233797Y-80889200D01*
X184398169Y-80921895D01*
G37*
G36*
X186938169Y-80921895D02*
G01*
X187093005Y-80986031D01*
X187232354Y-81079140D01*
X187350860Y-81197646D01*
X187443969Y-81336995D01*
X187508105Y-81491831D01*
X187540800Y-81656203D01*
X187540800Y-81823797D01*
X187508105Y-81988169D01*
X187443969Y-82143005D01*
X187350860Y-82282354D01*
X187232354Y-82400860D01*
X187093005Y-82493969D01*
X186938169Y-82558105D01*
X186773797Y-82590800D01*
X186606203Y-82590800D01*
X186441831Y-82558105D01*
X186286995Y-82493969D01*
X186147646Y-82400860D01*
X186029140Y-82282354D01*
X185936031Y-82143005D01*
X185871895Y-81988169D01*
X185839200Y-81823797D01*
X185839200Y-81656203D01*
X185871895Y-81491831D01*
X185936031Y-81336995D01*
X186029140Y-81197646D01*
X186147646Y-81079140D01*
X186286995Y-80986031D01*
X186441831Y-80921895D01*
X186606203Y-80889200D01*
X186773797Y-80889200D01*
X186938169Y-80921895D01*
G37*
G36*
X189478169Y-80921895D02*
G01*
X189633005Y-80986031D01*
X189772354Y-81079140D01*
X189890860Y-81197646D01*
X189983969Y-81336995D01*
X190048105Y-81491831D01*
X190080800Y-81656203D01*
X190080800Y-81823797D01*
X190048105Y-81988169D01*
X189983969Y-82143005D01*
X189890860Y-82282354D01*
X189772354Y-82400860D01*
X189633005Y-82493969D01*
X189478169Y-82558105D01*
X189313797Y-82590800D01*
X189146203Y-82590800D01*
X188981831Y-82558105D01*
X188826995Y-82493969D01*
X188687646Y-82400860D01*
X188569140Y-82282354D01*
X188476031Y-82143005D01*
X188411895Y-81988169D01*
X188379200Y-81823797D01*
X188379200Y-81656203D01*
X188411895Y-81491831D01*
X188476031Y-81336995D01*
X188569140Y-81197646D01*
X188687646Y-81079140D01*
X188826995Y-80986031D01*
X188981831Y-80921895D01*
X189146203Y-80889200D01*
X189313797Y-80889200D01*
X189478169Y-80921895D01*
G37*
G36*
X192018169Y-80921895D02*
G01*
X192173005Y-80986031D01*
X192312354Y-81079140D01*
X192430860Y-81197646D01*
X192523969Y-81336995D01*
X192588105Y-81491831D01*
X192620800Y-81656203D01*
X192620800Y-81823797D01*
X192588105Y-81988169D01*
X192523969Y-82143005D01*
X192430860Y-82282354D01*
X192312354Y-82400860D01*
X192173005Y-82493969D01*
X192018169Y-82558105D01*
X191853797Y-82590800D01*
X191686203Y-82590800D01*
X191521831Y-82558105D01*
X191366995Y-82493969D01*
X191227646Y-82400860D01*
X191109140Y-82282354D01*
X191016031Y-82143005D01*
X190951895Y-81988169D01*
X190919200Y-81823797D01*
X190919200Y-81656203D01*
X190951895Y-81491831D01*
X191016031Y-81336995D01*
X191109140Y-81197646D01*
X191227646Y-81079140D01*
X191366995Y-80986031D01*
X191521831Y-80921895D01*
X191686203Y-80889200D01*
X191853797Y-80889200D01*
X192018169Y-80921895D01*
G37*
G36*
X194558169Y-80921895D02*
G01*
X194713005Y-80986031D01*
X194852354Y-81079140D01*
X194970860Y-81197646D01*
X195063969Y-81336995D01*
X195128105Y-81491831D01*
X195160800Y-81656203D01*
X195160800Y-81823797D01*
X195128105Y-81988169D01*
X195063969Y-82143005D01*
X194970860Y-82282354D01*
X194852354Y-82400860D01*
X194713005Y-82493969D01*
X194558169Y-82558105D01*
X194393797Y-82590800D01*
X194226203Y-82590800D01*
X194061831Y-82558105D01*
X193906995Y-82493969D01*
X193767646Y-82400860D01*
X193649140Y-82282354D01*
X193556031Y-82143005D01*
X193491895Y-81988169D01*
X193459200Y-81823797D01*
X193459200Y-81656203D01*
X193491895Y-81491831D01*
X193556031Y-81336995D01*
X193649140Y-81197646D01*
X193767646Y-81079140D01*
X193906995Y-80986031D01*
X194061831Y-80921895D01*
X194226203Y-80889200D01*
X194393797Y-80889200D01*
X194558169Y-80921895D01*
G37*
G36*
X155188169Y-80461895D02*
G01*
X155343005Y-80526031D01*
X155482354Y-80619140D01*
X155600860Y-80737646D01*
X155693969Y-80876995D01*
X155758105Y-81031831D01*
X155790800Y-81196203D01*
X155790800Y-81363797D01*
X155758105Y-81528169D01*
X155693969Y-81683005D01*
X155600860Y-81822354D01*
X155482354Y-81940860D01*
X155343005Y-82033969D01*
X155188169Y-82098105D01*
X155023797Y-82130800D01*
X154856203Y-82130800D01*
X154691831Y-82098105D01*
X154536995Y-82033969D01*
X154397646Y-81940860D01*
X154279140Y-81822354D01*
X154186031Y-81683005D01*
X154121895Y-81528169D01*
X154089200Y-81363797D01*
X154089200Y-81196203D01*
X154121895Y-81031831D01*
X154186031Y-80876995D01*
X154279140Y-80737646D01*
X154397646Y-80619140D01*
X154536995Y-80526031D01*
X154691831Y-80461895D01*
X154856203Y-80429200D01*
X155023797Y-80429200D01*
X155188169Y-80461895D01*
G37*
G36*
X167888169Y-77921895D02*
G01*
X168043005Y-77986031D01*
X168182354Y-78079140D01*
X168300860Y-78197646D01*
X168393969Y-78336995D01*
X168458105Y-78491831D01*
X168490800Y-78656203D01*
X168490800Y-78823797D01*
X168458105Y-78988169D01*
X168393969Y-79143005D01*
X168300860Y-79282354D01*
X168182354Y-79400860D01*
X168043005Y-79493969D01*
X167888169Y-79558105D01*
X167723797Y-79590800D01*
X167556203Y-79590800D01*
X167391831Y-79558105D01*
X167236995Y-79493969D01*
X167097646Y-79400860D01*
X166979140Y-79282354D01*
X166886031Y-79143005D01*
X166821895Y-78988169D01*
X166789200Y-78823797D01*
X166789200Y-78656203D01*
X166821895Y-78491831D01*
X166886031Y-78336995D01*
X166979140Y-78197646D01*
X167097646Y-78079140D01*
X167236995Y-77986031D01*
X167391831Y-77921895D01*
X167556203Y-77889200D01*
X167723797Y-77889200D01*
X167888169Y-77921895D01*
G37*
G36*
X165348169Y-77921895D02*
G01*
X165503005Y-77986031D01*
X165642354Y-78079140D01*
X165760860Y-78197646D01*
X165853969Y-78336995D01*
X165918105Y-78491831D01*
X165950800Y-78656203D01*
X165950800Y-78823797D01*
X165918105Y-78988169D01*
X165853969Y-79143005D01*
X165760860Y-79282354D01*
X165642354Y-79400860D01*
X165503005Y-79493969D01*
X165348169Y-79558105D01*
X165183797Y-79590800D01*
X165016203Y-79590800D01*
X164851831Y-79558105D01*
X164696995Y-79493969D01*
X164557646Y-79400860D01*
X164439140Y-79282354D01*
X164346031Y-79143005D01*
X164281895Y-78988169D01*
X164249200Y-78823797D01*
X164249200Y-78656203D01*
X164281895Y-78491831D01*
X164346031Y-78336995D01*
X164439140Y-78197646D01*
X164557646Y-78079140D01*
X164696995Y-77986031D01*
X164851831Y-77921895D01*
X165016203Y-77889200D01*
X165183797Y-77889200D01*
X165348169Y-77921895D01*
G37*
G36*
X162808169Y-77921895D02*
G01*
X162963005Y-77986031D01*
X163102354Y-78079140D01*
X163220860Y-78197646D01*
X163313969Y-78336995D01*
X163378105Y-78491831D01*
X163410800Y-78656203D01*
X163410800Y-78823797D01*
X163378105Y-78988169D01*
X163313969Y-79143005D01*
X163220860Y-79282354D01*
X163102354Y-79400860D01*
X162963005Y-79493969D01*
X162808169Y-79558105D01*
X162643797Y-79590800D01*
X162476203Y-79590800D01*
X162311831Y-79558105D01*
X162156995Y-79493969D01*
X162017646Y-79400860D01*
X161899140Y-79282354D01*
X161806031Y-79143005D01*
X161741895Y-78988169D01*
X161709200Y-78823797D01*
X161709200Y-78656203D01*
X161741895Y-78491831D01*
X161806031Y-78336995D01*
X161899140Y-78197646D01*
X162017646Y-78079140D01*
X162156995Y-77986031D01*
X162311831Y-77921895D01*
X162476203Y-77889200D01*
X162643797Y-77889200D01*
X162808169Y-77921895D01*
G37*
G36*
X160268169Y-77921895D02*
G01*
X160423005Y-77986031D01*
X160562354Y-78079140D01*
X160680860Y-78197646D01*
X160773969Y-78336995D01*
X160838105Y-78491831D01*
X160870800Y-78656203D01*
X160870800Y-78823797D01*
X160838105Y-78988169D01*
X160773969Y-79143005D01*
X160680860Y-79282354D01*
X160562354Y-79400860D01*
X160423005Y-79493969D01*
X160268169Y-79558105D01*
X160103797Y-79590800D01*
X159936203Y-79590800D01*
X159771831Y-79558105D01*
X159616995Y-79493969D01*
X159477646Y-79400860D01*
X159359140Y-79282354D01*
X159266031Y-79143005D01*
X159201895Y-78988169D01*
X159169200Y-78823797D01*
X159169200Y-78656203D01*
X159201895Y-78491831D01*
X159266031Y-78336995D01*
X159359140Y-78197646D01*
X159477646Y-78079140D01*
X159616995Y-77986031D01*
X159771831Y-77921895D01*
X159936203Y-77889200D01*
X160103797Y-77889200D01*
X160268169Y-77921895D01*
G37*
G36*
X157728169Y-77921895D02*
G01*
X157883005Y-77986031D01*
X158022354Y-78079140D01*
X158140860Y-78197646D01*
X158233969Y-78336995D01*
X158298105Y-78491831D01*
X158330800Y-78656203D01*
X158330800Y-78823797D01*
X158298105Y-78988169D01*
X158233969Y-79143005D01*
X158140860Y-79282354D01*
X158022354Y-79400860D01*
X157883005Y-79493969D01*
X157728169Y-79558105D01*
X157563797Y-79590800D01*
X157396203Y-79590800D01*
X157231831Y-79558105D01*
X157076995Y-79493969D01*
X156937646Y-79400860D01*
X156819140Y-79282354D01*
X156726031Y-79143005D01*
X156661895Y-78988169D01*
X156629200Y-78823797D01*
X156629200Y-78656203D01*
X156661895Y-78491831D01*
X156726031Y-78336995D01*
X156819140Y-78197646D01*
X156937646Y-78079140D01*
X157076995Y-77986031D01*
X157231831Y-77921895D01*
X157396203Y-77889200D01*
X157563797Y-77889200D01*
X157728169Y-77921895D01*
G37*
G36*
X155188169Y-77921895D02*
G01*
X155343005Y-77986031D01*
X155482354Y-78079140D01*
X155600860Y-78197646D01*
X155693969Y-78336995D01*
X155758105Y-78491831D01*
X155790800Y-78656203D01*
X155790800Y-78823797D01*
X155758105Y-78988169D01*
X155693969Y-79143005D01*
X155600860Y-79282354D01*
X155482354Y-79400860D01*
X155343005Y-79493969D01*
X155188169Y-79558105D01*
X155023797Y-79590800D01*
X154856203Y-79590800D01*
X154691831Y-79558105D01*
X154536995Y-79493969D01*
X154397646Y-79400860D01*
X154279140Y-79282354D01*
X154186031Y-79143005D01*
X154121895Y-78988169D01*
X154089200Y-78823797D01*
X154089200Y-78656203D01*
X154121895Y-78491831D01*
X154186031Y-78336995D01*
X154279140Y-78197646D01*
X154397646Y-78079140D01*
X154536995Y-77986031D01*
X154691831Y-77921895D01*
X154856203Y-77889200D01*
X155023797Y-77889200D01*
X155188169Y-77921895D01*
G37*
G36*
X150108169Y-77921895D02*
G01*
X150263005Y-77986031D01*
X150402354Y-78079140D01*
X150520860Y-78197646D01*
X150613969Y-78336995D01*
X150678105Y-78491831D01*
X150710800Y-78656203D01*
X150710800Y-78823797D01*
X150678105Y-78988169D01*
X150613969Y-79143005D01*
X150520860Y-79282354D01*
X150402354Y-79400860D01*
X150263005Y-79493969D01*
X150108169Y-79558105D01*
X149943797Y-79590800D01*
X149776203Y-79590800D01*
X149611831Y-79558105D01*
X149456995Y-79493969D01*
X149317646Y-79400860D01*
X149199140Y-79282354D01*
X149106031Y-79143005D01*
X149041895Y-78988169D01*
X149009200Y-78823797D01*
X149009200Y-78656203D01*
X149041895Y-78491831D01*
X149106031Y-78336995D01*
X149199140Y-78197646D01*
X149317646Y-78079140D01*
X149456995Y-77986031D01*
X149611831Y-77921895D01*
X149776203Y-77889200D01*
X149943797Y-77889200D01*
X150108169Y-77921895D01*
G37*
G36*
X185668169Y-77921895D02*
G01*
X185823005Y-77986031D01*
X185962354Y-78079140D01*
X186080860Y-78197646D01*
X186173969Y-78336995D01*
X186238105Y-78491831D01*
X186270800Y-78656203D01*
X186270800Y-78823797D01*
X186238105Y-78988169D01*
X186173969Y-79143005D01*
X186080860Y-79282354D01*
X185962354Y-79400860D01*
X185823005Y-79493969D01*
X185668169Y-79558105D01*
X185503797Y-79590800D01*
X185336203Y-79590800D01*
X185171831Y-79558105D01*
X185016995Y-79493969D01*
X184877646Y-79400860D01*
X184759140Y-79282354D01*
X184666031Y-79143005D01*
X184601895Y-78988169D01*
X184569200Y-78823797D01*
X184569200Y-78656203D01*
X184601895Y-78491831D01*
X184666031Y-78336995D01*
X184759140Y-78197646D01*
X184877646Y-78079140D01*
X185016995Y-77986031D01*
X185171831Y-77921895D01*
X185336203Y-77889200D01*
X185503797Y-77889200D01*
X185668169Y-77921895D01*
G37*
G36*
X183128169Y-77921895D02*
G01*
X183283005Y-77986031D01*
X183422354Y-78079140D01*
X183540860Y-78197646D01*
X183633969Y-78336995D01*
X183698105Y-78491831D01*
X183730800Y-78656203D01*
X183730800Y-78823797D01*
X183698105Y-78988169D01*
X183633969Y-79143005D01*
X183540860Y-79282354D01*
X183422354Y-79400860D01*
X183283005Y-79493969D01*
X183128169Y-79558105D01*
X182963797Y-79590800D01*
X182796203Y-79590800D01*
X182631831Y-79558105D01*
X182476995Y-79493969D01*
X182337646Y-79400860D01*
X182219140Y-79282354D01*
X182126031Y-79143005D01*
X182061895Y-78988169D01*
X182029200Y-78823797D01*
X182029200Y-78656203D01*
X182061895Y-78491831D01*
X182126031Y-78336995D01*
X182219140Y-78197646D01*
X182337646Y-78079140D01*
X182476995Y-77986031D01*
X182631831Y-77921895D01*
X182796203Y-77889200D01*
X182963797Y-77889200D01*
X183128169Y-77921895D01*
G37*
G36*
X180588169Y-77921895D02*
G01*
X180743005Y-77986031D01*
X180882354Y-78079140D01*
X181000860Y-78197646D01*
X181093969Y-78336995D01*
X181158105Y-78491831D01*
X181190800Y-78656203D01*
X181190800Y-78823797D01*
X181158105Y-78988169D01*
X181093969Y-79143005D01*
X181000860Y-79282354D01*
X180882354Y-79400860D01*
X180743005Y-79493969D01*
X180588169Y-79558105D01*
X180423797Y-79590800D01*
X180256203Y-79590800D01*
X180091831Y-79558105D01*
X179936995Y-79493969D01*
X179797646Y-79400860D01*
X179679140Y-79282354D01*
X179586031Y-79143005D01*
X179521895Y-78988169D01*
X179489200Y-78823797D01*
X179489200Y-78656203D01*
X179521895Y-78491831D01*
X179586031Y-78336995D01*
X179679140Y-78197646D01*
X179797646Y-78079140D01*
X179936995Y-77986031D01*
X180091831Y-77921895D01*
X180256203Y-77889200D01*
X180423797Y-77889200D01*
X180588169Y-77921895D01*
G37*
G36*
X178048169Y-77921895D02*
G01*
X178203005Y-77986031D01*
X178342354Y-78079140D01*
X178460860Y-78197646D01*
X178553969Y-78336995D01*
X178618105Y-78491831D01*
X178650800Y-78656203D01*
X178650800Y-78823797D01*
X178618105Y-78988169D01*
X178553969Y-79143005D01*
X178460860Y-79282354D01*
X178342354Y-79400860D01*
X178203005Y-79493969D01*
X178048169Y-79558105D01*
X177883797Y-79590800D01*
X177716203Y-79590800D01*
X177551831Y-79558105D01*
X177396995Y-79493969D01*
X177257646Y-79400860D01*
X177139140Y-79282354D01*
X177046031Y-79143005D01*
X176981895Y-78988169D01*
X176949200Y-78823797D01*
X176949200Y-78656203D01*
X176981895Y-78491831D01*
X177046031Y-78336995D01*
X177139140Y-78197646D01*
X177257646Y-78079140D01*
X177396995Y-77986031D01*
X177551831Y-77921895D01*
X177716203Y-77889200D01*
X177883797Y-77889200D01*
X178048169Y-77921895D01*
G37*
G36*
X175508169Y-77921895D02*
G01*
X175663005Y-77986031D01*
X175802354Y-78079140D01*
X175920860Y-78197646D01*
X176013969Y-78336995D01*
X176078105Y-78491831D01*
X176110800Y-78656203D01*
X176110800Y-78823797D01*
X176078105Y-78988169D01*
X176013969Y-79143005D01*
X175920860Y-79282354D01*
X175802354Y-79400860D01*
X175663005Y-79493969D01*
X175508169Y-79558105D01*
X175343797Y-79590800D01*
X175176203Y-79590800D01*
X175011831Y-79558105D01*
X174856995Y-79493969D01*
X174717646Y-79400860D01*
X174599140Y-79282354D01*
X174506031Y-79143005D01*
X174441895Y-78988169D01*
X174409200Y-78823797D01*
X174409200Y-78656203D01*
X174441895Y-78491831D01*
X174506031Y-78336995D01*
X174599140Y-78197646D01*
X174717646Y-78079140D01*
X174856995Y-77986031D01*
X175011831Y-77921895D01*
X175176203Y-77889200D01*
X175343797Y-77889200D01*
X175508169Y-77921895D01*
G37*
G36*
X170428169Y-77921895D02*
G01*
X170583005Y-77986031D01*
X170722354Y-78079140D01*
X170840860Y-78197646D01*
X170933969Y-78336995D01*
X170998105Y-78491831D01*
X171030800Y-78656203D01*
X171030800Y-78823797D01*
X170998105Y-78988169D01*
X170933969Y-79143005D01*
X170840860Y-79282354D01*
X170722354Y-79400860D01*
X170583005Y-79493969D01*
X170428169Y-79558105D01*
X170263797Y-79590800D01*
X170096203Y-79590800D01*
X169931831Y-79558105D01*
X169776995Y-79493969D01*
X169637646Y-79400860D01*
X169519140Y-79282354D01*
X169426031Y-79143005D01*
X169361895Y-78988169D01*
X169329200Y-78823797D01*
X169329200Y-78656203D01*
X169361895Y-78491831D01*
X169426031Y-78336995D01*
X169519140Y-78197646D01*
X169637646Y-78079140D01*
X169776995Y-77986031D01*
X169931831Y-77921895D01*
X170096203Y-77889200D01*
X170263797Y-77889200D01*
X170428169Y-77921895D01*
G37*
G36*
X201510800Y-79590800D02*
G01*
X199809200Y-79590800D01*
X199809200Y-77889200D01*
X201510800Y-77889200D01*
X201510800Y-79590800D01*
G37*
G36*
X198368169Y-77921895D02*
G01*
X198523005Y-77986031D01*
X198662354Y-78079140D01*
X198780860Y-78197646D01*
X198873969Y-78336995D01*
X198938105Y-78491831D01*
X198970800Y-78656203D01*
X198970800Y-78823797D01*
X198938105Y-78988169D01*
X198873969Y-79143005D01*
X198780860Y-79282354D01*
X198662354Y-79400860D01*
X198523005Y-79493969D01*
X198368169Y-79558105D01*
X198203797Y-79590800D01*
X198036203Y-79590800D01*
X197871831Y-79558105D01*
X197716995Y-79493969D01*
X197577646Y-79400860D01*
X197459140Y-79282354D01*
X197366031Y-79143005D01*
X197301895Y-78988169D01*
X197269200Y-78823797D01*
X197269200Y-78656203D01*
X197301895Y-78491831D01*
X197366031Y-78336995D01*
X197459140Y-78197646D01*
X197577646Y-78079140D01*
X197716995Y-77986031D01*
X197871831Y-77921895D01*
X198036203Y-77889200D01*
X198203797Y-77889200D01*
X198368169Y-77921895D01*
G37*
G36*
X195828169Y-77921895D02*
G01*
X195983005Y-77986031D01*
X196122354Y-78079140D01*
X196240860Y-78197646D01*
X196333969Y-78336995D01*
X196398105Y-78491831D01*
X196430800Y-78656203D01*
X196430800Y-78823797D01*
X196398105Y-78988169D01*
X196333969Y-79143005D01*
X196240860Y-79282354D01*
X196122354Y-79400860D01*
X195983005Y-79493969D01*
X195828169Y-79558105D01*
X195663797Y-79590800D01*
X195496203Y-79590800D01*
X195331831Y-79558105D01*
X195176995Y-79493969D01*
X195037646Y-79400860D01*
X194919140Y-79282354D01*
X194826031Y-79143005D01*
X194761895Y-78988169D01*
X194729200Y-78823797D01*
X194729200Y-78656203D01*
X194761895Y-78491831D01*
X194826031Y-78336995D01*
X194919140Y-78197646D01*
X195037646Y-78079140D01*
X195176995Y-77986031D01*
X195331831Y-77921895D01*
X195496203Y-77889200D01*
X195663797Y-77889200D01*
X195828169Y-77921895D01*
G37*
G36*
X193288169Y-77921895D02*
G01*
X193443005Y-77986031D01*
X193582354Y-78079140D01*
X193700860Y-78197646D01*
X193793969Y-78336995D01*
X193858105Y-78491831D01*
X193890800Y-78656203D01*
X193890800Y-78823797D01*
X193858105Y-78988169D01*
X193793969Y-79143005D01*
X193700860Y-79282354D01*
X193582354Y-79400860D01*
X193443005Y-79493969D01*
X193288169Y-79558105D01*
X193123797Y-79590800D01*
X192956203Y-79590800D01*
X192791831Y-79558105D01*
X192636995Y-79493969D01*
X192497646Y-79400860D01*
X192379140Y-79282354D01*
X192286031Y-79143005D01*
X192221895Y-78988169D01*
X192189200Y-78823797D01*
X192189200Y-78656203D01*
X192221895Y-78491831D01*
X192286031Y-78336995D01*
X192379140Y-78197646D01*
X192497646Y-78079140D01*
X192636995Y-77986031D01*
X192791831Y-77921895D01*
X192956203Y-77889200D01*
X193123797Y-77889200D01*
X193288169Y-77921895D01*
G37*
G36*
X190748169Y-77921895D02*
G01*
X190903005Y-77986031D01*
X191042354Y-78079140D01*
X191160860Y-78197646D01*
X191253969Y-78336995D01*
X191318105Y-78491831D01*
X191350800Y-78656203D01*
X191350800Y-78823797D01*
X191318105Y-78988169D01*
X191253969Y-79143005D01*
X191160860Y-79282354D01*
X191042354Y-79400860D01*
X190903005Y-79493969D01*
X190748169Y-79558105D01*
X190583797Y-79590800D01*
X190416203Y-79590800D01*
X190251831Y-79558105D01*
X190096995Y-79493969D01*
X189957646Y-79400860D01*
X189839140Y-79282354D01*
X189746031Y-79143005D01*
X189681895Y-78988169D01*
X189649200Y-78823797D01*
X189649200Y-78656203D01*
X189681895Y-78491831D01*
X189746031Y-78336995D01*
X189839140Y-78197646D01*
X189957646Y-78079140D01*
X190096995Y-77986031D01*
X190251831Y-77921895D01*
X190416203Y-77889200D01*
X190583797Y-77889200D01*
X190748169Y-77921895D01*
G37*
G36*
X188208169Y-77921895D02*
G01*
X188363005Y-77986031D01*
X188502354Y-78079140D01*
X188620860Y-78197646D01*
X188713969Y-78336995D01*
X188778105Y-78491831D01*
X188810800Y-78656203D01*
X188810800Y-78823797D01*
X188778105Y-78988169D01*
X188713969Y-79143005D01*
X188620860Y-79282354D01*
X188502354Y-79400860D01*
X188363005Y-79493969D01*
X188208169Y-79558105D01*
X188043797Y-79590800D01*
X187876203Y-79590800D01*
X187711831Y-79558105D01*
X187556995Y-79493969D01*
X187417646Y-79400860D01*
X187299140Y-79282354D01*
X187206031Y-79143005D01*
X187141895Y-78988169D01*
X187109200Y-78823797D01*
X187109200Y-78656203D01*
X187141895Y-78491831D01*
X187206031Y-78336995D01*
X187299140Y-78197646D01*
X187417646Y-78079140D01*
X187556995Y-77986031D01*
X187711831Y-77921895D01*
X187876203Y-77889200D01*
X188043797Y-77889200D01*
X188208169Y-77921895D01*
G37*
G36*
X142488169Y-77921895D02*
G01*
X142643005Y-77986031D01*
X142782354Y-78079140D01*
X142900860Y-78197646D01*
X142993969Y-78336995D01*
X143058105Y-78491831D01*
X143090800Y-78656203D01*
X143090800Y-78823797D01*
X143058105Y-78988169D01*
X142993969Y-79143005D01*
X142900860Y-79282354D01*
X142782354Y-79400860D01*
X142643005Y-79493969D01*
X142488169Y-79558105D01*
X142323797Y-79590800D01*
X142156203Y-79590800D01*
X141991831Y-79558105D01*
X141836995Y-79493969D01*
X141697646Y-79400860D01*
X141579140Y-79282354D01*
X141486031Y-79143005D01*
X141421895Y-78988169D01*
X141389200Y-78823797D01*
X141389200Y-78656203D01*
X141421895Y-78491831D01*
X141486031Y-78336995D01*
X141579140Y-78197646D01*
X141697646Y-78079140D01*
X141836995Y-77986031D01*
X141991831Y-77921895D01*
X142156203Y-77889200D01*
X142323797Y-77889200D01*
X142488169Y-77921895D01*
G37*
G36*
X145028169Y-77921895D02*
G01*
X145183005Y-77986031D01*
X145322354Y-78079140D01*
X145440860Y-78197646D01*
X145533969Y-78336995D01*
X145598105Y-78491831D01*
X145630800Y-78656203D01*
X145630800Y-78823797D01*
X145598105Y-78988169D01*
X145533969Y-79143005D01*
X145440860Y-79282354D01*
X145322354Y-79400860D01*
X145183005Y-79493969D01*
X145028169Y-79558105D01*
X144863797Y-79590800D01*
X144696203Y-79590800D01*
X144531831Y-79558105D01*
X144376995Y-79493969D01*
X144237646Y-79400860D01*
X144119140Y-79282354D01*
X144026031Y-79143005D01*
X143961895Y-78988169D01*
X143929200Y-78823797D01*
X143929200Y-78656203D01*
X143961895Y-78491831D01*
X144026031Y-78336995D01*
X144119140Y-78197646D01*
X144237646Y-78079140D01*
X144376995Y-77986031D01*
X144531831Y-77921895D01*
X144696203Y-77889200D01*
X144863797Y-77889200D01*
X145028169Y-77921895D01*
G37*
G36*
X147568169Y-77921895D02*
G01*
X147723005Y-77986031D01*
X147862354Y-78079140D01*
X147980860Y-78197646D01*
X148073969Y-78336995D01*
X148138105Y-78491831D01*
X148170800Y-78656203D01*
X148170800Y-78823797D01*
X148138105Y-78988169D01*
X148073969Y-79143005D01*
X147980860Y-79282354D01*
X147862354Y-79400860D01*
X147723005Y-79493969D01*
X147568169Y-79558105D01*
X147403797Y-79590800D01*
X147236203Y-79590800D01*
X147071831Y-79558105D01*
X146916995Y-79493969D01*
X146777646Y-79400860D01*
X146659140Y-79282354D01*
X146566031Y-79143005D01*
X146501895Y-78988169D01*
X146469200Y-78823797D01*
X146469200Y-78656203D01*
X146501895Y-78491831D01*
X146566031Y-78336995D01*
X146659140Y-78197646D01*
X146777646Y-78079140D01*
X146916995Y-77986031D01*
X147071831Y-77921895D01*
X147236203Y-77889200D01*
X147403797Y-77889200D01*
X147568169Y-77921895D01*
G37*
G36*
X172968169Y-77921895D02*
G01*
X173123005Y-77986031D01*
X173262354Y-78079140D01*
X173380860Y-78197646D01*
X173473969Y-78336995D01*
X173538105Y-78491831D01*
X173570800Y-78656203D01*
X173570800Y-78823797D01*
X173538105Y-78988169D01*
X173473969Y-79143005D01*
X173380860Y-79282354D01*
X173262354Y-79400860D01*
X173123005Y-79493969D01*
X172968169Y-79558105D01*
X172803797Y-79590800D01*
X172636203Y-79590800D01*
X172471831Y-79558105D01*
X172316995Y-79493969D01*
X172177646Y-79400860D01*
X172059140Y-79282354D01*
X171966031Y-79143005D01*
X171901895Y-78988169D01*
X171869200Y-78823797D01*
X171869200Y-78656203D01*
X171901895Y-78491831D01*
X171966031Y-78336995D01*
X172059140Y-78197646D01*
X172177646Y-78079140D01*
X172316995Y-77986031D01*
X172471831Y-77921895D01*
X172636203Y-77889200D01*
X172803797Y-77889200D01*
X172968169Y-77921895D01*
G37*
G36*
X152648169Y-77921895D02*
G01*
X152803005Y-77986031D01*
X152942354Y-78079140D01*
X153060860Y-78197646D01*
X153153969Y-78336995D01*
X153218105Y-78491831D01*
X153250800Y-78656203D01*
X153250800Y-78823797D01*
X153218105Y-78988169D01*
X153153969Y-79143005D01*
X153060860Y-79282354D01*
X152942354Y-79400860D01*
X152803005Y-79493969D01*
X152648169Y-79558105D01*
X152483797Y-79590800D01*
X152316203Y-79590800D01*
X152151831Y-79558105D01*
X151996995Y-79493969D01*
X151857646Y-79400860D01*
X151739140Y-79282354D01*
X151646031Y-79143005D01*
X151581895Y-78988169D01*
X151549200Y-78823797D01*
X151549200Y-78656203D01*
X151581895Y-78491831D01*
X151646031Y-78336995D01*
X151739140Y-78197646D01*
X151857646Y-78079140D01*
X151996995Y-77986031D01*
X152151831Y-77921895D01*
X152316203Y-77889200D01*
X152483797Y-77889200D01*
X152648169Y-77921895D01*
G37*
G36*
X61793015Y-66805255D02*
G01*
X61793018Y-66805256D01*
X62132471Y-66908228D01*
X62445312Y-67075445D01*
X62719519Y-67300481D01*
X62944555Y-67574688D01*
X63111772Y-67887529D01*
X63199581Y-68176995D01*
X63214745Y-68226985D01*
X63249514Y-68580000D01*
X63214745Y-68933015D01*
X63214744Y-68933018D01*
X63111772Y-69272471D01*
X62944555Y-69585312D01*
X62719519Y-69859519D01*
X62445312Y-70084555D01*
X62132471Y-70251772D01*
X61831836Y-70342969D01*
X61793015Y-70354745D01*
X61528472Y-70380800D01*
X57851528Y-70380800D01*
X57586985Y-70354745D01*
X57548164Y-70342969D01*
X57247529Y-70251772D01*
X56934688Y-70084555D01*
X56660481Y-69859519D01*
X56435445Y-69585312D01*
X56268228Y-69272471D01*
X56165256Y-68933018D01*
X56165255Y-68933015D01*
X56130486Y-68580000D01*
X56165255Y-68226985D01*
X56180419Y-68176995D01*
X56268228Y-67887529D01*
X56435445Y-67574688D01*
X56660481Y-67300481D01*
X56934688Y-67075445D01*
X57247529Y-66908228D01*
X57586982Y-66805256D01*
X57586985Y-66805255D01*
X57851528Y-66779200D01*
X61528472Y-66779200D01*
X61793015Y-66805255D01*
G37*
G36*
X84068169Y-67761895D02*
G01*
X84223005Y-67826031D01*
X84362354Y-67919140D01*
X84480860Y-68037646D01*
X84573969Y-68176995D01*
X84638105Y-68331831D01*
X84670800Y-68496203D01*
X84670800Y-68663797D01*
X84638105Y-68828169D01*
X84573969Y-68983005D01*
X84480860Y-69122354D01*
X84362354Y-69240860D01*
X84223005Y-69333969D01*
X84068169Y-69398105D01*
X83903797Y-69430800D01*
X83736203Y-69430800D01*
X83571831Y-69398105D01*
X83416995Y-69333969D01*
X83277646Y-69240860D01*
X83159140Y-69122354D01*
X83066031Y-68983005D01*
X83001895Y-68828169D01*
X82969200Y-68663797D01*
X82969200Y-68496203D01*
X83001895Y-68331831D01*
X83066031Y-68176995D01*
X83159140Y-68037646D01*
X83277646Y-67919140D01*
X83416995Y-67826031D01*
X83571831Y-67761895D01*
X83736203Y-67729200D01*
X83903797Y-67729200D01*
X84068169Y-67761895D01*
G37*
G36*
X76448169Y-67761895D02*
G01*
X76603005Y-67826031D01*
X76742354Y-67919140D01*
X76860860Y-68037646D01*
X76953969Y-68176995D01*
X77018105Y-68331831D01*
X77050800Y-68496203D01*
X77050800Y-68663797D01*
X77018105Y-68828169D01*
X76953969Y-68983005D01*
X76860860Y-69122354D01*
X76742354Y-69240860D01*
X76603005Y-69333969D01*
X76448169Y-69398105D01*
X76283797Y-69430800D01*
X76116203Y-69430800D01*
X75951831Y-69398105D01*
X75796995Y-69333969D01*
X75657646Y-69240860D01*
X75539140Y-69122354D01*
X75446031Y-68983005D01*
X75381895Y-68828169D01*
X75349200Y-68663797D01*
X75349200Y-68496203D01*
X75381895Y-68331831D01*
X75446031Y-68176995D01*
X75539140Y-68037646D01*
X75657646Y-67919140D01*
X75796995Y-67826031D01*
X75951831Y-67761895D01*
X76116203Y-67729200D01*
X76283797Y-67729200D01*
X76448169Y-67761895D01*
G37*
G36*
X68828169Y-65221895D02*
G01*
X68983005Y-65286031D01*
X69122354Y-65379140D01*
X69240860Y-65497646D01*
X69333969Y-65636995D01*
X69398105Y-65791831D01*
X69430800Y-65956203D01*
X69430800Y-66123797D01*
X69398105Y-66288169D01*
X69333969Y-66443005D01*
X69240860Y-66582354D01*
X69122354Y-66700860D01*
X68983005Y-66793969D01*
X68828169Y-66858105D01*
X68663797Y-66890800D01*
X68496203Y-66890800D01*
X68331831Y-66858105D01*
X68176995Y-66793969D01*
X68037646Y-66700860D01*
X67919140Y-66582354D01*
X67826031Y-66443005D01*
X67761895Y-66288169D01*
X67729200Y-66123797D01*
X67729200Y-65956203D01*
X67761895Y-65791831D01*
X67826031Y-65636995D01*
X67919140Y-65497646D01*
X68037646Y-65379140D01*
X68176995Y-65286031D01*
X68331831Y-65221895D01*
X68496203Y-65189200D01*
X68663797Y-65189200D01*
X68828169Y-65221895D01*
G37*
G36*
X84068169Y-62681895D02*
G01*
X84223005Y-62746031D01*
X84362354Y-62839140D01*
X84480860Y-62957646D01*
X84573969Y-63096995D01*
X84638105Y-63251831D01*
X84670800Y-63416203D01*
X84670800Y-63583797D01*
X84638105Y-63748169D01*
X84573969Y-63903005D01*
X84480860Y-64042354D01*
X84362354Y-64160860D01*
X84223005Y-64253969D01*
X84068169Y-64318105D01*
X83903797Y-64350800D01*
X83736203Y-64350800D01*
X83571831Y-64318105D01*
X83416995Y-64253969D01*
X83277646Y-64160860D01*
X83159140Y-64042354D01*
X83066031Y-63903005D01*
X83001895Y-63748169D01*
X82969200Y-63583797D01*
X82969200Y-63416203D01*
X83001895Y-63251831D01*
X83066031Y-63096995D01*
X83159140Y-62957646D01*
X83277646Y-62839140D01*
X83416995Y-62746031D01*
X83571831Y-62681895D01*
X83736203Y-62649200D01*
X83903797Y-62649200D01*
X84068169Y-62681895D01*
G37*
G36*
X69108785Y-62657126D02*
G01*
X69183780Y-62679876D01*
X69252891Y-62716816D01*
X69313469Y-62766531D01*
X69363184Y-62827109D01*
X69400124Y-62896220D01*
X69422874Y-62971215D01*
X69430800Y-63051691D01*
X69430800Y-63948309D01*
X69422874Y-64028785D01*
X69400124Y-64103780D01*
X69363184Y-64172891D01*
X69313469Y-64233469D01*
X69252891Y-64283184D01*
X69183780Y-64320124D01*
X69108785Y-64342874D01*
X69028309Y-64350800D01*
X68131691Y-64350800D01*
X68051215Y-64342874D01*
X67976220Y-64320124D01*
X67907109Y-64283184D01*
X67846531Y-64233469D01*
X67796816Y-64172891D01*
X67759876Y-64103780D01*
X67737126Y-64028785D01*
X67729200Y-63948309D01*
X67729200Y-63051691D01*
X67737126Y-62971215D01*
X67759876Y-62896220D01*
X67796816Y-62827109D01*
X67846531Y-62766531D01*
X67907109Y-62716816D01*
X67976220Y-62679876D01*
X68051215Y-62657126D01*
X68131691Y-62649200D01*
X69028309Y-62649200D01*
X69108785Y-62657126D01*
G37*
G36*
X76448169Y-62681895D02*
G01*
X76603005Y-62746031D01*
X76742354Y-62839140D01*
X76860860Y-62957646D01*
X76953969Y-63096995D01*
X77018105Y-63251831D01*
X77050800Y-63416203D01*
X77050800Y-63583797D01*
X77018105Y-63748169D01*
X76953969Y-63903005D01*
X76860860Y-64042354D01*
X76742354Y-64160860D01*
X76603005Y-64253969D01*
X76448169Y-64318105D01*
X76283797Y-64350800D01*
X76116203Y-64350800D01*
X75951831Y-64318105D01*
X75796995Y-64253969D01*
X75657646Y-64160860D01*
X75539140Y-64042354D01*
X75446031Y-63903005D01*
X75381895Y-63748169D01*
X75349200Y-63583797D01*
X75349200Y-63416203D01*
X75381895Y-63251831D01*
X75446031Y-63096995D01*
X75539140Y-62957646D01*
X75657646Y-62839140D01*
X75796995Y-62746031D01*
X75951831Y-62681895D01*
X76116203Y-62649200D01*
X76283797Y-62649200D01*
X76448169Y-62681895D01*
G37*
G36*
X66288169Y-62681895D02*
G01*
X66443005Y-62746031D01*
X66582354Y-62839140D01*
X66700860Y-62957646D01*
X66793969Y-63096995D01*
X66858105Y-63251831D01*
X66890800Y-63416203D01*
X66890800Y-63583797D01*
X66858105Y-63748169D01*
X66793969Y-63903005D01*
X66700860Y-64042354D01*
X66582354Y-64160860D01*
X66443005Y-64253969D01*
X66288169Y-64318105D01*
X66123797Y-64350800D01*
X65956203Y-64350800D01*
X65791831Y-64318105D01*
X65636995Y-64253969D01*
X65497646Y-64160860D01*
X65379140Y-64042354D01*
X65286031Y-63903005D01*
X65221895Y-63748169D01*
X65189200Y-63583797D01*
X65189200Y-63416203D01*
X65221895Y-63251831D01*
X65286031Y-63096995D01*
X65379140Y-62957646D01*
X65497646Y-62839140D01*
X65636995Y-62746031D01*
X65791831Y-62681895D01*
X65956203Y-62649200D01*
X66123797Y-62649200D01*
X66288169Y-62681895D01*
G37*
G36*
X68828169Y-60141895D02*
G01*
X68983005Y-60206031D01*
X69122354Y-60299140D01*
X69240860Y-60417646D01*
X69333969Y-60556995D01*
X69398105Y-60711831D01*
X69430800Y-60876203D01*
X69430800Y-61043797D01*
X69398105Y-61208169D01*
X69333969Y-61363005D01*
X69240860Y-61502354D01*
X69122354Y-61620860D01*
X68983005Y-61713969D01*
X68828169Y-61778105D01*
X68663797Y-61810800D01*
X68496203Y-61810800D01*
X68331831Y-61778105D01*
X68176995Y-61713969D01*
X68037646Y-61620860D01*
X67919140Y-61502354D01*
X67826031Y-61363005D01*
X67761895Y-61208169D01*
X67729200Y-61043797D01*
X67729200Y-60876203D01*
X67761895Y-60711831D01*
X67826031Y-60556995D01*
X67919140Y-60417646D01*
X68037646Y-60299140D01*
X68176995Y-60206031D01*
X68331831Y-60141895D01*
X68496203Y-60109200D01*
X68663797Y-60109200D01*
X68828169Y-60141895D01*
G37*
G36*
X61893015Y-56645255D02*
G01*
X61893018Y-56645256D01*
X62232471Y-56748228D01*
X62545312Y-56915445D01*
X62819519Y-57140481D01*
X63044555Y-57414688D01*
X63211772Y-57727529D01*
X63247641Y-57845773D01*
X63314745Y-58066985D01*
X63349514Y-58420000D01*
X63314745Y-58773015D01*
X63314744Y-58773018D01*
X63211772Y-59112471D01*
X63044555Y-59425312D01*
X62819519Y-59699519D01*
X62545312Y-59924555D01*
X62232471Y-60091772D01*
X61931836Y-60182969D01*
X61893015Y-60194745D01*
X61628472Y-60220800D01*
X57951528Y-60220800D01*
X57686985Y-60194745D01*
X57648164Y-60182969D01*
X57347529Y-60091772D01*
X57034688Y-59924555D01*
X56760481Y-59699519D01*
X56535445Y-59425312D01*
X56368228Y-59112471D01*
X56265256Y-58773018D01*
X56265255Y-58773015D01*
X56230486Y-58420000D01*
X56265255Y-58066985D01*
X56332359Y-57845773D01*
X56368228Y-57727529D01*
X56535445Y-57414688D01*
X56760481Y-57140481D01*
X57034688Y-56915445D01*
X57347529Y-56748228D01*
X57686982Y-56645256D01*
X57686985Y-56645255D01*
X57951528Y-56619200D01*
X61628472Y-56619200D01*
X61893015Y-56645255D01*
G37*
G36*
X91070800Y-59320800D02*
G01*
X89269200Y-59320800D01*
X89269200Y-57519200D01*
X91070800Y-57519200D01*
X91070800Y-59320800D01*
G37*
G36*
X92972754Y-57553817D02*
G01*
X93136689Y-57621721D01*
X93284227Y-57720303D01*
X93409697Y-57845773D01*
X93508279Y-57993311D01*
X93576183Y-58157246D01*
X93610800Y-58331279D01*
X93610800Y-58508721D01*
X93576183Y-58682754D01*
X93508279Y-58846689D01*
X93409697Y-58994227D01*
X93284227Y-59119697D01*
X93136689Y-59218279D01*
X92972754Y-59286183D01*
X92798721Y-59320800D01*
X92621279Y-59320800D01*
X92447246Y-59286183D01*
X92283311Y-59218279D01*
X92135773Y-59119697D01*
X92010303Y-58994227D01*
X91911721Y-58846689D01*
X91843817Y-58682754D01*
X91809200Y-58508721D01*
X91809200Y-58331279D01*
X91843817Y-58157246D01*
X91911721Y-57993311D01*
X92010303Y-57845773D01*
X92135773Y-57720303D01*
X92283311Y-57621721D01*
X92447246Y-57553817D01*
X92621279Y-57519200D01*
X92798721Y-57519200D01*
X92972754Y-57553817D01*
G37*
G36*
X95512754Y-57553817D02*
G01*
X95676689Y-57621721D01*
X95824227Y-57720303D01*
X95949697Y-57845773D01*
X96048279Y-57993311D01*
X96116183Y-58157246D01*
X96150800Y-58331279D01*
X96150800Y-58508721D01*
X96116183Y-58682754D01*
X96048279Y-58846689D01*
X95949697Y-58994227D01*
X95824227Y-59119697D01*
X95676689Y-59218279D01*
X95512754Y-59286183D01*
X95338721Y-59320800D01*
X95161279Y-59320800D01*
X94987246Y-59286183D01*
X94823311Y-59218279D01*
X94675773Y-59119697D01*
X94550303Y-58994227D01*
X94451721Y-58846689D01*
X94383817Y-58682754D01*
X94349200Y-58508721D01*
X94349200Y-58331279D01*
X94383817Y-58157246D01*
X94451721Y-57993311D01*
X94550303Y-57845773D01*
X94675773Y-57720303D01*
X94823311Y-57621721D01*
X94987246Y-57553817D01*
X95161279Y-57519200D01*
X95338721Y-57519200D01*
X95512754Y-57553817D01*
G37*
G36*
X105090800Y-56830800D02*
G01*
X103189200Y-56830800D01*
X103189200Y-54929200D01*
X105090800Y-54929200D01*
X105090800Y-56830800D01*
G37*
G36*
X101877338Y-54965738D02*
G01*
X102050373Y-55037412D01*
X102206100Y-55141465D01*
X102338535Y-55273900D01*
X102442588Y-55429627D01*
X102514262Y-55602662D01*
X102550800Y-55786354D01*
X102550800Y-55973646D01*
X102514262Y-56157338D01*
X102442588Y-56330373D01*
X102338535Y-56486100D01*
X102206100Y-56618535D01*
X102050373Y-56722588D01*
X101877338Y-56794262D01*
X101693646Y-56830800D01*
X101506354Y-56830800D01*
X101322662Y-56794262D01*
X101149627Y-56722588D01*
X100993900Y-56618535D01*
X100861465Y-56486100D01*
X100757412Y-56330373D01*
X100685738Y-56157338D01*
X100649200Y-55973646D01*
X100649200Y-55786354D01*
X100685738Y-55602662D01*
X100757412Y-55429627D01*
X100861465Y-55273900D01*
X100993900Y-55141465D01*
X101149627Y-55037412D01*
X101322662Y-54965738D01*
X101506354Y-54929200D01*
X101693646Y-54929200D01*
X101877338Y-54965738D01*
G37*
G36*
X84097338Y-54965738D02*
G01*
X84270373Y-55037412D01*
X84426100Y-55141465D01*
X84558535Y-55273900D01*
X84662588Y-55429627D01*
X84734262Y-55602662D01*
X84770800Y-55786354D01*
X84770800Y-55973646D01*
X84734262Y-56157338D01*
X84662588Y-56330373D01*
X84558535Y-56486100D01*
X84426100Y-56618535D01*
X84270373Y-56722588D01*
X84097338Y-56794262D01*
X83913646Y-56830800D01*
X83726354Y-56830800D01*
X83542662Y-56794262D01*
X83369627Y-56722588D01*
X83213900Y-56618535D01*
X83081465Y-56486100D01*
X82977412Y-56330373D01*
X82905738Y-56157338D01*
X82869200Y-55973646D01*
X82869200Y-55786354D01*
X82905738Y-55602662D01*
X82977412Y-55429627D01*
X83081465Y-55273900D01*
X83213900Y-55141465D01*
X83369627Y-55037412D01*
X83542662Y-54965738D01*
X83726354Y-54929200D01*
X83913646Y-54929200D01*
X84097338Y-54965738D01*
G37*
G36*
X82230800Y-56830800D02*
G01*
X80329200Y-56830800D01*
X80329200Y-54929200D01*
X82230800Y-54929200D01*
X82230800Y-56830800D01*
G37*
G36*
X92972754Y-55013817D02*
G01*
X93136689Y-55081721D01*
X93284227Y-55180303D01*
X93409697Y-55305773D01*
X93508279Y-55453311D01*
X93576183Y-55617246D01*
X93610800Y-55791279D01*
X93610800Y-55968721D01*
X93576183Y-56142754D01*
X93508279Y-56306689D01*
X93409697Y-56454227D01*
X93284227Y-56579697D01*
X93136689Y-56678279D01*
X92972754Y-56746183D01*
X92798721Y-56780800D01*
X92621279Y-56780800D01*
X92447246Y-56746183D01*
X92283311Y-56678279D01*
X92135773Y-56579697D01*
X92010303Y-56454227D01*
X91911721Y-56306689D01*
X91843817Y-56142754D01*
X91809200Y-55968721D01*
X91809200Y-55791279D01*
X91843817Y-55617246D01*
X91911721Y-55453311D01*
X92010303Y-55305773D01*
X92135773Y-55180303D01*
X92283311Y-55081721D01*
X92447246Y-55013817D01*
X92621279Y-54979200D01*
X92798721Y-54979200D01*
X92972754Y-55013817D01*
G37*
G36*
X95512754Y-55013817D02*
G01*
X95676689Y-55081721D01*
X95824227Y-55180303D01*
X95949697Y-55305773D01*
X96048279Y-55453311D01*
X96116183Y-55617246D01*
X96150800Y-55791279D01*
X96150800Y-55968721D01*
X96116183Y-56142754D01*
X96048279Y-56306689D01*
X95949697Y-56454227D01*
X95824227Y-56579697D01*
X95676689Y-56678279D01*
X95512754Y-56746183D01*
X95338721Y-56780800D01*
X95161279Y-56780800D01*
X94987246Y-56746183D01*
X94823311Y-56678279D01*
X94675773Y-56579697D01*
X94550303Y-56454227D01*
X94451721Y-56306689D01*
X94383817Y-56142754D01*
X94349200Y-55968721D01*
X94349200Y-55791279D01*
X94383817Y-55617246D01*
X94451721Y-55453311D01*
X94550303Y-55305773D01*
X94675773Y-55180303D01*
X94823311Y-55081721D01*
X94987246Y-55013817D01*
X95161279Y-54979200D01*
X95338721Y-54979200D01*
X95512754Y-55013817D01*
G37*
G36*
X90432754Y-55013817D02*
G01*
X90596689Y-55081721D01*
X90744227Y-55180303D01*
X90869697Y-55305773D01*
X90968279Y-55453311D01*
X91036183Y-55617246D01*
X91070800Y-55791279D01*
X91070800Y-55968721D01*
X91036183Y-56142754D01*
X90968279Y-56306689D01*
X90869697Y-56454227D01*
X90744227Y-56579697D01*
X90596689Y-56678279D01*
X90432754Y-56746183D01*
X90258721Y-56780800D01*
X90081279Y-56780800D01*
X89907246Y-56746183D01*
X89743311Y-56678279D01*
X89595773Y-56579697D01*
X89470303Y-56454227D01*
X89371721Y-56306689D01*
X89303817Y-56142754D01*
X89269200Y-55968721D01*
X89269200Y-55791279D01*
X89303817Y-55617246D01*
X89371721Y-55453311D01*
X89470303Y-55305773D01*
X89595773Y-55180303D01*
X89743311Y-55081721D01*
X89907246Y-55013817D01*
X90081279Y-54979200D01*
X90258721Y-54979200D01*
X90432754Y-55013817D01*
G37*
G36*
X108198169Y-55061895D02*
G01*
X108353005Y-55126031D01*
X108492354Y-55219140D01*
X108610860Y-55337646D01*
X108703969Y-55476995D01*
X108768105Y-55631831D01*
X108800800Y-55796203D01*
X108800800Y-55963797D01*
X108768105Y-56128169D01*
X108703969Y-56283005D01*
X108610860Y-56422354D01*
X108492354Y-56540860D01*
X108353005Y-56633969D01*
X108198169Y-56698105D01*
X108033797Y-56730800D01*
X107866203Y-56730800D01*
X107701831Y-56698105D01*
X107546995Y-56633969D01*
X107407646Y-56540860D01*
X107289140Y-56422354D01*
X107196031Y-56283005D01*
X107131895Y-56128169D01*
X107099200Y-55963797D01*
X107099200Y-55796203D01*
X107131895Y-55631831D01*
X107196031Y-55476995D01*
X107289140Y-55337646D01*
X107407646Y-55219140D01*
X107546995Y-55126031D01*
X107701831Y-55061895D01*
X107866203Y-55029200D01*
X108033797Y-55029200D01*
X108198169Y-55061895D01*
G37*
G36*
X115818169Y-55061895D02*
G01*
X115973005Y-55126031D01*
X116112354Y-55219140D01*
X116230860Y-55337646D01*
X116323969Y-55476995D01*
X116388105Y-55631831D01*
X116420800Y-55796203D01*
X116420800Y-55963797D01*
X116388105Y-56128169D01*
X116323969Y-56283005D01*
X116230860Y-56422354D01*
X116112354Y-56540860D01*
X115973005Y-56633969D01*
X115818169Y-56698105D01*
X115653797Y-56730800D01*
X115486203Y-56730800D01*
X115321831Y-56698105D01*
X115166995Y-56633969D01*
X115027646Y-56540860D01*
X114909140Y-56422354D01*
X114816031Y-56283005D01*
X114751895Y-56128169D01*
X114719200Y-55963797D01*
X114719200Y-55796203D01*
X114751895Y-55631831D01*
X114816031Y-55476995D01*
X114909140Y-55337646D01*
X115027646Y-55219140D01*
X115166995Y-55126031D01*
X115321831Y-55061895D01*
X115486203Y-55029200D01*
X115653797Y-55029200D01*
X115818169Y-55061895D01*
G37*
G36*
X201560800Y-54240800D02*
G01*
X199759200Y-54240800D01*
X199759200Y-52439200D01*
X201560800Y-52439200D01*
X201560800Y-54240800D01*
G37*
G36*
X198382754Y-52473817D02*
G01*
X198546689Y-52541721D01*
X198694227Y-52640303D01*
X198819697Y-52765773D01*
X198918279Y-52913311D01*
X198986183Y-53077246D01*
X199020800Y-53251279D01*
X199020800Y-53428721D01*
X198986183Y-53602754D01*
X198918279Y-53766689D01*
X198819697Y-53914227D01*
X198694227Y-54039697D01*
X198546689Y-54138279D01*
X198382754Y-54206183D01*
X198208721Y-54240800D01*
X198031279Y-54240800D01*
X197857246Y-54206183D01*
X197693311Y-54138279D01*
X197545773Y-54039697D01*
X197420303Y-53914227D01*
X197321721Y-53766689D01*
X197253817Y-53602754D01*
X197219200Y-53428721D01*
X197219200Y-53251279D01*
X197253817Y-53077246D01*
X197321721Y-52913311D01*
X197420303Y-52765773D01*
X197545773Y-52640303D01*
X197693311Y-52541721D01*
X197857246Y-52473817D01*
X198031279Y-52439200D01*
X198208721Y-52439200D01*
X198382754Y-52473817D01*
G37*
G36*
X195842754Y-52473817D02*
G01*
X196006689Y-52541721D01*
X196154227Y-52640303D01*
X196279697Y-52765773D01*
X196378279Y-52913311D01*
X196446183Y-53077246D01*
X196480800Y-53251279D01*
X196480800Y-53428721D01*
X196446183Y-53602754D01*
X196378279Y-53766689D01*
X196279697Y-53914227D01*
X196154227Y-54039697D01*
X196006689Y-54138279D01*
X195842754Y-54206183D01*
X195668721Y-54240800D01*
X195491279Y-54240800D01*
X195317246Y-54206183D01*
X195153311Y-54138279D01*
X195005773Y-54039697D01*
X194880303Y-53914227D01*
X194781721Y-53766689D01*
X194713817Y-53602754D01*
X194679200Y-53428721D01*
X194679200Y-53251279D01*
X194713817Y-53077246D01*
X194781721Y-52913311D01*
X194880303Y-52765773D01*
X195005773Y-52640303D01*
X195153311Y-52541721D01*
X195317246Y-52473817D01*
X195491279Y-52439200D01*
X195668721Y-52439200D01*
X195842754Y-52473817D01*
G37*
G36*
X193302754Y-52473817D02*
G01*
X193466689Y-52541721D01*
X193614227Y-52640303D01*
X193739697Y-52765773D01*
X193838279Y-52913311D01*
X193906183Y-53077246D01*
X193940800Y-53251279D01*
X193940800Y-53428721D01*
X193906183Y-53602754D01*
X193838279Y-53766689D01*
X193739697Y-53914227D01*
X193614227Y-54039697D01*
X193466689Y-54138279D01*
X193302754Y-54206183D01*
X193128721Y-54240800D01*
X192951279Y-54240800D01*
X192777246Y-54206183D01*
X192613311Y-54138279D01*
X192465773Y-54039697D01*
X192340303Y-53914227D01*
X192241721Y-53766689D01*
X192173817Y-53602754D01*
X192139200Y-53428721D01*
X192139200Y-53251279D01*
X192173817Y-53077246D01*
X192241721Y-52913311D01*
X192340303Y-52765773D01*
X192465773Y-52640303D01*
X192613311Y-52541721D01*
X192777246Y-52473817D01*
X192951279Y-52439200D01*
X193128721Y-52439200D01*
X193302754Y-52473817D01*
G37*
G36*
X188222754Y-52473817D02*
G01*
X188386689Y-52541721D01*
X188534227Y-52640303D01*
X188659697Y-52765773D01*
X188758279Y-52913311D01*
X188826183Y-53077246D01*
X188860800Y-53251279D01*
X188860800Y-53428721D01*
X188826183Y-53602754D01*
X188758279Y-53766689D01*
X188659697Y-53914227D01*
X188534227Y-54039697D01*
X188386689Y-54138279D01*
X188222754Y-54206183D01*
X188048721Y-54240800D01*
X187871279Y-54240800D01*
X187697246Y-54206183D01*
X187533311Y-54138279D01*
X187385773Y-54039697D01*
X187260303Y-53914227D01*
X187161721Y-53766689D01*
X187093817Y-53602754D01*
X187059200Y-53428721D01*
X187059200Y-53251279D01*
X187093817Y-53077246D01*
X187161721Y-52913311D01*
X187260303Y-52765773D01*
X187385773Y-52640303D01*
X187533311Y-52541721D01*
X187697246Y-52473817D01*
X187871279Y-52439200D01*
X188048721Y-52439200D01*
X188222754Y-52473817D01*
G37*
G36*
X185682754Y-52473817D02*
G01*
X185846689Y-52541721D01*
X185994227Y-52640303D01*
X186119697Y-52765773D01*
X186218279Y-52913311D01*
X186286183Y-53077246D01*
X186320800Y-53251279D01*
X186320800Y-53428721D01*
X186286183Y-53602754D01*
X186218279Y-53766689D01*
X186119697Y-53914227D01*
X185994227Y-54039697D01*
X185846689Y-54138279D01*
X185682754Y-54206183D01*
X185508721Y-54240800D01*
X185331279Y-54240800D01*
X185157246Y-54206183D01*
X184993311Y-54138279D01*
X184845773Y-54039697D01*
X184720303Y-53914227D01*
X184621721Y-53766689D01*
X184553817Y-53602754D01*
X184519200Y-53428721D01*
X184519200Y-53251279D01*
X184553817Y-53077246D01*
X184621721Y-52913311D01*
X184720303Y-52765773D01*
X184845773Y-52640303D01*
X184993311Y-52541721D01*
X185157246Y-52473817D01*
X185331279Y-52439200D01*
X185508721Y-52439200D01*
X185682754Y-52473817D01*
G37*
G36*
X183142754Y-52473817D02*
G01*
X183306689Y-52541721D01*
X183454227Y-52640303D01*
X183579697Y-52765773D01*
X183678279Y-52913311D01*
X183746183Y-53077246D01*
X183780800Y-53251279D01*
X183780800Y-53428721D01*
X183746183Y-53602754D01*
X183678279Y-53766689D01*
X183579697Y-53914227D01*
X183454227Y-54039697D01*
X183306689Y-54138279D01*
X183142754Y-54206183D01*
X182968721Y-54240800D01*
X182791279Y-54240800D01*
X182617246Y-54206183D01*
X182453311Y-54138279D01*
X182305773Y-54039697D01*
X182180303Y-53914227D01*
X182081721Y-53766689D01*
X182013817Y-53602754D01*
X181979200Y-53428721D01*
X181979200Y-53251279D01*
X182013817Y-53077246D01*
X182081721Y-52913311D01*
X182180303Y-52765773D01*
X182305773Y-52640303D01*
X182453311Y-52541721D01*
X182617246Y-52473817D01*
X182791279Y-52439200D01*
X182968721Y-52439200D01*
X183142754Y-52473817D01*
G37*
G36*
X180602754Y-52473817D02*
G01*
X180766689Y-52541721D01*
X180914227Y-52640303D01*
X181039697Y-52765773D01*
X181138279Y-52913311D01*
X181206183Y-53077246D01*
X181240800Y-53251279D01*
X181240800Y-53428721D01*
X181206183Y-53602754D01*
X181138279Y-53766689D01*
X181039697Y-53914227D01*
X180914227Y-54039697D01*
X180766689Y-54138279D01*
X180602754Y-54206183D01*
X180428721Y-54240800D01*
X180251279Y-54240800D01*
X180077246Y-54206183D01*
X179913311Y-54138279D01*
X179765773Y-54039697D01*
X179640303Y-53914227D01*
X179541721Y-53766689D01*
X179473817Y-53602754D01*
X179439200Y-53428721D01*
X179439200Y-53251279D01*
X179473817Y-53077246D01*
X179541721Y-52913311D01*
X179640303Y-52765773D01*
X179765773Y-52640303D01*
X179913311Y-52541721D01*
X180077246Y-52473817D01*
X180251279Y-52439200D01*
X180428721Y-52439200D01*
X180602754Y-52473817D01*
G37*
G36*
X190762754Y-52473817D02*
G01*
X190926689Y-52541721D01*
X191074227Y-52640303D01*
X191199697Y-52765773D01*
X191298279Y-52913311D01*
X191366183Y-53077246D01*
X191400800Y-53251279D01*
X191400800Y-53428721D01*
X191366183Y-53602754D01*
X191298279Y-53766689D01*
X191199697Y-53914227D01*
X191074227Y-54039697D01*
X190926689Y-54138279D01*
X190762754Y-54206183D01*
X190588721Y-54240800D01*
X190411279Y-54240800D01*
X190237246Y-54206183D01*
X190073311Y-54138279D01*
X189925773Y-54039697D01*
X189800303Y-53914227D01*
X189701721Y-53766689D01*
X189633817Y-53602754D01*
X189599200Y-53428721D01*
X189599200Y-53251279D01*
X189633817Y-53077246D01*
X189701721Y-52913311D01*
X189800303Y-52765773D01*
X189925773Y-52640303D01*
X190073311Y-52541721D01*
X190237246Y-52473817D01*
X190411279Y-52439200D01*
X190588721Y-52439200D01*
X190762754Y-52473817D01*
G37*
G36*
X178062754Y-52473817D02*
G01*
X178226689Y-52541721D01*
X178374227Y-52640303D01*
X178499697Y-52765773D01*
X178598279Y-52913311D01*
X178666183Y-53077246D01*
X178700800Y-53251279D01*
X178700800Y-53428721D01*
X178666183Y-53602754D01*
X178598279Y-53766689D01*
X178499697Y-53914227D01*
X178374227Y-54039697D01*
X178226689Y-54138279D01*
X178062754Y-54206183D01*
X177888721Y-54240800D01*
X177711279Y-54240800D01*
X177537246Y-54206183D01*
X177373311Y-54138279D01*
X177225773Y-54039697D01*
X177100303Y-53914227D01*
X177001721Y-53766689D01*
X176933817Y-53602754D01*
X176899200Y-53428721D01*
X176899200Y-53251279D01*
X176933817Y-53077246D01*
X177001721Y-52913311D01*
X177100303Y-52765773D01*
X177225773Y-52640303D01*
X177373311Y-52541721D01*
X177537246Y-52473817D01*
X177711279Y-52439200D01*
X177888721Y-52439200D01*
X178062754Y-52473817D01*
G37*
M02*
