%TF.GenerationSoftware,KiCad,Pcbnew,(5.1.6)-1*%
%TF.CreationDate,2020-09-09T12:12:14+05:30*%
%TF.ProjectId,teenDynClamp_V02,7465656e-4479-46e4-936c-616d705f5630,v02*%
%TF.SameCoordinates,Original*%
%TF.FileFunction,Legend,Top*%
%TF.FilePolarity,Positive*%
%FSLAX46Y46*%
G04 Gerber Fmt 4.6, Leading zero omitted, Abs format (unit mm)*
G04 Created by KiCad (PCBNEW (5.1.6)-1) date 2020-09-09 12:12:14*
%MOMM*%
%LPD*%
G01*
G04 APERTURE LIST*
%ADD10C,0.150000*%
%ADD11C,0.120000*%
%ADD12C,0.100000*%
G04 APERTURE END LIST*
D10*
X177300000Y-57149904D02*
X177252380Y-57245142D01*
X177252380Y-57388000D01*
X177300000Y-57530857D01*
X177395238Y-57626095D01*
X177490476Y-57673714D01*
X177680952Y-57721333D01*
X177823809Y-57721333D01*
X178014285Y-57673714D01*
X178109523Y-57626095D01*
X178204761Y-57530857D01*
X178252380Y-57388000D01*
X178252380Y-57292761D01*
X178204761Y-57149904D01*
X178157142Y-57102285D01*
X177823809Y-57102285D01*
X177823809Y-57292761D01*
X178252380Y-56673714D02*
X177252380Y-56673714D01*
X178252380Y-56102285D01*
X177252380Y-56102285D01*
X178252380Y-55626095D02*
X177252380Y-55626095D01*
X177252380Y-55388000D01*
X177300000Y-55245142D01*
X177395238Y-55149904D01*
X177490476Y-55102285D01*
X177680952Y-55054666D01*
X177823809Y-55054666D01*
X178014285Y-55102285D01*
X178109523Y-55149904D01*
X178204761Y-55245142D01*
X178252380Y-55388000D01*
X178252380Y-55626095D01*
X180506666Y-56594285D02*
X180506666Y-56118095D01*
X180792380Y-56689523D02*
X179792380Y-56356190D01*
X180792380Y-56022857D01*
X180792380Y-55641904D02*
X180792380Y-55451428D01*
X180744761Y-55356190D01*
X180697142Y-55308571D01*
X180554285Y-55213333D01*
X180363809Y-55165714D01*
X179982857Y-55165714D01*
X179887619Y-55213333D01*
X179840000Y-55260952D01*
X179792380Y-55356190D01*
X179792380Y-55546666D01*
X179840000Y-55641904D01*
X179887619Y-55689523D01*
X179982857Y-55737142D01*
X180220952Y-55737142D01*
X180316190Y-55689523D01*
X180363809Y-55641904D01*
X180411428Y-55546666D01*
X180411428Y-55356190D01*
X180363809Y-55260952D01*
X180316190Y-55213333D01*
X180220952Y-55165714D01*
X183046666Y-56594285D02*
X183046666Y-56118095D01*
X183332380Y-56689523D02*
X182332380Y-56356190D01*
X183332380Y-56022857D01*
X182760952Y-55546666D02*
X182713333Y-55641904D01*
X182665714Y-55689523D01*
X182570476Y-55737142D01*
X182522857Y-55737142D01*
X182427619Y-55689523D01*
X182380000Y-55641904D01*
X182332380Y-55546666D01*
X182332380Y-55356190D01*
X182380000Y-55260952D01*
X182427619Y-55213333D01*
X182522857Y-55165714D01*
X182570476Y-55165714D01*
X182665714Y-55213333D01*
X182713333Y-55260952D01*
X182760952Y-55356190D01*
X182760952Y-55546666D01*
X182808571Y-55641904D01*
X182856190Y-55689523D01*
X182951428Y-55737142D01*
X183141904Y-55737142D01*
X183237142Y-55689523D01*
X183284761Y-55641904D01*
X183332380Y-55546666D01*
X183332380Y-55356190D01*
X183284761Y-55260952D01*
X183237142Y-55213333D01*
X183141904Y-55165714D01*
X182951428Y-55165714D01*
X182856190Y-55213333D01*
X182808571Y-55260952D01*
X182760952Y-55356190D01*
X185586666Y-56594285D02*
X185586666Y-56118095D01*
X185872380Y-56689523D02*
X184872380Y-56356190D01*
X185872380Y-56022857D01*
X184872380Y-55784761D02*
X184872380Y-55118095D01*
X185872380Y-55546666D01*
X188126666Y-56594285D02*
X188126666Y-56118095D01*
X188412380Y-56689523D02*
X187412380Y-56356190D01*
X188412380Y-56022857D01*
X187412380Y-55260952D02*
X187412380Y-55451428D01*
X187460000Y-55546666D01*
X187507619Y-55594285D01*
X187650476Y-55689523D01*
X187840952Y-55737142D01*
X188221904Y-55737142D01*
X188317142Y-55689523D01*
X188364761Y-55641904D01*
X188412380Y-55546666D01*
X188412380Y-55356190D01*
X188364761Y-55260952D01*
X188317142Y-55213333D01*
X188221904Y-55165714D01*
X187983809Y-55165714D01*
X187888571Y-55213333D01*
X187840952Y-55260952D01*
X187793333Y-55356190D01*
X187793333Y-55546666D01*
X187840952Y-55641904D01*
X187888571Y-55689523D01*
X187983809Y-55737142D01*
X190666666Y-61118380D02*
X190666666Y-60642190D01*
X190952380Y-61213619D02*
X189952380Y-60880285D01*
X190952380Y-60546952D01*
X189952380Y-59737428D02*
X189952380Y-60213619D01*
X190428571Y-60261238D01*
X190380952Y-60213619D01*
X190333333Y-60118380D01*
X190333333Y-59880285D01*
X190380952Y-59785047D01*
X190428571Y-59737428D01*
X190523809Y-59689809D01*
X190761904Y-59689809D01*
X190857142Y-59737428D01*
X190904761Y-59785047D01*
X190952380Y-59880285D01*
X190952380Y-60118380D01*
X190904761Y-60213619D01*
X190857142Y-60261238D01*
X191047619Y-59499333D02*
X191047619Y-58737428D01*
X190904761Y-58546952D02*
X190952380Y-58404095D01*
X190952380Y-58166000D01*
X190904761Y-58070761D01*
X190857142Y-58023142D01*
X190761904Y-57975523D01*
X190666666Y-57975523D01*
X190571428Y-58023142D01*
X190523809Y-58070761D01*
X190476190Y-58166000D01*
X190428571Y-58356476D01*
X190380952Y-58451714D01*
X190333333Y-58499333D01*
X190238095Y-58546952D01*
X190142857Y-58546952D01*
X190047619Y-58499333D01*
X190000000Y-58451714D01*
X189952380Y-58356476D01*
X189952380Y-58118380D01*
X190000000Y-57975523D01*
X190857142Y-56975523D02*
X190904761Y-57023142D01*
X190952380Y-57166000D01*
X190952380Y-57261238D01*
X190904761Y-57404095D01*
X190809523Y-57499333D01*
X190714285Y-57546952D01*
X190523809Y-57594571D01*
X190380952Y-57594571D01*
X190190476Y-57546952D01*
X190095238Y-57499333D01*
X190000000Y-57404095D01*
X189952380Y-57261238D01*
X189952380Y-57166000D01*
X190000000Y-57023142D01*
X190047619Y-56975523D01*
X190952380Y-56070761D02*
X190952380Y-56546952D01*
X189952380Y-56546952D01*
X189952380Y-55546952D02*
X189952380Y-55451714D01*
X190000000Y-55356476D01*
X190047619Y-55308857D01*
X190142857Y-55261238D01*
X190333333Y-55213619D01*
X190571428Y-55213619D01*
X190761904Y-55261238D01*
X190857142Y-55308857D01*
X190904761Y-55356476D01*
X190952380Y-55451714D01*
X190952380Y-55546952D01*
X190904761Y-55642190D01*
X190857142Y-55689809D01*
X190761904Y-55737428D01*
X190571428Y-55785047D01*
X190333333Y-55785047D01*
X190142857Y-55737428D01*
X190047619Y-55689809D01*
X190000000Y-55642190D01*
X189952380Y-55546952D01*
X193206666Y-61142190D02*
X193206666Y-60666000D01*
X193492380Y-61237428D02*
X192492380Y-60904095D01*
X193492380Y-60570761D01*
X192825714Y-59808857D02*
X193492380Y-59808857D01*
X192444761Y-60046952D02*
X193159047Y-60285047D01*
X193159047Y-59666000D01*
X193587619Y-59523142D02*
X193587619Y-58761238D01*
X193444761Y-58570761D02*
X193492380Y-58427904D01*
X193492380Y-58189809D01*
X193444761Y-58094571D01*
X193397142Y-58046952D01*
X193301904Y-57999333D01*
X193206666Y-57999333D01*
X193111428Y-58046952D01*
X193063809Y-58094571D01*
X193016190Y-58189809D01*
X192968571Y-58380285D01*
X192920952Y-58475523D01*
X192873333Y-58523142D01*
X192778095Y-58570761D01*
X192682857Y-58570761D01*
X192587619Y-58523142D01*
X192540000Y-58475523D01*
X192492380Y-58380285D01*
X192492380Y-58142190D01*
X192540000Y-57999333D01*
X193492380Y-57570761D02*
X192492380Y-57570761D01*
X192492380Y-57332666D01*
X192540000Y-57189809D01*
X192635238Y-57094571D01*
X192730476Y-57046952D01*
X192920952Y-56999333D01*
X193063809Y-56999333D01*
X193254285Y-57046952D01*
X193349523Y-57094571D01*
X193444761Y-57189809D01*
X193492380Y-57332666D01*
X193492380Y-57570761D01*
X193206666Y-56618380D02*
X193206666Y-56142190D01*
X193492380Y-56713619D02*
X192492380Y-56380285D01*
X193492380Y-56046952D01*
X192492380Y-55523142D02*
X192492380Y-55427904D01*
X192540000Y-55332666D01*
X192587619Y-55285047D01*
X192682857Y-55237428D01*
X192873333Y-55189809D01*
X193111428Y-55189809D01*
X193301904Y-55237428D01*
X193397142Y-55285047D01*
X193444761Y-55332666D01*
X193492380Y-55427904D01*
X193492380Y-55523142D01*
X193444761Y-55618380D01*
X193397142Y-55666000D01*
X193301904Y-55713619D01*
X193111428Y-55761238D01*
X192873333Y-55761238D01*
X192682857Y-55713619D01*
X192587619Y-55666000D01*
X192540000Y-55618380D01*
X192492380Y-55523142D01*
X195127619Y-60164023D02*
X195080000Y-60116404D01*
X195032380Y-60021166D01*
X195032380Y-59783071D01*
X195080000Y-59687833D01*
X195127619Y-59640214D01*
X195222857Y-59592595D01*
X195318095Y-59592595D01*
X195460952Y-59640214D01*
X196032380Y-60211642D01*
X196032380Y-59592595D01*
X195032380Y-58735452D02*
X195032380Y-58925928D01*
X195080000Y-59021166D01*
X195127619Y-59068785D01*
X195270476Y-59164023D01*
X195460952Y-59211642D01*
X195841904Y-59211642D01*
X195937142Y-59164023D01*
X195984761Y-59116404D01*
X196032380Y-59021166D01*
X196032380Y-58830690D01*
X195984761Y-58735452D01*
X195937142Y-58687833D01*
X195841904Y-58640214D01*
X195603809Y-58640214D01*
X195508571Y-58687833D01*
X195460952Y-58735452D01*
X195413333Y-58830690D01*
X195413333Y-59021166D01*
X195460952Y-59116404D01*
X195508571Y-59164023D01*
X195603809Y-59211642D01*
X196127619Y-58449738D02*
X196127619Y-57687833D01*
X195032380Y-57592595D02*
X195032380Y-57021166D01*
X196032380Y-57306880D02*
X195032380Y-57306880D01*
X195032380Y-56783071D02*
X196032380Y-56116404D01*
X195032380Y-56116404D02*
X196032380Y-56783071D01*
X196032380Y-55211642D02*
X196032380Y-55783071D01*
X196032380Y-55497357D02*
X195032380Y-55497357D01*
X195175238Y-55592595D01*
X195270476Y-55687833D01*
X195318095Y-55783071D01*
X197667619Y-60253238D02*
X197620000Y-60205619D01*
X197572380Y-60110380D01*
X197572380Y-59872285D01*
X197620000Y-59777047D01*
X197667619Y-59729428D01*
X197762857Y-59681809D01*
X197858095Y-59681809D01*
X198000952Y-59729428D01*
X198572380Y-60300857D01*
X198572380Y-59681809D01*
X197572380Y-59348476D02*
X197572380Y-58681809D01*
X198572380Y-59110380D01*
X198667619Y-58538952D02*
X198667619Y-57777047D01*
X198572380Y-56967523D02*
X198096190Y-57300857D01*
X198572380Y-57538952D02*
X197572380Y-57538952D01*
X197572380Y-57158000D01*
X197620000Y-57062761D01*
X197667619Y-57015142D01*
X197762857Y-56967523D01*
X197905714Y-56967523D01*
X198000952Y-57015142D01*
X198048571Y-57062761D01*
X198096190Y-57158000D01*
X198096190Y-57538952D01*
X197572380Y-56634190D02*
X198572380Y-55967523D01*
X197572380Y-55967523D02*
X198572380Y-56634190D01*
X198572380Y-55062761D02*
X198572380Y-55634190D01*
X198572380Y-55348476D02*
X197572380Y-55348476D01*
X197715238Y-55443714D01*
X197810476Y-55538952D01*
X197858095Y-55634190D01*
X201112380Y-58562666D02*
X200112380Y-58562666D01*
X200112380Y-58324571D01*
X200160000Y-58181714D01*
X200255238Y-58086476D01*
X200350476Y-58038857D01*
X200540952Y-57991238D01*
X200683809Y-57991238D01*
X200874285Y-58038857D01*
X200969523Y-58086476D01*
X201064761Y-58181714D01*
X201112380Y-58324571D01*
X201112380Y-58562666D01*
X200826666Y-57610285D02*
X200826666Y-57134095D01*
X201112380Y-57705523D02*
X200112380Y-57372190D01*
X201112380Y-57038857D01*
X201017142Y-56134095D02*
X201064761Y-56181714D01*
X201112380Y-56324571D01*
X201112380Y-56419809D01*
X201064761Y-56562666D01*
X200969523Y-56657904D01*
X200874285Y-56705523D01*
X200683809Y-56753142D01*
X200540952Y-56753142D01*
X200350476Y-56705523D01*
X200255238Y-56657904D01*
X200160000Y-56562666D01*
X200112380Y-56419809D01*
X200112380Y-56324571D01*
X200160000Y-56181714D01*
X200207619Y-56134095D01*
X201112380Y-55181714D02*
X201112380Y-55753142D01*
X201112380Y-55467428D02*
X200112380Y-55467428D01*
X200255238Y-55562666D01*
X200350476Y-55657904D01*
X200398095Y-55753142D01*
X148498023Y-148154380D02*
X148498023Y-147154380D01*
X148736119Y-147154380D01*
X148878976Y-147202000D01*
X148974214Y-147297238D01*
X149021833Y-147392476D01*
X149069452Y-147582952D01*
X149069452Y-147725809D01*
X149021833Y-147916285D01*
X148974214Y-148011523D01*
X148878976Y-148106761D01*
X148736119Y-148154380D01*
X148498023Y-148154380D01*
X149878976Y-148106761D02*
X149783738Y-148154380D01*
X149593261Y-148154380D01*
X149498023Y-148106761D01*
X149450404Y-148011523D01*
X149450404Y-147630571D01*
X149498023Y-147535333D01*
X149593261Y-147487714D01*
X149783738Y-147487714D01*
X149878976Y-147535333D01*
X149926595Y-147630571D01*
X149926595Y-147725809D01*
X149450404Y-147821047D01*
X150307547Y-148106761D02*
X150402785Y-148154380D01*
X150593261Y-148154380D01*
X150688500Y-148106761D01*
X150736119Y-148011523D01*
X150736119Y-147963904D01*
X150688500Y-147868666D01*
X150593261Y-147821047D01*
X150450404Y-147821047D01*
X150355166Y-147773428D01*
X150307547Y-147678190D01*
X150307547Y-147630571D01*
X150355166Y-147535333D01*
X150450404Y-147487714D01*
X150593261Y-147487714D01*
X150688500Y-147535333D01*
X151164690Y-148154380D02*
X151164690Y-147487714D01*
X151164690Y-147154380D02*
X151117071Y-147202000D01*
X151164690Y-147249619D01*
X151212309Y-147202000D01*
X151164690Y-147154380D01*
X151164690Y-147249619D01*
X152069452Y-147487714D02*
X152069452Y-148297238D01*
X152021833Y-148392476D01*
X151974214Y-148440095D01*
X151878976Y-148487714D01*
X151736119Y-148487714D01*
X151640880Y-148440095D01*
X152069452Y-148106761D02*
X151974214Y-148154380D01*
X151783738Y-148154380D01*
X151688500Y-148106761D01*
X151640880Y-148059142D01*
X151593261Y-147963904D01*
X151593261Y-147678190D01*
X151640880Y-147582952D01*
X151688500Y-147535333D01*
X151783738Y-147487714D01*
X151974214Y-147487714D01*
X152069452Y-147535333D01*
X152545642Y-147487714D02*
X152545642Y-148154380D01*
X152545642Y-147582952D02*
X152593261Y-147535333D01*
X152688500Y-147487714D01*
X152831357Y-147487714D01*
X152926595Y-147535333D01*
X152974214Y-147630571D01*
X152974214Y-148154380D01*
X154212309Y-148154380D02*
X154212309Y-147154380D01*
X154212309Y-147535333D02*
X154307547Y-147487714D01*
X154498023Y-147487714D01*
X154593261Y-147535333D01*
X154640880Y-147582952D01*
X154688500Y-147678190D01*
X154688500Y-147963904D01*
X154640880Y-148059142D01*
X154593261Y-148106761D01*
X154498023Y-148154380D01*
X154307547Y-148154380D01*
X154212309Y-148106761D01*
X155021833Y-147487714D02*
X155259928Y-148154380D01*
X155498023Y-147487714D02*
X155259928Y-148154380D01*
X155164690Y-148392476D01*
X155117071Y-148440095D01*
X155021833Y-148487714D01*
X155878976Y-148059142D02*
X155926595Y-148106761D01*
X155878976Y-148154380D01*
X155831357Y-148106761D01*
X155878976Y-148059142D01*
X155878976Y-148154380D01*
X155878976Y-147535333D02*
X155926595Y-147582952D01*
X155878976Y-147630571D01*
X155831357Y-147582952D01*
X155878976Y-147535333D01*
X155878976Y-147630571D01*
X157736119Y-147678190D02*
X157688500Y-147630571D01*
X157593261Y-147582952D01*
X157498023Y-147582952D01*
X157402785Y-147630571D01*
X157355166Y-147678190D01*
X157307547Y-147773428D01*
X157307547Y-147868666D01*
X157355166Y-147963904D01*
X157402785Y-148011523D01*
X157498023Y-148059142D01*
X157593261Y-148059142D01*
X157688500Y-148011523D01*
X157736119Y-147963904D01*
X157736119Y-147582952D02*
X157736119Y-147963904D01*
X157783738Y-148011523D01*
X157831357Y-148011523D01*
X157926595Y-147963904D01*
X157974214Y-147868666D01*
X157974214Y-147630571D01*
X157878976Y-147487714D01*
X157736119Y-147392476D01*
X157545642Y-147344857D01*
X157355166Y-147392476D01*
X157212309Y-147487714D01*
X157117071Y-147630571D01*
X157069452Y-147821047D01*
X157117071Y-148011523D01*
X157212309Y-148154380D01*
X157355166Y-148249619D01*
X157545642Y-148297238D01*
X157736119Y-148249619D01*
X157878976Y-148154380D01*
X158831357Y-148154380D02*
X158831357Y-147630571D01*
X158783738Y-147535333D01*
X158688500Y-147487714D01*
X158498023Y-147487714D01*
X158402785Y-147535333D01*
X158831357Y-148106761D02*
X158736119Y-148154380D01*
X158498023Y-148154380D01*
X158402785Y-148106761D01*
X158355166Y-148011523D01*
X158355166Y-147916285D01*
X158402785Y-147821047D01*
X158498023Y-147773428D01*
X158736119Y-147773428D01*
X158831357Y-147725809D01*
X159736119Y-148154380D02*
X159736119Y-147154380D01*
X159736119Y-148106761D02*
X159640880Y-148154380D01*
X159450404Y-148154380D01*
X159355166Y-148106761D01*
X159307547Y-148059142D01*
X159259928Y-147963904D01*
X159259928Y-147678190D01*
X159307547Y-147582952D01*
X159355166Y-147535333D01*
X159450404Y-147487714D01*
X159640880Y-147487714D01*
X159736119Y-147535333D01*
X160212309Y-148154380D02*
X160212309Y-147487714D01*
X160212309Y-147154380D02*
X160164690Y-147202000D01*
X160212309Y-147249619D01*
X160259928Y-147202000D01*
X160212309Y-147154380D01*
X160212309Y-147249619D01*
X160545642Y-147487714D02*
X160926595Y-147487714D01*
X160688500Y-147154380D02*
X160688500Y-148011523D01*
X160736119Y-148106761D01*
X160831357Y-148154380D01*
X160926595Y-148154380D01*
X161164690Y-147487714D02*
X161402785Y-148154380D01*
X161640880Y-147487714D02*
X161402785Y-148154380D01*
X161307547Y-148392476D01*
X161259928Y-148440095D01*
X161164690Y-148487714D01*
X162450404Y-148154380D02*
X162450404Y-147630571D01*
X162402785Y-147535333D01*
X162307547Y-147487714D01*
X162117071Y-147487714D01*
X162021833Y-147535333D01*
X162450404Y-148106761D02*
X162355166Y-148154380D01*
X162117071Y-148154380D01*
X162021833Y-148106761D01*
X161974214Y-148011523D01*
X161974214Y-147916285D01*
X162021833Y-147821047D01*
X162117071Y-147773428D01*
X162355166Y-147773428D01*
X162450404Y-147725809D01*
X163355166Y-148154380D02*
X163355166Y-147630571D01*
X163307547Y-147535333D01*
X163212309Y-147487714D01*
X163021833Y-147487714D01*
X162926595Y-147535333D01*
X163355166Y-148106761D02*
X163259928Y-148154380D01*
X163021833Y-148154380D01*
X162926595Y-148106761D01*
X162878976Y-148011523D01*
X162878976Y-147916285D01*
X162926595Y-147821047D01*
X163021833Y-147773428D01*
X163259928Y-147773428D01*
X163355166Y-147725809D01*
X163783738Y-148106761D02*
X163878976Y-148154380D01*
X164069452Y-148154380D01*
X164164690Y-148106761D01*
X164212309Y-148011523D01*
X164212309Y-147963904D01*
X164164690Y-147868666D01*
X164069452Y-147821047D01*
X163926595Y-147821047D01*
X163831357Y-147773428D01*
X163783738Y-147678190D01*
X163783738Y-147630571D01*
X163831357Y-147535333D01*
X163926595Y-147487714D01*
X164069452Y-147487714D01*
X164164690Y-147535333D01*
X164783738Y-148154380D02*
X164688500Y-148106761D01*
X164640880Y-148059142D01*
X164593261Y-147963904D01*
X164593261Y-147678190D01*
X164640880Y-147582952D01*
X164688500Y-147535333D01*
X164783738Y-147487714D01*
X164926595Y-147487714D01*
X165021833Y-147535333D01*
X165069452Y-147582952D01*
X165117071Y-147678190D01*
X165117071Y-147963904D01*
X165069452Y-148059142D01*
X165021833Y-148106761D01*
X164926595Y-148154380D01*
X164783738Y-148154380D01*
X165545642Y-147487714D02*
X165545642Y-148487714D01*
X165545642Y-147535333D02*
X165640880Y-147487714D01*
X165831357Y-147487714D01*
X165926595Y-147535333D01*
X165974214Y-147582952D01*
X166021833Y-147678190D01*
X166021833Y-147963904D01*
X165974214Y-148059142D01*
X165926595Y-148106761D01*
X165831357Y-148154380D01*
X165640880Y-148154380D01*
X165545642Y-148106761D01*
X166878976Y-148154380D02*
X166878976Y-147630571D01*
X166831357Y-147535333D01*
X166736119Y-147487714D01*
X166545642Y-147487714D01*
X166450404Y-147535333D01*
X166878976Y-148106761D02*
X166783738Y-148154380D01*
X166545642Y-148154380D01*
X166450404Y-148106761D01*
X166402785Y-148011523D01*
X166402785Y-147916285D01*
X166450404Y-147821047D01*
X166545642Y-147773428D01*
X166783738Y-147773428D01*
X166878976Y-147725809D01*
X167402785Y-148106761D02*
X167402785Y-148154380D01*
X167355166Y-148249619D01*
X167307547Y-148297238D01*
X169212309Y-147678190D02*
X169164690Y-147630571D01*
X169069452Y-147582952D01*
X168974214Y-147582952D01*
X168878976Y-147630571D01*
X168831357Y-147678190D01*
X168783738Y-147773428D01*
X168783738Y-147868666D01*
X168831357Y-147963904D01*
X168878976Y-148011523D01*
X168974214Y-148059142D01*
X169069452Y-148059142D01*
X169164690Y-148011523D01*
X169212309Y-147963904D01*
X169212309Y-147582952D02*
X169212309Y-147963904D01*
X169259928Y-148011523D01*
X169307547Y-148011523D01*
X169402785Y-147963904D01*
X169450404Y-147868666D01*
X169450404Y-147630571D01*
X169355166Y-147487714D01*
X169212309Y-147392476D01*
X169021833Y-147344857D01*
X168831357Y-147392476D01*
X168688500Y-147487714D01*
X168593261Y-147630571D01*
X168545642Y-147821047D01*
X168593261Y-148011523D01*
X168688500Y-148154380D01*
X168831357Y-148249619D01*
X169021833Y-148297238D01*
X169212309Y-148249619D01*
X169355166Y-148154380D01*
X169878976Y-148154380D02*
X169878976Y-147154380D01*
X169878976Y-147535333D02*
X169974214Y-147487714D01*
X170164690Y-147487714D01*
X170259928Y-147535333D01*
X170307547Y-147582952D01*
X170355166Y-147678190D01*
X170355166Y-147963904D01*
X170307547Y-148059142D01*
X170259928Y-148106761D01*
X170164690Y-148154380D01*
X169974214Y-148154380D01*
X169878976Y-148106761D01*
X170783738Y-148154380D02*
X170783738Y-147154380D01*
X171212309Y-148154380D02*
X171212309Y-147630571D01*
X171164690Y-147535333D01*
X171069452Y-147487714D01*
X170926595Y-147487714D01*
X170831357Y-147535333D01*
X170783738Y-147582952D01*
X172117071Y-148154380D02*
X172117071Y-147630571D01*
X172069452Y-147535333D01*
X171974214Y-147487714D01*
X171783738Y-147487714D01*
X171688500Y-147535333D01*
X172117071Y-148106761D02*
X172021833Y-148154380D01*
X171783738Y-148154380D01*
X171688500Y-148106761D01*
X171640880Y-148011523D01*
X171640880Y-147916285D01*
X171688500Y-147821047D01*
X171783738Y-147773428D01*
X172021833Y-147773428D01*
X172117071Y-147725809D01*
X172736119Y-148154380D02*
X172640880Y-148106761D01*
X172593261Y-148011523D01*
X172593261Y-147154380D01*
X173259928Y-148154380D02*
X173164690Y-148106761D01*
X173117071Y-148011523D01*
X173117071Y-147154380D01*
X174069452Y-148154380D02*
X174069452Y-147630571D01*
X174021833Y-147535333D01*
X173926595Y-147487714D01*
X173736119Y-147487714D01*
X173640880Y-147535333D01*
X174069452Y-148106761D02*
X173974214Y-148154380D01*
X173736119Y-148154380D01*
X173640880Y-148106761D01*
X173593261Y-148011523D01*
X173593261Y-147916285D01*
X173640880Y-147821047D01*
X173736119Y-147773428D01*
X173974214Y-147773428D01*
X174069452Y-147725809D01*
X174307547Y-148249619D02*
X175069452Y-148249619D01*
X175450404Y-148154380D02*
X175355166Y-148106761D01*
X175307547Y-148011523D01*
X175307547Y-147154380D01*
X176259928Y-148154380D02*
X176259928Y-147630571D01*
X176212309Y-147535333D01*
X176117071Y-147487714D01*
X175926595Y-147487714D01*
X175831357Y-147535333D01*
X176259928Y-148106761D02*
X176164690Y-148154380D01*
X175926595Y-148154380D01*
X175831357Y-148106761D01*
X175783738Y-148011523D01*
X175783738Y-147916285D01*
X175831357Y-147821047D01*
X175926595Y-147773428D01*
X176164690Y-147773428D01*
X176259928Y-147725809D01*
X176736119Y-148154380D02*
X176736119Y-147154380D01*
X176736119Y-147535333D02*
X176831357Y-147487714D01*
X177021833Y-147487714D01*
X177117071Y-147535333D01*
X177164690Y-147582952D01*
X177212309Y-147678190D01*
X177212309Y-147963904D01*
X177164690Y-148059142D01*
X177117071Y-148106761D01*
X177021833Y-148154380D01*
X176831357Y-148154380D01*
X176736119Y-148106761D01*
X177688499Y-148106761D02*
X177688499Y-148154380D01*
X177640880Y-148249619D01*
X177593261Y-148297238D01*
X179498023Y-147678190D02*
X179450404Y-147630571D01*
X179355166Y-147582952D01*
X179259928Y-147582952D01*
X179164690Y-147630571D01*
X179117071Y-147678190D01*
X179069452Y-147773428D01*
X179069452Y-147868666D01*
X179117071Y-147963904D01*
X179164690Y-148011523D01*
X179259928Y-148059142D01*
X179355166Y-148059142D01*
X179450404Y-148011523D01*
X179498023Y-147963904D01*
X179498023Y-147582952D02*
X179498023Y-147963904D01*
X179545642Y-148011523D01*
X179593261Y-148011523D01*
X179688499Y-147963904D01*
X179736119Y-147868666D01*
X179736119Y-147630571D01*
X179640880Y-147487714D01*
X179498023Y-147392476D01*
X179307547Y-147344857D01*
X179117071Y-147392476D01*
X178974214Y-147487714D01*
X178878976Y-147630571D01*
X178831357Y-147821047D01*
X178878976Y-148011523D01*
X178974214Y-148154380D01*
X179117071Y-148249619D01*
X179307547Y-148297238D01*
X179498023Y-148249619D01*
X179640880Y-148154380D01*
X180164690Y-148154380D02*
X180164690Y-147154380D01*
X180736119Y-148154380D01*
X180736119Y-147154380D01*
X181783738Y-148059142D02*
X181736119Y-148106761D01*
X181593261Y-148154380D01*
X181498023Y-148154380D01*
X181355166Y-148106761D01*
X181259928Y-148011523D01*
X181212309Y-147916285D01*
X181164690Y-147725809D01*
X181164690Y-147582952D01*
X181212309Y-147392476D01*
X181259928Y-147297238D01*
X181355166Y-147202000D01*
X181498023Y-147154380D01*
X181593261Y-147154380D01*
X181736119Y-147202000D01*
X181783738Y-147249619D01*
X182545642Y-147630571D02*
X182688500Y-147678190D01*
X182736119Y-147725809D01*
X182783738Y-147821047D01*
X182783738Y-147963904D01*
X182736119Y-148059142D01*
X182688500Y-148106761D01*
X182593261Y-148154380D01*
X182212309Y-148154380D01*
X182212309Y-147154380D01*
X182545642Y-147154380D01*
X182640880Y-147202000D01*
X182688500Y-147249619D01*
X182736119Y-147344857D01*
X182736119Y-147440095D01*
X182688500Y-147535333D01*
X182640880Y-147582952D01*
X182545642Y-147630571D01*
X182212309Y-147630571D01*
X183164690Y-148106761D02*
X183307547Y-148154380D01*
X183545642Y-148154380D01*
X183640880Y-148106761D01*
X183688500Y-148059142D01*
X183736119Y-147963904D01*
X183736119Y-147868666D01*
X183688500Y-147773428D01*
X183640880Y-147725809D01*
X183545642Y-147678190D01*
X183355166Y-147630571D01*
X183259928Y-147582952D01*
X183212309Y-147535333D01*
X183164690Y-147440095D01*
X183164690Y-147344857D01*
X183212309Y-147249619D01*
X183259928Y-147202000D01*
X183355166Y-147154380D01*
X183593261Y-147154380D01*
X183736119Y-147202000D01*
X183926595Y-148249619D02*
X184688500Y-148249619D01*
X185259928Y-147630571D02*
X185402785Y-147678190D01*
X185450404Y-147725809D01*
X185498023Y-147821047D01*
X185498023Y-147963904D01*
X185450404Y-148059142D01*
X185402785Y-148106761D01*
X185307547Y-148154380D01*
X184926595Y-148154380D01*
X184926595Y-147154380D01*
X185259928Y-147154380D01*
X185355166Y-147202000D01*
X185402785Y-147249619D01*
X185450404Y-147344857D01*
X185450404Y-147440095D01*
X185402785Y-147535333D01*
X185355166Y-147582952D01*
X185259928Y-147630571D01*
X184926595Y-147630571D01*
X186355166Y-148154380D02*
X186355166Y-147630571D01*
X186307547Y-147535333D01*
X186212309Y-147487714D01*
X186021833Y-147487714D01*
X185926595Y-147535333D01*
X186355166Y-148106761D02*
X186259928Y-148154380D01*
X186021833Y-148154380D01*
X185926595Y-148106761D01*
X185878976Y-148011523D01*
X185878976Y-147916285D01*
X185926595Y-147821047D01*
X186021833Y-147773428D01*
X186259928Y-147773428D01*
X186355166Y-147725809D01*
X186831357Y-147487714D02*
X186831357Y-148154380D01*
X186831357Y-147582952D02*
X186878976Y-147535333D01*
X186974214Y-147487714D01*
X187117071Y-147487714D01*
X187212309Y-147535333D01*
X187259928Y-147630571D01*
X187259928Y-148154380D01*
X188164690Y-147487714D02*
X188164690Y-148297238D01*
X188117071Y-148392476D01*
X188069452Y-148440095D01*
X187974214Y-148487714D01*
X187831357Y-148487714D01*
X187736119Y-148440095D01*
X188164690Y-148106761D02*
X188069452Y-148154380D01*
X187878976Y-148154380D01*
X187783738Y-148106761D01*
X187736119Y-148059142D01*
X187688500Y-147963904D01*
X187688500Y-147678190D01*
X187736119Y-147582952D01*
X187783738Y-147535333D01*
X187878976Y-147487714D01*
X188069452Y-147487714D01*
X188164690Y-147535333D01*
X189069452Y-148154380D02*
X189069452Y-147630571D01*
X189021833Y-147535333D01*
X188926595Y-147487714D01*
X188736119Y-147487714D01*
X188640880Y-147535333D01*
X189069452Y-148106761D02*
X188974214Y-148154380D01*
X188736119Y-148154380D01*
X188640880Y-148106761D01*
X188593261Y-148011523D01*
X188593261Y-147916285D01*
X188640880Y-147821047D01*
X188736119Y-147773428D01*
X188974214Y-147773428D01*
X189069452Y-147725809D01*
X189688499Y-148154380D02*
X189593261Y-148106761D01*
X189545642Y-148011523D01*
X189545642Y-147154380D01*
X190212309Y-148154380D02*
X190117071Y-148106761D01*
X190069452Y-148059142D01*
X190021833Y-147963904D01*
X190021833Y-147678190D01*
X190069452Y-147582952D01*
X190117071Y-147535333D01*
X190212309Y-147487714D01*
X190355166Y-147487714D01*
X190450404Y-147535333D01*
X190498023Y-147582952D01*
X190545642Y-147678190D01*
X190545642Y-147963904D01*
X190498023Y-148059142D01*
X190450404Y-148106761D01*
X190355166Y-148154380D01*
X190212309Y-148154380D01*
X190974214Y-148154380D02*
X190974214Y-147487714D01*
X190974214Y-147678190D02*
X191021833Y-147582952D01*
X191069452Y-147535333D01*
X191164690Y-147487714D01*
X191259928Y-147487714D01*
X191974214Y-148106761D02*
X191878976Y-148154380D01*
X191688499Y-148154380D01*
X191593261Y-148106761D01*
X191545642Y-148011523D01*
X191545642Y-147630571D01*
X191593261Y-147535333D01*
X191688499Y-147487714D01*
X191878976Y-147487714D01*
X191974214Y-147535333D01*
X192021833Y-147630571D01*
X192021833Y-147725809D01*
X191545642Y-147821047D01*
X192450404Y-148059142D02*
X192498023Y-148106761D01*
X192450404Y-148154380D01*
X192402785Y-148106761D01*
X192450404Y-148059142D01*
X192450404Y-148154380D01*
X143402785Y-149280571D02*
X143545642Y-149328190D01*
X143593261Y-149375809D01*
X143640880Y-149471047D01*
X143640880Y-149613904D01*
X143593261Y-149709142D01*
X143545642Y-149756761D01*
X143450404Y-149804380D01*
X143069452Y-149804380D01*
X143069452Y-148804380D01*
X143402785Y-148804380D01*
X143498023Y-148852000D01*
X143545642Y-148899619D01*
X143593261Y-148994857D01*
X143593261Y-149090095D01*
X143545642Y-149185333D01*
X143498023Y-149232952D01*
X143402785Y-149280571D01*
X143069452Y-149280571D01*
X144498023Y-149804380D02*
X144498023Y-149280571D01*
X144450404Y-149185333D01*
X144355166Y-149137714D01*
X144164690Y-149137714D01*
X144069452Y-149185333D01*
X144498023Y-149756761D02*
X144402785Y-149804380D01*
X144164690Y-149804380D01*
X144069452Y-149756761D01*
X144021833Y-149661523D01*
X144021833Y-149566285D01*
X144069452Y-149471047D01*
X144164690Y-149423428D01*
X144402785Y-149423428D01*
X144498023Y-149375809D01*
X144926595Y-149756761D02*
X145021833Y-149804380D01*
X145212309Y-149804380D01*
X145307547Y-149756761D01*
X145355166Y-149661523D01*
X145355166Y-149613904D01*
X145307547Y-149518666D01*
X145212309Y-149471047D01*
X145069452Y-149471047D01*
X144974214Y-149423428D01*
X144926595Y-149328190D01*
X144926595Y-149280571D01*
X144974214Y-149185333D01*
X145069452Y-149137714D01*
X145212309Y-149137714D01*
X145307547Y-149185333D01*
X146164690Y-149756761D02*
X146069452Y-149804380D01*
X145878976Y-149804380D01*
X145783738Y-149756761D01*
X145736119Y-149661523D01*
X145736119Y-149280571D01*
X145783738Y-149185333D01*
X145878976Y-149137714D01*
X146069452Y-149137714D01*
X146164690Y-149185333D01*
X146212309Y-149280571D01*
X146212309Y-149375809D01*
X145736119Y-149471047D01*
X147069452Y-149804380D02*
X147069452Y-148804380D01*
X147069452Y-149756761D02*
X146974214Y-149804380D01*
X146783738Y-149804380D01*
X146688500Y-149756761D01*
X146640880Y-149709142D01*
X146593261Y-149613904D01*
X146593261Y-149328190D01*
X146640880Y-149232952D01*
X146688500Y-149185333D01*
X146783738Y-149137714D01*
X146974214Y-149137714D01*
X147069452Y-149185333D01*
X148450404Y-149804380D02*
X148355166Y-149756761D01*
X148307547Y-149709142D01*
X148259928Y-149613904D01*
X148259928Y-149328190D01*
X148307547Y-149232952D01*
X148355166Y-149185333D01*
X148450404Y-149137714D01*
X148593261Y-149137714D01*
X148688500Y-149185333D01*
X148736119Y-149232952D01*
X148783738Y-149328190D01*
X148783738Y-149613904D01*
X148736119Y-149709142D01*
X148688500Y-149756761D01*
X148593261Y-149804380D01*
X148450404Y-149804380D01*
X149212309Y-149137714D02*
X149212309Y-149804380D01*
X149212309Y-149232952D02*
X149259928Y-149185333D01*
X149355166Y-149137714D01*
X149498023Y-149137714D01*
X149593261Y-149185333D01*
X149640880Y-149280571D01*
X149640880Y-149804380D01*
X150117071Y-149709142D02*
X150164690Y-149756761D01*
X150117071Y-149804380D01*
X150069452Y-149756761D01*
X150117071Y-149709142D01*
X150117071Y-149804380D01*
X150117071Y-149185333D02*
X150164690Y-149232952D01*
X150117071Y-149280571D01*
X150069452Y-149232952D01*
X150117071Y-149185333D01*
X150117071Y-149280571D01*
X151355166Y-149804380D02*
X151355166Y-148804380D01*
X151593261Y-148804380D01*
X151736119Y-148852000D01*
X151831357Y-148947238D01*
X151878976Y-149042476D01*
X151926595Y-149232952D01*
X151926595Y-149375809D01*
X151878976Y-149566285D01*
X151831357Y-149661523D01*
X151736119Y-149756761D01*
X151593261Y-149804380D01*
X151355166Y-149804380D01*
X152736119Y-149756761D02*
X152640880Y-149804380D01*
X152450404Y-149804380D01*
X152355166Y-149756761D01*
X152307547Y-149661523D01*
X152307547Y-149280571D01*
X152355166Y-149185333D01*
X152450404Y-149137714D01*
X152640880Y-149137714D01*
X152736119Y-149185333D01*
X152783738Y-149280571D01*
X152783738Y-149375809D01*
X152307547Y-149471047D01*
X153164690Y-149756761D02*
X153259928Y-149804380D01*
X153450404Y-149804380D01*
X153545642Y-149756761D01*
X153593261Y-149661523D01*
X153593261Y-149613904D01*
X153545642Y-149518666D01*
X153450404Y-149471047D01*
X153307547Y-149471047D01*
X153212309Y-149423428D01*
X153164690Y-149328190D01*
X153164690Y-149280571D01*
X153212309Y-149185333D01*
X153307547Y-149137714D01*
X153450404Y-149137714D01*
X153545642Y-149185333D01*
X154450404Y-149804380D02*
X154450404Y-149280571D01*
X154402785Y-149185333D01*
X154307547Y-149137714D01*
X154117071Y-149137714D01*
X154021833Y-149185333D01*
X154450404Y-149756761D02*
X154355166Y-149804380D01*
X154117071Y-149804380D01*
X154021833Y-149756761D01*
X153974214Y-149661523D01*
X153974214Y-149566285D01*
X154021833Y-149471047D01*
X154117071Y-149423428D01*
X154355166Y-149423428D01*
X154450404Y-149375809D01*
X154926595Y-149804380D02*
X154926595Y-149137714D01*
X154926595Y-148804380D02*
X154878976Y-148852000D01*
X154926595Y-148899619D01*
X154974214Y-148852000D01*
X154926595Y-148804380D01*
X154926595Y-148899619D01*
X155450404Y-149756761D02*
X155450404Y-149804380D01*
X155402785Y-149899619D01*
X155355166Y-149947238D01*
X157164690Y-148852000D02*
X157069452Y-148804380D01*
X156926595Y-148804380D01*
X156783738Y-148852000D01*
X156688500Y-148947238D01*
X156640880Y-149042476D01*
X156593261Y-149232952D01*
X156593261Y-149375809D01*
X156640880Y-149566285D01*
X156688500Y-149661523D01*
X156783738Y-149756761D01*
X156926595Y-149804380D01*
X157021833Y-149804380D01*
X157164690Y-149756761D01*
X157212309Y-149709142D01*
X157212309Y-149375809D01*
X157021833Y-149375809D01*
X157640880Y-149804380D02*
X157640880Y-149137714D01*
X157640880Y-149328190D02*
X157688500Y-149232952D01*
X157736119Y-149185333D01*
X157831357Y-149137714D01*
X157926595Y-149137714D01*
X158688500Y-149804380D02*
X158688500Y-149280571D01*
X158640880Y-149185333D01*
X158545642Y-149137714D01*
X158355166Y-149137714D01*
X158259928Y-149185333D01*
X158688500Y-149756761D02*
X158593261Y-149804380D01*
X158355166Y-149804380D01*
X158259928Y-149756761D01*
X158212309Y-149661523D01*
X158212309Y-149566285D01*
X158259928Y-149471047D01*
X158355166Y-149423428D01*
X158593261Y-149423428D01*
X158688500Y-149375809D01*
X159069452Y-149137714D02*
X159307547Y-149804380D01*
X159545642Y-149137714D02*
X159307547Y-149804380D01*
X159212309Y-150042476D01*
X159164690Y-150090095D01*
X159069452Y-150137714D01*
X159974214Y-149756761D02*
X159974214Y-149804380D01*
X159926595Y-149899619D01*
X159878976Y-149947238D01*
X161450404Y-148804380D02*
X161450404Y-149518666D01*
X161402785Y-149661523D01*
X161307547Y-149756761D01*
X161164690Y-149804380D01*
X161069452Y-149804380D01*
X162069452Y-149804380D02*
X161974214Y-149756761D01*
X161926595Y-149709142D01*
X161878976Y-149613904D01*
X161878976Y-149328190D01*
X161926595Y-149232952D01*
X161974214Y-149185333D01*
X162069452Y-149137714D01*
X162212309Y-149137714D01*
X162307547Y-149185333D01*
X162355166Y-149232952D01*
X162402785Y-149328190D01*
X162402785Y-149613904D01*
X162355166Y-149709142D01*
X162307547Y-149756761D01*
X162212309Y-149804380D01*
X162069452Y-149804380D01*
X162831357Y-149804380D02*
X162831357Y-148804380D01*
X163259928Y-149804380D02*
X163259928Y-149280571D01*
X163212309Y-149185333D01*
X163117071Y-149137714D01*
X162974214Y-149137714D01*
X162878976Y-149185333D01*
X162831357Y-149232952D01*
X163736119Y-149137714D02*
X163736119Y-149804380D01*
X163736119Y-149232952D02*
X163783738Y-149185333D01*
X163878976Y-149137714D01*
X164021833Y-149137714D01*
X164117071Y-149185333D01*
X164164690Y-149280571D01*
X164164690Y-149804380D01*
X164593261Y-149756761D02*
X164688500Y-149804380D01*
X164878976Y-149804380D01*
X164974214Y-149756761D01*
X165021833Y-149661523D01*
X165021833Y-149613904D01*
X164974214Y-149518666D01*
X164878976Y-149471047D01*
X164736119Y-149471047D01*
X164640880Y-149423428D01*
X164593261Y-149328190D01*
X164593261Y-149280571D01*
X164640880Y-149185333D01*
X164736119Y-149137714D01*
X164878976Y-149137714D01*
X164974214Y-149185333D01*
X165307547Y-149137714D02*
X165688500Y-149137714D01*
X165450404Y-148804380D02*
X165450404Y-149661523D01*
X165498023Y-149756761D01*
X165593261Y-149804380D01*
X165688500Y-149804380D01*
X166164690Y-149804380D02*
X166069452Y-149756761D01*
X166021833Y-149709142D01*
X165974214Y-149613904D01*
X165974214Y-149328190D01*
X166021833Y-149232952D01*
X166069452Y-149185333D01*
X166164690Y-149137714D01*
X166307547Y-149137714D01*
X166402785Y-149185333D01*
X166450404Y-149232952D01*
X166498023Y-149328190D01*
X166498023Y-149613904D01*
X166450404Y-149709142D01*
X166402785Y-149756761D01*
X166307547Y-149804380D01*
X166164690Y-149804380D01*
X166926595Y-149137714D02*
X166926595Y-149804380D01*
X166926595Y-149232952D02*
X166974214Y-149185333D01*
X167069452Y-149137714D01*
X167212309Y-149137714D01*
X167307547Y-149185333D01*
X167355166Y-149280571D01*
X167355166Y-149804380D01*
X167878976Y-149756761D02*
X167878976Y-149804380D01*
X167831357Y-149899619D01*
X167783738Y-149947238D01*
X169450404Y-149756761D02*
X169355166Y-149804380D01*
X169164690Y-149804380D01*
X169069452Y-149756761D01*
X169021833Y-149661523D01*
X169021833Y-149280571D01*
X169069452Y-149185333D01*
X169164690Y-149137714D01*
X169355166Y-149137714D01*
X169450404Y-149185333D01*
X169498023Y-149280571D01*
X169498023Y-149375809D01*
X169021833Y-149471047D01*
X169926595Y-149804380D02*
X169926595Y-148804380D01*
X170498023Y-149804380D01*
X170498023Y-148804380D01*
X171355166Y-149756761D02*
X171259928Y-149804380D01*
X171069452Y-149804380D01*
X170974214Y-149756761D01*
X170926595Y-149661523D01*
X170926595Y-149280571D01*
X170974214Y-149185333D01*
X171069452Y-149137714D01*
X171259928Y-149137714D01*
X171355166Y-149185333D01*
X171402785Y-149280571D01*
X171402785Y-149375809D01*
X170926595Y-149471047D01*
X172259928Y-149137714D02*
X172259928Y-149804380D01*
X171831357Y-149137714D02*
X171831357Y-149661523D01*
X171878976Y-149756761D01*
X171974214Y-149804380D01*
X172117071Y-149804380D01*
X172212309Y-149756761D01*
X172259928Y-149709142D01*
X172736119Y-149804380D02*
X172736119Y-149137714D01*
X172736119Y-149328190D02*
X172783738Y-149232952D01*
X172831357Y-149185333D01*
X172926595Y-149137714D01*
X173021833Y-149137714D01*
X173498023Y-149804380D02*
X173402785Y-149756761D01*
X173355166Y-149709142D01*
X173307547Y-149613904D01*
X173307547Y-149328190D01*
X173355166Y-149232952D01*
X173402785Y-149185333D01*
X173498023Y-149137714D01*
X173640880Y-149137714D01*
X173736119Y-149185333D01*
X173783738Y-149232952D01*
X173831357Y-149328190D01*
X173831357Y-149613904D01*
X173783738Y-149709142D01*
X173736119Y-149756761D01*
X173640880Y-149804380D01*
X173498023Y-149804380D01*
X174307547Y-149756761D02*
X174307547Y-149804380D01*
X174259928Y-149899619D01*
X174212309Y-149947238D01*
X175450404Y-148899619D02*
X175498023Y-148852000D01*
X175593261Y-148804380D01*
X175831357Y-148804380D01*
X175926595Y-148852000D01*
X175974214Y-148899619D01*
X176021833Y-148994857D01*
X176021833Y-149090095D01*
X175974214Y-149232952D01*
X175402785Y-149804380D01*
X176021833Y-149804380D01*
X176640880Y-148804380D02*
X176736119Y-148804380D01*
X176831357Y-148852000D01*
X176878976Y-148899619D01*
X176926595Y-148994857D01*
X176974214Y-149185333D01*
X176974214Y-149423428D01*
X176926595Y-149613904D01*
X176878976Y-149709142D01*
X176831357Y-149756761D01*
X176736119Y-149804380D01*
X176640880Y-149804380D01*
X176545642Y-149756761D01*
X176498023Y-149709142D01*
X176450404Y-149613904D01*
X176402785Y-149423428D01*
X176402785Y-149185333D01*
X176450404Y-148994857D01*
X176498023Y-148899619D01*
X176545642Y-148852000D01*
X176640880Y-148804380D01*
X177926595Y-149804380D02*
X177355166Y-149804380D01*
X177640880Y-149804380D02*
X177640880Y-148804380D01*
X177545642Y-148947238D01*
X177450404Y-149042476D01*
X177355166Y-149090095D01*
X178259928Y-148804380D02*
X178926595Y-148804380D01*
X178498023Y-149804380D01*
X179307547Y-149709142D02*
X179355166Y-149756761D01*
X179307547Y-149804380D01*
X179259928Y-149756761D01*
X179307547Y-149709142D01*
X179307547Y-149804380D01*
X180498023Y-149756761D02*
X180640880Y-149804380D01*
X180878976Y-149804380D01*
X180974214Y-149756761D01*
X181021833Y-149709142D01*
X181069452Y-149613904D01*
X181069452Y-149518666D01*
X181021833Y-149423428D01*
X180974214Y-149375809D01*
X180878976Y-149328190D01*
X180688500Y-149280571D01*
X180593261Y-149232952D01*
X180545642Y-149185333D01*
X180498023Y-149090095D01*
X180498023Y-148994857D01*
X180545642Y-148899619D01*
X180593261Y-148852000D01*
X180688500Y-148804380D01*
X180926595Y-148804380D01*
X181069452Y-148852000D01*
X181878976Y-149756761D02*
X181783738Y-149804380D01*
X181593261Y-149804380D01*
X181498023Y-149756761D01*
X181450404Y-149661523D01*
X181450404Y-149280571D01*
X181498023Y-149185333D01*
X181593261Y-149137714D01*
X181783738Y-149137714D01*
X181878976Y-149185333D01*
X181926595Y-149280571D01*
X181926595Y-149375809D01*
X181450404Y-149471047D01*
X182355166Y-149137714D02*
X182355166Y-150137714D01*
X182355166Y-149185333D02*
X182450404Y-149137714D01*
X182640880Y-149137714D01*
X182736119Y-149185333D01*
X182783738Y-149232952D01*
X182831357Y-149328190D01*
X182831357Y-149613904D01*
X182783738Y-149709142D01*
X182736119Y-149756761D01*
X182640880Y-149804380D01*
X182450404Y-149804380D01*
X182355166Y-149756761D01*
X183117071Y-149137714D02*
X183498023Y-149137714D01*
X183259928Y-148804380D02*
X183259928Y-149661523D01*
X183307547Y-149756761D01*
X183402785Y-149804380D01*
X183498023Y-149804380D01*
X185117071Y-149804380D02*
X184545642Y-149804380D01*
X184831357Y-149804380D02*
X184831357Y-148804380D01*
X184736119Y-148947238D01*
X184640880Y-149042476D01*
X184545642Y-149090095D01*
X185593261Y-149804380D02*
X185783738Y-149804380D01*
X185878976Y-149756761D01*
X185926595Y-149709142D01*
X186021833Y-149566285D01*
X186069452Y-149375809D01*
X186069452Y-148994857D01*
X186021833Y-148899619D01*
X185974214Y-148852000D01*
X185878976Y-148804380D01*
X185688500Y-148804380D01*
X185593261Y-148852000D01*
X185545642Y-148899619D01*
X185498023Y-148994857D01*
X185498023Y-149232952D01*
X185545642Y-149328190D01*
X185593261Y-149375809D01*
X185688500Y-149423428D01*
X185878976Y-149423428D01*
X185974214Y-149375809D01*
X186021833Y-149328190D01*
X186069452Y-149232952D01*
X187259928Y-148804380D02*
X187259928Y-149613904D01*
X187307547Y-149709142D01*
X187355166Y-149756761D01*
X187450404Y-149804380D01*
X187640880Y-149804380D01*
X187736119Y-149756761D01*
X187783738Y-149709142D01*
X187831357Y-149613904D01*
X187831357Y-148804380D01*
X188307547Y-149137714D02*
X188307547Y-150137714D01*
X188307547Y-149185333D02*
X188402785Y-149137714D01*
X188593261Y-149137714D01*
X188688500Y-149185333D01*
X188736119Y-149232952D01*
X188783738Y-149328190D01*
X188783738Y-149613904D01*
X188736119Y-149709142D01*
X188688500Y-149756761D01*
X188593261Y-149804380D01*
X188402785Y-149804380D01*
X188307547Y-149756761D01*
X189640880Y-149804380D02*
X189640880Y-148804380D01*
X189640880Y-149756761D02*
X189545642Y-149804380D01*
X189355166Y-149804380D01*
X189259928Y-149756761D01*
X189212309Y-149709142D01*
X189164690Y-149613904D01*
X189164690Y-149328190D01*
X189212309Y-149232952D01*
X189259928Y-149185333D01*
X189355166Y-149137714D01*
X189545642Y-149137714D01*
X189640880Y-149185333D01*
X190545642Y-149804380D02*
X190545642Y-149280571D01*
X190498023Y-149185333D01*
X190402785Y-149137714D01*
X190212309Y-149137714D01*
X190117071Y-149185333D01*
X190545642Y-149756761D02*
X190450404Y-149804380D01*
X190212309Y-149804380D01*
X190117071Y-149756761D01*
X190069452Y-149661523D01*
X190069452Y-149566285D01*
X190117071Y-149471047D01*
X190212309Y-149423428D01*
X190450404Y-149423428D01*
X190545642Y-149375809D01*
X190878976Y-149137714D02*
X191259928Y-149137714D01*
X191021833Y-148804380D02*
X191021833Y-149661523D01*
X191069452Y-149756761D01*
X191164690Y-149804380D01*
X191259928Y-149804380D01*
X191974214Y-149756761D02*
X191878976Y-149804380D01*
X191688500Y-149804380D01*
X191593261Y-149756761D01*
X191545642Y-149661523D01*
X191545642Y-149280571D01*
X191593261Y-149185333D01*
X191688500Y-149137714D01*
X191878976Y-149137714D01*
X191974214Y-149185333D01*
X192021833Y-149280571D01*
X192021833Y-149375809D01*
X191545642Y-149471047D01*
X192450404Y-149709142D02*
X192498023Y-149756761D01*
X192450404Y-149804380D01*
X192402785Y-149756761D01*
X192450404Y-149709142D01*
X192450404Y-149804380D01*
X184974214Y-151359142D02*
X184926595Y-151406761D01*
X184783738Y-151454380D01*
X184688500Y-151454380D01*
X184545642Y-151406761D01*
X184450404Y-151311523D01*
X184402785Y-151216285D01*
X184355166Y-151025809D01*
X184355166Y-150882952D01*
X184402785Y-150692476D01*
X184450404Y-150597238D01*
X184545642Y-150502000D01*
X184688500Y-150454380D01*
X184783738Y-150454380D01*
X184926595Y-150502000D01*
X184974214Y-150549619D01*
X185974214Y-151359142D02*
X185926595Y-151406761D01*
X185783738Y-151454380D01*
X185688500Y-151454380D01*
X185545642Y-151406761D01*
X185450404Y-151311523D01*
X185402785Y-151216285D01*
X185355166Y-151025809D01*
X185355166Y-150882952D01*
X185402785Y-150692476D01*
X185450404Y-150597238D01*
X185545642Y-150502000D01*
X185688500Y-150454380D01*
X185783738Y-150454380D01*
X185926595Y-150502000D01*
X185974214Y-150549619D01*
X187498023Y-150930571D02*
X187640880Y-150978190D01*
X187688500Y-151025809D01*
X187736119Y-151121047D01*
X187736119Y-151263904D01*
X187688500Y-151359142D01*
X187640880Y-151406761D01*
X187545642Y-151454380D01*
X187164690Y-151454380D01*
X187164690Y-150454380D01*
X187498023Y-150454380D01*
X187593261Y-150502000D01*
X187640880Y-150549619D01*
X187688500Y-150644857D01*
X187688500Y-150740095D01*
X187640880Y-150835333D01*
X187593261Y-150882952D01*
X187498023Y-150930571D01*
X187164690Y-150930571D01*
X188355166Y-150978190D02*
X188355166Y-151454380D01*
X188021833Y-150454380D02*
X188355166Y-150978190D01*
X188688500Y-150454380D01*
X190212309Y-150787714D02*
X190212309Y-151454380D01*
X189974214Y-150406761D02*
X189736119Y-151121047D01*
X190355166Y-151121047D01*
X190736119Y-151359142D02*
X190783738Y-151406761D01*
X190736119Y-151454380D01*
X190688500Y-151406761D01*
X190736119Y-151359142D01*
X190736119Y-151454380D01*
X191402785Y-150454380D02*
X191498023Y-150454380D01*
X191593261Y-150502000D01*
X191640880Y-150549619D01*
X191688500Y-150644857D01*
X191736119Y-150835333D01*
X191736119Y-151073428D01*
X191688500Y-151263904D01*
X191640880Y-151359142D01*
X191593261Y-151406761D01*
X191498023Y-151454380D01*
X191402785Y-151454380D01*
X191307547Y-151406761D01*
X191259928Y-151359142D01*
X191212309Y-151263904D01*
X191164690Y-151073428D01*
X191164690Y-150835333D01*
X191212309Y-150644857D01*
X191259928Y-150549619D01*
X191307547Y-150502000D01*
X191402785Y-150454380D01*
X192492380Y-76890285D02*
X192492380Y-76318857D01*
X193492380Y-76604571D02*
X192492380Y-76604571D01*
X192492380Y-76128380D02*
X192492380Y-75556952D01*
X193492380Y-75842666D02*
X192492380Y-75842666D01*
X193492380Y-74747428D02*
X193492380Y-75223619D01*
X192492380Y-75223619D01*
X193492380Y-73652190D02*
X192492380Y-73652190D01*
X193492380Y-73176000D02*
X192492380Y-73176000D01*
X193492380Y-72604571D01*
X192492380Y-72604571D01*
X124404666Y-115022380D02*
X124738000Y-116022380D01*
X125071333Y-115022380D01*
X125357047Y-115736666D02*
X125833238Y-115736666D01*
X125261809Y-116022380D02*
X125595142Y-115022380D01*
X125928476Y-116022380D01*
X126261809Y-116022380D02*
X126261809Y-115022380D01*
X126595142Y-115736666D01*
X126928476Y-115022380D01*
X126928476Y-116022380D01*
X127404666Y-116022380D02*
X127404666Y-115022380D01*
X127785619Y-115022380D01*
X127880857Y-115070000D01*
X127928476Y-115117619D01*
X127976095Y-115212857D01*
X127976095Y-115355714D01*
X127928476Y-115450952D01*
X127880857Y-115498571D01*
X127785619Y-115546190D01*
X127404666Y-115546190D01*
X70604285Y-113752380D02*
X70937619Y-114752380D01*
X71270952Y-113752380D01*
X71604285Y-114752380D02*
X71604285Y-113752380D01*
X71842380Y-113752380D01*
X71985238Y-113800000D01*
X72080476Y-113895238D01*
X72128095Y-113990476D01*
X72175714Y-114180952D01*
X72175714Y-114323809D01*
X72128095Y-114514285D01*
X72080476Y-114609523D01*
X71985238Y-114704761D01*
X71842380Y-114752380D01*
X71604285Y-114752380D01*
X72556666Y-114466666D02*
X73032857Y-114466666D01*
X72461428Y-114752380D02*
X72794761Y-113752380D01*
X73128095Y-114752380D01*
X74128095Y-114847619D02*
X74032857Y-114800000D01*
X73937619Y-114704761D01*
X73794761Y-114561904D01*
X73699523Y-114514285D01*
X73604285Y-114514285D01*
X73651904Y-114752380D02*
X73556666Y-114704761D01*
X73461428Y-114609523D01*
X73413809Y-114419047D01*
X73413809Y-114085714D01*
X73461428Y-113895238D01*
X73556666Y-113800000D01*
X73651904Y-113752380D01*
X73842380Y-113752380D01*
X73937619Y-113800000D01*
X74032857Y-113895238D01*
X74080476Y-114085714D01*
X74080476Y-114419047D01*
X74032857Y-114609523D01*
X73937619Y-114704761D01*
X73842380Y-114752380D01*
X73651904Y-114752380D01*
X138366666Y-117562380D02*
X138700000Y-118562380D01*
X139033333Y-117562380D01*
X139366666Y-118562380D02*
X139366666Y-117562380D01*
X139604761Y-117562380D01*
X139747619Y-117610000D01*
X139842857Y-117705238D01*
X139890476Y-117800476D01*
X139938095Y-117990952D01*
X139938095Y-118133809D01*
X139890476Y-118324285D01*
X139842857Y-118419523D01*
X139747619Y-118514761D01*
X139604761Y-118562380D01*
X139366666Y-118562380D01*
X140938095Y-118467142D02*
X140890476Y-118514761D01*
X140747619Y-118562380D01*
X140652380Y-118562380D01*
X140509523Y-118514761D01*
X140414285Y-118419523D01*
X140366666Y-118324285D01*
X140319047Y-118133809D01*
X140319047Y-117990952D01*
X140366666Y-117800476D01*
X140414285Y-117705238D01*
X140509523Y-117610000D01*
X140652380Y-117562380D01*
X140747619Y-117562380D01*
X140890476Y-117610000D01*
X140938095Y-117657619D01*
X159472380Y-99043904D02*
X160472380Y-98710571D01*
X159472380Y-98377238D01*
X160472380Y-98043904D02*
X159472380Y-98043904D01*
X159472380Y-97805809D01*
X159520000Y-97662952D01*
X159615238Y-97567714D01*
X159710476Y-97520095D01*
X159900952Y-97472476D01*
X160043809Y-97472476D01*
X160234285Y-97520095D01*
X160329523Y-97567714D01*
X160424761Y-97662952D01*
X160472380Y-97805809D01*
X160472380Y-98043904D01*
X160186666Y-97091523D02*
X160186666Y-96615333D01*
X160472380Y-97186761D02*
X159472380Y-96853428D01*
X160472380Y-96520095D01*
X160377142Y-95615333D02*
X160424761Y-95662952D01*
X160472380Y-95805809D01*
X160472380Y-95901047D01*
X160424761Y-96043904D01*
X160329523Y-96139142D01*
X160234285Y-96186761D01*
X160043809Y-96234380D01*
X159900952Y-96234380D01*
X159710476Y-96186761D01*
X159615238Y-96139142D01*
X159520000Y-96043904D01*
X159472380Y-95901047D01*
X159472380Y-95805809D01*
X159520000Y-95662952D01*
X159567619Y-95615333D01*
X138700095Y-139152380D02*
X139033428Y-140152380D01*
X139366761Y-139152380D01*
X139890571Y-139152380D02*
X140081047Y-139152380D01*
X140176285Y-139200000D01*
X140271523Y-139295238D01*
X140319142Y-139485714D01*
X140319142Y-139819047D01*
X140271523Y-140009523D01*
X140176285Y-140104761D01*
X140081047Y-140152380D01*
X139890571Y-140152380D01*
X139795333Y-140104761D01*
X139700095Y-140009523D01*
X139652476Y-139819047D01*
X139652476Y-139485714D01*
X139700095Y-139295238D01*
X139795333Y-139200000D01*
X139890571Y-139152380D01*
X140747714Y-139152380D02*
X140747714Y-139961904D01*
X140795333Y-140057142D01*
X140842952Y-140104761D01*
X140938190Y-140152380D01*
X141128666Y-140152380D01*
X141223904Y-140104761D01*
X141271523Y-140057142D01*
X141319142Y-139961904D01*
X141319142Y-139152380D01*
X141652476Y-139152380D02*
X142223904Y-139152380D01*
X141938190Y-140152380D02*
X141938190Y-139152380D01*
X65603714Y-54570380D02*
X66175142Y-54570380D01*
X65889428Y-55570380D02*
X65889428Y-54570380D01*
X66365619Y-54570380D02*
X66937047Y-54570380D01*
X66651333Y-55570380D02*
X66651333Y-54570380D01*
X67746571Y-55570380D02*
X67270380Y-55570380D01*
X67270380Y-54570380D01*
X68841809Y-55570380D02*
X68841809Y-54570380D01*
X69318000Y-55570380D02*
X69318000Y-54570380D01*
X69889428Y-55570380D01*
X69889428Y-54570380D01*
X66492666Y-79970380D02*
X66826000Y-80970380D01*
X67159333Y-79970380D01*
X67445047Y-80684666D02*
X67921238Y-80684666D01*
X67349809Y-80970380D02*
X67683142Y-79970380D01*
X68016476Y-80970380D01*
X68349809Y-80970380D02*
X68349809Y-79970380D01*
X68683142Y-80684666D01*
X69016476Y-79970380D01*
X69016476Y-80970380D01*
X69492666Y-80970380D02*
X69492666Y-79970380D01*
X69873619Y-79970380D01*
X69968857Y-80018000D01*
X70016476Y-80065619D01*
X70064095Y-80160857D01*
X70064095Y-80303714D01*
X70016476Y-80398952D01*
X69968857Y-80446571D01*
X69873619Y-80494190D01*
X69492666Y-80494190D01*
X66540285Y-105370380D02*
X66873619Y-106370380D01*
X67206952Y-105370380D01*
X67540285Y-106370380D02*
X67540285Y-105370380D01*
X67778380Y-105370380D01*
X67921238Y-105418000D01*
X68016476Y-105513238D01*
X68064095Y-105608476D01*
X68111714Y-105798952D01*
X68111714Y-105941809D01*
X68064095Y-106132285D01*
X68016476Y-106227523D01*
X67921238Y-106322761D01*
X67778380Y-106370380D01*
X67540285Y-106370380D01*
X68492666Y-106084666D02*
X68968857Y-106084666D01*
X68397428Y-106370380D02*
X68730761Y-105370380D01*
X69064095Y-106370380D01*
X70064095Y-106465619D02*
X69968857Y-106418000D01*
X69873619Y-106322761D01*
X69730761Y-106179904D01*
X69635523Y-106132285D01*
X69540285Y-106132285D01*
X69587904Y-106370380D02*
X69492666Y-106322761D01*
X69397428Y-106227523D01*
X69349809Y-106037047D01*
X69349809Y-105703714D01*
X69397428Y-105513238D01*
X69492666Y-105418000D01*
X69587904Y-105370380D01*
X69778380Y-105370380D01*
X69873619Y-105418000D01*
X69968857Y-105513238D01*
X70016476Y-105703714D01*
X70016476Y-106037047D01*
X69968857Y-106227523D01*
X69873619Y-106322761D01*
X69778380Y-106370380D01*
X69587904Y-106370380D01*
X67992761Y-130770380D02*
X68326095Y-131770380D01*
X68659428Y-130770380D01*
X68992761Y-131770380D02*
X68992761Y-130770380D01*
X69468952Y-131770380D02*
X69468952Y-130770380D01*
X70040380Y-131770380D01*
X70040380Y-130770380D01*
X187158952Y-125865380D02*
X187158952Y-124865380D01*
X187539904Y-124865380D01*
X187635142Y-124913000D01*
X187682761Y-124960619D01*
X187730380Y-125055857D01*
X187730380Y-125198714D01*
X187682761Y-125293952D01*
X187635142Y-125341571D01*
X187539904Y-125389190D01*
X187158952Y-125389190D01*
X188301809Y-125865380D02*
X188206571Y-125817761D01*
X188158952Y-125770142D01*
X188111333Y-125674904D01*
X188111333Y-125389190D01*
X188158952Y-125293952D01*
X188206571Y-125246333D01*
X188301809Y-125198714D01*
X188444666Y-125198714D01*
X188539904Y-125246333D01*
X188587523Y-125293952D01*
X188635142Y-125389190D01*
X188635142Y-125674904D01*
X188587523Y-125770142D01*
X188539904Y-125817761D01*
X188444666Y-125865380D01*
X188301809Y-125865380D01*
X188968476Y-125198714D02*
X189158952Y-125865380D01*
X189349428Y-125389190D01*
X189539904Y-125865380D01*
X189730380Y-125198714D01*
X190492285Y-125817761D02*
X190397047Y-125865380D01*
X190206571Y-125865380D01*
X190111333Y-125817761D01*
X190063714Y-125722523D01*
X190063714Y-125341571D01*
X190111333Y-125246333D01*
X190206571Y-125198714D01*
X190397047Y-125198714D01*
X190492285Y-125246333D01*
X190539904Y-125341571D01*
X190539904Y-125436809D01*
X190063714Y-125532047D01*
X190968476Y-125865380D02*
X190968476Y-125198714D01*
X190968476Y-125389190D02*
X191016095Y-125293952D01*
X191063714Y-125246333D01*
X191158952Y-125198714D01*
X191254190Y-125198714D01*
X192873238Y-125865380D02*
X192301809Y-125865380D01*
X192587523Y-125865380D02*
X192587523Y-124865380D01*
X192492285Y-125008238D01*
X192397047Y-125103476D01*
X192301809Y-125151095D01*
X193254190Y-124960619D02*
X193301809Y-124913000D01*
X193397047Y-124865380D01*
X193635142Y-124865380D01*
X193730380Y-124913000D01*
X193778000Y-124960619D01*
X193825619Y-125055857D01*
X193825619Y-125151095D01*
X193778000Y-125293952D01*
X193206571Y-125865380D01*
X193825619Y-125865380D01*
X194111333Y-124865380D02*
X194444666Y-125865380D01*
X194778000Y-124865380D01*
X195873238Y-125865380D02*
X195873238Y-124865380D01*
X196111333Y-124865380D01*
X196254190Y-124913000D01*
X196349428Y-125008238D01*
X196397047Y-125103476D01*
X196444666Y-125293952D01*
X196444666Y-125436809D01*
X196397047Y-125627285D01*
X196349428Y-125722523D01*
X196254190Y-125817761D01*
X196111333Y-125865380D01*
X195873238Y-125865380D01*
X197444666Y-125770142D02*
X197397047Y-125817761D01*
X197254190Y-125865380D01*
X197158952Y-125865380D01*
X197016095Y-125817761D01*
X196920857Y-125722523D01*
X196873238Y-125627285D01*
X196825619Y-125436809D01*
X196825619Y-125293952D01*
X196873238Y-125103476D01*
X196920857Y-125008238D01*
X197016095Y-124913000D01*
X197158952Y-124865380D01*
X197254190Y-124865380D01*
X197397047Y-124913000D01*
X197444666Y-124960619D01*
X187373238Y-127420142D02*
X187325619Y-127467761D01*
X187182761Y-127515380D01*
X187087523Y-127515380D01*
X186944666Y-127467761D01*
X186849428Y-127372523D01*
X186801809Y-127277285D01*
X186754190Y-127086809D01*
X186754190Y-126943952D01*
X186801809Y-126753476D01*
X186849428Y-126658238D01*
X186944666Y-126563000D01*
X187087523Y-126515380D01*
X187182761Y-126515380D01*
X187325619Y-126563000D01*
X187373238Y-126610619D01*
X188182761Y-127467761D02*
X188087523Y-127515380D01*
X187897047Y-127515380D01*
X187801809Y-127467761D01*
X187754190Y-127372523D01*
X187754190Y-126991571D01*
X187801809Y-126896333D01*
X187897047Y-126848714D01*
X188087523Y-126848714D01*
X188182761Y-126896333D01*
X188230380Y-126991571D01*
X188230380Y-127086809D01*
X187754190Y-127182047D01*
X188658952Y-126848714D02*
X188658952Y-127515380D01*
X188658952Y-126943952D02*
X188706571Y-126896333D01*
X188801809Y-126848714D01*
X188944666Y-126848714D01*
X189039904Y-126896333D01*
X189087523Y-126991571D01*
X189087523Y-127515380D01*
X189420857Y-126848714D02*
X189801809Y-126848714D01*
X189563714Y-126515380D02*
X189563714Y-127372523D01*
X189611333Y-127467761D01*
X189706571Y-127515380D01*
X189801809Y-127515380D01*
X190135142Y-127515380D02*
X190135142Y-126848714D01*
X190135142Y-127039190D02*
X190182761Y-126943952D01*
X190230380Y-126896333D01*
X190325619Y-126848714D01*
X190420857Y-126848714D01*
X191135142Y-127467761D02*
X191039904Y-127515380D01*
X190849428Y-127515380D01*
X190754190Y-127467761D01*
X190706571Y-127372523D01*
X190706571Y-126991571D01*
X190754190Y-126896333D01*
X190849428Y-126848714D01*
X191039904Y-126848714D01*
X191135142Y-126896333D01*
X191182761Y-126991571D01*
X191182761Y-127086809D01*
X190706571Y-127182047D01*
X192373238Y-127515380D02*
X192373238Y-126515380D01*
X192754190Y-126515380D01*
X192849428Y-126563000D01*
X192897047Y-126610619D01*
X192944666Y-126705857D01*
X192944666Y-126848714D01*
X192897047Y-126943952D01*
X192849428Y-126991571D01*
X192754190Y-127039190D01*
X192373238Y-127039190D01*
X193516095Y-127515380D02*
X193420857Y-127467761D01*
X193373238Y-127420142D01*
X193325619Y-127324904D01*
X193325619Y-127039190D01*
X193373238Y-126943952D01*
X193420857Y-126896333D01*
X193516095Y-126848714D01*
X193658952Y-126848714D01*
X193754190Y-126896333D01*
X193801809Y-126943952D01*
X193849428Y-127039190D01*
X193849428Y-127324904D01*
X193801809Y-127420142D01*
X193754190Y-127467761D01*
X193658952Y-127515380D01*
X193516095Y-127515380D01*
X194230380Y-127467761D02*
X194325619Y-127515380D01*
X194516095Y-127515380D01*
X194611333Y-127467761D01*
X194658952Y-127372523D01*
X194658952Y-127324904D01*
X194611333Y-127229666D01*
X194516095Y-127182047D01*
X194373238Y-127182047D01*
X194278000Y-127134428D01*
X194230380Y-127039190D01*
X194230380Y-126991571D01*
X194278000Y-126896333D01*
X194373238Y-126848714D01*
X194516095Y-126848714D01*
X194611333Y-126896333D01*
X195087523Y-127515380D02*
X195087523Y-126848714D01*
X195087523Y-126515380D02*
X195039904Y-126563000D01*
X195087523Y-126610619D01*
X195135142Y-126563000D01*
X195087523Y-126515380D01*
X195087523Y-126610619D01*
X195420857Y-126848714D02*
X195801809Y-126848714D01*
X195563714Y-126515380D02*
X195563714Y-127372523D01*
X195611333Y-127467761D01*
X195706571Y-127515380D01*
X195801809Y-127515380D01*
X196135142Y-127515380D02*
X196135142Y-126848714D01*
X196135142Y-126515380D02*
X196087523Y-126563000D01*
X196135142Y-126610619D01*
X196182761Y-126563000D01*
X196135142Y-126515380D01*
X196135142Y-126610619D01*
X196516095Y-126848714D02*
X196754190Y-127515380D01*
X196992285Y-126848714D01*
X197754190Y-127467761D02*
X197658952Y-127515380D01*
X197468476Y-127515380D01*
X197373238Y-127467761D01*
X197325619Y-127372523D01*
X197325619Y-126991571D01*
X197373238Y-126896333D01*
X197468476Y-126848714D01*
X197658952Y-126848714D01*
X197754190Y-126896333D01*
X197801809Y-126991571D01*
X197801809Y-127086809D01*
X197325619Y-127182047D01*
D11*
%TO.C,C4*%
X164560000Y-139680000D02*
G75*
G03*
X164560000Y-139680000I-3270000J0D01*
G01*
X164520000Y-139680000D02*
X158060000Y-139680000D01*
X164520000Y-139720000D02*
X158060000Y-139720000D01*
X164520000Y-139760000D02*
X158060000Y-139760000D01*
X164518000Y-139800000D02*
X158062000Y-139800000D01*
X164517000Y-139840000D02*
X158063000Y-139840000D01*
X164514000Y-139880000D02*
X158066000Y-139880000D01*
X164512000Y-139920000D02*
X162330000Y-139920000D01*
X160250000Y-139920000D02*
X158068000Y-139920000D01*
X164508000Y-139960000D02*
X162330000Y-139960000D01*
X160250000Y-139960000D02*
X158072000Y-139960000D01*
X164505000Y-140000000D02*
X162330000Y-140000000D01*
X160250000Y-140000000D02*
X158075000Y-140000000D01*
X164501000Y-140040000D02*
X162330000Y-140040000D01*
X160250000Y-140040000D02*
X158079000Y-140040000D01*
X164496000Y-140080000D02*
X162330000Y-140080000D01*
X160250000Y-140080000D02*
X158084000Y-140080000D01*
X164491000Y-140120000D02*
X162330000Y-140120000D01*
X160250000Y-140120000D02*
X158089000Y-140120000D01*
X164485000Y-140160000D02*
X162330000Y-140160000D01*
X160250000Y-140160000D02*
X158095000Y-140160000D01*
X164479000Y-140200000D02*
X162330000Y-140200000D01*
X160250000Y-140200000D02*
X158101000Y-140200000D01*
X164472000Y-140240000D02*
X162330000Y-140240000D01*
X160250000Y-140240000D02*
X158108000Y-140240000D01*
X164465000Y-140280000D02*
X162330000Y-140280000D01*
X160250000Y-140280000D02*
X158115000Y-140280000D01*
X164457000Y-140320000D02*
X162330000Y-140320000D01*
X160250000Y-140320000D02*
X158123000Y-140320000D01*
X164449000Y-140360000D02*
X162330000Y-140360000D01*
X160250000Y-140360000D02*
X158131000Y-140360000D01*
X164440000Y-140401000D02*
X162330000Y-140401000D01*
X160250000Y-140401000D02*
X158140000Y-140401000D01*
X164431000Y-140441000D02*
X162330000Y-140441000D01*
X160250000Y-140441000D02*
X158149000Y-140441000D01*
X164421000Y-140481000D02*
X162330000Y-140481000D01*
X160250000Y-140481000D02*
X158159000Y-140481000D01*
X164411000Y-140521000D02*
X162330000Y-140521000D01*
X160250000Y-140521000D02*
X158169000Y-140521000D01*
X164400000Y-140561000D02*
X162330000Y-140561000D01*
X160250000Y-140561000D02*
X158180000Y-140561000D01*
X164388000Y-140601000D02*
X162330000Y-140601000D01*
X160250000Y-140601000D02*
X158192000Y-140601000D01*
X164376000Y-140641000D02*
X162330000Y-140641000D01*
X160250000Y-140641000D02*
X158204000Y-140641000D01*
X164364000Y-140681000D02*
X162330000Y-140681000D01*
X160250000Y-140681000D02*
X158216000Y-140681000D01*
X164351000Y-140721000D02*
X162330000Y-140721000D01*
X160250000Y-140721000D02*
X158229000Y-140721000D01*
X164337000Y-140761000D02*
X162330000Y-140761000D01*
X160250000Y-140761000D02*
X158243000Y-140761000D01*
X164323000Y-140801000D02*
X162330000Y-140801000D01*
X160250000Y-140801000D02*
X158257000Y-140801000D01*
X164308000Y-140841000D02*
X162330000Y-140841000D01*
X160250000Y-140841000D02*
X158272000Y-140841000D01*
X164292000Y-140881000D02*
X162330000Y-140881000D01*
X160250000Y-140881000D02*
X158288000Y-140881000D01*
X164276000Y-140921000D02*
X162330000Y-140921000D01*
X160250000Y-140921000D02*
X158304000Y-140921000D01*
X164260000Y-140961000D02*
X162330000Y-140961000D01*
X160250000Y-140961000D02*
X158320000Y-140961000D01*
X164242000Y-141001000D02*
X162330000Y-141001000D01*
X160250000Y-141001000D02*
X158338000Y-141001000D01*
X164224000Y-141041000D02*
X162330000Y-141041000D01*
X160250000Y-141041000D02*
X158356000Y-141041000D01*
X164206000Y-141081000D02*
X162330000Y-141081000D01*
X160250000Y-141081000D02*
X158374000Y-141081000D01*
X164186000Y-141121000D02*
X162330000Y-141121000D01*
X160250000Y-141121000D02*
X158394000Y-141121000D01*
X164166000Y-141161000D02*
X162330000Y-141161000D01*
X160250000Y-141161000D02*
X158414000Y-141161000D01*
X164146000Y-141201000D02*
X162330000Y-141201000D01*
X160250000Y-141201000D02*
X158434000Y-141201000D01*
X164124000Y-141241000D02*
X162330000Y-141241000D01*
X160250000Y-141241000D02*
X158456000Y-141241000D01*
X164102000Y-141281000D02*
X162330000Y-141281000D01*
X160250000Y-141281000D02*
X158478000Y-141281000D01*
X164080000Y-141321000D02*
X162330000Y-141321000D01*
X160250000Y-141321000D02*
X158500000Y-141321000D01*
X164056000Y-141361000D02*
X162330000Y-141361000D01*
X160250000Y-141361000D02*
X158524000Y-141361000D01*
X164032000Y-141401000D02*
X162330000Y-141401000D01*
X160250000Y-141401000D02*
X158548000Y-141401000D01*
X164006000Y-141441000D02*
X162330000Y-141441000D01*
X160250000Y-141441000D02*
X158574000Y-141441000D01*
X163980000Y-141481000D02*
X162330000Y-141481000D01*
X160250000Y-141481000D02*
X158600000Y-141481000D01*
X163954000Y-141521000D02*
X162330000Y-141521000D01*
X160250000Y-141521000D02*
X158626000Y-141521000D01*
X163926000Y-141561000D02*
X162330000Y-141561000D01*
X160250000Y-141561000D02*
X158654000Y-141561000D01*
X163897000Y-141601000D02*
X162330000Y-141601000D01*
X160250000Y-141601000D02*
X158683000Y-141601000D01*
X163868000Y-141641000D02*
X162330000Y-141641000D01*
X160250000Y-141641000D02*
X158712000Y-141641000D01*
X163838000Y-141681000D02*
X162330000Y-141681000D01*
X160250000Y-141681000D02*
X158742000Y-141681000D01*
X163806000Y-141721000D02*
X162330000Y-141721000D01*
X160250000Y-141721000D02*
X158774000Y-141721000D01*
X163774000Y-141761000D02*
X162330000Y-141761000D01*
X160250000Y-141761000D02*
X158806000Y-141761000D01*
X163740000Y-141801000D02*
X162330000Y-141801000D01*
X160250000Y-141801000D02*
X158840000Y-141801000D01*
X163706000Y-141841000D02*
X162330000Y-141841000D01*
X160250000Y-141841000D02*
X158874000Y-141841000D01*
X163670000Y-141881000D02*
X162330000Y-141881000D01*
X160250000Y-141881000D02*
X158910000Y-141881000D01*
X163633000Y-141921000D02*
X162330000Y-141921000D01*
X160250000Y-141921000D02*
X158947000Y-141921000D01*
X163595000Y-141961000D02*
X162330000Y-141961000D01*
X160250000Y-141961000D02*
X158985000Y-141961000D01*
X163555000Y-142001000D02*
X159025000Y-142001000D01*
X163514000Y-142041000D02*
X159066000Y-142041000D01*
X163472000Y-142081000D02*
X159108000Y-142081000D01*
X163427000Y-142121000D02*
X159153000Y-142121000D01*
X163382000Y-142161000D02*
X159198000Y-142161000D01*
X163334000Y-142201000D02*
X159246000Y-142201000D01*
X163285000Y-142241000D02*
X159295000Y-142241000D01*
X163234000Y-142281000D02*
X159346000Y-142281000D01*
X163180000Y-142321000D02*
X159400000Y-142321000D01*
X163124000Y-142361000D02*
X159456000Y-142361000D01*
X163066000Y-142401000D02*
X159514000Y-142401000D01*
X163004000Y-142441000D02*
X159576000Y-142441000D01*
X162940000Y-142481000D02*
X159640000Y-142481000D01*
X162871000Y-142521000D02*
X159709000Y-142521000D01*
X162799000Y-142561000D02*
X159781000Y-142561000D01*
X162722000Y-142601000D02*
X159858000Y-142601000D01*
X162640000Y-142641000D02*
X159940000Y-142641000D01*
X162552000Y-142681000D02*
X160028000Y-142681000D01*
X162455000Y-142721000D02*
X160125000Y-142721000D01*
X162349000Y-142761000D02*
X160231000Y-142761000D01*
X162230000Y-142801000D02*
X160350000Y-142801000D01*
X162092000Y-142841000D02*
X160488000Y-142841000D01*
X161923000Y-142881000D02*
X160657000Y-142881000D01*
X161692000Y-142921000D02*
X160888000Y-142921000D01*
X163129000Y-136179759D02*
X163129000Y-136809759D01*
X163444000Y-136494759D02*
X162814000Y-136494759D01*
%TO.C,SW1*%
X195160000Y-137580000D02*
X199660000Y-137580000D01*
X193910000Y-133580000D02*
X193910000Y-135080000D01*
X199660000Y-131080000D02*
X195160000Y-131080000D01*
X200910000Y-135080000D02*
X200910000Y-133580000D01*
%TO.C,U1*%
X154880000Y-120380000D02*
X154880000Y-122030000D01*
X154880000Y-122030000D02*
X165160000Y-122030000D01*
X165160000Y-122030000D02*
X165160000Y-116730000D01*
X165160000Y-116730000D02*
X154880000Y-116730000D01*
X154880000Y-116730000D02*
X154880000Y-118380000D01*
X154880000Y-118380000D02*
G75*
G02*
X154880000Y-120380000I0J-1000000D01*
G01*
%TO.C,C2*%
X179456000Y-122585241D02*
X180086000Y-122585241D01*
X179771000Y-122900241D02*
X179771000Y-122270241D01*
X181208000Y-116159000D02*
X182012000Y-116159000D01*
X180977000Y-116199000D02*
X182243000Y-116199000D01*
X180808000Y-116239000D02*
X182412000Y-116239000D01*
X180670000Y-116279000D02*
X182550000Y-116279000D01*
X180551000Y-116319000D02*
X182669000Y-116319000D01*
X180445000Y-116359000D02*
X182775000Y-116359000D01*
X180348000Y-116399000D02*
X182872000Y-116399000D01*
X180260000Y-116439000D02*
X182960000Y-116439000D01*
X180178000Y-116479000D02*
X183042000Y-116479000D01*
X180101000Y-116519000D02*
X183119000Y-116519000D01*
X180029000Y-116559000D02*
X183191000Y-116559000D01*
X179960000Y-116599000D02*
X183260000Y-116599000D01*
X179896000Y-116639000D02*
X183324000Y-116639000D01*
X179834000Y-116679000D02*
X183386000Y-116679000D01*
X179776000Y-116719000D02*
X183444000Y-116719000D01*
X179720000Y-116759000D02*
X183500000Y-116759000D01*
X179666000Y-116799000D02*
X183554000Y-116799000D01*
X179615000Y-116839000D02*
X183605000Y-116839000D01*
X179566000Y-116879000D02*
X183654000Y-116879000D01*
X179518000Y-116919000D02*
X183702000Y-116919000D01*
X179473000Y-116959000D02*
X183747000Y-116959000D01*
X179428000Y-116999000D02*
X183792000Y-116999000D01*
X179386000Y-117039000D02*
X183834000Y-117039000D01*
X179345000Y-117079000D02*
X183875000Y-117079000D01*
X182650000Y-117119000D02*
X183915000Y-117119000D01*
X179305000Y-117119000D02*
X180570000Y-117119000D01*
X182650000Y-117159000D02*
X183953000Y-117159000D01*
X179267000Y-117159000D02*
X180570000Y-117159000D01*
X182650000Y-117199000D02*
X183990000Y-117199000D01*
X179230000Y-117199000D02*
X180570000Y-117199000D01*
X182650000Y-117239000D02*
X184026000Y-117239000D01*
X179194000Y-117239000D02*
X180570000Y-117239000D01*
X182650000Y-117279000D02*
X184060000Y-117279000D01*
X179160000Y-117279000D02*
X180570000Y-117279000D01*
X182650000Y-117319000D02*
X184094000Y-117319000D01*
X179126000Y-117319000D02*
X180570000Y-117319000D01*
X182650000Y-117359000D02*
X184126000Y-117359000D01*
X179094000Y-117359000D02*
X180570000Y-117359000D01*
X182650000Y-117399000D02*
X184158000Y-117399000D01*
X179062000Y-117399000D02*
X180570000Y-117399000D01*
X182650000Y-117439000D02*
X184188000Y-117439000D01*
X179032000Y-117439000D02*
X180570000Y-117439000D01*
X182650000Y-117479000D02*
X184217000Y-117479000D01*
X179003000Y-117479000D02*
X180570000Y-117479000D01*
X182650000Y-117519000D02*
X184246000Y-117519000D01*
X178974000Y-117519000D02*
X180570000Y-117519000D01*
X182650000Y-117559000D02*
X184274000Y-117559000D01*
X178946000Y-117559000D02*
X180570000Y-117559000D01*
X182650000Y-117599000D02*
X184300000Y-117599000D01*
X178920000Y-117599000D02*
X180570000Y-117599000D01*
X182650000Y-117639000D02*
X184326000Y-117639000D01*
X178894000Y-117639000D02*
X180570000Y-117639000D01*
X182650000Y-117679000D02*
X184352000Y-117679000D01*
X178868000Y-117679000D02*
X180570000Y-117679000D01*
X182650000Y-117719000D02*
X184376000Y-117719000D01*
X178844000Y-117719000D02*
X180570000Y-117719000D01*
X182650000Y-117759000D02*
X184400000Y-117759000D01*
X178820000Y-117759000D02*
X180570000Y-117759000D01*
X182650000Y-117799000D02*
X184422000Y-117799000D01*
X178798000Y-117799000D02*
X180570000Y-117799000D01*
X182650000Y-117839000D02*
X184444000Y-117839000D01*
X178776000Y-117839000D02*
X180570000Y-117839000D01*
X182650000Y-117879000D02*
X184466000Y-117879000D01*
X178754000Y-117879000D02*
X180570000Y-117879000D01*
X182650000Y-117919000D02*
X184486000Y-117919000D01*
X178734000Y-117919000D02*
X180570000Y-117919000D01*
X182650000Y-117959000D02*
X184506000Y-117959000D01*
X178714000Y-117959000D02*
X180570000Y-117959000D01*
X182650000Y-117999000D02*
X184526000Y-117999000D01*
X178694000Y-117999000D02*
X180570000Y-117999000D01*
X182650000Y-118039000D02*
X184544000Y-118039000D01*
X178676000Y-118039000D02*
X180570000Y-118039000D01*
X182650000Y-118079000D02*
X184562000Y-118079000D01*
X178658000Y-118079000D02*
X180570000Y-118079000D01*
X182650000Y-118119000D02*
X184580000Y-118119000D01*
X178640000Y-118119000D02*
X180570000Y-118119000D01*
X182650000Y-118159000D02*
X184596000Y-118159000D01*
X178624000Y-118159000D02*
X180570000Y-118159000D01*
X182650000Y-118199000D02*
X184612000Y-118199000D01*
X178608000Y-118199000D02*
X180570000Y-118199000D01*
X182650000Y-118239000D02*
X184628000Y-118239000D01*
X178592000Y-118239000D02*
X180570000Y-118239000D01*
X182650000Y-118279000D02*
X184643000Y-118279000D01*
X178577000Y-118279000D02*
X180570000Y-118279000D01*
X182650000Y-118319000D02*
X184657000Y-118319000D01*
X178563000Y-118319000D02*
X180570000Y-118319000D01*
X182650000Y-118359000D02*
X184671000Y-118359000D01*
X178549000Y-118359000D02*
X180570000Y-118359000D01*
X182650000Y-118399000D02*
X184684000Y-118399000D01*
X178536000Y-118399000D02*
X180570000Y-118399000D01*
X182650000Y-118439000D02*
X184696000Y-118439000D01*
X178524000Y-118439000D02*
X180570000Y-118439000D01*
X182650000Y-118479000D02*
X184708000Y-118479000D01*
X178512000Y-118479000D02*
X180570000Y-118479000D01*
X182650000Y-118519000D02*
X184720000Y-118519000D01*
X178500000Y-118519000D02*
X180570000Y-118519000D01*
X182650000Y-118559000D02*
X184731000Y-118559000D01*
X178489000Y-118559000D02*
X180570000Y-118559000D01*
X182650000Y-118599000D02*
X184741000Y-118599000D01*
X178479000Y-118599000D02*
X180570000Y-118599000D01*
X182650000Y-118639000D02*
X184751000Y-118639000D01*
X178469000Y-118639000D02*
X180570000Y-118639000D01*
X182650000Y-118679000D02*
X184760000Y-118679000D01*
X178460000Y-118679000D02*
X180570000Y-118679000D01*
X182650000Y-118720000D02*
X184769000Y-118720000D01*
X178451000Y-118720000D02*
X180570000Y-118720000D01*
X182650000Y-118760000D02*
X184777000Y-118760000D01*
X178443000Y-118760000D02*
X180570000Y-118760000D01*
X182650000Y-118800000D02*
X184785000Y-118800000D01*
X178435000Y-118800000D02*
X180570000Y-118800000D01*
X182650000Y-118840000D02*
X184792000Y-118840000D01*
X178428000Y-118840000D02*
X180570000Y-118840000D01*
X182650000Y-118880000D02*
X184799000Y-118880000D01*
X178421000Y-118880000D02*
X180570000Y-118880000D01*
X182650000Y-118920000D02*
X184805000Y-118920000D01*
X178415000Y-118920000D02*
X180570000Y-118920000D01*
X182650000Y-118960000D02*
X184811000Y-118960000D01*
X178409000Y-118960000D02*
X180570000Y-118960000D01*
X182650000Y-119000000D02*
X184816000Y-119000000D01*
X178404000Y-119000000D02*
X180570000Y-119000000D01*
X182650000Y-119040000D02*
X184821000Y-119040000D01*
X178399000Y-119040000D02*
X180570000Y-119040000D01*
X182650000Y-119080000D02*
X184825000Y-119080000D01*
X178395000Y-119080000D02*
X180570000Y-119080000D01*
X182650000Y-119120000D02*
X184828000Y-119120000D01*
X178392000Y-119120000D02*
X180570000Y-119120000D01*
X182650000Y-119160000D02*
X184832000Y-119160000D01*
X178388000Y-119160000D02*
X180570000Y-119160000D01*
X178386000Y-119200000D02*
X184834000Y-119200000D01*
X178383000Y-119240000D02*
X184837000Y-119240000D01*
X178382000Y-119280000D02*
X184838000Y-119280000D01*
X178380000Y-119320000D02*
X184840000Y-119320000D01*
X178380000Y-119360000D02*
X184840000Y-119360000D01*
X178380000Y-119400000D02*
X184840000Y-119400000D01*
X184880000Y-119400000D02*
G75*
G03*
X184880000Y-119400000I-3270000J0D01*
G01*
%TO.C,C1*%
X175990000Y-119400000D02*
G75*
G03*
X175990000Y-119400000I-3270000J0D01*
G01*
X169490000Y-119400000D02*
X175950000Y-119400000D01*
X169490000Y-119360000D02*
X175950000Y-119360000D01*
X169490000Y-119320000D02*
X175950000Y-119320000D01*
X169492000Y-119280000D02*
X175948000Y-119280000D01*
X169493000Y-119240000D02*
X175947000Y-119240000D01*
X169496000Y-119200000D02*
X175944000Y-119200000D01*
X169498000Y-119160000D02*
X171680000Y-119160000D01*
X173760000Y-119160000D02*
X175942000Y-119160000D01*
X169502000Y-119120000D02*
X171680000Y-119120000D01*
X173760000Y-119120000D02*
X175938000Y-119120000D01*
X169505000Y-119080000D02*
X171680000Y-119080000D01*
X173760000Y-119080000D02*
X175935000Y-119080000D01*
X169509000Y-119040000D02*
X171680000Y-119040000D01*
X173760000Y-119040000D02*
X175931000Y-119040000D01*
X169514000Y-119000000D02*
X171680000Y-119000000D01*
X173760000Y-119000000D02*
X175926000Y-119000000D01*
X169519000Y-118960000D02*
X171680000Y-118960000D01*
X173760000Y-118960000D02*
X175921000Y-118960000D01*
X169525000Y-118920000D02*
X171680000Y-118920000D01*
X173760000Y-118920000D02*
X175915000Y-118920000D01*
X169531000Y-118880000D02*
X171680000Y-118880000D01*
X173760000Y-118880000D02*
X175909000Y-118880000D01*
X169538000Y-118840000D02*
X171680000Y-118840000D01*
X173760000Y-118840000D02*
X175902000Y-118840000D01*
X169545000Y-118800000D02*
X171680000Y-118800000D01*
X173760000Y-118800000D02*
X175895000Y-118800000D01*
X169553000Y-118760000D02*
X171680000Y-118760000D01*
X173760000Y-118760000D02*
X175887000Y-118760000D01*
X169561000Y-118720000D02*
X171680000Y-118720000D01*
X173760000Y-118720000D02*
X175879000Y-118720000D01*
X169570000Y-118679000D02*
X171680000Y-118679000D01*
X173760000Y-118679000D02*
X175870000Y-118679000D01*
X169579000Y-118639000D02*
X171680000Y-118639000D01*
X173760000Y-118639000D02*
X175861000Y-118639000D01*
X169589000Y-118599000D02*
X171680000Y-118599000D01*
X173760000Y-118599000D02*
X175851000Y-118599000D01*
X169599000Y-118559000D02*
X171680000Y-118559000D01*
X173760000Y-118559000D02*
X175841000Y-118559000D01*
X169610000Y-118519000D02*
X171680000Y-118519000D01*
X173760000Y-118519000D02*
X175830000Y-118519000D01*
X169622000Y-118479000D02*
X171680000Y-118479000D01*
X173760000Y-118479000D02*
X175818000Y-118479000D01*
X169634000Y-118439000D02*
X171680000Y-118439000D01*
X173760000Y-118439000D02*
X175806000Y-118439000D01*
X169646000Y-118399000D02*
X171680000Y-118399000D01*
X173760000Y-118399000D02*
X175794000Y-118399000D01*
X169659000Y-118359000D02*
X171680000Y-118359000D01*
X173760000Y-118359000D02*
X175781000Y-118359000D01*
X169673000Y-118319000D02*
X171680000Y-118319000D01*
X173760000Y-118319000D02*
X175767000Y-118319000D01*
X169687000Y-118279000D02*
X171680000Y-118279000D01*
X173760000Y-118279000D02*
X175753000Y-118279000D01*
X169702000Y-118239000D02*
X171680000Y-118239000D01*
X173760000Y-118239000D02*
X175738000Y-118239000D01*
X169718000Y-118199000D02*
X171680000Y-118199000D01*
X173760000Y-118199000D02*
X175722000Y-118199000D01*
X169734000Y-118159000D02*
X171680000Y-118159000D01*
X173760000Y-118159000D02*
X175706000Y-118159000D01*
X169750000Y-118119000D02*
X171680000Y-118119000D01*
X173760000Y-118119000D02*
X175690000Y-118119000D01*
X169768000Y-118079000D02*
X171680000Y-118079000D01*
X173760000Y-118079000D02*
X175672000Y-118079000D01*
X169786000Y-118039000D02*
X171680000Y-118039000D01*
X173760000Y-118039000D02*
X175654000Y-118039000D01*
X169804000Y-117999000D02*
X171680000Y-117999000D01*
X173760000Y-117999000D02*
X175636000Y-117999000D01*
X169824000Y-117959000D02*
X171680000Y-117959000D01*
X173760000Y-117959000D02*
X175616000Y-117959000D01*
X169844000Y-117919000D02*
X171680000Y-117919000D01*
X173760000Y-117919000D02*
X175596000Y-117919000D01*
X169864000Y-117879000D02*
X171680000Y-117879000D01*
X173760000Y-117879000D02*
X175576000Y-117879000D01*
X169886000Y-117839000D02*
X171680000Y-117839000D01*
X173760000Y-117839000D02*
X175554000Y-117839000D01*
X169908000Y-117799000D02*
X171680000Y-117799000D01*
X173760000Y-117799000D02*
X175532000Y-117799000D01*
X169930000Y-117759000D02*
X171680000Y-117759000D01*
X173760000Y-117759000D02*
X175510000Y-117759000D01*
X169954000Y-117719000D02*
X171680000Y-117719000D01*
X173760000Y-117719000D02*
X175486000Y-117719000D01*
X169978000Y-117679000D02*
X171680000Y-117679000D01*
X173760000Y-117679000D02*
X175462000Y-117679000D01*
X170004000Y-117639000D02*
X171680000Y-117639000D01*
X173760000Y-117639000D02*
X175436000Y-117639000D01*
X170030000Y-117599000D02*
X171680000Y-117599000D01*
X173760000Y-117599000D02*
X175410000Y-117599000D01*
X170056000Y-117559000D02*
X171680000Y-117559000D01*
X173760000Y-117559000D02*
X175384000Y-117559000D01*
X170084000Y-117519000D02*
X171680000Y-117519000D01*
X173760000Y-117519000D02*
X175356000Y-117519000D01*
X170113000Y-117479000D02*
X171680000Y-117479000D01*
X173760000Y-117479000D02*
X175327000Y-117479000D01*
X170142000Y-117439000D02*
X171680000Y-117439000D01*
X173760000Y-117439000D02*
X175298000Y-117439000D01*
X170172000Y-117399000D02*
X171680000Y-117399000D01*
X173760000Y-117399000D02*
X175268000Y-117399000D01*
X170204000Y-117359000D02*
X171680000Y-117359000D01*
X173760000Y-117359000D02*
X175236000Y-117359000D01*
X170236000Y-117319000D02*
X171680000Y-117319000D01*
X173760000Y-117319000D02*
X175204000Y-117319000D01*
X170270000Y-117279000D02*
X171680000Y-117279000D01*
X173760000Y-117279000D02*
X175170000Y-117279000D01*
X170304000Y-117239000D02*
X171680000Y-117239000D01*
X173760000Y-117239000D02*
X175136000Y-117239000D01*
X170340000Y-117199000D02*
X171680000Y-117199000D01*
X173760000Y-117199000D02*
X175100000Y-117199000D01*
X170377000Y-117159000D02*
X171680000Y-117159000D01*
X173760000Y-117159000D02*
X175063000Y-117159000D01*
X170415000Y-117119000D02*
X171680000Y-117119000D01*
X173760000Y-117119000D02*
X175025000Y-117119000D01*
X170455000Y-117079000D02*
X174985000Y-117079000D01*
X170496000Y-117039000D02*
X174944000Y-117039000D01*
X170538000Y-116999000D02*
X174902000Y-116999000D01*
X170583000Y-116959000D02*
X174857000Y-116959000D01*
X170628000Y-116919000D02*
X174812000Y-116919000D01*
X170676000Y-116879000D02*
X174764000Y-116879000D01*
X170725000Y-116839000D02*
X174715000Y-116839000D01*
X170776000Y-116799000D02*
X174664000Y-116799000D01*
X170830000Y-116759000D02*
X174610000Y-116759000D01*
X170886000Y-116719000D02*
X174554000Y-116719000D01*
X170944000Y-116679000D02*
X174496000Y-116679000D01*
X171006000Y-116639000D02*
X174434000Y-116639000D01*
X171070000Y-116599000D02*
X174370000Y-116599000D01*
X171139000Y-116559000D02*
X174301000Y-116559000D01*
X171211000Y-116519000D02*
X174229000Y-116519000D01*
X171288000Y-116479000D02*
X174152000Y-116479000D01*
X171370000Y-116439000D02*
X174070000Y-116439000D01*
X171458000Y-116399000D02*
X173982000Y-116399000D01*
X171555000Y-116359000D02*
X173885000Y-116359000D01*
X171661000Y-116319000D02*
X173779000Y-116319000D01*
X171780000Y-116279000D02*
X173660000Y-116279000D01*
X171918000Y-116239000D02*
X173522000Y-116239000D01*
X172087000Y-116199000D02*
X173353000Y-116199000D01*
X172318000Y-116159000D02*
X173122000Y-116159000D01*
X170881000Y-122900241D02*
X170881000Y-122270241D01*
X170566000Y-122585241D02*
X171196000Y-122585241D01*
%TO.C,C3*%
X162330000Y-110640000D02*
X162330000Y-112880000D01*
X155090000Y-110640000D02*
X155090000Y-112880000D01*
X155090000Y-112880000D02*
X162330000Y-112880000D01*
X155090000Y-110640000D02*
X162330000Y-110640000D01*
%TO.C,C5*%
X153284000Y-136494759D02*
X152654000Y-136494759D01*
X152969000Y-136179759D02*
X152969000Y-136809759D01*
X151532000Y-142921000D02*
X150728000Y-142921000D01*
X151763000Y-142881000D02*
X150497000Y-142881000D01*
X151932000Y-142841000D02*
X150328000Y-142841000D01*
X152070000Y-142801000D02*
X150190000Y-142801000D01*
X152189000Y-142761000D02*
X150071000Y-142761000D01*
X152295000Y-142721000D02*
X149965000Y-142721000D01*
X152392000Y-142681000D02*
X149868000Y-142681000D01*
X152480000Y-142641000D02*
X149780000Y-142641000D01*
X152562000Y-142601000D02*
X149698000Y-142601000D01*
X152639000Y-142561000D02*
X149621000Y-142561000D01*
X152711000Y-142521000D02*
X149549000Y-142521000D01*
X152780000Y-142481000D02*
X149480000Y-142481000D01*
X152844000Y-142441000D02*
X149416000Y-142441000D01*
X152906000Y-142401000D02*
X149354000Y-142401000D01*
X152964000Y-142361000D02*
X149296000Y-142361000D01*
X153020000Y-142321000D02*
X149240000Y-142321000D01*
X153074000Y-142281000D02*
X149186000Y-142281000D01*
X153125000Y-142241000D02*
X149135000Y-142241000D01*
X153174000Y-142201000D02*
X149086000Y-142201000D01*
X153222000Y-142161000D02*
X149038000Y-142161000D01*
X153267000Y-142121000D02*
X148993000Y-142121000D01*
X153312000Y-142081000D02*
X148948000Y-142081000D01*
X153354000Y-142041000D02*
X148906000Y-142041000D01*
X153395000Y-142001000D02*
X148865000Y-142001000D01*
X150090000Y-141961000D02*
X148825000Y-141961000D01*
X153435000Y-141961000D02*
X152170000Y-141961000D01*
X150090000Y-141921000D02*
X148787000Y-141921000D01*
X153473000Y-141921000D02*
X152170000Y-141921000D01*
X150090000Y-141881000D02*
X148750000Y-141881000D01*
X153510000Y-141881000D02*
X152170000Y-141881000D01*
X150090000Y-141841000D02*
X148714000Y-141841000D01*
X153546000Y-141841000D02*
X152170000Y-141841000D01*
X150090000Y-141801000D02*
X148680000Y-141801000D01*
X153580000Y-141801000D02*
X152170000Y-141801000D01*
X150090000Y-141761000D02*
X148646000Y-141761000D01*
X153614000Y-141761000D02*
X152170000Y-141761000D01*
X150090000Y-141721000D02*
X148614000Y-141721000D01*
X153646000Y-141721000D02*
X152170000Y-141721000D01*
X150090000Y-141681000D02*
X148582000Y-141681000D01*
X153678000Y-141681000D02*
X152170000Y-141681000D01*
X150090000Y-141641000D02*
X148552000Y-141641000D01*
X153708000Y-141641000D02*
X152170000Y-141641000D01*
X150090000Y-141601000D02*
X148523000Y-141601000D01*
X153737000Y-141601000D02*
X152170000Y-141601000D01*
X150090000Y-141561000D02*
X148494000Y-141561000D01*
X153766000Y-141561000D02*
X152170000Y-141561000D01*
X150090000Y-141521000D02*
X148466000Y-141521000D01*
X153794000Y-141521000D02*
X152170000Y-141521000D01*
X150090000Y-141481000D02*
X148440000Y-141481000D01*
X153820000Y-141481000D02*
X152170000Y-141481000D01*
X150090000Y-141441000D02*
X148414000Y-141441000D01*
X153846000Y-141441000D02*
X152170000Y-141441000D01*
X150090000Y-141401000D02*
X148388000Y-141401000D01*
X153872000Y-141401000D02*
X152170000Y-141401000D01*
X150090000Y-141361000D02*
X148364000Y-141361000D01*
X153896000Y-141361000D02*
X152170000Y-141361000D01*
X150090000Y-141321000D02*
X148340000Y-141321000D01*
X153920000Y-141321000D02*
X152170000Y-141321000D01*
X150090000Y-141281000D02*
X148318000Y-141281000D01*
X153942000Y-141281000D02*
X152170000Y-141281000D01*
X150090000Y-141241000D02*
X148296000Y-141241000D01*
X153964000Y-141241000D02*
X152170000Y-141241000D01*
X150090000Y-141201000D02*
X148274000Y-141201000D01*
X153986000Y-141201000D02*
X152170000Y-141201000D01*
X150090000Y-141161000D02*
X148254000Y-141161000D01*
X154006000Y-141161000D02*
X152170000Y-141161000D01*
X150090000Y-141121000D02*
X148234000Y-141121000D01*
X154026000Y-141121000D02*
X152170000Y-141121000D01*
X150090000Y-141081000D02*
X148214000Y-141081000D01*
X154046000Y-141081000D02*
X152170000Y-141081000D01*
X150090000Y-141041000D02*
X148196000Y-141041000D01*
X154064000Y-141041000D02*
X152170000Y-141041000D01*
X150090000Y-141001000D02*
X148178000Y-141001000D01*
X154082000Y-141001000D02*
X152170000Y-141001000D01*
X150090000Y-140961000D02*
X148160000Y-140961000D01*
X154100000Y-140961000D02*
X152170000Y-140961000D01*
X150090000Y-140921000D02*
X148144000Y-140921000D01*
X154116000Y-140921000D02*
X152170000Y-140921000D01*
X150090000Y-140881000D02*
X148128000Y-140881000D01*
X154132000Y-140881000D02*
X152170000Y-140881000D01*
X150090000Y-140841000D02*
X148112000Y-140841000D01*
X154148000Y-140841000D02*
X152170000Y-140841000D01*
X150090000Y-140801000D02*
X148097000Y-140801000D01*
X154163000Y-140801000D02*
X152170000Y-140801000D01*
X150090000Y-140761000D02*
X148083000Y-140761000D01*
X154177000Y-140761000D02*
X152170000Y-140761000D01*
X150090000Y-140721000D02*
X148069000Y-140721000D01*
X154191000Y-140721000D02*
X152170000Y-140721000D01*
X150090000Y-140681000D02*
X148056000Y-140681000D01*
X154204000Y-140681000D02*
X152170000Y-140681000D01*
X150090000Y-140641000D02*
X148044000Y-140641000D01*
X154216000Y-140641000D02*
X152170000Y-140641000D01*
X150090000Y-140601000D02*
X148032000Y-140601000D01*
X154228000Y-140601000D02*
X152170000Y-140601000D01*
X150090000Y-140561000D02*
X148020000Y-140561000D01*
X154240000Y-140561000D02*
X152170000Y-140561000D01*
X150090000Y-140521000D02*
X148009000Y-140521000D01*
X154251000Y-140521000D02*
X152170000Y-140521000D01*
X150090000Y-140481000D02*
X147999000Y-140481000D01*
X154261000Y-140481000D02*
X152170000Y-140481000D01*
X150090000Y-140441000D02*
X147989000Y-140441000D01*
X154271000Y-140441000D02*
X152170000Y-140441000D01*
X150090000Y-140401000D02*
X147980000Y-140401000D01*
X154280000Y-140401000D02*
X152170000Y-140401000D01*
X150090000Y-140360000D02*
X147971000Y-140360000D01*
X154289000Y-140360000D02*
X152170000Y-140360000D01*
X150090000Y-140320000D02*
X147963000Y-140320000D01*
X154297000Y-140320000D02*
X152170000Y-140320000D01*
X150090000Y-140280000D02*
X147955000Y-140280000D01*
X154305000Y-140280000D02*
X152170000Y-140280000D01*
X150090000Y-140240000D02*
X147948000Y-140240000D01*
X154312000Y-140240000D02*
X152170000Y-140240000D01*
X150090000Y-140200000D02*
X147941000Y-140200000D01*
X154319000Y-140200000D02*
X152170000Y-140200000D01*
X150090000Y-140160000D02*
X147935000Y-140160000D01*
X154325000Y-140160000D02*
X152170000Y-140160000D01*
X150090000Y-140120000D02*
X147929000Y-140120000D01*
X154331000Y-140120000D02*
X152170000Y-140120000D01*
X150090000Y-140080000D02*
X147924000Y-140080000D01*
X154336000Y-140080000D02*
X152170000Y-140080000D01*
X150090000Y-140040000D02*
X147919000Y-140040000D01*
X154341000Y-140040000D02*
X152170000Y-140040000D01*
X150090000Y-140000000D02*
X147915000Y-140000000D01*
X154345000Y-140000000D02*
X152170000Y-140000000D01*
X150090000Y-139960000D02*
X147912000Y-139960000D01*
X154348000Y-139960000D02*
X152170000Y-139960000D01*
X150090000Y-139920000D02*
X147908000Y-139920000D01*
X154352000Y-139920000D02*
X152170000Y-139920000D01*
X154354000Y-139880000D02*
X147906000Y-139880000D01*
X154357000Y-139840000D02*
X147903000Y-139840000D01*
X154358000Y-139800000D02*
X147902000Y-139800000D01*
X154360000Y-139760000D02*
X147900000Y-139760000D01*
X154360000Y-139720000D02*
X147900000Y-139720000D01*
X154360000Y-139680000D02*
X147900000Y-139680000D01*
X154400000Y-139680000D02*
G75*
G03*
X154400000Y-139680000I-3270000J0D01*
G01*
%TO.C,D0*%
X169890000Y-138464000D02*
X169890000Y-138620000D01*
X169890000Y-140780000D02*
X169890000Y-140936000D01*
X172491130Y-140779837D02*
G75*
G02*
X170409039Y-140780000I-1041130J1079837D01*
G01*
X172491130Y-138620163D02*
G75*
G03*
X170409039Y-138620000I-1041130J-1079837D01*
G01*
X173122335Y-140778608D02*
G75*
G02*
X169890000Y-140935516I-1672335J1078608D01*
G01*
X173122335Y-138621392D02*
G75*
G03*
X169890000Y-138464484I-1672335J-1078608D01*
G01*
%TO.C,D1*%
X115750000Y-143710000D02*
X115750000Y-140770000D01*
X115750000Y-140770000D02*
X110310000Y-140770000D01*
X110310000Y-140770000D02*
X110310000Y-143710000D01*
X110310000Y-143710000D02*
X115750000Y-143710000D01*
X116770000Y-142240000D02*
X115750000Y-142240000D01*
X109290000Y-142240000D02*
X110310000Y-142240000D01*
X114850000Y-143710000D02*
X114850000Y-140770000D01*
X114730000Y-143710000D02*
X114730000Y-140770000D01*
X114970000Y-143710000D02*
X114970000Y-140770000D01*
%TO.C,D2*%
X87030000Y-143710000D02*
X87030000Y-140770000D01*
X86790000Y-143710000D02*
X86790000Y-140770000D01*
X86910000Y-143710000D02*
X86910000Y-140770000D01*
X81350000Y-142240000D02*
X82370000Y-142240000D01*
X88830000Y-142240000D02*
X87810000Y-142240000D01*
X82370000Y-143710000D02*
X87810000Y-143710000D01*
X82370000Y-140770000D02*
X82370000Y-143710000D01*
X87810000Y-140770000D02*
X82370000Y-140770000D01*
X87810000Y-143710000D02*
X87810000Y-140770000D01*
%TO.C,J1*%
X187060000Y-123980000D02*
X187060000Y-121380000D01*
X201760000Y-123980000D02*
X187060000Y-123980000D01*
X187060000Y-114780000D02*
X188960000Y-114780000D01*
X187060000Y-117480000D02*
X187060000Y-114780000D01*
X201760000Y-114780000D02*
X201760000Y-123980000D01*
X192960000Y-114780000D02*
X201760000Y-114780000D01*
X187910000Y-124180000D02*
X186860000Y-124180000D01*
X186860000Y-123130000D02*
X186860000Y-124180000D01*
%TO.C,J2*%
X54330000Y-139700000D02*
X55330000Y-138700000D01*
X54330000Y-139700000D02*
X55330000Y-140700000D01*
X69780000Y-147050000D02*
X54130000Y-147050000D01*
X69780000Y-132350000D02*
X69780000Y-147050000D01*
X54130000Y-132350000D02*
X69780000Y-132350000D01*
X54130000Y-147050000D02*
X54130000Y-132350000D01*
%TO.C,J3*%
X54130000Y-121650000D02*
X54130000Y-106950000D01*
X54130000Y-106950000D02*
X69780000Y-106950000D01*
X69780000Y-106950000D02*
X69780000Y-121650000D01*
X69780000Y-121650000D02*
X54130000Y-121650000D01*
X54330000Y-114300000D02*
X55330000Y-115300000D01*
X54330000Y-114300000D02*
X55330000Y-113300000D01*
%TO.C,J4*%
X54330000Y-88900000D02*
X55330000Y-87900000D01*
X54330000Y-88900000D02*
X55330000Y-89900000D01*
X69780000Y-96250000D02*
X54130000Y-96250000D01*
X69780000Y-81550000D02*
X69780000Y-96250000D01*
X54130000Y-81550000D02*
X69780000Y-81550000D01*
X54130000Y-96250000D02*
X54130000Y-81550000D01*
%TO.C,J5*%
X54130000Y-70850000D02*
X54130000Y-56150000D01*
X54130000Y-56150000D02*
X69780000Y-56150000D01*
X69780000Y-56150000D02*
X69780000Y-70850000D01*
X69780000Y-70850000D02*
X54130000Y-70850000D01*
X54330000Y-63500000D02*
X55330000Y-64500000D01*
X54330000Y-63500000D02*
X55330000Y-62500000D01*
%TO.C,J6*%
X199390000Y-52010000D02*
X199390000Y-54670000D01*
X199390000Y-52010000D02*
X176470000Y-52010000D01*
X176470000Y-52010000D02*
X176470000Y-54670000D01*
X199390000Y-54670000D02*
X176470000Y-54670000D01*
X201990000Y-54670000D02*
X200660000Y-54670000D01*
X201990000Y-53340000D02*
X201990000Y-54670000D01*
%TO.C,R1*%
X102330000Y-140740000D02*
X102330000Y-141070000D01*
X102330000Y-141070000D02*
X95790000Y-141070000D01*
X95790000Y-141070000D02*
X95790000Y-140740000D01*
X102330000Y-138660000D02*
X102330000Y-138330000D01*
X102330000Y-138330000D02*
X95790000Y-138330000D01*
X95790000Y-138330000D02*
X95790000Y-138660000D01*
%TO.C,R2*%
X89630000Y-147420000D02*
X89630000Y-147090000D01*
X83090000Y-147420000D02*
X89630000Y-147420000D01*
X83090000Y-147090000D02*
X83090000Y-147420000D01*
X89630000Y-144680000D02*
X89630000Y-145010000D01*
X83090000Y-144680000D02*
X89630000Y-144680000D01*
X83090000Y-145010000D02*
X83090000Y-144680000D01*
%TO.C,R3*%
X108490000Y-144680000D02*
X108490000Y-145010000D01*
X115030000Y-144680000D02*
X108490000Y-144680000D01*
X115030000Y-145010000D02*
X115030000Y-144680000D01*
X108490000Y-147420000D02*
X108490000Y-147090000D01*
X115030000Y-147420000D02*
X108490000Y-147420000D01*
X115030000Y-147090000D02*
X115030000Y-147420000D01*
%TO.C,R4*%
X108490000Y-135790000D02*
X108490000Y-136120000D01*
X115030000Y-135790000D02*
X108490000Y-135790000D01*
X115030000Y-136120000D02*
X115030000Y-135790000D01*
X108490000Y-138530000D02*
X108490000Y-138200000D01*
X115030000Y-138530000D02*
X108490000Y-138530000D01*
X115030000Y-138200000D02*
X115030000Y-138530000D01*
%TO.C,R5*%
X89630000Y-138200000D02*
X89630000Y-138530000D01*
X89630000Y-138530000D02*
X83090000Y-138530000D01*
X83090000Y-138530000D02*
X83090000Y-138200000D01*
X89630000Y-136120000D02*
X89630000Y-135790000D01*
X89630000Y-135790000D02*
X83090000Y-135790000D01*
X83090000Y-135790000D02*
X83090000Y-136120000D01*
%TO.C,R6*%
X145010000Y-122650000D02*
X144680000Y-122650000D01*
X144680000Y-122650000D02*
X144680000Y-116110000D01*
X144680000Y-116110000D02*
X145010000Y-116110000D01*
X147090000Y-122650000D02*
X147420000Y-122650000D01*
X147420000Y-122650000D02*
X147420000Y-116110000D01*
X147420000Y-116110000D02*
X147090000Y-116110000D01*
%TO.C,R7*%
X141200000Y-122650000D02*
X140870000Y-122650000D01*
X140870000Y-122650000D02*
X140870000Y-116110000D01*
X140870000Y-116110000D02*
X141200000Y-116110000D01*
X143280000Y-122650000D02*
X143610000Y-122650000D01*
X143610000Y-122650000D02*
X143610000Y-116110000D01*
X143610000Y-116110000D02*
X143280000Y-116110000D01*
%TO.C,R8*%
X108490000Y-132310000D02*
X108490000Y-131980000D01*
X108490000Y-131980000D02*
X115030000Y-131980000D01*
X115030000Y-131980000D02*
X115030000Y-132310000D01*
X108490000Y-134390000D02*
X108490000Y-134720000D01*
X108490000Y-134720000D02*
X115030000Y-134720000D01*
X115030000Y-134720000D02*
X115030000Y-134390000D01*
%TO.C,R9*%
X83090000Y-131980000D02*
X83090000Y-132310000D01*
X89630000Y-131980000D02*
X83090000Y-131980000D01*
X89630000Y-132310000D02*
X89630000Y-131980000D01*
X83090000Y-134720000D02*
X83090000Y-134390000D01*
X89630000Y-134720000D02*
X83090000Y-134720000D01*
X89630000Y-134390000D02*
X89630000Y-134720000D01*
%TO.C,R10*%
X136620000Y-111860000D02*
X136620000Y-111530000D01*
X130080000Y-111860000D02*
X136620000Y-111860000D01*
X130080000Y-111530000D02*
X130080000Y-111860000D01*
X136620000Y-109120000D02*
X136620000Y-109450000D01*
X130080000Y-109120000D02*
X136620000Y-109120000D01*
X130080000Y-109450000D02*
X130080000Y-109120000D01*
%TO.C,R11*%
X89630000Y-121690000D02*
X89630000Y-122020000D01*
X89630000Y-122020000D02*
X83090000Y-122020000D01*
X83090000Y-122020000D02*
X83090000Y-121690000D01*
X89630000Y-119610000D02*
X89630000Y-119280000D01*
X89630000Y-119280000D02*
X83090000Y-119280000D01*
X83090000Y-119280000D02*
X83090000Y-119610000D01*
%TO.C,R12*%
X83090000Y-111660000D02*
X83090000Y-111990000D01*
X89630000Y-111660000D02*
X83090000Y-111660000D01*
X89630000Y-111990000D02*
X89630000Y-111660000D01*
X83090000Y-114400000D02*
X83090000Y-114070000D01*
X89630000Y-114400000D02*
X83090000Y-114400000D01*
X89630000Y-114070000D02*
X89630000Y-114400000D01*
%TO.C,R13*%
X83090000Y-115470000D02*
X83090000Y-115800000D01*
X89630000Y-115470000D02*
X83090000Y-115470000D01*
X89630000Y-115800000D02*
X89630000Y-115470000D01*
X83090000Y-118210000D02*
X83090000Y-117880000D01*
X89630000Y-118210000D02*
X83090000Y-118210000D01*
X89630000Y-117880000D02*
X89630000Y-118210000D01*
%TO.C,R_LED1*%
X182980000Y-132620000D02*
X182650000Y-132620000D01*
X182980000Y-139160000D02*
X182980000Y-132620000D01*
X182650000Y-139160000D02*
X182980000Y-139160000D01*
X180240000Y-132620000D02*
X180570000Y-132620000D01*
X180240000Y-139160000D02*
X180240000Y-132620000D01*
X180570000Y-139160000D02*
X180240000Y-139160000D01*
%TO.C,U3*%
X136000000Y-133290000D02*
X134350000Y-133290000D01*
X136000000Y-143570000D02*
X136000000Y-133290000D01*
X130700000Y-143570000D02*
X136000000Y-143570000D01*
X130700000Y-133290000D02*
X130700000Y-143570000D01*
X132350000Y-133290000D02*
X130700000Y-133290000D01*
X134350000Y-133290000D02*
G75*
G02*
X132350000Y-133290000I-1000000J0D01*
G01*
D10*
%TO.C,U4*%
X185420000Y-90170000D02*
X185420000Y-87630000D01*
X185420000Y-87630000D02*
X182880000Y-87630000D01*
X182880000Y-87630000D02*
X182880000Y-90170000D01*
X182880000Y-90170000D02*
X185420000Y-90170000D01*
X177800000Y-81280000D02*
X181610000Y-81280000D01*
X181610000Y-81280000D02*
X181610000Y-83820000D01*
X181610000Y-83820000D02*
X177800000Y-83820000D01*
X177800000Y-83820000D02*
X177800000Y-81280000D01*
X163830000Y-80010000D02*
X163830000Y-92710000D01*
X176530000Y-92710000D02*
X176530000Y-80010000D01*
X176530000Y-80010000D02*
X163830000Y-80010000D01*
X176530000Y-92710000D02*
X163830000Y-92710000D01*
X142240000Y-81280000D02*
X140970000Y-81280000D01*
X142240000Y-82550000D02*
X140970000Y-82550000D01*
X142240000Y-83820000D02*
X140970000Y-83820000D01*
X142240000Y-85090000D02*
X140970000Y-85090000D01*
X142240000Y-86360000D02*
X140970000Y-86360000D01*
X142240000Y-87630000D02*
X140970000Y-87630000D01*
X142240000Y-88900000D02*
X140970000Y-88900000D01*
X142240000Y-90170000D02*
X140970000Y-90170000D01*
X142240000Y-91440000D02*
X140970000Y-91440000D01*
X140970000Y-80010000D02*
X142240000Y-81280000D01*
X142240000Y-81280000D02*
X142240000Y-91440000D01*
X142240000Y-91440000D02*
X140970000Y-92710000D01*
X140970000Y-92710000D02*
X153670000Y-92710000D01*
X153670000Y-92710000D02*
X153670000Y-80010000D01*
X153670000Y-80010000D02*
X140970000Y-80010000D01*
X140970000Y-95250000D02*
X201930000Y-95250000D01*
X201930000Y-77470000D02*
X140970000Y-77470000D01*
X201930000Y-82550000D02*
X203200000Y-82550000D01*
X203200000Y-82550000D02*
X203200000Y-90170000D01*
X203200000Y-90170000D02*
X201930000Y-90170000D01*
X196850000Y-82550000D02*
X196850000Y-90170000D01*
X196850000Y-90170000D02*
X201930000Y-90170000D01*
X196850000Y-82550000D02*
X201930000Y-82550000D01*
X157480000Y-88900000D02*
X157480000Y-83820000D01*
X157480000Y-83820000D02*
X160020000Y-83820000D01*
X160020000Y-83820000D02*
X160020000Y-88900000D01*
X160020000Y-88900000D02*
X157480000Y-88900000D01*
X140970000Y-95250000D02*
X140970000Y-77470000D01*
X201930000Y-77470000D02*
X201930000Y-95250000D01*
D12*
G36*
X170434000Y-91313000D02*
G01*
X170180000Y-91059000D01*
X170561000Y-90805000D01*
X170815000Y-91059000D01*
X170434000Y-91313000D01*
G37*
X170434000Y-91313000D02*
X170180000Y-91059000D01*
X170561000Y-90805000D01*
X170815000Y-91059000D01*
X170434000Y-91313000D01*
G36*
X170688000Y-89789000D02*
G01*
X170434000Y-89535000D01*
X170815000Y-89281000D01*
X171069000Y-89535000D01*
X170688000Y-89789000D01*
G37*
X170688000Y-89789000D02*
X170434000Y-89535000D01*
X170815000Y-89281000D01*
X171069000Y-89535000D01*
X170688000Y-89789000D01*
G36*
X170815000Y-89027000D02*
G01*
X170561000Y-88773000D01*
X170942000Y-88519000D01*
X171196000Y-88773000D01*
X170815000Y-89027000D01*
G37*
X170815000Y-89027000D02*
X170561000Y-88773000D01*
X170942000Y-88519000D01*
X171196000Y-88773000D01*
X170815000Y-89027000D01*
G36*
X169672000Y-90551000D02*
G01*
X169418000Y-90297000D01*
X169799000Y-90043000D01*
X170053000Y-90297000D01*
X169672000Y-90551000D01*
G37*
X169672000Y-90551000D02*
X169418000Y-90297000D01*
X169799000Y-90043000D01*
X170053000Y-90297000D01*
X169672000Y-90551000D01*
G36*
X170307000Y-89408000D02*
G01*
X170053000Y-89154000D01*
X170434000Y-88900000D01*
X170688000Y-89154000D01*
X170307000Y-89408000D01*
G37*
X170307000Y-89408000D02*
X170053000Y-89154000D01*
X170434000Y-88900000D01*
X170688000Y-89154000D01*
X170307000Y-89408000D01*
G36*
X169799000Y-89789000D02*
G01*
X169545000Y-89535000D01*
X169926000Y-89281000D01*
X170180000Y-89535000D01*
X169799000Y-89789000D01*
G37*
X169799000Y-89789000D02*
X169545000Y-89535000D01*
X169926000Y-89281000D01*
X170180000Y-89535000D01*
X169799000Y-89789000D01*
G36*
X170053000Y-90932000D02*
G01*
X169799000Y-90678000D01*
X170180000Y-90424000D01*
X170434000Y-90678000D01*
X170053000Y-90932000D01*
G37*
X170053000Y-90932000D02*
X169799000Y-90678000D01*
X170180000Y-90424000D01*
X170434000Y-90678000D01*
X170053000Y-90932000D01*
G36*
X170180000Y-90170000D02*
G01*
X169926000Y-89916000D01*
X170307000Y-89662000D01*
X170561000Y-89916000D01*
X170180000Y-90170000D01*
G37*
X170180000Y-90170000D02*
X169926000Y-89916000D01*
X170307000Y-89662000D01*
X170561000Y-89916000D01*
X170180000Y-90170000D01*
D11*
%TO.C,U5*%
X136000000Y-114240000D02*
X134350000Y-114240000D01*
X136000000Y-124520000D02*
X136000000Y-114240000D01*
X130700000Y-124520000D02*
X136000000Y-124520000D01*
X130700000Y-114240000D02*
X130700000Y-124520000D01*
X132350000Y-114240000D02*
X130700000Y-114240000D01*
X134350000Y-114240000D02*
G75*
G02*
X132350000Y-114240000I-1000000J0D01*
G01*
%TO.C,U2*%
X152980000Y-133880000D02*
X152980000Y-130280000D01*
X152252795Y-134404184D02*
G75*
G03*
X152980000Y-133880000I-1122795J2324184D01*
G01*
X150026158Y-134447199D02*
G75*
G02*
X148780000Y-133220000I1103842J2367199D01*
G01*
X150031629Y-129724543D02*
G75*
G03*
X148780000Y-130970000I1098371J-2355457D01*
G01*
X152252795Y-129755816D02*
G75*
G02*
X152980000Y-130280000I-1122795J-2324184D01*
G01*
%TO.C,C4*%
D10*
X161123333Y-135739142D02*
X161075714Y-135786761D01*
X160932857Y-135834380D01*
X160837619Y-135834380D01*
X160694761Y-135786761D01*
X160599523Y-135691523D01*
X160551904Y-135596285D01*
X160504285Y-135405809D01*
X160504285Y-135262952D01*
X160551904Y-135072476D01*
X160599523Y-134977238D01*
X160694761Y-134882000D01*
X160837619Y-134834380D01*
X160932857Y-134834380D01*
X161075714Y-134882000D01*
X161123333Y-134929619D01*
X161980476Y-135167714D02*
X161980476Y-135834380D01*
X161742380Y-134786761D02*
X161504285Y-135501047D01*
X162123333Y-135501047D01*
%TO.C,SW1*%
X196076666Y-130198761D02*
X196219523Y-130246380D01*
X196457619Y-130246380D01*
X196552857Y-130198761D01*
X196600476Y-130151142D01*
X196648095Y-130055904D01*
X196648095Y-129960666D01*
X196600476Y-129865428D01*
X196552857Y-129817809D01*
X196457619Y-129770190D01*
X196267142Y-129722571D01*
X196171904Y-129674952D01*
X196124285Y-129627333D01*
X196076666Y-129532095D01*
X196076666Y-129436857D01*
X196124285Y-129341619D01*
X196171904Y-129294000D01*
X196267142Y-129246380D01*
X196505238Y-129246380D01*
X196648095Y-129294000D01*
X196981428Y-129246380D02*
X197219523Y-130246380D01*
X197410000Y-129532095D01*
X197600476Y-130246380D01*
X197838571Y-129246380D01*
X198743333Y-130246380D02*
X198171904Y-130246380D01*
X198457619Y-130246380D02*
X198457619Y-129246380D01*
X198362380Y-129389238D01*
X198267142Y-129484476D01*
X198171904Y-129532095D01*
%TO.C,U1*%
X163576095Y-112990380D02*
X163576095Y-113799904D01*
X163623714Y-113895142D01*
X163671333Y-113942761D01*
X163766571Y-113990380D01*
X163957047Y-113990380D01*
X164052285Y-113942761D01*
X164099904Y-113895142D01*
X164147523Y-113799904D01*
X164147523Y-112990380D01*
X165147523Y-113990380D02*
X164576095Y-113990380D01*
X164861809Y-113990380D02*
X164861809Y-112990380D01*
X164766571Y-113133238D01*
X164671333Y-113228476D01*
X164576095Y-113276095D01*
%TO.C,C2*%
X181443333Y-115419142D02*
X181395714Y-115466761D01*
X181252857Y-115514380D01*
X181157619Y-115514380D01*
X181014761Y-115466761D01*
X180919523Y-115371523D01*
X180871904Y-115276285D01*
X180824285Y-115085809D01*
X180824285Y-114942952D01*
X180871904Y-114752476D01*
X180919523Y-114657238D01*
X181014761Y-114562000D01*
X181157619Y-114514380D01*
X181252857Y-114514380D01*
X181395714Y-114562000D01*
X181443333Y-114609619D01*
X181824285Y-114609619D02*
X181871904Y-114562000D01*
X181967142Y-114514380D01*
X182205238Y-114514380D01*
X182300476Y-114562000D01*
X182348095Y-114609619D01*
X182395714Y-114704857D01*
X182395714Y-114800095D01*
X182348095Y-114942952D01*
X181776666Y-115514380D01*
X182395714Y-115514380D01*
%TO.C,C1*%
X172553333Y-115419142D02*
X172505714Y-115466761D01*
X172362857Y-115514380D01*
X172267619Y-115514380D01*
X172124761Y-115466761D01*
X172029523Y-115371523D01*
X171981904Y-115276285D01*
X171934285Y-115085809D01*
X171934285Y-114942952D01*
X171981904Y-114752476D01*
X172029523Y-114657238D01*
X172124761Y-114562000D01*
X172267619Y-114514380D01*
X172362857Y-114514380D01*
X172505714Y-114562000D01*
X172553333Y-114609619D01*
X173505714Y-115514380D02*
X172934285Y-115514380D01*
X173220000Y-115514380D02*
X173220000Y-114514380D01*
X173124761Y-114657238D01*
X173029523Y-114752476D01*
X172934285Y-114800095D01*
%TO.C,C3*%
X158543333Y-109867142D02*
X158495714Y-109914761D01*
X158352857Y-109962380D01*
X158257619Y-109962380D01*
X158114761Y-109914761D01*
X158019523Y-109819523D01*
X157971904Y-109724285D01*
X157924285Y-109533809D01*
X157924285Y-109390952D01*
X157971904Y-109200476D01*
X158019523Y-109105238D01*
X158114761Y-109010000D01*
X158257619Y-108962380D01*
X158352857Y-108962380D01*
X158495714Y-109010000D01*
X158543333Y-109057619D01*
X158876666Y-108962380D02*
X159495714Y-108962380D01*
X159162380Y-109343333D01*
X159305238Y-109343333D01*
X159400476Y-109390952D01*
X159448095Y-109438571D01*
X159495714Y-109533809D01*
X159495714Y-109771904D01*
X159448095Y-109867142D01*
X159400476Y-109914761D01*
X159305238Y-109962380D01*
X159019523Y-109962380D01*
X158924285Y-109914761D01*
X158876666Y-109867142D01*
%TO.C,C5*%
X146391333Y-139549142D02*
X146343714Y-139596761D01*
X146200857Y-139644380D01*
X146105619Y-139644380D01*
X145962761Y-139596761D01*
X145867523Y-139501523D01*
X145819904Y-139406285D01*
X145772285Y-139215809D01*
X145772285Y-139072952D01*
X145819904Y-138882476D01*
X145867523Y-138787238D01*
X145962761Y-138692000D01*
X146105619Y-138644380D01*
X146200857Y-138644380D01*
X146343714Y-138692000D01*
X146391333Y-138739619D01*
X147296095Y-138644380D02*
X146819904Y-138644380D01*
X146772285Y-139120571D01*
X146819904Y-139072952D01*
X146915142Y-139025333D01*
X147153238Y-139025333D01*
X147248476Y-139072952D01*
X147296095Y-139120571D01*
X147343714Y-139215809D01*
X147343714Y-139453904D01*
X147296095Y-139549142D01*
X147248476Y-139596761D01*
X147153238Y-139644380D01*
X146915142Y-139644380D01*
X146819904Y-139596761D01*
X146772285Y-139549142D01*
%TO.C,D0*%
X170711904Y-137192380D02*
X170711904Y-136192380D01*
X170950000Y-136192380D01*
X171092857Y-136240000D01*
X171188095Y-136335238D01*
X171235714Y-136430476D01*
X171283333Y-136620952D01*
X171283333Y-136763809D01*
X171235714Y-136954285D01*
X171188095Y-137049523D01*
X171092857Y-137144761D01*
X170950000Y-137192380D01*
X170711904Y-137192380D01*
X171902380Y-136192380D02*
X171997619Y-136192380D01*
X172092857Y-136240000D01*
X172140476Y-136287619D01*
X172188095Y-136382857D01*
X172235714Y-136573333D01*
X172235714Y-136811428D01*
X172188095Y-137001904D01*
X172140476Y-137097142D01*
X172092857Y-137144761D01*
X171997619Y-137192380D01*
X171902380Y-137192380D01*
X171807142Y-137144761D01*
X171759523Y-137097142D01*
X171711904Y-137001904D01*
X171664285Y-136811428D01*
X171664285Y-136573333D01*
X171711904Y-136382857D01*
X171759523Y-136287619D01*
X171807142Y-136240000D01*
X171902380Y-136192380D01*
%TO.C,D1*%
X104671904Y-142692380D02*
X104671904Y-141692380D01*
X104910000Y-141692380D01*
X105052857Y-141740000D01*
X105148095Y-141835238D01*
X105195714Y-141930476D01*
X105243333Y-142120952D01*
X105243333Y-142263809D01*
X105195714Y-142454285D01*
X105148095Y-142549523D01*
X105052857Y-142644761D01*
X104910000Y-142692380D01*
X104671904Y-142692380D01*
X106195714Y-142692380D02*
X105624285Y-142692380D01*
X105910000Y-142692380D02*
X105910000Y-141692380D01*
X105814761Y-141835238D01*
X105719523Y-141930476D01*
X105624285Y-141978095D01*
%TO.C,D2*%
X76731904Y-142692380D02*
X76731904Y-141692380D01*
X76970000Y-141692380D01*
X77112857Y-141740000D01*
X77208095Y-141835238D01*
X77255714Y-141930476D01*
X77303333Y-142120952D01*
X77303333Y-142263809D01*
X77255714Y-142454285D01*
X77208095Y-142549523D01*
X77112857Y-142644761D01*
X76970000Y-142692380D01*
X76731904Y-142692380D01*
X77684285Y-141787619D02*
X77731904Y-141740000D01*
X77827142Y-141692380D01*
X78065238Y-141692380D01*
X78160476Y-141740000D01*
X78208095Y-141787619D01*
X78255714Y-141882857D01*
X78255714Y-141978095D01*
X78208095Y-142120952D01*
X77636666Y-142692380D01*
X78255714Y-142692380D01*
%TO.C,J1*%
X196076666Y-113082380D02*
X196076666Y-113796666D01*
X196029047Y-113939523D01*
X195933809Y-114034761D01*
X195790952Y-114082380D01*
X195695714Y-114082380D01*
X197076666Y-114082380D02*
X196505238Y-114082380D01*
X196790952Y-114082380D02*
X196790952Y-113082380D01*
X196695714Y-113225238D01*
X196600476Y-113320476D01*
X196505238Y-113368095D01*
%TO.C,J2*%
X70382380Y-140033333D02*
X71096666Y-140033333D01*
X71239523Y-140080952D01*
X71334761Y-140176190D01*
X71382380Y-140319047D01*
X71382380Y-140414285D01*
X70477619Y-139604761D02*
X70430000Y-139557142D01*
X70382380Y-139461904D01*
X70382380Y-139223809D01*
X70430000Y-139128571D01*
X70477619Y-139080952D01*
X70572857Y-139033333D01*
X70668095Y-139033333D01*
X70810952Y-139080952D01*
X71382380Y-139652380D01*
X71382380Y-139033333D01*
%TO.C,J3*%
X70572380Y-109807333D02*
X71286666Y-109807333D01*
X71429523Y-109854952D01*
X71524761Y-109950190D01*
X71572380Y-110093047D01*
X71572380Y-110188285D01*
X70572380Y-109426380D02*
X70572380Y-108807333D01*
X70953333Y-109140666D01*
X70953333Y-108997809D01*
X71000952Y-108902571D01*
X71048571Y-108854952D01*
X71143809Y-108807333D01*
X71381904Y-108807333D01*
X71477142Y-108854952D01*
X71524761Y-108902571D01*
X71572380Y-108997809D01*
X71572380Y-109283523D01*
X71524761Y-109378761D01*
X71477142Y-109426380D01*
%TO.C,J4*%
X70382380Y-89233333D02*
X71096666Y-89233333D01*
X71239523Y-89280952D01*
X71334761Y-89376190D01*
X71382380Y-89519047D01*
X71382380Y-89614285D01*
X70715714Y-88328571D02*
X71382380Y-88328571D01*
X70334761Y-88566666D02*
X71049047Y-88804761D01*
X71049047Y-88185714D01*
%TO.C,J5*%
X70382380Y-63833333D02*
X71096666Y-63833333D01*
X71239523Y-63880952D01*
X71334761Y-63976190D01*
X71382380Y-64119047D01*
X71382380Y-64214285D01*
X70382380Y-62880952D02*
X70382380Y-63357142D01*
X70858571Y-63404761D01*
X70810952Y-63357142D01*
X70763333Y-63261904D01*
X70763333Y-63023809D01*
X70810952Y-62928571D01*
X70858571Y-62880952D01*
X70953809Y-62833333D01*
X71191904Y-62833333D01*
X71287142Y-62880952D01*
X71334761Y-62928571D01*
X71382380Y-63023809D01*
X71382380Y-63261904D01*
X71334761Y-63357142D01*
X71287142Y-63404761D01*
%TO.C,J6*%
X174458380Y-53673333D02*
X175172666Y-53673333D01*
X175315523Y-53720952D01*
X175410761Y-53816190D01*
X175458380Y-53959047D01*
X175458380Y-54054285D01*
X174458380Y-52768571D02*
X174458380Y-52959047D01*
X174506000Y-53054285D01*
X174553619Y-53101904D01*
X174696476Y-53197142D01*
X174886952Y-53244761D01*
X175267904Y-53244761D01*
X175363142Y-53197142D01*
X175410761Y-53149523D01*
X175458380Y-53054285D01*
X175458380Y-52863809D01*
X175410761Y-52768571D01*
X175363142Y-52720952D01*
X175267904Y-52673333D01*
X175029809Y-52673333D01*
X174934571Y-52720952D01*
X174886952Y-52768571D01*
X174839333Y-52863809D01*
X174839333Y-53054285D01*
X174886952Y-53149523D01*
X174934571Y-53197142D01*
X175029809Y-53244761D01*
%TO.C,R1*%
X98893333Y-137866380D02*
X98560000Y-137390190D01*
X98321904Y-137866380D02*
X98321904Y-136866380D01*
X98702857Y-136866380D01*
X98798095Y-136914000D01*
X98845714Y-136961619D01*
X98893333Y-137056857D01*
X98893333Y-137199714D01*
X98845714Y-137294952D01*
X98798095Y-137342571D01*
X98702857Y-137390190D01*
X98321904Y-137390190D01*
X99845714Y-137866380D02*
X99274285Y-137866380D01*
X99560000Y-137866380D02*
X99560000Y-136866380D01*
X99464761Y-137009238D01*
X99369523Y-137104476D01*
X99274285Y-137152095D01*
%TO.C,R2*%
X80097333Y-146502380D02*
X79764000Y-146026190D01*
X79525904Y-146502380D02*
X79525904Y-145502380D01*
X79906857Y-145502380D01*
X80002095Y-145550000D01*
X80049714Y-145597619D01*
X80097333Y-145692857D01*
X80097333Y-145835714D01*
X80049714Y-145930952D01*
X80002095Y-145978571D01*
X79906857Y-146026190D01*
X79525904Y-146026190D01*
X80478285Y-145597619D02*
X80525904Y-145550000D01*
X80621142Y-145502380D01*
X80859238Y-145502380D01*
X80954476Y-145550000D01*
X81002095Y-145597619D01*
X81049714Y-145692857D01*
X81049714Y-145788095D01*
X81002095Y-145930952D01*
X80430666Y-146502380D01*
X81049714Y-146502380D01*
%TO.C,R3*%
X105497333Y-146502380D02*
X105164000Y-146026190D01*
X104925904Y-146502380D02*
X104925904Y-145502380D01*
X105306857Y-145502380D01*
X105402095Y-145550000D01*
X105449714Y-145597619D01*
X105497333Y-145692857D01*
X105497333Y-145835714D01*
X105449714Y-145930952D01*
X105402095Y-145978571D01*
X105306857Y-146026190D01*
X104925904Y-146026190D01*
X105830666Y-145502380D02*
X106449714Y-145502380D01*
X106116380Y-145883333D01*
X106259238Y-145883333D01*
X106354476Y-145930952D01*
X106402095Y-145978571D01*
X106449714Y-146073809D01*
X106449714Y-146311904D01*
X106402095Y-146407142D01*
X106354476Y-146454761D01*
X106259238Y-146502380D01*
X105973523Y-146502380D01*
X105878285Y-146454761D01*
X105830666Y-146407142D01*
%TO.C,R4*%
X105497333Y-137612380D02*
X105164000Y-137136190D01*
X104925904Y-137612380D02*
X104925904Y-136612380D01*
X105306857Y-136612380D01*
X105402095Y-136660000D01*
X105449714Y-136707619D01*
X105497333Y-136802857D01*
X105497333Y-136945714D01*
X105449714Y-137040952D01*
X105402095Y-137088571D01*
X105306857Y-137136190D01*
X104925904Y-137136190D01*
X106354476Y-136945714D02*
X106354476Y-137612380D01*
X106116380Y-136564761D02*
X105878285Y-137279047D01*
X106497333Y-137279047D01*
%TO.C,R5*%
X80097333Y-137612380D02*
X79764000Y-137136190D01*
X79525904Y-137612380D02*
X79525904Y-136612380D01*
X79906857Y-136612380D01*
X80002095Y-136660000D01*
X80049714Y-136707619D01*
X80097333Y-136802857D01*
X80097333Y-136945714D01*
X80049714Y-137040952D01*
X80002095Y-137088571D01*
X79906857Y-137136190D01*
X79525904Y-137136190D01*
X81002095Y-136612380D02*
X80525904Y-136612380D01*
X80478285Y-137088571D01*
X80525904Y-137040952D01*
X80621142Y-136993333D01*
X80859238Y-136993333D01*
X80954476Y-137040952D01*
X81002095Y-137088571D01*
X81049714Y-137183809D01*
X81049714Y-137421904D01*
X81002095Y-137517142D01*
X80954476Y-137564761D01*
X80859238Y-137612380D01*
X80621142Y-137612380D01*
X80525904Y-137564761D01*
X80478285Y-137517142D01*
%TO.C,R6*%
X145883333Y-114244380D02*
X145550000Y-113768190D01*
X145311904Y-114244380D02*
X145311904Y-113244380D01*
X145692857Y-113244380D01*
X145788095Y-113292000D01*
X145835714Y-113339619D01*
X145883333Y-113434857D01*
X145883333Y-113577714D01*
X145835714Y-113672952D01*
X145788095Y-113720571D01*
X145692857Y-113768190D01*
X145311904Y-113768190D01*
X146740476Y-113244380D02*
X146550000Y-113244380D01*
X146454761Y-113292000D01*
X146407142Y-113339619D01*
X146311904Y-113482476D01*
X146264285Y-113672952D01*
X146264285Y-114053904D01*
X146311904Y-114149142D01*
X146359523Y-114196761D01*
X146454761Y-114244380D01*
X146645238Y-114244380D01*
X146740476Y-114196761D01*
X146788095Y-114149142D01*
X146835714Y-114053904D01*
X146835714Y-113815809D01*
X146788095Y-113720571D01*
X146740476Y-113672952D01*
X146645238Y-113625333D01*
X146454761Y-113625333D01*
X146359523Y-113672952D01*
X146311904Y-113720571D01*
X146264285Y-113815809D01*
%TO.C,R7*%
X142073333Y-114244380D02*
X141740000Y-113768190D01*
X141501904Y-114244380D02*
X141501904Y-113244380D01*
X141882857Y-113244380D01*
X141978095Y-113292000D01*
X142025714Y-113339619D01*
X142073333Y-113434857D01*
X142073333Y-113577714D01*
X142025714Y-113672952D01*
X141978095Y-113720571D01*
X141882857Y-113768190D01*
X141501904Y-113768190D01*
X142406666Y-113244380D02*
X143073333Y-113244380D01*
X142644761Y-114244380D01*
%TO.C,R8*%
X105497333Y-133802380D02*
X105164000Y-133326190D01*
X104925904Y-133802380D02*
X104925904Y-132802380D01*
X105306857Y-132802380D01*
X105402095Y-132850000D01*
X105449714Y-132897619D01*
X105497333Y-132992857D01*
X105497333Y-133135714D01*
X105449714Y-133230952D01*
X105402095Y-133278571D01*
X105306857Y-133326190D01*
X104925904Y-133326190D01*
X106068761Y-133230952D02*
X105973523Y-133183333D01*
X105925904Y-133135714D01*
X105878285Y-133040476D01*
X105878285Y-132992857D01*
X105925904Y-132897619D01*
X105973523Y-132850000D01*
X106068761Y-132802380D01*
X106259238Y-132802380D01*
X106354476Y-132850000D01*
X106402095Y-132897619D01*
X106449714Y-132992857D01*
X106449714Y-133040476D01*
X106402095Y-133135714D01*
X106354476Y-133183333D01*
X106259238Y-133230952D01*
X106068761Y-133230952D01*
X105973523Y-133278571D01*
X105925904Y-133326190D01*
X105878285Y-133421428D01*
X105878285Y-133611904D01*
X105925904Y-133707142D01*
X105973523Y-133754761D01*
X106068761Y-133802380D01*
X106259238Y-133802380D01*
X106354476Y-133754761D01*
X106402095Y-133707142D01*
X106449714Y-133611904D01*
X106449714Y-133421428D01*
X106402095Y-133326190D01*
X106354476Y-133278571D01*
X106259238Y-133230952D01*
%TO.C,R9*%
X80097333Y-133802380D02*
X79764000Y-133326190D01*
X79525904Y-133802380D02*
X79525904Y-132802380D01*
X79906857Y-132802380D01*
X80002095Y-132850000D01*
X80049714Y-132897619D01*
X80097333Y-132992857D01*
X80097333Y-133135714D01*
X80049714Y-133230952D01*
X80002095Y-133278571D01*
X79906857Y-133326190D01*
X79525904Y-133326190D01*
X80573523Y-133802380D02*
X80764000Y-133802380D01*
X80859238Y-133754761D01*
X80906857Y-133707142D01*
X81002095Y-133564285D01*
X81049714Y-133373809D01*
X81049714Y-132992857D01*
X81002095Y-132897619D01*
X80954476Y-132850000D01*
X80859238Y-132802380D01*
X80668761Y-132802380D01*
X80573523Y-132850000D01*
X80525904Y-132897619D01*
X80478285Y-132992857D01*
X80478285Y-133230952D01*
X80525904Y-133326190D01*
X80573523Y-133373809D01*
X80668761Y-133421428D01*
X80859238Y-133421428D01*
X80954476Y-133373809D01*
X81002095Y-133326190D01*
X81049714Y-133230952D01*
%TO.C,R10*%
X132707142Y-108572380D02*
X132373809Y-108096190D01*
X132135714Y-108572380D02*
X132135714Y-107572380D01*
X132516666Y-107572380D01*
X132611904Y-107620000D01*
X132659523Y-107667619D01*
X132707142Y-107762857D01*
X132707142Y-107905714D01*
X132659523Y-108000952D01*
X132611904Y-108048571D01*
X132516666Y-108096190D01*
X132135714Y-108096190D01*
X133659523Y-108572380D02*
X133088095Y-108572380D01*
X133373809Y-108572380D02*
X133373809Y-107572380D01*
X133278571Y-107715238D01*
X133183333Y-107810476D01*
X133088095Y-107858095D01*
X134278571Y-107572380D02*
X134373809Y-107572380D01*
X134469047Y-107620000D01*
X134516666Y-107667619D01*
X134564285Y-107762857D01*
X134611904Y-107953333D01*
X134611904Y-108191428D01*
X134564285Y-108381904D01*
X134516666Y-108477142D01*
X134469047Y-108524761D01*
X134373809Y-108572380D01*
X134278571Y-108572380D01*
X134183333Y-108524761D01*
X134135714Y-108477142D01*
X134088095Y-108381904D01*
X134040476Y-108191428D01*
X134040476Y-107953333D01*
X134088095Y-107762857D01*
X134135714Y-107667619D01*
X134183333Y-107620000D01*
X134278571Y-107572380D01*
%TO.C,R11*%
X79367142Y-121102380D02*
X79033809Y-120626190D01*
X78795714Y-121102380D02*
X78795714Y-120102380D01*
X79176666Y-120102380D01*
X79271904Y-120150000D01*
X79319523Y-120197619D01*
X79367142Y-120292857D01*
X79367142Y-120435714D01*
X79319523Y-120530952D01*
X79271904Y-120578571D01*
X79176666Y-120626190D01*
X78795714Y-120626190D01*
X80319523Y-121102380D02*
X79748095Y-121102380D01*
X80033809Y-121102380D02*
X80033809Y-120102380D01*
X79938571Y-120245238D01*
X79843333Y-120340476D01*
X79748095Y-120388095D01*
X81271904Y-121102380D02*
X80700476Y-121102380D01*
X80986190Y-121102380D02*
X80986190Y-120102380D01*
X80890952Y-120245238D01*
X80795714Y-120340476D01*
X80700476Y-120388095D01*
%TO.C,R12*%
X79113142Y-113482380D02*
X78779809Y-113006190D01*
X78541714Y-113482380D02*
X78541714Y-112482380D01*
X78922666Y-112482380D01*
X79017904Y-112530000D01*
X79065523Y-112577619D01*
X79113142Y-112672857D01*
X79113142Y-112815714D01*
X79065523Y-112910952D01*
X79017904Y-112958571D01*
X78922666Y-113006190D01*
X78541714Y-113006190D01*
X80065523Y-113482380D02*
X79494095Y-113482380D01*
X79779809Y-113482380D02*
X79779809Y-112482380D01*
X79684571Y-112625238D01*
X79589333Y-112720476D01*
X79494095Y-112768095D01*
X80446476Y-112577619D02*
X80494095Y-112530000D01*
X80589333Y-112482380D01*
X80827428Y-112482380D01*
X80922666Y-112530000D01*
X80970285Y-112577619D01*
X81017904Y-112672857D01*
X81017904Y-112768095D01*
X80970285Y-112910952D01*
X80398857Y-113482380D01*
X81017904Y-113482380D01*
%TO.C,R13*%
X79113142Y-117292380D02*
X78779809Y-116816190D01*
X78541714Y-117292380D02*
X78541714Y-116292380D01*
X78922666Y-116292380D01*
X79017904Y-116340000D01*
X79065523Y-116387619D01*
X79113142Y-116482857D01*
X79113142Y-116625714D01*
X79065523Y-116720952D01*
X79017904Y-116768571D01*
X78922666Y-116816190D01*
X78541714Y-116816190D01*
X80065523Y-117292380D02*
X79494095Y-117292380D01*
X79779809Y-117292380D02*
X79779809Y-116292380D01*
X79684571Y-116435238D01*
X79589333Y-116530476D01*
X79494095Y-116578095D01*
X80398857Y-116292380D02*
X81017904Y-116292380D01*
X80684571Y-116673333D01*
X80827428Y-116673333D01*
X80922666Y-116720952D01*
X80970285Y-116768571D01*
X81017904Y-116863809D01*
X81017904Y-117101904D01*
X80970285Y-117197142D01*
X80922666Y-117244761D01*
X80827428Y-117292380D01*
X80541714Y-117292380D01*
X80446476Y-117244761D01*
X80398857Y-117197142D01*
%TO.C,R_LED1*%
X179451238Y-130500380D02*
X179117904Y-130024190D01*
X178879809Y-130500380D02*
X178879809Y-129500380D01*
X179260761Y-129500380D01*
X179356000Y-129548000D01*
X179403619Y-129595619D01*
X179451238Y-129690857D01*
X179451238Y-129833714D01*
X179403619Y-129928952D01*
X179356000Y-129976571D01*
X179260761Y-130024190D01*
X178879809Y-130024190D01*
X179641714Y-130595619D02*
X180403619Y-130595619D01*
X181117904Y-130500380D02*
X180641714Y-130500380D01*
X180641714Y-129500380D01*
X181451238Y-129976571D02*
X181784571Y-129976571D01*
X181927428Y-130500380D02*
X181451238Y-130500380D01*
X181451238Y-129500380D01*
X181927428Y-129500380D01*
X182356000Y-130500380D02*
X182356000Y-129500380D01*
X182594095Y-129500380D01*
X182736952Y-129548000D01*
X182832190Y-129643238D01*
X182879809Y-129738476D01*
X182927428Y-129928952D01*
X182927428Y-130071809D01*
X182879809Y-130262285D01*
X182832190Y-130357523D01*
X182736952Y-130452761D01*
X182594095Y-130500380D01*
X182356000Y-130500380D01*
X183879809Y-130500380D02*
X183308380Y-130500380D01*
X183594095Y-130500380D02*
X183594095Y-129500380D01*
X183498857Y-129643238D01*
X183403619Y-129738476D01*
X183308380Y-129786095D01*
%TO.C,U3*%
X132588095Y-131742380D02*
X132588095Y-132551904D01*
X132635714Y-132647142D01*
X132683333Y-132694761D01*
X132778571Y-132742380D01*
X132969047Y-132742380D01*
X133064285Y-132694761D01*
X133111904Y-132647142D01*
X133159523Y-132551904D01*
X133159523Y-131742380D01*
X133540476Y-131742380D02*
X134159523Y-131742380D01*
X133826190Y-132123333D01*
X133969047Y-132123333D01*
X134064285Y-132170952D01*
X134111904Y-132218571D01*
X134159523Y-132313809D01*
X134159523Y-132551904D01*
X134111904Y-132647142D01*
X134064285Y-132694761D01*
X133969047Y-132742380D01*
X133683333Y-132742380D01*
X133588095Y-132694761D01*
X133540476Y-132647142D01*
%TO.C,U4*%
X140970095Y-75906380D02*
X140970095Y-76715904D01*
X141017714Y-76811142D01*
X141065333Y-76858761D01*
X141160571Y-76906380D01*
X141351047Y-76906380D01*
X141446285Y-76858761D01*
X141493904Y-76811142D01*
X141541523Y-76715904D01*
X141541523Y-75906380D01*
X142446285Y-76239714D02*
X142446285Y-76906380D01*
X142208190Y-75858761D02*
X141970095Y-76573047D01*
X142589142Y-76573047D01*
X165130000Y-86676666D02*
X165130000Y-85976666D01*
X165363333Y-86476666D01*
X165596666Y-85976666D01*
X165596666Y-86676666D01*
X165930000Y-86676666D02*
X165930000Y-85976666D01*
X166330000Y-86676666D02*
X166030000Y-86276666D01*
X166330000Y-85976666D02*
X165930000Y-86376666D01*
X166930000Y-85976666D02*
X166796666Y-85976666D01*
X166730000Y-86010000D01*
X166696666Y-86043333D01*
X166630000Y-86143333D01*
X166596666Y-86276666D01*
X166596666Y-86543333D01*
X166630000Y-86610000D01*
X166663333Y-86643333D01*
X166730000Y-86676666D01*
X166863333Y-86676666D01*
X166930000Y-86643333D01*
X166963333Y-86610000D01*
X166996666Y-86543333D01*
X166996666Y-86376666D01*
X166963333Y-86310000D01*
X166930000Y-86276666D01*
X166863333Y-86243333D01*
X166730000Y-86243333D01*
X166663333Y-86276666D01*
X166630000Y-86310000D01*
X166596666Y-86376666D01*
X167596666Y-85976666D02*
X167463333Y-85976666D01*
X167396666Y-86010000D01*
X167363333Y-86043333D01*
X167296666Y-86143333D01*
X167263333Y-86276666D01*
X167263333Y-86543333D01*
X167296666Y-86610000D01*
X167330000Y-86643333D01*
X167396666Y-86676666D01*
X167530000Y-86676666D01*
X167596666Y-86643333D01*
X167630000Y-86610000D01*
X167663333Y-86543333D01*
X167663333Y-86376666D01*
X167630000Y-86310000D01*
X167596666Y-86276666D01*
X167530000Y-86243333D01*
X167396666Y-86243333D01*
X167330000Y-86276666D01*
X167296666Y-86310000D01*
X167263333Y-86376666D01*
X168196666Y-86310000D02*
X167963333Y-86310000D01*
X167963333Y-86676666D02*
X167963333Y-85976666D01*
X168296666Y-85976666D01*
X168496666Y-85976666D02*
X168963333Y-86676666D01*
X168963333Y-85976666D02*
X168496666Y-86676666D01*
X169596666Y-86676666D02*
X169196666Y-86676666D01*
X169396666Y-86676666D02*
X169396666Y-85976666D01*
X169330000Y-86076666D01*
X169263333Y-86143333D01*
X169196666Y-86176666D01*
X169896666Y-86676666D02*
X169896666Y-85976666D01*
X170130000Y-86476666D01*
X170363333Y-85976666D01*
X170363333Y-86676666D01*
X170930000Y-86310000D02*
X171030000Y-86343333D01*
X171063333Y-86376666D01*
X171096666Y-86443333D01*
X171096666Y-86543333D01*
X171063333Y-86610000D01*
X171030000Y-86643333D01*
X170963333Y-86676666D01*
X170696666Y-86676666D01*
X170696666Y-85976666D01*
X170930000Y-85976666D01*
X170996666Y-86010000D01*
X171030000Y-86043333D01*
X171063333Y-86110000D01*
X171063333Y-86176666D01*
X171030000Y-86243333D01*
X170996666Y-86276666D01*
X170930000Y-86310000D01*
X170696666Y-86310000D01*
X171296666Y-85976666D02*
X171530000Y-86676666D01*
X171763333Y-85976666D01*
X171996666Y-86676666D02*
X171996666Y-85976666D01*
X172230000Y-86476666D01*
X172463333Y-85976666D01*
X172463333Y-86676666D01*
X172796666Y-86676666D02*
X172796666Y-85976666D01*
X172963333Y-85976666D01*
X173063333Y-86010000D01*
X173130000Y-86076666D01*
X173163333Y-86143333D01*
X173196666Y-86276666D01*
X173196666Y-86376666D01*
X173163333Y-86510000D01*
X173130000Y-86576666D01*
X173063333Y-86643333D01*
X172963333Y-86676666D01*
X172796666Y-86676666D01*
X173863333Y-86676666D02*
X173463333Y-86676666D01*
X173663333Y-86676666D02*
X173663333Y-85976666D01*
X173596666Y-86076666D01*
X173530000Y-86143333D01*
X173463333Y-86176666D01*
X174263333Y-86276666D02*
X174196666Y-86243333D01*
X174163333Y-86210000D01*
X174130000Y-86143333D01*
X174130000Y-86110000D01*
X174163333Y-86043333D01*
X174196666Y-86010000D01*
X174263333Y-85976666D01*
X174396666Y-85976666D01*
X174463333Y-86010000D01*
X174496666Y-86043333D01*
X174530000Y-86110000D01*
X174530000Y-86143333D01*
X174496666Y-86210000D01*
X174463333Y-86243333D01*
X174396666Y-86276666D01*
X174263333Y-86276666D01*
X174196666Y-86310000D01*
X174163333Y-86343333D01*
X174130000Y-86410000D01*
X174130000Y-86543333D01*
X174163333Y-86610000D01*
X174196666Y-86643333D01*
X174263333Y-86676666D01*
X174396666Y-86676666D01*
X174463333Y-86643333D01*
X174496666Y-86610000D01*
X174530000Y-86543333D01*
X174530000Y-86410000D01*
X174496666Y-86343333D01*
X174463333Y-86310000D01*
X174396666Y-86276666D01*
X175330000Y-85943333D02*
X174730000Y-86843333D01*
X165580000Y-85533666D02*
X165580000Y-84833666D01*
X165813333Y-85333666D01*
X166046666Y-84833666D01*
X166046666Y-85533666D01*
X166380000Y-85533666D02*
X166380000Y-84833666D01*
X166780000Y-85533666D02*
X166480000Y-85133666D01*
X166780000Y-84833666D02*
X166380000Y-85233666D01*
X167380000Y-84833666D02*
X167246666Y-84833666D01*
X167180000Y-84867000D01*
X167146666Y-84900333D01*
X167080000Y-85000333D01*
X167046666Y-85133666D01*
X167046666Y-85400333D01*
X167080000Y-85467000D01*
X167113333Y-85500333D01*
X167180000Y-85533666D01*
X167313333Y-85533666D01*
X167380000Y-85500333D01*
X167413333Y-85467000D01*
X167446666Y-85400333D01*
X167446666Y-85233666D01*
X167413333Y-85167000D01*
X167380000Y-85133666D01*
X167313333Y-85100333D01*
X167180000Y-85100333D01*
X167113333Y-85133666D01*
X167080000Y-85167000D01*
X167046666Y-85233666D01*
X168046666Y-85067000D02*
X168046666Y-85533666D01*
X167880000Y-84800333D02*
X167713333Y-85300333D01*
X168146666Y-85300333D01*
X168646666Y-85167000D02*
X168413333Y-85167000D01*
X168413333Y-85533666D02*
X168413333Y-84833666D01*
X168746666Y-84833666D01*
X168946666Y-84833666D02*
X169413333Y-85533666D01*
X169413333Y-84833666D02*
X168946666Y-85533666D01*
X170013333Y-84833666D02*
X169680000Y-84833666D01*
X169646666Y-85167000D01*
X169680000Y-85133666D01*
X169746666Y-85100333D01*
X169913333Y-85100333D01*
X169980000Y-85133666D01*
X170013333Y-85167000D01*
X170046666Y-85233666D01*
X170046666Y-85400333D01*
X170013333Y-85467000D01*
X169980000Y-85500333D01*
X169913333Y-85533666D01*
X169746666Y-85533666D01*
X169680000Y-85500333D01*
X169646666Y-85467000D01*
X170713333Y-85533666D02*
X170313333Y-85533666D01*
X170513333Y-85533666D02*
X170513333Y-84833666D01*
X170446666Y-84933666D01*
X170380000Y-85000333D01*
X170313333Y-85033666D01*
X170980000Y-84900333D02*
X171013333Y-84867000D01*
X171080000Y-84833666D01*
X171246666Y-84833666D01*
X171313333Y-84867000D01*
X171346666Y-84900333D01*
X171380000Y-84967000D01*
X171380000Y-85033666D01*
X171346666Y-85133666D01*
X170946666Y-85533666D01*
X171380000Y-85533666D01*
X171580000Y-84833666D02*
X171813333Y-85533666D01*
X172046666Y-84833666D01*
X172280000Y-85533666D02*
X172280000Y-84833666D01*
X172513333Y-85333666D01*
X172746666Y-84833666D01*
X172746666Y-85533666D01*
X173080000Y-85533666D02*
X173080000Y-84833666D01*
X173246666Y-84833666D01*
X173346666Y-84867000D01*
X173413333Y-84933666D01*
X173446666Y-85000333D01*
X173480000Y-85133666D01*
X173480000Y-85233666D01*
X173446666Y-85367000D01*
X173413333Y-85433666D01*
X173346666Y-85500333D01*
X173246666Y-85533666D01*
X173080000Y-85533666D01*
X174146666Y-85533666D02*
X173746666Y-85533666D01*
X173946666Y-85533666D02*
X173946666Y-84833666D01*
X173880000Y-84933666D01*
X173813333Y-85000333D01*
X173746666Y-85033666D01*
X174413333Y-84900333D02*
X174446666Y-84867000D01*
X174513333Y-84833666D01*
X174680000Y-84833666D01*
X174746666Y-84867000D01*
X174780000Y-84900333D01*
X174813333Y-84967000D01*
X174813333Y-85033666D01*
X174780000Y-85133666D01*
X174380000Y-85533666D01*
X174813333Y-85533666D01*
%TO.C,U5*%
X132588095Y-112692380D02*
X132588095Y-113501904D01*
X132635714Y-113597142D01*
X132683333Y-113644761D01*
X132778571Y-113692380D01*
X132969047Y-113692380D01*
X133064285Y-113644761D01*
X133111904Y-113597142D01*
X133159523Y-113501904D01*
X133159523Y-112692380D01*
X134111904Y-112692380D02*
X133635714Y-112692380D01*
X133588095Y-113168571D01*
X133635714Y-113120952D01*
X133730952Y-113073333D01*
X133969047Y-113073333D01*
X134064285Y-113120952D01*
X134111904Y-113168571D01*
X134159523Y-113263809D01*
X134159523Y-113501904D01*
X134111904Y-113597142D01*
X134064285Y-113644761D01*
X133969047Y-113692380D01*
X133730952Y-113692380D01*
X133635714Y-113644761D01*
X133588095Y-113597142D01*
%TO.C,U2*%
X150368095Y-127214380D02*
X150368095Y-128023904D01*
X150415714Y-128119142D01*
X150463333Y-128166761D01*
X150558571Y-128214380D01*
X150749047Y-128214380D01*
X150844285Y-128166761D01*
X150891904Y-128119142D01*
X150939523Y-128023904D01*
X150939523Y-127214380D01*
X151368095Y-127309619D02*
X151415714Y-127262000D01*
X151510952Y-127214380D01*
X151749047Y-127214380D01*
X151844285Y-127262000D01*
X151891904Y-127309619D01*
X151939523Y-127404857D01*
X151939523Y-127500095D01*
X151891904Y-127642952D01*
X151320476Y-128214380D01*
X151939523Y-128214380D01*
%TD*%
M02*
