%TF.GenerationSoftware,KiCad,Pcbnew,(5.1.6)-1*%
%TF.CreationDate,2020-09-09T12:12:14+05:30*%
%TF.ProjectId,teenDynClamp_V02,7465656e-4479-46e4-936c-616d705f5630,v02*%
%TF.SameCoordinates,Original*%
%TF.FileFunction,Legend,Bot*%
%TF.FilePolarity,Positive*%
%FSLAX46Y46*%
G04 Gerber Fmt 4.6, Leading zero omitted, Abs format (unit mm)*
G04 Created by KiCad (PCBNEW (5.1.6)-1) date 2020-09-09 12:12:14*
%MOMM*%
%LPD*%
G01*
G04 APERTURE LIST*
%ADD10C,0.010000*%
G04 APERTURE END LIST*
D10*
%TO.C,REF\u002A\u002A*%
G36*
X117693668Y-89327011D02*
G01*
X117321833Y-89512408D01*
X116993640Y-89853769D01*
X116903256Y-89980213D01*
X116804792Y-90145668D01*
X116740906Y-90325374D01*
X116704357Y-90565215D01*
X116687904Y-90911073D01*
X116684291Y-91367669D01*
X116700606Y-91993385D01*
X116757319Y-92463195D01*
X116866077Y-92813694D01*
X117038527Y-93081476D01*
X117286319Y-93303137D01*
X117304526Y-93316261D01*
X117548732Y-93450511D01*
X117842801Y-93516934D01*
X118216793Y-93533310D01*
X118824775Y-93533310D01*
X118825031Y-94123523D01*
X118830688Y-94452234D01*
X118865165Y-94645045D01*
X118955260Y-94760686D01*
X119127773Y-94857881D01*
X119169202Y-94877738D01*
X119363077Y-94970796D01*
X119513187Y-95029572D01*
X119624805Y-95034648D01*
X119703206Y-94966604D01*
X119753665Y-94806023D01*
X119781456Y-94533485D01*
X119791854Y-94129573D01*
X119790133Y-93574868D01*
X119781569Y-92849951D01*
X119778895Y-92633119D01*
X119769259Y-91885673D01*
X119760627Y-91396738D01*
X118825287Y-91396738D01*
X118820030Y-91811753D01*
X118796666Y-92083289D01*
X118743806Y-92262384D01*
X118650062Y-92400078D01*
X118586415Y-92467236D01*
X118326216Y-92663737D01*
X118095842Y-92679732D01*
X117858132Y-92517460D01*
X117852107Y-92511471D01*
X117755391Y-92386060D01*
X117696556Y-92215615D01*
X117666880Y-91953127D01*
X117657638Y-91551586D01*
X117657471Y-91462627D01*
X117679805Y-90909278D01*
X117752506Y-90525684D01*
X117884118Y-90291513D01*
X118083186Y-90186430D01*
X118198238Y-90175839D01*
X118471298Y-90225533D01*
X118658597Y-90389161D01*
X118771340Y-90688539D01*
X118820734Y-91145485D01*
X118825287Y-91396738D01*
X119760627Y-91396738D01*
X119759045Y-91307174D01*
X119745844Y-90871940D01*
X119727247Y-90554292D01*
X119700846Y-90328547D01*
X119664231Y-90169025D01*
X119614995Y-90050045D01*
X119550727Y-89945926D01*
X119523170Y-89906746D01*
X119157625Y-89536656D01*
X118695449Y-89326824D01*
X118160821Y-89268325D01*
X117693668Y-89327011D01*
G37*
X117693668Y-89327011D02*
X117321833Y-89512408D01*
X116993640Y-89853769D01*
X116903256Y-89980213D01*
X116804792Y-90145668D01*
X116740906Y-90325374D01*
X116704357Y-90565215D01*
X116687904Y-90911073D01*
X116684291Y-91367669D01*
X116700606Y-91993385D01*
X116757319Y-92463195D01*
X116866077Y-92813694D01*
X117038527Y-93081476D01*
X117286319Y-93303137D01*
X117304526Y-93316261D01*
X117548732Y-93450511D01*
X117842801Y-93516934D01*
X118216793Y-93533310D01*
X118824775Y-93533310D01*
X118825031Y-94123523D01*
X118830688Y-94452234D01*
X118865165Y-94645045D01*
X118955260Y-94760686D01*
X119127773Y-94857881D01*
X119169202Y-94877738D01*
X119363077Y-94970796D01*
X119513187Y-95029572D01*
X119624805Y-95034648D01*
X119703206Y-94966604D01*
X119753665Y-94806023D01*
X119781456Y-94533485D01*
X119791854Y-94129573D01*
X119790133Y-93574868D01*
X119781569Y-92849951D01*
X119778895Y-92633119D01*
X119769259Y-91885673D01*
X119760627Y-91396738D01*
X118825287Y-91396738D01*
X118820030Y-91811753D01*
X118796666Y-92083289D01*
X118743806Y-92262384D01*
X118650062Y-92400078D01*
X118586415Y-92467236D01*
X118326216Y-92663737D01*
X118095842Y-92679732D01*
X117858132Y-92517460D01*
X117852107Y-92511471D01*
X117755391Y-92386060D01*
X117696556Y-92215615D01*
X117666880Y-91953127D01*
X117657638Y-91551586D01*
X117657471Y-91462627D01*
X117679805Y-90909278D01*
X117752506Y-90525684D01*
X117884118Y-90291513D01*
X118083186Y-90186430D01*
X118198238Y-90175839D01*
X118471298Y-90225533D01*
X118658597Y-90389161D01*
X118771340Y-90688539D01*
X118820734Y-91145485D01*
X118825287Y-91396738D01*
X119760627Y-91396738D01*
X119759045Y-91307174D01*
X119745844Y-90871940D01*
X119727247Y-90554292D01*
X119700846Y-90328547D01*
X119664231Y-90169025D01*
X119614995Y-90050045D01*
X119550727Y-89945926D01*
X119523170Y-89906746D01*
X119157625Y-89536656D01*
X118695449Y-89326824D01*
X118160821Y-89268325D01*
X117693668Y-89327011D01*
G36*
X110208569Y-89379730D02*
G01*
X109896257Y-89560379D01*
X109679119Y-89739689D01*
X109520311Y-89927552D01*
X109410908Y-90157291D01*
X109341980Y-90462228D01*
X109304599Y-90875688D01*
X109289838Y-91430992D01*
X109288122Y-91830171D01*
X109288122Y-93299532D01*
X109701724Y-93484944D01*
X110115325Y-93670357D01*
X110163984Y-92060983D01*
X110184090Y-91459932D01*
X110205182Y-91023669D01*
X110231314Y-90722371D01*
X110266543Y-90526214D01*
X110314923Y-90405376D01*
X110380508Y-90330032D01*
X110401550Y-90313724D01*
X110720375Y-90186355D01*
X111042643Y-90236756D01*
X111234482Y-90370475D01*
X111312518Y-90465232D01*
X111366535Y-90589574D01*
X111400864Y-90778077D01*
X111419837Y-91065314D01*
X111427786Y-91485861D01*
X111429118Y-91924139D01*
X111429380Y-92473998D01*
X111438795Y-92863204D01*
X111470309Y-93125701D01*
X111536867Y-93295436D01*
X111651414Y-93406354D01*
X111826895Y-93492401D01*
X112061277Y-93581814D01*
X112317265Y-93679141D01*
X112286793Y-91951819D01*
X112274522Y-91329130D01*
X112260165Y-90868966D01*
X112239590Y-90539228D01*
X112208660Y-90307817D01*
X112163243Y-90142632D01*
X112099202Y-90011575D01*
X112021994Y-89895947D01*
X111649494Y-89526566D01*
X111194958Y-89312962D01*
X110700583Y-89261796D01*
X110208569Y-89379730D01*
G37*
X110208569Y-89379730D02*
X109896257Y-89560379D01*
X109679119Y-89739689D01*
X109520311Y-89927552D01*
X109410908Y-90157291D01*
X109341980Y-90462228D01*
X109304599Y-90875688D01*
X109289838Y-91430992D01*
X109288122Y-91830171D01*
X109288122Y-93299532D01*
X109701724Y-93484944D01*
X110115325Y-93670357D01*
X110163984Y-92060983D01*
X110184090Y-91459932D01*
X110205182Y-91023669D01*
X110231314Y-90722371D01*
X110266543Y-90526214D01*
X110314923Y-90405376D01*
X110380508Y-90330032D01*
X110401550Y-90313724D01*
X110720375Y-90186355D01*
X111042643Y-90236756D01*
X111234482Y-90370475D01*
X111312518Y-90465232D01*
X111366535Y-90589574D01*
X111400864Y-90778077D01*
X111419837Y-91065314D01*
X111427786Y-91485861D01*
X111429118Y-91924139D01*
X111429380Y-92473998D01*
X111438795Y-92863204D01*
X111470309Y-93125701D01*
X111536867Y-93295436D01*
X111651414Y-93406354D01*
X111826895Y-93492401D01*
X112061277Y-93581814D01*
X112317265Y-93679141D01*
X112286793Y-91951819D01*
X112274522Y-91329130D01*
X112260165Y-90868966D01*
X112239590Y-90539228D01*
X112208660Y-90307817D01*
X112163243Y-90142632D01*
X112099202Y-90011575D01*
X112021994Y-89895947D01*
X111649494Y-89526566D01*
X111194958Y-89312962D01*
X110700583Y-89261796D01*
X110208569Y-89379730D01*
G36*
X121439264Y-89340716D02*
G01*
X120983129Y-89580560D01*
X120646497Y-89966555D01*
X120526918Y-90214710D01*
X120433869Y-90587306D01*
X120386237Y-91058089D01*
X120381721Y-91571904D01*
X120418017Y-92073598D01*
X120492822Y-92508017D01*
X120603832Y-92820009D01*
X120637951Y-92873741D01*
X121042061Y-93274830D01*
X121522044Y-93515058D01*
X122042869Y-93585360D01*
X122569507Y-93476673D01*
X122716067Y-93411512D01*
X123001479Y-93210706D01*
X123251973Y-92944449D01*
X123275646Y-92910681D01*
X123371870Y-92747937D01*
X123435477Y-92573967D01*
X123473053Y-92344949D01*
X123491184Y-92017060D01*
X123496459Y-91546479D01*
X123496551Y-91440973D01*
X123496309Y-91407397D01*
X122523371Y-91407397D01*
X122517708Y-91851521D01*
X122495425Y-92146246D01*
X122448582Y-92336616D01*
X122369238Y-92467673D01*
X122328735Y-92511471D01*
X122095880Y-92677906D01*
X121869804Y-92670315D01*
X121641218Y-92525946D01*
X121504883Y-92371821D01*
X121424140Y-92146858D01*
X121378797Y-91792109D01*
X121375686Y-91750734D01*
X121367947Y-91107822D01*
X121448834Y-90630333D01*
X121617252Y-90321200D01*
X121872107Y-90183356D01*
X121963081Y-90175839D01*
X122201963Y-90213642D01*
X122365367Y-90344612D01*
X122465274Y-90595087D01*
X122513669Y-90991407D01*
X122523371Y-91407397D01*
X123496309Y-91407397D01*
X123492927Y-90939529D01*
X123477707Y-90589163D01*
X123444372Y-90346381D01*
X123386403Y-90167693D01*
X123297281Y-90009605D01*
X123277586Y-89980213D01*
X122946560Y-89584022D01*
X122585861Y-89354027D01*
X122146730Y-89262729D01*
X121997611Y-89258269D01*
X121439264Y-89340716D01*
G37*
X121439264Y-89340716D02*
X120983129Y-89580560D01*
X120646497Y-89966555D01*
X120526918Y-90214710D01*
X120433869Y-90587306D01*
X120386237Y-91058089D01*
X120381721Y-91571904D01*
X120418017Y-92073598D01*
X120492822Y-92508017D01*
X120603832Y-92820009D01*
X120637951Y-92873741D01*
X121042061Y-93274830D01*
X121522044Y-93515058D01*
X122042869Y-93585360D01*
X122569507Y-93476673D01*
X122716067Y-93411512D01*
X123001479Y-93210706D01*
X123251973Y-92944449D01*
X123275646Y-92910681D01*
X123371870Y-92747937D01*
X123435477Y-92573967D01*
X123473053Y-92344949D01*
X123491184Y-92017060D01*
X123496459Y-91546479D01*
X123496551Y-91440973D01*
X123496309Y-91407397D01*
X122523371Y-91407397D01*
X122517708Y-91851521D01*
X122495425Y-92146246D01*
X122448582Y-92336616D01*
X122369238Y-92467673D01*
X122328735Y-92511471D01*
X122095880Y-92677906D01*
X121869804Y-92670315D01*
X121641218Y-92525946D01*
X121504883Y-92371821D01*
X121424140Y-92146858D01*
X121378797Y-91792109D01*
X121375686Y-91750734D01*
X121367947Y-91107822D01*
X121448834Y-90630333D01*
X121617252Y-90321200D01*
X121872107Y-90183356D01*
X121963081Y-90175839D01*
X122201963Y-90213642D01*
X122365367Y-90344612D01*
X122465274Y-90595087D01*
X122513669Y-90991407D01*
X122523371Y-91407397D01*
X123496309Y-91407397D01*
X123492927Y-90939529D01*
X123477707Y-90589163D01*
X123444372Y-90346381D01*
X123386403Y-90167693D01*
X123297281Y-90009605D01*
X123277586Y-89980213D01*
X122946560Y-89584022D01*
X122585861Y-89354027D01*
X122146730Y-89262729D01*
X121997611Y-89258269D01*
X121439264Y-89340716D01*
G36*
X113881494Y-89402921D02*
G01*
X113497807Y-89661038D01*
X113201297Y-90033830D01*
X113024169Y-90508217D01*
X112988344Y-90857382D01*
X112992413Y-91003088D01*
X113026480Y-91114648D01*
X113120129Y-91214596D01*
X113302946Y-91325466D01*
X113604517Y-91469792D01*
X114054427Y-91670109D01*
X114056705Y-91671115D01*
X114470831Y-91860791D01*
X114810425Y-92029218D01*
X115040777Y-92158265D01*
X115127180Y-92229799D01*
X115127203Y-92230376D01*
X115051050Y-92386148D01*
X114872968Y-92557848D01*
X114668526Y-92681537D01*
X114564948Y-92706107D01*
X114282369Y-92621127D01*
X114039024Y-92408304D01*
X113920290Y-92174312D01*
X113806066Y-92001809D01*
X113582323Y-91805362D01*
X113319308Y-91635653D01*
X113087265Y-91543362D01*
X113038742Y-91538291D01*
X112984124Y-91621736D01*
X112980833Y-91835037D01*
X113020972Y-92122642D01*
X113096645Y-92429002D01*
X113199954Y-92698565D01*
X113205172Y-92709031D01*
X113516063Y-93143113D01*
X113918986Y-93438370D01*
X114376576Y-93583288D01*
X114851467Y-93566354D01*
X115306292Y-93376054D01*
X115326515Y-93362673D01*
X115684300Y-93038422D01*
X115919560Y-92615363D01*
X116049755Y-92059086D01*
X116067227Y-91902796D01*
X116098173Y-91165098D01*
X116061074Y-90821081D01*
X115127203Y-90821081D01*
X115115069Y-91035675D01*
X115048702Y-91098303D01*
X114883247Y-91051450D01*
X114622443Y-90940695D01*
X114330914Y-90801864D01*
X114323669Y-90798187D01*
X114076567Y-90668216D01*
X113977395Y-90581480D01*
X114001850Y-90490550D01*
X114104824Y-90371072D01*
X114366799Y-90198170D01*
X114648925Y-90185465D01*
X114901990Y-90311297D01*
X115076785Y-90554005D01*
X115127203Y-90821081D01*
X116061074Y-90821081D01*
X116034521Y-90574869D01*
X115871218Y-90106763D01*
X115643879Y-89778825D01*
X115233550Y-89447432D01*
X114781572Y-89283038D01*
X114320151Y-89272561D01*
X113881494Y-89402921D01*
G37*
X113881494Y-89402921D02*
X113497807Y-89661038D01*
X113201297Y-90033830D01*
X113024169Y-90508217D01*
X112988344Y-90857382D01*
X112992413Y-91003088D01*
X113026480Y-91114648D01*
X113120129Y-91214596D01*
X113302946Y-91325466D01*
X113604517Y-91469792D01*
X114054427Y-91670109D01*
X114056705Y-91671115D01*
X114470831Y-91860791D01*
X114810425Y-92029218D01*
X115040777Y-92158265D01*
X115127180Y-92229799D01*
X115127203Y-92230376D01*
X115051050Y-92386148D01*
X114872968Y-92557848D01*
X114668526Y-92681537D01*
X114564948Y-92706107D01*
X114282369Y-92621127D01*
X114039024Y-92408304D01*
X113920290Y-92174312D01*
X113806066Y-92001809D01*
X113582323Y-91805362D01*
X113319308Y-91635653D01*
X113087265Y-91543362D01*
X113038742Y-91538291D01*
X112984124Y-91621736D01*
X112980833Y-91835037D01*
X113020972Y-92122642D01*
X113096645Y-92429002D01*
X113199954Y-92698565D01*
X113205172Y-92709031D01*
X113516063Y-93143113D01*
X113918986Y-93438370D01*
X114376576Y-93583288D01*
X114851467Y-93566354D01*
X115306292Y-93376054D01*
X115326515Y-93362673D01*
X115684300Y-93038422D01*
X115919560Y-92615363D01*
X116049755Y-92059086D01*
X116067227Y-91902796D01*
X116098173Y-91165098D01*
X116061074Y-90821081D01*
X115127203Y-90821081D01*
X115115069Y-91035675D01*
X115048702Y-91098303D01*
X114883247Y-91051450D01*
X114622443Y-90940695D01*
X114330914Y-90801864D01*
X114323669Y-90798187D01*
X114076567Y-90668216D01*
X113977395Y-90581480D01*
X114001850Y-90490550D01*
X114104824Y-90371072D01*
X114366799Y-90198170D01*
X114648925Y-90185465D01*
X114901990Y-90311297D01*
X115076785Y-90554005D01*
X115127203Y-90821081D01*
X116061074Y-90821081D01*
X116034521Y-90574869D01*
X115871218Y-90106763D01*
X115643879Y-89778825D01*
X115233550Y-89447432D01*
X114781572Y-89283038D01*
X114320151Y-89272561D01*
X113881494Y-89402921D01*
G36*
X105784674Y-88866857D02*
G01*
X105756154Y-89264625D01*
X105723397Y-89499021D01*
X105678004Y-89601263D01*
X105611577Y-89602571D01*
X105590038Y-89590366D01*
X105303534Y-89501993D01*
X104930850Y-89507153D01*
X104551952Y-89597998D01*
X104314966Y-89715518D01*
X104071982Y-89903261D01*
X103894355Y-90115729D01*
X103772417Y-90385699D01*
X103696501Y-90745952D01*
X103656937Y-91229266D01*
X103644060Y-91868422D01*
X103643829Y-91991032D01*
X103643678Y-93368293D01*
X103950154Y-93475131D01*
X104167826Y-93547815D01*
X104287252Y-93581656D01*
X104290767Y-93581969D01*
X104302528Y-93490199D01*
X104312537Y-93237077D01*
X104320033Y-92855882D01*
X104324254Y-92379896D01*
X104324904Y-92090504D01*
X104326258Y-91519910D01*
X104333228Y-91110960D01*
X104350177Y-90830667D01*
X104381468Y-90646045D01*
X104431463Y-90524106D01*
X104504525Y-90431862D01*
X104550142Y-90387439D01*
X104863503Y-90208428D01*
X105205452Y-90195022D01*
X105515701Y-90346416D01*
X105573074Y-90401077D01*
X105657227Y-90503857D01*
X105715599Y-90625771D01*
X105752859Y-90802049D01*
X105773678Y-91067922D01*
X105782726Y-91458618D01*
X105784674Y-91997304D01*
X105784674Y-93368293D01*
X106091150Y-93475131D01*
X106308823Y-93547815D01*
X106428248Y-93581656D01*
X106431763Y-93581969D01*
X106440750Y-93488827D01*
X106448850Y-93226101D01*
X106455740Y-92818844D01*
X106461095Y-92292107D01*
X106464589Y-91670942D01*
X106465898Y-90980401D01*
X106465900Y-90949685D01*
X106465900Y-88317401D01*
X106149616Y-88183989D01*
X105833333Y-88050577D01*
X105784674Y-88866857D01*
G37*
X105784674Y-88866857D02*
X105756154Y-89264625D01*
X105723397Y-89499021D01*
X105678004Y-89601263D01*
X105611577Y-89602571D01*
X105590038Y-89590366D01*
X105303534Y-89501993D01*
X104930850Y-89507153D01*
X104551952Y-89597998D01*
X104314966Y-89715518D01*
X104071982Y-89903261D01*
X103894355Y-90115729D01*
X103772417Y-90385699D01*
X103696501Y-90745952D01*
X103656937Y-91229266D01*
X103644060Y-91868422D01*
X103643829Y-91991032D01*
X103643678Y-93368293D01*
X103950154Y-93475131D01*
X104167826Y-93547815D01*
X104287252Y-93581656D01*
X104290767Y-93581969D01*
X104302528Y-93490199D01*
X104312537Y-93237077D01*
X104320033Y-92855882D01*
X104324254Y-92379896D01*
X104324904Y-92090504D01*
X104326258Y-91519910D01*
X104333228Y-91110960D01*
X104350177Y-90830667D01*
X104381468Y-90646045D01*
X104431463Y-90524106D01*
X104504525Y-90431862D01*
X104550142Y-90387439D01*
X104863503Y-90208428D01*
X105205452Y-90195022D01*
X105515701Y-90346416D01*
X105573074Y-90401077D01*
X105657227Y-90503857D01*
X105715599Y-90625771D01*
X105752859Y-90802049D01*
X105773678Y-91067922D01*
X105782726Y-91458618D01*
X105784674Y-91997304D01*
X105784674Y-93368293D01*
X106091150Y-93475131D01*
X106308823Y-93547815D01*
X106428248Y-93581656D01*
X106431763Y-93581969D01*
X106440750Y-93488827D01*
X106448850Y-93226101D01*
X106455740Y-92818844D01*
X106461095Y-92292107D01*
X106464589Y-91670942D01*
X106465898Y-90980401D01*
X106465900Y-90949685D01*
X106465900Y-88317401D01*
X106149616Y-88183989D01*
X105833333Y-88050577D01*
X105784674Y-88866857D01*
G36*
X101333518Y-89535201D02*
G01*
X100952190Y-89676806D01*
X100947828Y-89679528D01*
X100711989Y-89853100D01*
X100537881Y-90055945D01*
X100415429Y-90320290D01*
X100334554Y-90678363D01*
X100285182Y-91162390D01*
X100257236Y-91804598D01*
X100254786Y-91896095D01*
X100219601Y-93275737D01*
X100515696Y-93428853D01*
X100729940Y-93532326D01*
X100859299Y-93581355D01*
X100865282Y-93581969D01*
X100887668Y-93491502D01*
X100905451Y-93247471D01*
X100916389Y-92890936D01*
X100918774Y-92602231D01*
X100918829Y-92134541D01*
X100940209Y-91840837D01*
X101014734Y-91700751D01*
X101174225Y-91693916D01*
X101450502Y-91799966D01*
X101867624Y-91994908D01*
X102174343Y-92156817D01*
X102332097Y-92297288D01*
X102378473Y-92450387D01*
X102378544Y-92457964D01*
X102302015Y-92721703D01*
X102075434Y-92864182D01*
X101728673Y-92884820D01*
X101478900Y-92881240D01*
X101347202Y-92953177D01*
X101265072Y-93125969D01*
X101217802Y-93346108D01*
X101285923Y-93471015D01*
X101311573Y-93488891D01*
X101553057Y-93560686D01*
X101891224Y-93570851D01*
X102239478Y-93523262D01*
X102486248Y-93436293D01*
X102827426Y-93146618D01*
X103021363Y-92743387D01*
X103059770Y-92428359D01*
X103030460Y-92144207D01*
X102924398Y-91912254D01*
X102714388Y-91706241D01*
X102373229Y-91499907D01*
X101873725Y-91266991D01*
X101843295Y-91253827D01*
X101393342Y-91045961D01*
X101115687Y-90875486D01*
X100996676Y-90722294D01*
X101022656Y-90566277D01*
X101179976Y-90387327D01*
X101227020Y-90346146D01*
X101542135Y-90186471D01*
X101868647Y-90193194D01*
X102153011Y-90349747D01*
X102341680Y-90639562D01*
X102359210Y-90696448D01*
X102529924Y-90972347D01*
X102746542Y-91105239D01*
X103059770Y-91236941D01*
X103059770Y-90896193D01*
X102964489Y-90400907D01*
X102681682Y-89946613D01*
X102534516Y-89794636D01*
X102199982Y-89599579D01*
X101774549Y-89511280D01*
X101333518Y-89535201D01*
G37*
X101333518Y-89535201D02*
X100952190Y-89676806D01*
X100947828Y-89679528D01*
X100711989Y-89853100D01*
X100537881Y-90055945D01*
X100415429Y-90320290D01*
X100334554Y-90678363D01*
X100285182Y-91162390D01*
X100257236Y-91804598D01*
X100254786Y-91896095D01*
X100219601Y-93275737D01*
X100515696Y-93428853D01*
X100729940Y-93532326D01*
X100859299Y-93581355D01*
X100865282Y-93581969D01*
X100887668Y-93491502D01*
X100905451Y-93247471D01*
X100916389Y-92890936D01*
X100918774Y-92602231D01*
X100918829Y-92134541D01*
X100940209Y-91840837D01*
X101014734Y-91700751D01*
X101174225Y-91693916D01*
X101450502Y-91799966D01*
X101867624Y-91994908D01*
X102174343Y-92156817D01*
X102332097Y-92297288D01*
X102378473Y-92450387D01*
X102378544Y-92457964D01*
X102302015Y-92721703D01*
X102075434Y-92864182D01*
X101728673Y-92884820D01*
X101478900Y-92881240D01*
X101347202Y-92953177D01*
X101265072Y-93125969D01*
X101217802Y-93346108D01*
X101285923Y-93471015D01*
X101311573Y-93488891D01*
X101553057Y-93560686D01*
X101891224Y-93570851D01*
X102239478Y-93523262D01*
X102486248Y-93436293D01*
X102827426Y-93146618D01*
X103021363Y-92743387D01*
X103059770Y-92428359D01*
X103030460Y-92144207D01*
X102924398Y-91912254D01*
X102714388Y-91706241D01*
X102373229Y-91499907D01*
X101873725Y-91266991D01*
X101843295Y-91253827D01*
X101393342Y-91045961D01*
X101115687Y-90875486D01*
X100996676Y-90722294D01*
X101022656Y-90566277D01*
X101179976Y-90387327D01*
X101227020Y-90346146D01*
X101542135Y-90186471D01*
X101868647Y-90193194D01*
X102153011Y-90349747D01*
X102341680Y-90639562D01*
X102359210Y-90696448D01*
X102529924Y-90972347D01*
X102746542Y-91105239D01*
X103059770Y-91236941D01*
X103059770Y-90896193D01*
X102964489Y-90400907D01*
X102681682Y-89946613D01*
X102534516Y-89794636D01*
X102199982Y-89599579D01*
X101774549Y-89511280D01*
X101333518Y-89535201D01*
G36*
X98046857Y-89527067D02*
G01*
X97604783Y-89690198D01*
X97246635Y-89978731D01*
X97106561Y-90181840D01*
X96953858Y-90554536D01*
X96957030Y-90824019D01*
X97117306Y-91005262D01*
X97176609Y-91036080D01*
X97432652Y-91132168D01*
X97563413Y-91107551D01*
X97607704Y-90946195D01*
X97609961Y-90857065D01*
X97691047Y-90529161D01*
X97902397Y-90299781D01*
X98196153Y-90188994D01*
X98524455Y-90216870D01*
X98791326Y-90361653D01*
X98881463Y-90444239D01*
X98945354Y-90544431D01*
X98988513Y-90695884D01*
X99016454Y-90932255D01*
X99034691Y-91287199D01*
X99048739Y-91794372D01*
X99052377Y-91954958D01*
X99065644Y-92504316D01*
X99080729Y-92890961D01*
X99103351Y-93146776D01*
X99139231Y-93303644D01*
X99194090Y-93393449D01*
X99273646Y-93448075D01*
X99324581Y-93472209D01*
X99540889Y-93554734D01*
X99668220Y-93581969D01*
X99710293Y-93491009D01*
X99735974Y-93216012D01*
X99745401Y-92753803D01*
X99738712Y-92101207D01*
X99736629Y-92000552D01*
X99721930Y-91405162D01*
X99704549Y-90970410D01*
X99679816Y-90662305D01*
X99643060Y-90446859D01*
X99589610Y-90290083D01*
X99514796Y-90157987D01*
X99475661Y-90101382D01*
X99251269Y-89850933D01*
X99000300Y-89656126D01*
X98969574Y-89639122D01*
X98519555Y-89504865D01*
X98046857Y-89527067D01*
G37*
X98046857Y-89527067D02*
X97604783Y-89690198D01*
X97246635Y-89978731D01*
X97106561Y-90181840D01*
X96953858Y-90554536D01*
X96957030Y-90824019D01*
X97117306Y-91005262D01*
X97176609Y-91036080D01*
X97432652Y-91132168D01*
X97563413Y-91107551D01*
X97607704Y-90946195D01*
X97609961Y-90857065D01*
X97691047Y-90529161D01*
X97902397Y-90299781D01*
X98196153Y-90188994D01*
X98524455Y-90216870D01*
X98791326Y-90361653D01*
X98881463Y-90444239D01*
X98945354Y-90544431D01*
X98988513Y-90695884D01*
X99016454Y-90932255D01*
X99034691Y-91287199D01*
X99048739Y-91794372D01*
X99052377Y-91954958D01*
X99065644Y-92504316D01*
X99080729Y-92890961D01*
X99103351Y-93146776D01*
X99139231Y-93303644D01*
X99194090Y-93393449D01*
X99273646Y-93448075D01*
X99324581Y-93472209D01*
X99540889Y-93554734D01*
X99668220Y-93581969D01*
X99710293Y-93491009D01*
X99735974Y-93216012D01*
X99745401Y-92753803D01*
X99738712Y-92101207D01*
X99736629Y-92000552D01*
X99721930Y-91405162D01*
X99704549Y-90970410D01*
X99679816Y-90662305D01*
X99643060Y-90446859D01*
X99589610Y-90290083D01*
X99514796Y-90157987D01*
X99475661Y-90101382D01*
X99251269Y-89850933D01*
X99000300Y-89656126D01*
X98969574Y-89639122D01*
X98519555Y-89504865D01*
X98046857Y-89527067D01*
G36*
X93620287Y-90302185D02*
G01*
X93621522Y-91029538D01*
X93626307Y-91589064D01*
X93636658Y-92007568D01*
X93654593Y-92311851D01*
X93682128Y-92528717D01*
X93721279Y-92684970D01*
X93774064Y-92807413D01*
X93814033Y-92877303D01*
X94145034Y-93256314D01*
X94564705Y-93493883D01*
X95029028Y-93579127D01*
X95493984Y-93501166D01*
X95770857Y-93361064D01*
X96061516Y-93118705D01*
X96259611Y-92822707D01*
X96379130Y-92435068D01*
X96434062Y-91917784D01*
X96441843Y-91538291D01*
X96440794Y-91511020D01*
X95760919Y-91511020D01*
X95756767Y-91946191D01*
X95737740Y-92234268D01*
X95693985Y-92422727D01*
X95615648Y-92559046D01*
X95522048Y-92661872D01*
X95207708Y-92860350D01*
X94870200Y-92877306D01*
X94551214Y-92711597D01*
X94526387Y-92689143D01*
X94420418Y-92572341D01*
X94353973Y-92433371D01*
X94318001Y-92226539D01*
X94303450Y-91906146D01*
X94301149Y-91551929D01*
X94306137Y-91106934D01*
X94326785Y-90810074D01*
X94371619Y-90614977D01*
X94449165Y-90475273D01*
X94512749Y-90401077D01*
X94808123Y-90213950D01*
X95148308Y-90191450D01*
X95473016Y-90334379D01*
X95535681Y-90387439D01*
X95642356Y-90505272D01*
X95708939Y-90645673D01*
X95744689Y-90854836D01*
X95758868Y-91178958D01*
X95760919Y-91511020D01*
X96440794Y-91511020D01*
X96418320Y-90927157D01*
X96338427Y-90467985D01*
X96188174Y-90122774D01*
X95953572Y-89853519D01*
X95770857Y-89715518D01*
X95438747Y-89566428D01*
X95053817Y-89497225D01*
X94696003Y-89515749D01*
X94495785Y-89590476D01*
X94417215Y-89611743D01*
X94365078Y-89532449D01*
X94328684Y-89319961D01*
X94301149Y-88996290D01*
X94271003Y-88635804D01*
X94229129Y-88418916D01*
X94152936Y-88294892D01*
X94019831Y-88212997D01*
X93936206Y-88176731D01*
X93619923Y-88044239D01*
X93620287Y-90302185D01*
G37*
X93620287Y-90302185D02*
X93621522Y-91029538D01*
X93626307Y-91589064D01*
X93636658Y-92007568D01*
X93654593Y-92311851D01*
X93682128Y-92528717D01*
X93721279Y-92684970D01*
X93774064Y-92807413D01*
X93814033Y-92877303D01*
X94145034Y-93256314D01*
X94564705Y-93493883D01*
X95029028Y-93579127D01*
X95493984Y-93501166D01*
X95770857Y-93361064D01*
X96061516Y-93118705D01*
X96259611Y-92822707D01*
X96379130Y-92435068D01*
X96434062Y-91917784D01*
X96441843Y-91538291D01*
X96440794Y-91511020D01*
X95760919Y-91511020D01*
X95756767Y-91946191D01*
X95737740Y-92234268D01*
X95693985Y-92422727D01*
X95615648Y-92559046D01*
X95522048Y-92661872D01*
X95207708Y-92860350D01*
X94870200Y-92877306D01*
X94551214Y-92711597D01*
X94526387Y-92689143D01*
X94420418Y-92572341D01*
X94353973Y-92433371D01*
X94318001Y-92226539D01*
X94303450Y-91906146D01*
X94301149Y-91551929D01*
X94306137Y-91106934D01*
X94326785Y-90810074D01*
X94371619Y-90614977D01*
X94449165Y-90475273D01*
X94512749Y-90401077D01*
X94808123Y-90213950D01*
X95148308Y-90191450D01*
X95473016Y-90334379D01*
X95535681Y-90387439D01*
X95642356Y-90505272D01*
X95708939Y-90645673D01*
X95744689Y-90854836D01*
X95758868Y-91178958D01*
X95760919Y-91511020D01*
X96440794Y-91511020D01*
X96418320Y-90927157D01*
X96338427Y-90467985D01*
X96188174Y-90122774D01*
X95953572Y-89853519D01*
X95770857Y-89715518D01*
X95438747Y-89566428D01*
X95053817Y-89497225D01*
X94696003Y-89515749D01*
X94495785Y-89590476D01*
X94417215Y-89611743D01*
X94365078Y-89532449D01*
X94328684Y-89319961D01*
X94301149Y-88996290D01*
X94271003Y-88635804D01*
X94229129Y-88418916D01*
X94152936Y-88294892D01*
X94019831Y-88212997D01*
X93936206Y-88176731D01*
X93619923Y-88044239D01*
X93620287Y-90302185D01*
G36*
X89666254Y-89586800D02*
G01*
X89651402Y-89842843D01*
X89639764Y-90231970D01*
X89632283Y-90723404D01*
X89629885Y-91238851D01*
X89629885Y-92983089D01*
X89937851Y-93291055D01*
X90150074Y-93480823D01*
X90336369Y-93557690D01*
X90590993Y-93552825D01*
X90692065Y-93540446D01*
X91007966Y-93504419D01*
X91269259Y-93483776D01*
X91332950Y-93481870D01*
X91547669Y-93494341D01*
X91854763Y-93525647D01*
X91973834Y-93540446D01*
X92266286Y-93563336D01*
X92462823Y-93513615D01*
X92657701Y-93360116D01*
X92728049Y-93291055D01*
X93036015Y-92983089D01*
X93036015Y-89720491D01*
X92788141Y-89607552D01*
X92574701Y-89523899D01*
X92449826Y-89494613D01*
X92417808Y-89587166D01*
X92387884Y-89845767D01*
X92362045Y-90241828D01*
X92342287Y-90746759D01*
X92332757Y-91173349D01*
X92306130Y-92852084D01*
X92073841Y-92884928D01*
X91862569Y-92861964D01*
X91759047Y-92787610D01*
X91730111Y-92648596D01*
X91705405Y-92352479D01*
X91686896Y-91936781D01*
X91676545Y-91439023D01*
X91675053Y-91182869D01*
X91673563Y-89708289D01*
X91367087Y-89601451D01*
X91150168Y-89528811D01*
X91032175Y-89494936D01*
X91028772Y-89494613D01*
X91016934Y-89586697D01*
X91003923Y-89842036D01*
X90990829Y-90229264D01*
X90978747Y-90717014D01*
X90970305Y-91173349D01*
X90943678Y-92852084D01*
X90359770Y-92852084D01*
X90332975Y-91320550D01*
X90306181Y-89789016D01*
X90021525Y-89641815D01*
X89811356Y-89540731D01*
X89686966Y-89494861D01*
X89683376Y-89494613D01*
X89666254Y-89586800D01*
G37*
X89666254Y-89586800D02*
X89651402Y-89842843D01*
X89639764Y-90231970D01*
X89632283Y-90723404D01*
X89629885Y-91238851D01*
X89629885Y-92983089D01*
X89937851Y-93291055D01*
X90150074Y-93480823D01*
X90336369Y-93557690D01*
X90590993Y-93552825D01*
X90692065Y-93540446D01*
X91007966Y-93504419D01*
X91269259Y-93483776D01*
X91332950Y-93481870D01*
X91547669Y-93494341D01*
X91854763Y-93525647D01*
X91973834Y-93540446D01*
X92266286Y-93563336D01*
X92462823Y-93513615D01*
X92657701Y-93360116D01*
X92728049Y-93291055D01*
X93036015Y-92983089D01*
X93036015Y-89720491D01*
X92788141Y-89607552D01*
X92574701Y-89523899D01*
X92449826Y-89494613D01*
X92417808Y-89587166D01*
X92387884Y-89845767D01*
X92362045Y-90241828D01*
X92342287Y-90746759D01*
X92332757Y-91173349D01*
X92306130Y-92852084D01*
X92073841Y-92884928D01*
X91862569Y-92861964D01*
X91759047Y-92787610D01*
X91730111Y-92648596D01*
X91705405Y-92352479D01*
X91686896Y-91936781D01*
X91676545Y-91439023D01*
X91675053Y-91182869D01*
X91673563Y-89708289D01*
X91367087Y-89601451D01*
X91150168Y-89528811D01*
X91032175Y-89494936D01*
X91028772Y-89494613D01*
X91016934Y-89586697D01*
X91003923Y-89842036D01*
X90990829Y-90229264D01*
X90978747Y-90717014D01*
X90970305Y-91173349D01*
X90943678Y-92852084D01*
X90359770Y-92852084D01*
X90332975Y-91320550D01*
X90306181Y-89789016D01*
X90021525Y-89641815D01*
X89811356Y-89540731D01*
X89686966Y-89494861D01*
X89683376Y-89494613D01*
X89666254Y-89586800D01*
G36*
X87218645Y-89571188D02*
G01*
X86938437Y-89698645D01*
X86718500Y-89853085D01*
X86557352Y-90025774D01*
X86446092Y-90248544D01*
X86375822Y-90553231D01*
X86337643Y-90971669D01*
X86322656Y-91535692D01*
X86321072Y-91907109D01*
X86321072Y-93356091D01*
X86568947Y-93469030D01*
X86764180Y-93551573D01*
X86860901Y-93581969D01*
X86879405Y-93491523D01*
X86894084Y-93247648D01*
X86903072Y-92891544D01*
X86904980Y-92608789D01*
X86913181Y-92200291D01*
X86935292Y-91876226D01*
X86967579Y-91677782D01*
X86993227Y-91635609D01*
X87165629Y-91678675D01*
X87436276Y-91789131D01*
X87749660Y-91938871D01*
X88050275Y-92099783D01*
X88282615Y-92243760D01*
X88391174Y-92342692D01*
X88391604Y-92343762D01*
X88382266Y-92526856D01*
X88298536Y-92701639D01*
X88151530Y-92843604D01*
X87936969Y-92891086D01*
X87753597Y-92885553D01*
X87493885Y-92881482D01*
X87357558Y-92942328D01*
X87275683Y-93103085D01*
X87265359Y-93133399D01*
X87229866Y-93362661D01*
X87324782Y-93501867D01*
X87572186Y-93568210D01*
X87839439Y-93580479D01*
X88320366Y-93489526D01*
X88569324Y-93359634D01*
X88876791Y-93054492D01*
X89039855Y-92679941D01*
X89054488Y-92284170D01*
X88916662Y-91915369D01*
X88709345Y-91684268D01*
X88502355Y-91554884D01*
X88177016Y-91391083D01*
X87797893Y-91224972D01*
X87734700Y-91199590D01*
X87318262Y-91015816D01*
X87078204Y-90853846D01*
X87000999Y-90692825D01*
X87073121Y-90511900D01*
X87196934Y-90370475D01*
X87489575Y-90196340D01*
X87811567Y-90183279D01*
X88106854Y-90317469D01*
X88319381Y-90585088D01*
X88347276Y-90654133D01*
X88509681Y-90908084D01*
X88746784Y-91096617D01*
X89045977Y-91251336D01*
X89045977Y-90812614D01*
X89028367Y-90544559D01*
X88952860Y-90333288D01*
X88785443Y-90107877D01*
X88624728Y-89934253D01*
X88374818Y-89688407D01*
X88180647Y-89556341D01*
X87972093Y-89503367D01*
X87736023Y-89494613D01*
X87218645Y-89571188D01*
G37*
X87218645Y-89571188D02*
X86938437Y-89698645D01*
X86718500Y-89853085D01*
X86557352Y-90025774D01*
X86446092Y-90248544D01*
X86375822Y-90553231D01*
X86337643Y-90971669D01*
X86322656Y-91535692D01*
X86321072Y-91907109D01*
X86321072Y-93356091D01*
X86568947Y-93469030D01*
X86764180Y-93551573D01*
X86860901Y-93581969D01*
X86879405Y-93491523D01*
X86894084Y-93247648D01*
X86903072Y-92891544D01*
X86904980Y-92608789D01*
X86913181Y-92200291D01*
X86935292Y-91876226D01*
X86967579Y-91677782D01*
X86993227Y-91635609D01*
X87165629Y-91678675D01*
X87436276Y-91789131D01*
X87749660Y-91938871D01*
X88050275Y-92099783D01*
X88282615Y-92243760D01*
X88391174Y-92342692D01*
X88391604Y-92343762D01*
X88382266Y-92526856D01*
X88298536Y-92701639D01*
X88151530Y-92843604D01*
X87936969Y-92891086D01*
X87753597Y-92885553D01*
X87493885Y-92881482D01*
X87357558Y-92942328D01*
X87275683Y-93103085D01*
X87265359Y-93133399D01*
X87229866Y-93362661D01*
X87324782Y-93501867D01*
X87572186Y-93568210D01*
X87839439Y-93580479D01*
X88320366Y-93489526D01*
X88569324Y-93359634D01*
X88876791Y-93054492D01*
X89039855Y-92679941D01*
X89054488Y-92284170D01*
X88916662Y-91915369D01*
X88709345Y-91684268D01*
X88502355Y-91554884D01*
X88177016Y-91391083D01*
X87797893Y-91224972D01*
X87734700Y-91199590D01*
X87318262Y-91015816D01*
X87078204Y-90853846D01*
X87000999Y-90692825D01*
X87073121Y-90511900D01*
X87196934Y-90370475D01*
X87489575Y-90196340D01*
X87811567Y-90183279D01*
X88106854Y-90317469D01*
X88319381Y-90585088D01*
X88347276Y-90654133D01*
X88509681Y-90908084D01*
X88746784Y-91096617D01*
X89045977Y-91251336D01*
X89045977Y-90812614D01*
X89028367Y-90544559D01*
X88952860Y-90333288D01*
X88785443Y-90107877D01*
X88624728Y-89934253D01*
X88374818Y-89688407D01*
X88180647Y-89556341D01*
X87972093Y-89503367D01*
X87736023Y-89494613D01*
X87218645Y-89571188D01*
G36*
X83814368Y-89587394D02*
G01*
X83698049Y-89638231D01*
X83420410Y-89858117D01*
X83182991Y-90176059D01*
X83036158Y-90515354D01*
X83012260Y-90682625D01*
X83092382Y-90916156D01*
X83268131Y-91039724D01*
X83456564Y-91114546D01*
X83542846Y-91128333D01*
X83584859Y-91028276D01*
X83667820Y-90810537D01*
X83704216Y-90712152D01*
X83908305Y-90371826D01*
X84203795Y-90202076D01*
X84582690Y-90207296D01*
X84610754Y-90213982D01*
X84813039Y-90309889D01*
X84961753Y-90496863D01*
X85063325Y-90797877D01*
X85124185Y-91235902D01*
X85150765Y-91833912D01*
X85153256Y-92152112D01*
X85154493Y-92653710D01*
X85162591Y-92995650D01*
X85184134Y-93212907D01*
X85225707Y-93340460D01*
X85293891Y-93413285D01*
X85395271Y-93466358D01*
X85401130Y-93469030D01*
X85596364Y-93551573D01*
X85693084Y-93581969D01*
X85707946Y-93490074D01*
X85720669Y-93236067D01*
X85730337Y-92852470D01*
X85736030Y-92371804D01*
X85737164Y-92020048D01*
X85731374Y-91339375D01*
X85708727Y-90822989D01*
X85661309Y-90440747D01*
X85581207Y-90162505D01*
X85460507Y-89958120D01*
X85291294Y-89797448D01*
X85124202Y-89685309D01*
X84722418Y-89536064D01*
X84254808Y-89502403D01*
X83814368Y-89587394D01*
G37*
X83814368Y-89587394D02*
X83698049Y-89638231D01*
X83420410Y-89858117D01*
X83182991Y-90176059D01*
X83036158Y-90515354D01*
X83012260Y-90682625D01*
X83092382Y-90916156D01*
X83268131Y-91039724D01*
X83456564Y-91114546D01*
X83542846Y-91128333D01*
X83584859Y-91028276D01*
X83667820Y-90810537D01*
X83704216Y-90712152D01*
X83908305Y-90371826D01*
X84203795Y-90202076D01*
X84582690Y-90207296D01*
X84610754Y-90213982D01*
X84813039Y-90309889D01*
X84961753Y-90496863D01*
X85063325Y-90797877D01*
X85124185Y-91235902D01*
X85150765Y-91833912D01*
X85153256Y-92152112D01*
X85154493Y-92653710D01*
X85162591Y-92995650D01*
X85184134Y-93212907D01*
X85225707Y-93340460D01*
X85293891Y-93413285D01*
X85395271Y-93466358D01*
X85401130Y-93469030D01*
X85596364Y-93551573D01*
X85693084Y-93581969D01*
X85707946Y-93490074D01*
X85720669Y-93236067D01*
X85730337Y-92852470D01*
X85736030Y-92371804D01*
X85737164Y-92020048D01*
X85731374Y-91339375D01*
X85708727Y-90822989D01*
X85661309Y-90440747D01*
X85581207Y-90162505D01*
X85460507Y-89958120D01*
X85291294Y-89797448D01*
X85124202Y-89685309D01*
X84722418Y-89536064D01*
X84254808Y-89502403D01*
X83814368Y-89587394D01*
G36*
X80455203Y-89642466D02*
G01*
X80070167Y-89894113D01*
X79884453Y-90119391D01*
X79737321Y-90528183D01*
X79725635Y-90851660D01*
X79752107Y-91284187D01*
X80749616Y-91720796D01*
X81234631Y-91943860D01*
X81551543Y-92123299D01*
X81716328Y-92278721D01*
X81744964Y-92429733D01*
X81653427Y-92595941D01*
X81552490Y-92706107D01*
X81258790Y-92882778D01*
X80939345Y-92895157D01*
X80645960Y-92757470D01*
X80430438Y-92483944D01*
X80391890Y-92387359D01*
X80207248Y-92085695D01*
X79994824Y-91957134D01*
X79703448Y-91847152D01*
X79703448Y-92264114D01*
X79729208Y-92547852D01*
X79830114Y-92787126D01*
X80041606Y-93061854D01*
X80073041Y-93097554D01*
X80308290Y-93341971D01*
X80510509Y-93473140D01*
X80763500Y-93533484D01*
X80973232Y-93553246D01*
X81348378Y-93558169D01*
X81615433Y-93495783D01*
X81782034Y-93403157D01*
X82043874Y-93199469D01*
X82225122Y-92979181D01*
X82339827Y-92702137D01*
X82402041Y-92328180D01*
X82425813Y-91817154D01*
X82427711Y-91557788D01*
X82421259Y-91246842D01*
X81833669Y-91246842D01*
X81826854Y-91413654D01*
X81809869Y-91440973D01*
X81697781Y-91403861D01*
X81456565Y-91305644D01*
X81134175Y-91166003D01*
X81066756Y-91135990D01*
X80659323Y-90928808D01*
X80434842Y-90746717D01*
X80385507Y-90576162D01*
X80503510Y-90403588D01*
X80600964Y-90327334D01*
X80952612Y-90174833D01*
X81281746Y-90200028D01*
X81557292Y-90386171D01*
X81748174Y-90716511D01*
X81809373Y-90978713D01*
X81833669Y-91246842D01*
X82421259Y-91246842D01*
X82415136Y-90951837D01*
X82368803Y-90503511D01*
X82277020Y-90177052D01*
X82128092Y-89936704D01*
X81910329Y-89746709D01*
X81815390Y-89685309D01*
X81384124Y-89525406D01*
X80911959Y-89515344D01*
X80455203Y-89642466D01*
G37*
X80455203Y-89642466D02*
X80070167Y-89894113D01*
X79884453Y-90119391D01*
X79737321Y-90528183D01*
X79725635Y-90851660D01*
X79752107Y-91284187D01*
X80749616Y-91720796D01*
X81234631Y-91943860D01*
X81551543Y-92123299D01*
X81716328Y-92278721D01*
X81744964Y-92429733D01*
X81653427Y-92595941D01*
X81552490Y-92706107D01*
X81258790Y-92882778D01*
X80939345Y-92895157D01*
X80645960Y-92757470D01*
X80430438Y-92483944D01*
X80391890Y-92387359D01*
X80207248Y-92085695D01*
X79994824Y-91957134D01*
X79703448Y-91847152D01*
X79703448Y-92264114D01*
X79729208Y-92547852D01*
X79830114Y-92787126D01*
X80041606Y-93061854D01*
X80073041Y-93097554D01*
X80308290Y-93341971D01*
X80510509Y-93473140D01*
X80763500Y-93533484D01*
X80973232Y-93553246D01*
X81348378Y-93558169D01*
X81615433Y-93495783D01*
X81782034Y-93403157D01*
X82043874Y-93199469D01*
X82225122Y-92979181D01*
X82339827Y-92702137D01*
X82402041Y-92328180D01*
X82425813Y-91817154D01*
X82427711Y-91557788D01*
X82421259Y-91246842D01*
X81833669Y-91246842D01*
X81826854Y-91413654D01*
X81809869Y-91440973D01*
X81697781Y-91403861D01*
X81456565Y-91305644D01*
X81134175Y-91166003D01*
X81066756Y-91135990D01*
X80659323Y-90928808D01*
X80434842Y-90746717D01*
X80385507Y-90576162D01*
X80503510Y-90403588D01*
X80600964Y-90327334D01*
X80952612Y-90174833D01*
X81281746Y-90200028D01*
X81557292Y-90386171D01*
X81748174Y-90716511D01*
X81809373Y-90978713D01*
X81833669Y-91246842D01*
X82421259Y-91246842D01*
X82415136Y-90951837D01*
X82368803Y-90503511D01*
X82277020Y-90177052D01*
X82128092Y-89936704D01*
X81910329Y-89746709D01*
X81815390Y-89685309D01*
X81384124Y-89525406D01*
X80911959Y-89515344D01*
X80455203Y-89642466D01*
G36*
X100903287Y-57963994D02*
G01*
X100376646Y-57966877D01*
X99995509Y-57974684D01*
X99735311Y-57989873D01*
X99571486Y-58014900D01*
X99479469Y-58052222D01*
X99434695Y-58104295D01*
X99412596Y-58173576D01*
X99410449Y-58182544D01*
X99376882Y-58344377D01*
X99314750Y-58663683D01*
X99230516Y-59106475D01*
X99130643Y-59638769D01*
X99021595Y-60226579D01*
X99017786Y-60247223D01*
X98908555Y-60823272D01*
X98806357Y-61332230D01*
X98717788Y-61743570D01*
X98649442Y-62026769D01*
X98607915Y-62151300D01*
X98605934Y-62153506D01*
X98483603Y-62214318D01*
X98231381Y-62315656D01*
X97903739Y-62435643D01*
X97901915Y-62436283D01*
X97489224Y-62591407D01*
X97002681Y-62789013D01*
X96544062Y-62987696D01*
X96522357Y-62997520D01*
X95775366Y-63336551D01*
X94121271Y-62206990D01*
X93613847Y-61862640D01*
X93154197Y-61554790D01*
X92768950Y-61300947D01*
X92484737Y-61118617D01*
X92328186Y-61025309D01*
X92313320Y-61018389D01*
X92199552Y-61049199D01*
X91987062Y-61197853D01*
X91667563Y-61471362D01*
X91232768Y-61876736D01*
X90788905Y-62308015D01*
X90361019Y-62733006D01*
X89978063Y-63120820D01*
X89663091Y-63447508D01*
X89439157Y-63689122D01*
X89329314Y-63821710D01*
X89325228Y-63828536D01*
X89313085Y-63919522D01*
X89358832Y-64068112D01*
X89473770Y-64294372D01*
X89669202Y-64618370D01*
X89956432Y-65060171D01*
X90339335Y-65628919D01*
X90679154Y-66129517D01*
X90982924Y-66578499D01*
X91233091Y-66949799D01*
X91412102Y-67217349D01*
X91502401Y-67355084D01*
X91508085Y-67364435D01*
X91497060Y-67496402D01*
X91413490Y-67752896D01*
X91274006Y-68085439D01*
X91224293Y-68191638D01*
X91007379Y-68664753D01*
X90775960Y-69201578D01*
X90587970Y-69666069D01*
X90452511Y-70010813D01*
X90344914Y-70272805D01*
X90282739Y-70409733D01*
X90275009Y-70420284D01*
X90160658Y-70437760D01*
X89891104Y-70485646D01*
X89502188Y-70557123D01*
X89029751Y-70645377D01*
X88509633Y-70743589D01*
X87977674Y-70844944D01*
X87469715Y-70942626D01*
X87021598Y-71029817D01*
X86669161Y-71099702D01*
X86448246Y-71145463D01*
X86394061Y-71158402D01*
X86338089Y-71190334D01*
X86295838Y-71262454D01*
X86265407Y-71399104D01*
X86244895Y-71624629D01*
X86232401Y-71963372D01*
X86226025Y-72439676D01*
X86223866Y-73077884D01*
X86223754Y-73339482D01*
X86223754Y-75467021D01*
X86734674Y-75567865D01*
X87018926Y-75622546D01*
X87443101Y-75702364D01*
X87955615Y-75797689D01*
X88504885Y-75898891D01*
X88656705Y-75926688D01*
X89163559Y-76025234D01*
X89605107Y-76122140D01*
X89944287Y-76208429D01*
X90144041Y-76275125D01*
X90177315Y-76295004D01*
X90259023Y-76435781D01*
X90376174Y-76708565D01*
X90506090Y-77059610D01*
X90531859Y-77135226D01*
X90702133Y-77604059D01*
X90913488Y-78133048D01*
X91120320Y-78608082D01*
X91121340Y-78610288D01*
X91465776Y-79355465D01*
X90332953Y-81021786D01*
X89200131Y-82688106D01*
X90654596Y-84144999D01*
X91094504Y-84578603D01*
X91495736Y-84960828D01*
X91835756Y-85271271D01*
X92092030Y-85489527D01*
X92242022Y-85595189D01*
X92263539Y-85601893D01*
X92389866Y-85549098D01*
X92647641Y-85402320D01*
X93008703Y-85178967D01*
X93444893Y-84896448D01*
X93916493Y-84580054D01*
X94395129Y-84257327D01*
X94821882Y-83976504D01*
X95169650Y-83754861D01*
X95411333Y-83609675D01*
X95519474Y-83558215D01*
X95651413Y-83601759D01*
X95901604Y-83716501D01*
X96218441Y-83878600D01*
X96252027Y-83896617D01*
X96678696Y-84110600D01*
X96971273Y-84215543D01*
X97153240Y-84216659D01*
X97248082Y-84119159D01*
X97248634Y-84117793D01*
X97296041Y-84002327D01*
X97409103Y-83728229D01*
X97579053Y-83316713D01*
X97797125Y-82788995D01*
X98054553Y-82166288D01*
X98342570Y-81469807D01*
X98621498Y-80795487D01*
X98928041Y-80051332D01*
X99209499Y-79361973D01*
X99457437Y-78748541D01*
X99663419Y-78232169D01*
X99819009Y-77833988D01*
X99915773Y-77575130D01*
X99945593Y-77478521D01*
X99870812Y-77367700D01*
X99675205Y-77191076D01*
X99414371Y-76996347D01*
X98671555Y-76380506D01*
X98090941Y-75674608D01*
X97679488Y-74893521D01*
X97444154Y-74052114D01*
X97391898Y-73165257D01*
X97429880Y-72755916D01*
X97636834Y-71906645D01*
X97993255Y-71156671D01*
X98477037Y-70513391D01*
X99066074Y-69984202D01*
X99738259Y-69576500D01*
X100471485Y-69297683D01*
X101243647Y-69155147D01*
X102032638Y-69156290D01*
X102816351Y-69308508D01*
X103572681Y-69619198D01*
X104279520Y-70095757D01*
X104574546Y-70365278D01*
X105140369Y-71057358D01*
X105534337Y-71813651D01*
X105759073Y-72612110D01*
X105817199Y-73430690D01*
X105711339Y-74247344D01*
X105444115Y-75040026D01*
X105018150Y-75786690D01*
X104436068Y-76465289D01*
X103785628Y-76996347D01*
X103514696Y-77199342D01*
X103323302Y-77374049D01*
X103254406Y-77478686D01*
X103290480Y-77592796D01*
X103393076Y-77865395D01*
X103553753Y-78275355D01*
X103764072Y-78801544D01*
X104015592Y-79422831D01*
X104299874Y-80118086D01*
X104579271Y-80795652D01*
X104887518Y-81540443D01*
X105173036Y-82230614D01*
X105427059Y-82844954D01*
X105640823Y-83362250D01*
X105805560Y-83761293D01*
X105912507Y-84020869D01*
X105952135Y-84117793D01*
X106045753Y-84216258D01*
X106226835Y-84215970D01*
X106518685Y-84111753D01*
X106944604Y-83898431D01*
X106947972Y-83896617D01*
X107268660Y-83731071D01*
X107527896Y-83610483D01*
X107674075Y-83558692D01*
X107680526Y-83558215D01*
X107790569Y-83610748D01*
X108033514Y-83756832D01*
X108382258Y-83979190D01*
X108809701Y-84260546D01*
X109283506Y-84580054D01*
X109765890Y-84903558D01*
X110200652Y-85184899D01*
X110559633Y-85406669D01*
X110814672Y-85551460D01*
X110936460Y-85601893D01*
X111048606Y-85535606D01*
X111274081Y-85350345D01*
X111590355Y-85066513D01*
X111974899Y-84704510D01*
X112405183Y-84284738D01*
X112545904Y-84144498D01*
X114000868Y-82687104D01*
X112893410Y-81061800D01*
X112556846Y-80562683D01*
X112261459Y-80114732D01*
X112023820Y-79743897D01*
X111860501Y-79476130D01*
X111788072Y-79337380D01*
X111785951Y-79327509D01*
X111824135Y-79196728D01*
X111926836Y-78933650D01*
X112076281Y-78582362D01*
X112181177Y-78347181D01*
X112377308Y-77896921D01*
X112562014Y-77442029D01*
X112705213Y-77057677D01*
X112744112Y-76940590D01*
X112854629Y-76627912D01*
X112962663Y-76386315D01*
X113022002Y-76295004D01*
X113152952Y-76239121D01*
X113438753Y-76159902D01*
X113842323Y-76066323D01*
X114326577Y-75967365D01*
X114543295Y-75926688D01*
X115093622Y-75825562D01*
X115621492Y-75727643D01*
X116075319Y-75642562D01*
X116403522Y-75579949D01*
X116465325Y-75567865D01*
X116976245Y-75467021D01*
X116976245Y-73339482D01*
X116975097Y-72639899D01*
X116970387Y-72110600D01*
X116960215Y-71727244D01*
X116942678Y-71465487D01*
X116915876Y-71300986D01*
X116877909Y-71209396D01*
X116826876Y-71166376D01*
X116805938Y-71158402D01*
X116679652Y-71130111D01*
X116400651Y-71073667D01*
X116004778Y-70995885D01*
X115527871Y-70903583D01*
X115005773Y-70803576D01*
X114474323Y-70702682D01*
X113969362Y-70607716D01*
X113526730Y-70525495D01*
X113182268Y-70462837D01*
X112971817Y-70426556D01*
X112924990Y-70420284D01*
X112882568Y-70336345D01*
X112788665Y-70112739D01*
X112660839Y-69791775D01*
X112612029Y-69666069D01*
X112415161Y-69180405D01*
X112183333Y-68643835D01*
X111975706Y-68191638D01*
X111822931Y-67845870D01*
X111721289Y-67561753D01*
X111687359Y-67387755D01*
X111692768Y-67364435D01*
X111764478Y-67254339D01*
X111928217Y-67009477D01*
X112166411Y-66655924D01*
X112461484Y-66219753D01*
X112795862Y-65727040D01*
X112861981Y-65629782D01*
X113249960Y-65053545D01*
X113535158Y-64614753D01*
X113728946Y-64293203D01*
X113842693Y-64068692D01*
X113887769Y-63921019D01*
X113875545Y-63829979D01*
X113875233Y-63829399D01*
X113779023Y-63709820D01*
X113566223Y-63478638D01*
X113259897Y-63159818D01*
X112883111Y-62777329D01*
X112458931Y-62355136D01*
X112411094Y-62308015D01*
X111876524Y-61790344D01*
X111463984Y-61410233D01*
X111165184Y-61160674D01*
X110971840Y-61034654D01*
X110886679Y-61018389D01*
X110762393Y-61089344D01*
X110504475Y-61253245D01*
X110139556Y-61492583D01*
X109694266Y-61789851D01*
X109195233Y-62127543D01*
X109078728Y-62206990D01*
X107424633Y-63336551D01*
X106677642Y-62997520D01*
X106223368Y-62799942D01*
X105735745Y-62601234D01*
X105316551Y-62442802D01*
X105298084Y-62436283D01*
X104970190Y-62316257D01*
X104717430Y-62214764D01*
X104594274Y-62153682D01*
X104594065Y-62153506D01*
X104554987Y-62043096D01*
X104488558Y-61771558D01*
X104401375Y-61369417D01*
X104300032Y-60867198D01*
X104191123Y-60295426D01*
X104182213Y-60247223D01*
X104072965Y-59658118D01*
X103972672Y-59123368D01*
X103887797Y-58676959D01*
X103824804Y-58352877D01*
X103790155Y-58185106D01*
X103789550Y-58182544D01*
X103768464Y-58111176D01*
X103727463Y-58057292D01*
X103641979Y-58018435D01*
X103487449Y-57992149D01*
X103239305Y-57975978D01*
X102872982Y-57967463D01*
X102363916Y-57964149D01*
X101687539Y-57963579D01*
X101600000Y-57963579D01*
X100903287Y-57963994D01*
G37*
X100903287Y-57963994D02*
X100376646Y-57966877D01*
X99995509Y-57974684D01*
X99735311Y-57989873D01*
X99571486Y-58014900D01*
X99479469Y-58052222D01*
X99434695Y-58104295D01*
X99412596Y-58173576D01*
X99410449Y-58182544D01*
X99376882Y-58344377D01*
X99314750Y-58663683D01*
X99230516Y-59106475D01*
X99130643Y-59638769D01*
X99021595Y-60226579D01*
X99017786Y-60247223D01*
X98908555Y-60823272D01*
X98806357Y-61332230D01*
X98717788Y-61743570D01*
X98649442Y-62026769D01*
X98607915Y-62151300D01*
X98605934Y-62153506D01*
X98483603Y-62214318D01*
X98231381Y-62315656D01*
X97903739Y-62435643D01*
X97901915Y-62436283D01*
X97489224Y-62591407D01*
X97002681Y-62789013D01*
X96544062Y-62987696D01*
X96522357Y-62997520D01*
X95775366Y-63336551D01*
X94121271Y-62206990D01*
X93613847Y-61862640D01*
X93154197Y-61554790D01*
X92768950Y-61300947D01*
X92484737Y-61118617D01*
X92328186Y-61025309D01*
X92313320Y-61018389D01*
X92199552Y-61049199D01*
X91987062Y-61197853D01*
X91667563Y-61471362D01*
X91232768Y-61876736D01*
X90788905Y-62308015D01*
X90361019Y-62733006D01*
X89978063Y-63120820D01*
X89663091Y-63447508D01*
X89439157Y-63689122D01*
X89329314Y-63821710D01*
X89325228Y-63828536D01*
X89313085Y-63919522D01*
X89358832Y-64068112D01*
X89473770Y-64294372D01*
X89669202Y-64618370D01*
X89956432Y-65060171D01*
X90339335Y-65628919D01*
X90679154Y-66129517D01*
X90982924Y-66578499D01*
X91233091Y-66949799D01*
X91412102Y-67217349D01*
X91502401Y-67355084D01*
X91508085Y-67364435D01*
X91497060Y-67496402D01*
X91413490Y-67752896D01*
X91274006Y-68085439D01*
X91224293Y-68191638D01*
X91007379Y-68664753D01*
X90775960Y-69201578D01*
X90587970Y-69666069D01*
X90452511Y-70010813D01*
X90344914Y-70272805D01*
X90282739Y-70409733D01*
X90275009Y-70420284D01*
X90160658Y-70437760D01*
X89891104Y-70485646D01*
X89502188Y-70557123D01*
X89029751Y-70645377D01*
X88509633Y-70743589D01*
X87977674Y-70844944D01*
X87469715Y-70942626D01*
X87021598Y-71029817D01*
X86669161Y-71099702D01*
X86448246Y-71145463D01*
X86394061Y-71158402D01*
X86338089Y-71190334D01*
X86295838Y-71262454D01*
X86265407Y-71399104D01*
X86244895Y-71624629D01*
X86232401Y-71963372D01*
X86226025Y-72439676D01*
X86223866Y-73077884D01*
X86223754Y-73339482D01*
X86223754Y-75467021D01*
X86734674Y-75567865D01*
X87018926Y-75622546D01*
X87443101Y-75702364D01*
X87955615Y-75797689D01*
X88504885Y-75898891D01*
X88656705Y-75926688D01*
X89163559Y-76025234D01*
X89605107Y-76122140D01*
X89944287Y-76208429D01*
X90144041Y-76275125D01*
X90177315Y-76295004D01*
X90259023Y-76435781D01*
X90376174Y-76708565D01*
X90506090Y-77059610D01*
X90531859Y-77135226D01*
X90702133Y-77604059D01*
X90913488Y-78133048D01*
X91120320Y-78608082D01*
X91121340Y-78610288D01*
X91465776Y-79355465D01*
X90332953Y-81021786D01*
X89200131Y-82688106D01*
X90654596Y-84144999D01*
X91094504Y-84578603D01*
X91495736Y-84960828D01*
X91835756Y-85271271D01*
X92092030Y-85489527D01*
X92242022Y-85595189D01*
X92263539Y-85601893D01*
X92389866Y-85549098D01*
X92647641Y-85402320D01*
X93008703Y-85178967D01*
X93444893Y-84896448D01*
X93916493Y-84580054D01*
X94395129Y-84257327D01*
X94821882Y-83976504D01*
X95169650Y-83754861D01*
X95411333Y-83609675D01*
X95519474Y-83558215D01*
X95651413Y-83601759D01*
X95901604Y-83716501D01*
X96218441Y-83878600D01*
X96252027Y-83896617D01*
X96678696Y-84110600D01*
X96971273Y-84215543D01*
X97153240Y-84216659D01*
X97248082Y-84119159D01*
X97248634Y-84117793D01*
X97296041Y-84002327D01*
X97409103Y-83728229D01*
X97579053Y-83316713D01*
X97797125Y-82788995D01*
X98054553Y-82166288D01*
X98342570Y-81469807D01*
X98621498Y-80795487D01*
X98928041Y-80051332D01*
X99209499Y-79361973D01*
X99457437Y-78748541D01*
X99663419Y-78232169D01*
X99819009Y-77833988D01*
X99915773Y-77575130D01*
X99945593Y-77478521D01*
X99870812Y-77367700D01*
X99675205Y-77191076D01*
X99414371Y-76996347D01*
X98671555Y-76380506D01*
X98090941Y-75674608D01*
X97679488Y-74893521D01*
X97444154Y-74052114D01*
X97391898Y-73165257D01*
X97429880Y-72755916D01*
X97636834Y-71906645D01*
X97993255Y-71156671D01*
X98477037Y-70513391D01*
X99066074Y-69984202D01*
X99738259Y-69576500D01*
X100471485Y-69297683D01*
X101243647Y-69155147D01*
X102032638Y-69156290D01*
X102816351Y-69308508D01*
X103572681Y-69619198D01*
X104279520Y-70095757D01*
X104574546Y-70365278D01*
X105140369Y-71057358D01*
X105534337Y-71813651D01*
X105759073Y-72612110D01*
X105817199Y-73430690D01*
X105711339Y-74247344D01*
X105444115Y-75040026D01*
X105018150Y-75786690D01*
X104436068Y-76465289D01*
X103785628Y-76996347D01*
X103514696Y-77199342D01*
X103323302Y-77374049D01*
X103254406Y-77478686D01*
X103290480Y-77592796D01*
X103393076Y-77865395D01*
X103553753Y-78275355D01*
X103764072Y-78801544D01*
X104015592Y-79422831D01*
X104299874Y-80118086D01*
X104579271Y-80795652D01*
X104887518Y-81540443D01*
X105173036Y-82230614D01*
X105427059Y-82844954D01*
X105640823Y-83362250D01*
X105805560Y-83761293D01*
X105912507Y-84020869D01*
X105952135Y-84117793D01*
X106045753Y-84216258D01*
X106226835Y-84215970D01*
X106518685Y-84111753D01*
X106944604Y-83898431D01*
X106947972Y-83896617D01*
X107268660Y-83731071D01*
X107527896Y-83610483D01*
X107674075Y-83558692D01*
X107680526Y-83558215D01*
X107790569Y-83610748D01*
X108033514Y-83756832D01*
X108382258Y-83979190D01*
X108809701Y-84260546D01*
X109283506Y-84580054D01*
X109765890Y-84903558D01*
X110200652Y-85184899D01*
X110559633Y-85406669D01*
X110814672Y-85551460D01*
X110936460Y-85601893D01*
X111048606Y-85535606D01*
X111274081Y-85350345D01*
X111590355Y-85066513D01*
X111974899Y-84704510D01*
X112405183Y-84284738D01*
X112545904Y-84144498D01*
X114000868Y-82687104D01*
X112893410Y-81061800D01*
X112556846Y-80562683D01*
X112261459Y-80114732D01*
X112023820Y-79743897D01*
X111860501Y-79476130D01*
X111788072Y-79337380D01*
X111785951Y-79327509D01*
X111824135Y-79196728D01*
X111926836Y-78933650D01*
X112076281Y-78582362D01*
X112181177Y-78347181D01*
X112377308Y-77896921D01*
X112562014Y-77442029D01*
X112705213Y-77057677D01*
X112744112Y-76940590D01*
X112854629Y-76627912D01*
X112962663Y-76386315D01*
X113022002Y-76295004D01*
X113152952Y-76239121D01*
X113438753Y-76159902D01*
X113842323Y-76066323D01*
X114326577Y-75967365D01*
X114543295Y-75926688D01*
X115093622Y-75825562D01*
X115621492Y-75727643D01*
X116075319Y-75642562D01*
X116403522Y-75579949D01*
X116465325Y-75567865D01*
X116976245Y-75467021D01*
X116976245Y-73339482D01*
X116975097Y-72639899D01*
X116970387Y-72110600D01*
X116960215Y-71727244D01*
X116942678Y-71465487D01*
X116915876Y-71300986D01*
X116877909Y-71209396D01*
X116826876Y-71166376D01*
X116805938Y-71158402D01*
X116679652Y-71130111D01*
X116400651Y-71073667D01*
X116004778Y-70995885D01*
X115527871Y-70903583D01*
X115005773Y-70803576D01*
X114474323Y-70702682D01*
X113969362Y-70607716D01*
X113526730Y-70525495D01*
X113182268Y-70462837D01*
X112971817Y-70426556D01*
X112924990Y-70420284D01*
X112882568Y-70336345D01*
X112788665Y-70112739D01*
X112660839Y-69791775D01*
X112612029Y-69666069D01*
X112415161Y-69180405D01*
X112183333Y-68643835D01*
X111975706Y-68191638D01*
X111822931Y-67845870D01*
X111721289Y-67561753D01*
X111687359Y-67387755D01*
X111692768Y-67364435D01*
X111764478Y-67254339D01*
X111928217Y-67009477D01*
X112166411Y-66655924D01*
X112461484Y-66219753D01*
X112795862Y-65727040D01*
X112861981Y-65629782D01*
X113249960Y-65053545D01*
X113535158Y-64614753D01*
X113728946Y-64293203D01*
X113842693Y-64068692D01*
X113887769Y-63921019D01*
X113875545Y-63829979D01*
X113875233Y-63829399D01*
X113779023Y-63709820D01*
X113566223Y-63478638D01*
X113259897Y-63159818D01*
X112883111Y-62777329D01*
X112458931Y-62355136D01*
X112411094Y-62308015D01*
X111876524Y-61790344D01*
X111463984Y-61410233D01*
X111165184Y-61160674D01*
X110971840Y-61034654D01*
X110886679Y-61018389D01*
X110762393Y-61089344D01*
X110504475Y-61253245D01*
X110139556Y-61492583D01*
X109694266Y-61789851D01*
X109195233Y-62127543D01*
X109078728Y-62206990D01*
X107424633Y-63336551D01*
X106677642Y-62997520D01*
X106223368Y-62799942D01*
X105735745Y-62601234D01*
X105316551Y-62442802D01*
X105298084Y-62436283D01*
X104970190Y-62316257D01*
X104717430Y-62214764D01*
X104594274Y-62153682D01*
X104594065Y-62153506D01*
X104554987Y-62043096D01*
X104488558Y-61771558D01*
X104401375Y-61369417D01*
X104300032Y-60867198D01*
X104191123Y-60295426D01*
X104182213Y-60247223D01*
X104072965Y-59658118D01*
X103972672Y-59123368D01*
X103887797Y-58676959D01*
X103824804Y-58352877D01*
X103790155Y-58185106D01*
X103789550Y-58182544D01*
X103768464Y-58111176D01*
X103727463Y-58057292D01*
X103641979Y-58018435D01*
X103487449Y-57992149D01*
X103239305Y-57975978D01*
X102872982Y-57967463D01*
X102363916Y-57964149D01*
X101687539Y-57963579D01*
X101600000Y-57963579D01*
X100903287Y-57963994D01*
%TD*%
M02*
